<?xml version="1.0" encoding="UTF-8"?><svg xmlns="http://www.w3.org/2000/svg" viewBox="0 0 6640.09 907.87"><defs><style>.f{fill:#b4bcde;}.g{fill:#976c2f;opacity:.4;}.g,.h,.i{mix-blend-mode:multiply;}.j,.k{fill:#fff;}.l{fill:#e3bc80;}.m{fill:#00adea;}.n{fill:#cc6e81;}.o{fill:#f5e7d3;}.p{fill:#339d74;}.q{fill:#a57645;}.h{fill:#424654;}.h,.k{opacity:.5;}.r{fill:#d6c283;}.s{fill:#62677c;}.t{isolation:isolate;}.u{fill:#c4c9e5;}.v{fill:#404451;opacity:.2;}.w{fill:#683c11;}.x{fill:#a77734;}.y{fill:#cc9f70;}.a`{fill:#f6f09a;}.i{opacity:.3;}.aa{fill:#bf8850;}.ab{fill:#ead8c6;}.ac{fill:#ffd002;}.ad{fill:#747b93;}.ae{fill:#a45968;}.af{fill:#93692d;}.ag{fill:#8d96b3;}.ah{fill:#7d5b26;}.ai{fill:#ae7ab4;}.aj{fill:#7fba27;}.ak{fill:#bf873c;}.al{fill:#cfd4eb;}</style></defs><g class="t"><g id="a"/><g id="b"><g><path class="ac" d="M3395.74,455.27c0-41.23-98.37-74.65-219.71-74.65-44.59,0-86.07,4.52-120.71,12.27-16-39.21-54.29-66.81-98.99-66.81-18.39,0-35.69,4.67-50.81,12.9-20.71-56.7-82.57-97.85-155.68-97.85-78.66,0-144.3,47.64-159.66,111.03-17.64-11.05-38.44-17.44-60.71-17.44-8.81,0-17.38,1-25.62,2.89-5.38-54.81-54.71-97.74-114.77-97.74-8.91,0-17.59,.95-25.92,2.74,5.01-16.4,7.7-33.7,7.7-51.56,0-105.51-93.45-191.04-208.72-191.04-106.42,0-194.23,72.89-207.09,167.1-13.19-4.95-27.37-7.65-42.13-7.65-66.73,0-121.5,54.96-127.22,125.03-.17,0-.34,0-.5,0-40.26,0-76.26,15.51-100.26,39.89-18.91-18.34-46.69-29.92-77.65-29.92-56.99,0-103.2,39.23-103.2,87.63,0,2.45,.12,4.88,.36,7.28-13.71-.98-27.93-1.5-42.52-1.5-111.54,0-201.95,30.18-201.95,67.42H3395.74Z"/><path class="ac" d="M178.98,818.94c21.23,0,41.6,1.84,60.5,5.21,1.68-69.74,54.08-125.71,118.48-125.71,13.98,0,27.4,2.65,39.86,7.49,4.52-118.84,102.36-213.81,222.42-213.81s222.6,99.58,222.6,222.41c0,1.22-.03,2.44-.05,3.66,10.12-2.38,20.7-3.66,31.58-3.66,31.66,0,60.72,10.7,83.5,28.54,9.03-58.13,66.68-102.97,136.46-102.97,76.05,0,137.7,53.24,137.7,118.92,0,10.84-1.69,21.33-4.83,31.31,15.29-7.94,33.95-12.61,54.11-12.61,51.8,0,93.79,30.83,93.79,68.85,0,4.26-.53,8.43-1.54,12.47,29.73-7.83,66.82-12.47,107.05-12.47,97.78,0,177.04,27.44,177.04,61.29H0c0-49.11,80.13-88.93,178.98-88.93Z"/></g></g><g id="c"/><g id="d"/><g id="e"><g><g><g><g><g><path class="ad" d="M5880.36,461.75h-472.51s0,52.1,136.57,91.62l409.7-57.84-73.76-33.78Z"/><path class="s" d="M5453.19,461.75h-45.33s0,52.1,136.57,91.62l12.35-1.74c-68.86-32.13-94.23-67.88-103.58-89.88Z"/></g><path class="s" d="M6158.56,426.69c3.21-23.74-5.49-45.93-21.18-59.55h-.02s-.04-.05-.06-.06l-223.5-197.27s-77.54,211.09,29.08,300.69c48.42,40.69,147.9,18.1,166.38,13.44,24.93-5.82,45.38-28.3,49.3-57.24Z"/></g><g><g><g><g><path class="n" d="M6249.96,411.25s194.06-6.6,225.06-34.28h-225.06v34.28Z"/><path class="ae" d="M6449.5,388.58c11.64-3.38,20.62-7.23,25.52-11.6h-225.06v11.6h199.54Z"/></g><g><polygon class="a`" points="6341.87 434.1 6521.04 578.02 6640.09 367.22 6541.9 275.79 6341.87 434.1"/><g><polygon class="r" points="6512.36 571.04 6521.04 578.02 6640.09 367.22 6633.68 361.26 6530.78 391.86 6512.36 571.04"/><polygon class="a`" points="6521.04 578.02 6640.09 367.22 6531.79 391.24 6521.04 578.02"/></g><g><polygon class="r" points="6545.37 279.03 6541.9 275.79 6341.87 434.1 6352.03 442.26 6565.14 418.3 6545.37 279.03"/><polygon class="a`" points="6541.9 275.79 6341.87 434.1 6557.18 411.21 6541.9 275.79"/></g></g><path class="n" d="M6277,334.62s194.07,9.29,225.06,48.25h-225.06v-48.25Z"/></g><g><path class="l" d="M6424.51,348.45c-1.77,14.26-40.65,22.71-86.84,18.87-46.19-3.84-82.21-18.52-80.44-32.78,1.77-14.26,40.65-22.71,86.84-18.87,46.19,3.84,82.21,18.51,80.44,32.78Z"/><path class="o" d="M6344.07,315.67c-40.71-3.39-75.73,2.77-84.69,14.04,15.79-5.85,42.24-8.39,71.66-5.94,46.19,3.84,82.21,18.51,80.44,32.78-.21,1.69-.95,3.31-2.16,4.82,9-3.34,14.54-7.75,15.19-12.93,1.77-14.26-34.25-28.94-80.44-32.78Z"/></g></g><g><path class="ag" d="M6370.83,343.74c0-55.98-57.29-101.36-127.96-101.36-43.63,0-82.15,17.3-105.25,43.71-.06,.07-.13,.14-.19,.21-36.25,41.03-26.62,58.07-95.58,58.07h-.05c-35.52-2.69-69.43,3.53-97.57,16.89h0l-172.37,69.55c-6.23,1.85-12.15,4.21-17.68,7.04h0l-57,23.91s.08,.25,.24,.72c4.27,13.13,9.75,25.03,16.12,35.79,28.16,51.93,96.67,140.91,235.61,140.91,1.67,0,3.33-.01,4.98-.03h0c116.01,0,261.03-21.32,399.03-243.96h0c11.23-15.08,17.68-32.66,17.68-51.43Z"/><g><g><path class="ai" d="M6293.76,478.69l-118.05-79.34-67.6-75.04c-10.07,11.93-21.13,18.18-50.46,19.69,15.08,18.28,36.46,50.2,51.23,97.4,17.09,54.6,19.74,126.57,19.69,166.92,53.84-22.89,109.66-62.3,165.19-129.62Z"/><path class="p" d="M6272.62,422.39c-69.8,0-126.38-46-126.38-102.74,0-21.75,8.32-41.92,22.51-58.52-12.11,6.83-22.65,15.28-31.12,24.96-.06,.07-.13,.14-.19,.21-15.52,17.56-22.63,30.73-31.1,40.05,13.82,27.32,37.16,70.08,56.51,88.93,36.99,36.02,82,62.1,117.53,79.11,23.06-26.11,46.09-56.86,68.95-93.09-21.27,13.23-47.86,21.09-76.71,21.09Z"/></g><g><path class="f" d="M6360.47,344.66c0-29.78-32.87-53.93-73.41-53.93s-73.41,24.14-73.41,53.93,32.87,53.93,73.41,53.93,73.41-24.14,73.41-53.93Z"/><path class="s" d="M6317.65,350.31c-14.51,0-26.66-8.95-29.79-20.95-.51,1.81-.79,3.7-.79,5.64,0,13.79,13.69,24.96,30.59,24.96s30.59-11.17,30.59-24.96c0-1.94-.28-3.83-.79-5.64-3.14,12-15.28,20.95-29.79,20.95Z"/></g></g><path class="v" d="M5952.79,595.79h0c-1.83,.02-3.66,.04-5.51,.04-135.74,0-210.71-72.85-247.83-127.42,3.92,10.81,8.68,20.74,14.08,29.86,28.16,51.93,96.67,140.91,235.61,140.91,1.67,0,3.33-.01,4.98-.03h0c114.1,0,256.27-20.63,392.21-233.13-137.83,171.81-278.57,189.78-393.54,189.78Z"/></g></g><g><path class="v" d="M6011.62,636.79l22.17-75.15-.1-.03c71.06-58.91,68.17-141.1,68.17-141.1l-17.29-12.3s3.07,87.32-74.92,146.45l-166.95-48.24c53.77-48,61.56-109.11,62.63-129.49l-19.63,7.92c-5.11,29.35-20.5,76.96-66.67,114.73l-9.75-2.82-35.5,78.25c39.03,34.81,95.59,64.15,175.36,64.15,1.67,0,3.33-.01,4.98-.03h0c18.48,0,37.69-.54,57.5-2.35Z"/><g><path class="aa" d="M6072.66,410.78s3.32,94.35-84.54,153.32l17.29,12.3c87.86-58.97,84.54-153.32,84.54-153.32l-17.29-12.3Z"/><path class="aa" d="M5876.28,360.24s3.32,94.35-84.54,153.32l17.29,12.3c87.86-58.97,84.54-153.32,84.54-153.32l-17.29-12.3Z"/><g><polygon class="q" points="5944.16 746.51 5971.23 735.9 6021.88 564.21 5797.37 499.34 5944.16 746.51"/><polygon class="aa" points="5797.37 499.34 6015.67 571.32 5944.16 746.51 5730.34 647.1 5797.37 499.34"/><polygon class="y" points="6021.88 564.21 5961.72 633.21 5786.97 560.86 5797.37 499.34 6021.88 564.21"/><path class="ab" d="M5805.48,582.39c-1.43,3.47-5.56,5.19-9.22,3.83h0c-3.66-1.36-5.47-5.27-4.04-8.74l11.26-27.32c1.43-3.47,5.56-5.18,9.22-3.83h0c3.66,1.36,5.47,5.27,4.04,8.74l-11.26,27.32Z"/><path class="ab" d="M5950.42,639.04c-1.43,3.47-5.56,5.18-9.22,3.83h0c-3.66-1.36-5.47-5.27-4.04-8.74l11.26-27.32c1.43-3.47,5.56-5.18,9.22-3.83h0c3.66,1.35,5.47,5.27,4.04,8.74l-11.26,27.32Z"/></g></g></g><g><path class="f" d="M6118.2,417.13c3.21-23.74-12.5-46.79-38.68-61.68h0l-.03-.02s-.06-.04-.1-.06l-373.32-215.5s-106.87,207.53,70.86,305.77c80.71,44.62,237.93,29.05,267.09,25.69,39.39-4.06,70.26-25.27,74.18-54.22Z"/><g><path class="u" d="M6106.3,377.95c-6.67-8.56-15.8-16.25-26.79-22.49l-.03-.02s-.06-.04-.1-.06l-74.49-43,101.4,65.56Z"/><path class="al" d="M5746.73,163.36l-40.66-23.47s-94.44,183.42,41.92,287.02c-57.43-96.76-17.38-221.98-1.27-263.55Z"/></g><path class="ad" d="M6079.52,355.46l-.03-.02s-.06-.04-.1-.06l-373.32-215.5s-1.73,3.36-4.38,9.43l315.75,228.61s.06,.04,.09,.06l.03,.02c24.57,17.54,37.85,42.73,32.19,67.16-2.43,10.48-8.09,19.7-16.13,27.29,4.35-.43,7.86-.82,10.4-1.11,39.39-4.06,70.26-25.27,74.18-54.22,3.21-23.74-12.5-46.79-38.68-61.68Z"/></g><g><g class="i"><g><path class="h" d="M6130.98,336.43c-6.2,42.41,5.06,76.47,23.49,109.51,2.7,4.84,11.53,5.97,21.17,4.55-9.84-9.47-30.09-39.25-31.36-124.59l-24.97-16.59c-2.87,4-5.43,7.63-7.93,10.91,.06,.04,.12,.09,.18,.13l.02,.02c.88,.63,1.76,1.25,2.64,1.87,.21,.14,.41,.29,.62,.43,.88,.6,1.76,1.2,2.64,1.78h0c4.62,3.07,9.32,5.86,14.04,8.42h0c-.2,1.19-.38,2.38-.55,3.56Z"/><path class="h" d="M6357.36,298.43c-2.09-3.3-4.39-6.5-6.9-9.58-21.47,9.22-61.94,22.52-124.02,27.21,0,0-7.65,18.45,8.16,28.97,1.61-3.81,3.03-6.97,3.85-8.41,5.14-9.01,8.97-11.22,18.69-12.73,56.25-8.71,88.5-20.55,100.23-25.47Z"/></g></g><g><g><path class="af" d="M6234.08,349.78s-17.61,18.46-25.18,82.38c-1.85,15.64-43.6,25.41-49.69,13.38-17.36-34.3-27.49-69.52-19.65-113.46,1.13-6.33,9.15-42.15,44.98-41.36,35.83,.79,49.54,59.05,49.54,59.05Z"/><path class="ah" d="M6184.54,290.73c-35.83-.79-43.85,35.03-44.98,41.36-.42,2.34-.77,4.65-1.09,6.94,32.87,19.87,67.38,26.36,83.37,27.98,.77,.08,1.59,.13,2.42,.15,5.38-12.72,9.82-17.38,9.82-17.38,0,0-13.71-58.26-49.54-59.05Z"/></g><g><path class="x" d="M6115.42,314.74s30.78-95.37,128.39-95.37c77.75,0,110.49,74.49,110.49,74.49,0,0-20.46,13.72-89.81,23.22-9.27,1.27-12.96,3.39-18.08,12.27-1.9,3.3-7.04,15.73-10.5,24.19-2.41,5.91-9.08,6.37-14.07,5.87-19.82-2.01-68.09-11.49-106.43-44.67Z"/><path class="ak" d="M6254.39,229.16c31.49,0,55.59,12.22,73.12,26.76-17.92-18.39-45.33-36.55-83.71-36.55-97.6,0-128.39,95.37-128.39,95.37,3.58,3.1,7.25,5.99,10.97,8.69,3.79-10.6,36.58-94.27,128-94.27Z"/></g><g><path class="w" d="M6269.5,264.2c-77.03,19.83-136.79,16.65-136.79,16.65,0,0-16.45,2.35-12.26,21.69,0,0,80.72,16.71,170.14-12.57,0,0,7.32-10.33,2.73-17.69-4.59-7.36-11.21-11.33-23.83-8.08Z"/><path class="g" d="M6289.95,229.16c-23.65,3.65-41.34,18.3-41.34,35.82,0,20.26,23.66,36.69,52.84,36.69,20.15,0,37.66-7.83,46.57-19.35-8.94-14.59-27.71-39.46-58.07-53.17Z"/><g><path class="w" d="M6354.29,261.13c0-18.87-22.66-34.16-50.61-34.16s-50.61,15.29-50.61,34.16,22.66,34.16,50.61,34.16,50.61-15.29,50.61-34.16Z"/><g><path class="m" d="M6341.87,261.13c0-14.23-17.09-25.77-38.18-25.77s-38.18,11.54-38.18,25.77,17.09,25.77,38.18,25.77,38.18-11.54,38.18-25.77Z"/><path class="k" d="M6317.46,237.09l-46.51,37.29c1.08,1.21,2.3,2.35,3.65,3.42l47.79-39.14c-1.58-.6-3.22-1.12-4.93-1.57Z"/><path class="k" d="M6291.87,285.63l44.82-37.46c-2.59-3-6.05-5.63-10.16-7.7l-48.05,40c3.85,2.29,8.39,4.06,13.39,5.16Z"/></g></g></g></g></g></g><g><g><path class="s" d="M5432.29,470.46c0,4.81-4.11,8.71-9.18,8.71h-76.62c-5.07,0-9.18-3.9-9.18-8.71h0c0-4.81,4.11-8.71,9.18-8.71h76.62c5.07,0,9.18,3.9,9.18,8.71h0Z"/><path class="s" d="M5257.12,470.46c0,4.81,4.11,8.71,9.18,8.71h39.3c5.07,0,9.18-3.9,9.18-8.71h0c0-4.81-4.11-8.71-9.18-8.71h-39.3c-5.07,0-9.18,3.9-9.18,8.71h0Z"/></g><g><path class="ad" d="M5402.53,527.65c0,4.81,4.11,8.71,9.18,8.71h123.1c5.07,0,9.18-3.9,9.18-8.71h0c0-4.81-4.11-8.71-9.18-8.71h-123.1c-5.07,0-9.18,3.9-9.18,8.71h0Z"/><path class="ad" d="M5130.62,527.65c0,4.81,4.11,8.71,9.18,8.71h136.18c5.07,0,9.18-3.9,9.18-8.71h0c0-4.81-4.11-8.71-9.18-8.71h-136.18c-5.07,0-9.18,3.9-9.18,8.71h0Z"/><path class="ad" d="M5378.17,527.65c0,4.81-4.11,8.71-9.18,8.71h-51.56c-5.07,0-9.18-3.9-9.18-8.71h0c0-4.81,4.11-8.71,9.18-8.71h51.56c5.07,0,9.18,3.9,9.18,8.71h0Z"/></g><g><path class="aa" d="M5585.36,643.15c0,4.81,4.11,8.71,9.18,8.71h171.6c5.07,0,9.18-3.9,9.18-8.71h0c0-4.81-4.11-8.71-9.18-8.71h-171.6c-5.07,0-9.18,3.9-9.18,8.71h0Z"/><path class="aa" d="M5480.02,643.15c0,4.81,4.11,8.71,9.18,8.71h49.97c5.07,0,9.18-3.9,9.18-8.71h0c0-4.81-4.11-8.71-9.18-8.71h-49.97c-5.07,0-9.18,3.9-9.18,8.71h0Z"/></g><g><path class="q" d="M5972.43,712.58c0,4.81-4.11,8.71-9.18,8.71h-133.7c-5.07,0-9.18-3.9-9.18-8.71h0c0-4.81,4.11-8.71,9.18-8.71h133.7c5.07,0,9.18,3.9,9.18,8.71h0Z"/><path class="q" d="M5594.87,712.58c0,4.81,4.11,8.71,9.18,8.71h83.4c5.07,0,9.18-3.9,9.18-8.71h0c0-4.81-4.11-8.71-9.18-8.71h-83.4c-5.07,0-9.18,3.9-9.18,8.71h0Z"/><path class="q" d="M5794.41,712.58c0,4.81-4.11,8.71-9.18,8.71h-51.79c-5.07,0-9.18-3.9-9.18-8.71h0c0-4.81,4.11-8.71,9.18-8.71h51.79c5.07,0,9.18,3.9,9.18,8.71h0Z"/></g><g><path class="al" d="M5713.72,178.51c0,4.81-4.11,8.71-9.18,8.71h-52.53c-5.07,0-9.18-3.9-9.18-8.71h0c0-4.81,4.11-8.71,9.18-8.71h52.53c5.07,0,9.18,3.9,9.18,8.71h0Z"/><path class="al" d="M5524.07,178.51c0,4.81,4.11,8.71,9.18,8.71h70.2c5.07,0,9.18-3.9,9.18-8.71h0c0-4.81-4.11-8.71-9.18-8.71h-70.2c-5.07,0-9.18,3.9-9.18,8.71h0Z"/><path class="al" d="M5369.14,178.51c0,4.81,4.11,8.71,9.18,8.71h113.68c5.07,0,9.18-3.9,9.18-8.71h0c0-4.81-4.11-8.71-9.18-8.71h-113.68c-5.07,0-9.18,3.9-9.18,8.71h0Z"/></g><g><path class="f" d="M5731.87,280.11c0,4.81-4.11,8.71-9.18,8.71h-72.94c-5.07,0-9.18-3.9-9.18-8.71h0c0-4.81,4.11-8.71,9.18-8.71h72.94c5.07,0,9.18,3.9,9.18,8.71h0Z"/><path class="f" d="M5496.83,280.11c0,4.81,4.11,8.71,9.18,8.71h101.3c5.07,0,9.18-3.9,9.18-8.71h0c0-4.81-4.11-8.71-9.18-8.71h-101.3c-5.07,0-9.18,3.9-9.18,8.71h0Z"/><path class="f" d="M5402.08,280.11c0,4.81,4.11,8.71,9.18,8.71h47.81c5.07,0,9.18-3.9,9.18-8.71h0c0-4.81-4.11-8.71-9.18-8.71h-47.81c-5.07,0-9.18,3.9-9.18,8.71h0Z"/></g><g><path class="ad" d="M6032.72,370.82c0,4.81-4.11,8.71-9.18,8.71h-133.7c-5.07,0-9.18-3.9-9.18-8.71h0c0-4.81,4.11-8.71,9.18-8.71h133.7c5.07,0,9.18,3.9,9.18,8.71h0Z"/><path class="ad" d="M5857.8,370.82c0,4.81-4.11,8.71-9.18,8.71h-133.7c-5.07,0-9.18-3.9-9.18-8.71h0c0-4.81,4.11-8.71,9.18-8.71h133.7c5.07,0,9.18,3.9,9.18,8.71h0Z"/><path class="ad" d="M5601.75,370.82c0,4.81,4.11,8.71,9.18,8.71h60.92c5.07,0,9.18-3.9,9.18-8.71h0c0-4.81-4.11-8.71-9.18-8.71h-60.92c-5.07,0-9.18,3.9-9.18,8.71h0Z"/></g></g></g><g><g><path class="j" d="M6597.75,280.18c0-32.92-28.16-59.61-62.89-59.61s-62.88,26.69-62.88,59.61,28.15,59.61,62.88,59.61,62.89-26.69,62.89-59.61Z"/><path class="aj" d="M6587.77,280.18c0-27.7-23.69-50.15-52.9-50.15s-52.9,22.45-52.9,50.15,23.69,50.15,52.9,50.15,52.9-22.45,52.9-50.15Z"/></g><path class="j" d="M6508.03,297.39l15.24-1.5c.44,3.27,1.72,5.86,3.86,7.77,2.14,1.91,4.61,2.86,7.4,2.86,3.19,0,5.9-1.23,8.11-3.69,2.21-2.46,3.32-6.17,3.32-11.12,0-4.64-1.1-8.13-3.29-10.45-2.2-2.32-5.05-3.48-8.57-3.48-4.39,0-8.33,1.84-11.81,5.52l-12.41-1.7,7.84-39.37h40.44v13.57h-28.85l-2.4,12.85c3.41-1.62,6.89-2.43,10.45-2.43,6.78,0,12.54,2.34,17.25,7.02,4.72,4.68,7.07,10.75,7.07,18.21,0,6.23-1.91,11.78-5.71,16.67-5.19,6.67-12.39,10.01-21.61,10.01-7.37,0-13.37-1.87-18.02-5.62-4.65-3.75-7.42-8.79-8.33-15.12Z"/></g></g></g></g></svg>