<?xml version="1.0" encoding="UTF-8"?><svg id="a" xmlns="http://www.w3.org/2000/svg" xmlns:xlink="http://www.w3.org/1999/xlink" viewBox="0 0 495.1 302.27"><defs><style>.c{fill:#d8342b;}.d{fill:#ffa1b7;}.e{fill:#ffdb8a;}.f{fill:#f98178;}.g{fill:#ffabab;}.h{fill:#f4e8d3;}.i{fill:#ff8080;}.j{fill:#ff5e4d;}.k{fill:#b2d4ed;}.l{fill:#f9d79b;}.m{isolation:isolate;}.n{fill:#ff97a6;}.o{fill:#fff0d2;}.p{fill:#aacbe8;}.q{fill:#3b2b5b;}.r{fill:#ffde9c;}.s{fill:#d5eaf5;}.t{fill:#6b54b2;}.u{fill:#c7c7ff;}.v{fill:#8dbadb;}.w{fill:#c95d77;}.x{clip-path:url(#b);}.y{fill:#30193b;}.a`{fill:#295a6e;}.aa{fill:#ffcb48;}.ab{fill:#ff9a2e;}.ac{fill:#ffe5b0;}.ad{fill:#357a5f;}.ae{fill:#92bddd;}.af{fill:none;}.ag{fill:#c43b72;}.ah{fill:#ea4639;}.ai{fill:#1f6864;}.aj{fill:#90b8d6;}.ak{fill:#f9cb9d;}.al{fill:#7f65c1;}.am{fill:#f9d687;}</style><clipPath id="b"><path class="af" d="M218.84,203.7c-1.39,.29-3.26,.66-4.66,.91-.76,.14-1.77,.27-2.54,.38-1.6,.23-3.75,.43-5.36,.55-1.67,.13-3.91,.21-5.59,.21-1.8,0-4.2-.09-6-.22-5.45-.39-10.14-1.38-10.18-1.39-1.62-.36-3.79-.81-5.39-1.27-2.36-.68-5.48-1.69-7.79-2.54-1.68-.62-3.88-1.56-5.5-2.33-2-.95-4.61-2.32-6.53-3.42-3.22-1.85-7.23-4.77-10.19-7-1.71-1.28-3.86-3.16-5.35-4.69-1.44-1.49-3.41-3.44-4.79-5-1.27-1.44-2.93-3.4-4.04-4.96-1.21-1.7-2.82-3.96-3.92-5.72-1.04-1.66-2.33-3.95-3.24-5.68-1.74-3.31-3.56-7.98-4.89-11.48-1.85-4.89-3.9-14.83-4.11-19.81-.08-1.94-.27-4.52-.27-6.45,0-2.05,.11-4.78,.28-6.82,.15-1.9,.46-4.42,.77-6.29,.33-2.01,.87-4.67,1.36-6.65,.45-1.82,1.14-4.22,1.73-6,.65-1.94,1.6-4.49,2.4-6.38,.72-1.69,1.75-3.91,2.59-5.53,.96-1.84,2.32-4.25,3.42-6,.93-1.49,2.23-3.44,3.28-4.85,1.29-1.74,3.1-4.01,4.52-5.65,1.45-1.68,3.54-3.79,5.11-5.35,.98-.97,2.38-2.17,3.42-3.09,1.35-1.2,3.28-2.65,4.73-3.74,.98-.74,2.33-1.67,3.36-2.33,1.3-.84,2.78-1.8,4.67-2.86,2.64-1.48,4.68-2.47,5.44-2.82,.49-.23,1.14-.53,1.64-.75,1.4-.61,2.1-.91,2.99-1.26,1.14-.45,3.27-1.28,5.74-2.05,3.01-.94,4.53-1.29,6.45-1.75,1.61-.38,4.1-.82,4.94-.95,4.07-.59,4.47-.62,8.56-.92,1.84-.13,4.31-.14,6.15-.15,1.8-.01,4.21,.15,6,.3,1.49,.12,3.48,.36,4.96,.61,2.73,.45,6.37,1.11,9.02,1.91,1.66,.49,3.88,1.11,5.5,1.7,2.2,.79,5.12,1.88,7.22,2.9,1.64,.79,3.83,1.84,5.42,2.72,1.89,1.05,4.36,2.54,6.16,3.74,4.81,3.21,8.2,6.21,10.33,8.18,2.15,1.99,5.45,5.3,8.92,9.78,2.38,3.07,5.14,7.48,7.09,10.85,1.06,1.84,2.26,4.4,3.11,6.34,.81,1.84,1.73,4.37,2.44,6.25,.2,.53,1.84,5.77,2.35,8.14,.42,1.93,.96,4.52,1.25,6.48,.31,2.06,.69,4.82,.74,6.9,.11,3.84,.04,8.98-.18,12.82-.11,2.03-.57,4.72-.91,6.73-1.12,6.6-3.28,12.59-3.3,12.64-.76,1.96-1.67,4.62-2.58,6.51-1.57,3.25-3.77,7.53-5.69,10.59-1.11,1.78-2.71,4.08-3.99,5.74-1.51,1.96-3.62,4.49-5.31,6.3-1.91,2.04-4.64,4.59-6.73,6.44-1.35,1.2-3.25,2.7-4.73,3.74-1,.71-2.33,1.67-3.36,2.33-1.33,.86-3.13,1.97-4.5,2.76-.99,.58-2.31,1.28-3.91,2.09-1.1,.55-1.93,.94-3.32,1.57-1.16,.53-4.19,1.81-7.31,2.85-.43,.14-1.01,.35-1.45,.47h0c-.45,.12-1.05,.32-1.5,.46-.73,.22-2.71,.78-4.96,1.29,2.65-.6,5.15-2.09,7.42-4.53h0c-2.27,2.44-4.77,3.92-7.42,4.53Z"/></clipPath></defs><path class="u" d="M493.03,302.27c1.3-.22,3.07-1.03,1.37-1.76l-1.37,1.76Z"/><g><path class="h" d="M83.67,295.22c0,3.06-18.73,5.55-41.84,5.55s-41.84-2.48-41.84-5.55,18.73-5.54,41.84-5.54,41.84,2.48,41.84,5.54Z"/><path class="h" d="M431.03,295.21c0,3.06-18.73,5.54-41.84,5.54s-41.84-2.48-41.84-5.54,18.73-5.54,41.84-5.54,41.84,2.48,41.84,5.54Z"/><g><path class="h" d="M230.3,286.89c0,1.86-10.1,3.37-22.55,3.37s-22.55-1.51-22.55-3.37,10.1-3.37,22.55-3.37,22.55,1.51,22.55,3.37Z"/><g><circle class="aj" cx="200.55" cy="123.36" r="81.76"/><g class="m"><g class="x"><path class="k" d="M216.01,198.63h0"/><path class="k" d="M261.87,178.3c.55-.62,.95-1.09,1-1.14l-1,1.15h0"/><path class="k" d="M207.23,71.07c.03,.37-.31,.64-.25,1.02,.07,.4,.99,.6,.59,.95-.14,.12-1.14,.69-1.15,.69-.79,.44-1.71,.58-2.51,1.02-.42,.23-.63,.71-1.08,.92-.29,.13-.61,.11-.79-.07-.35-.36,.3-1.12,.61-1.36,.28-.21,.31-.31,.37-.5-.51-.21-1.3,.44-1.59-.27-.13-.32,.3-.41,.28-.68-.03-.4-.47-.66-.39-1.1,0,0,.15-.58,.55-.74q.29-.12,.35-.15c-.16-.18-.3-.38-.48-.55-.19-.19-.55-.08-.68-.37q-.31-.67-.5-.67c-.45,.01-.86,.41-1.34,.13-.24-.14-1.42-1.4-1.74-1.93-.48-.82-1.01-2.3,.94-3.01h.05v-.02h.03c.35-.1,.62-.17,.85-.05,.29,.15,.29,.49,.45,.72,.69,.12,.95,.16,1.15,.48,.31,.5,0,1.06,.12,1.58q.05,.22,.99,.66c.94,.43,1.71,1.12,2.59,1.63,.36,.21,.67,.51,1.04,.7,.41,.22,.89,.26,1.27,.53,.1,.12,.25,.29,.26,.45"/><path class="k" d="M281.94,135.01c.26-1.87,.37-3.21,.45-4.37,0,0,.06-.81,.1-1.01v.03c.01,.09,0,.3-.05,.95l-.1,1.04-.43,3.57c0-.06,.02-.15,.03-.21"/><path class="k" d="M188.16,59.98c.07,.37,.02,.96-.69,1.64-.4,.38-2.34,1.45-2.63,1.58-1.58,.67-3.32-.37-3.34-.38-.3-.21-.56-.51-.71-.83-.05-.1-.1-.1-.24-.06-.42,.11-.63,.17-.65-.15-.1-1.23,1.24-1.55,1.39-1.58,.5-.11,.86,.19,1.03,.33q.12,.1,.88-.49,2.15-1.68,2.44-1.78c.54-.14,1.22,.26,1.23,.27,.03,.02,.06,.04,.08,.07l.07,.08c.39,.44,1.03,.65,1.16,1.31"/><path class="k" d="M214.3,42.82c.35,.08,.41,.11,.41,.11,.1,.07,.11,.2,.19,.28,.54,.49,1.26,.65,1.87,1.01q1.24,.72,2.82,1.25c.58,.19,1.18,.28,1.74,.53-.39,0-.68,.01-1.15,.03h0q-1.09-.34-1.16-.27c-.66-.02-1.81-.54-1.82-.55v-.06l.05-.05c-.06-.08-1.35-.79-1.36-.8-.47-.22-.98-.33-1.46-.54-1.45-.66-1.64-.76-1.63-.91,.07-.04,.15-.06,.22-.09v-.06c-.1-.06-.12-.06-.41-.15h.02c.36,.02,1.27,.19,1.68,.27"/><path class="k" d="M143.55,65.62c-.21,.25-.74,.86-1.13,1.23t-.64,.49c-.62,.47-1.08,1.11-1.66,1.63-.06,.05-.36,.29-.44,.32,0-.13,.46-.63,.61-.8,.33-.36,.34-.38,.39-.47-.26,.05-.34,.35-.59,.41,.02-.02,1.87-2.14,2.35-2.45h.03c-.02,.06-.04,.11-.21,.34-.25,.35-.31,.44-.31,.5,.22-.06,1.12-1.13,1.23-1.3,.2-.32,1.05-1.07,1.1-1.11h.02c-.31,.47-.77,.84-1.08,1.32,.06-.01,.27-.23,.43-.4,.09-.1,.27-.28,.36-.35,.01,.08-.46,.65-.47,.65"/><path class="k" d="M154.12,57.22c-.09,.09-.27,.24-.4,.33-.33,.26-.69,.47-1.02,.73-.28,.22-.53,.47-.82,.69-.02,.02-.05,.04-.07,.05,0,0-.48,.18-.49,.07,0,0,.23-.63,.49-.87l1.82-1.5c.35-.28,.56-.42,.74-.52,.1-.06,.11-.06,.13-.05-.08,.18-.25,.3-.29,.49l.03,.03c.11-.03,.21-.09,.31-.13-.11,.21-.3,.36-.44,.54h.01c.05,0,.1-.03,.16-.05h.01c-.05,.06-.11,.13-.17,.18"/><path class="k" d="M147.87,62.87l.02-.03-.02,.02h0m4.05-1.2c.16-.22,.16-.34,.17-.49l.06-.05c.12-.52-1.02,.16-1.24,.31q-1.89,1.16-2.12,1.15c.06-.09,.07-.12,.09-.17l-.02-.03c-.12,.04-.21,.13-.33,.16q.09-.18,.16-.27c.18-.24,.5-.36,.56-.69-.2-.02-.3,.19-.48,.22-.14,.02-.07-.22-.2-.21-.05,0-.07,0-.16,.06-.71,.47-1.1,1.16-1.07,1.33,.13,.02,.2-.15,.33-.11,.1,.03,.02,.22,.02,.23-.03,.06-.1,.13-.14,.18-.54,.68-.7,1-.8,1.19,.04,.04,.08,.1,.39-.15q.02,.12,.1,.2t.24-.25c.66-.55,.87-.59,.99-.48,0,0,.02,0,.03,0,.29-.14,.55-.34,.82-.51,.36-.22,.81-.23,1.17-.45,.01,0,1.09-.69,1.43-1.15"/><path class="k" d="M195.8,43.44h0m1.48-.47c-1.23-.39-2.41,.27-3.63,.16l-.11,.02c.06,.12,.21,.16,.26,.29-.02,.04-.08,.07-.12,.1,.3,.04,.59,.1,.89,.12-.23,0-.46-.02-.68,0-.39,0-.51,.05-.63,.13,.1,.11,.11,.2-.67,.29-.44,.05-.93,.11-.72,.3,.55,.47,2.14,.43,2.16,.07,0-.06-.01-.12-.01-.18q.59-.07,.68-.02s-.01,.06-.02,.08l.02,.04-.05,.1c.19,.41,1.8,.63,1.88,.53,.02-.04,.02-.05-.04-.19-.1-.22-.02-.47,0-.55-.09-.11-.23-.16-.59-.22q.18-.45-1.12-.38c.19-.03,.19-.09,.2-.19,.21,0,.4,.14,.62,.08,.02,0,1.91-.24,1.94-.44-.03-.04-.07-.08-.24-.13"/><path class="k" d="M143.69,67.16c-.21,.3-.52,.51-.73,.81q-.19,.28-.54,1.01c-.3,.64-.85,1.25-.95,1.3h-.02c-.04-.15-.12-.05-.34,.29-.27,.42-.39,.55-.53,.66h0s-.06,.03-.08,.02c0-.05,0-.09,.19-.43,.18-.33,.2-.4,.17-.47t-.13,0l-.03-.02c-.01-.08,.16-.6,.46-.96,.02-.03,.05-.06,.08-.09,.16-.18,.19-.17,.22-.16,.03,.01,.06,.02,.13-.02,.16-.11,.35-.43,.4-.52,.13-.23,.29-.52,.58-.81,.12-.12,.25-.25,.69-.55,.19-.13,.39-.25,.59-.37-.02,.06-.05,.13-.17,.3"/><path class="k" d="M143.64,64.67c-.34,.34-.69,.67-1.03,1.01-.32,.33-.61,.69-.97,.99t.66-.74c-.8,.81-1.56,1.66-2.39,2.46,.77-.96,3.61-3.72,4.16-4.19l.02-.02s-.06,.1-.45,.49"/><path class="k" d="M143.68,79.04l-.09,.18c-.05,.05-.1,.11-.19,.17-.26,.19-.45,.17-.71,.13-.16-.02-.18-.18-.27-.26-.27-.23-.55,.3-.81,.9-.26,.6-.64,1.1-.83,1.18-.06,.03-.08,0-.1,0-.05-.03-.05-.1-.09-.14-.1-.09-.24-.12-.34-.22,0,0-.07-.08-.06-.23,0-.08,.03-.18,.06-.25,.08-.21,.23-.38,.31-.59,.08-.21,.08-.45,.18-.65,.07-.15,.22-.24,.29-.39,.13-.26,.17-.56,.29-.82,0,0,.3-.61,.53-.77,.04-.02,.08-.04,.14,0,.18,.09,.28,.27,.47,.35,.26,.12,.54,.18,.78,.35,.25,.18,.33,.39,.4,.58,.31-.2,.28,0,.21,.41l-.14,.08"/><path class="k" d="M148.97,60.68s-.32,.31-.39,.33h0c.03-.18,.05-.27-.22-.1-.19,.12-.5,.39-.61,.48-.12,.1-.15,.12-.17,.13h0c.03-.06,.25-.31,.44-.45,.24-.17,.36-.31,.37-.35-.02,0-.05,.02-.07,.02,.05-.12,.49-.46,.78-.66,.43-.28,.45-.15,.45-.14,0,.1-.45,.62-.59,.75"/><path class="k" d="M146.33,63.77c-.27,.33-.96,1.14-1.41,1.56-.4,.44-.55,.58-.6,.54,0-.04,0-.09,.06-.22l.05-.06,.05-.06,.05-.06,.05-.06,.05-.06,.05-.06,.05-.06,.05-.06c.12-.17,.26-.32,.37-.51v-.02s-.09,.04-.13,.05c0-.03,.17-.27,.38-.44,.55-.66,1.06-1.04,1.26-1.17,.1-.06,.12-.07,.16-.06,.06,.09-.12,.35-.45,.75"/><path class="k" d="M159.31,145.18c-.11,.3-.43,.36-.62,.56,.08,.31,.08,.47-.13,.65,0,0-.07,.06-.25,.12,0,0-.02,0-.03,0-.14,.12-.26,.27-.43,.37-.18,.11-.38,.18-.56,.27-.4,.19-.69,.36-.91,.74-.12,.21-.29,.13-.33,.11-.13-.07-.24-.26-.26-.39-.07-.41,.4-.43,.52-.7,.33-.72-.8-.86-.71-1.53,0,0,.36-.64,.96-1.01,.66-.34,1.96,.07,2.78,.65-.01,.05-.02,.12-.04,.16"/><path class="k" d="M281.33,125.78c-.04,.43-.2,.87-.28,.8-.08-.07-.29-1.47-.13-2.68v.04l.02-.11v-.33l.02-.11v-.33c0-.71,0-.9,.12-.81,.28,.36,.28,3.23,.25,3.53"/><path class="k" d="M150.48,59.68c-.48,.49-1.32,1.11-1.42,1.1-.01-.03,.04-.09,.14-.21,.02-.02,.04-.04,.05-.06,.12-.12,.24-.24,.36-.36,.11-.11,.2-.24,.31-.35,.01-.02,.03-.04,.05-.05,.18-.18,.32-.28,.43-.35h0c.22-.12,.18,.1,.16,.14-.02,.07-.07,.11-.09,.14"/><path class="k" d="M139.38,74.79c-.05,.1-.12,.2-.17,.27h0c-.67,.6-.83,.75-.85,.41-.29,.05-.28-.2,.04-.62,.02-.03,.05-.06,.07-.08,.08-.09,.18-.16,.25-.25,.25-.29,.41-.66,.72-.9,.29-.16,.03,.93,.03,.94-.02,.06-.05,.15-.09,.23"/><path class="k" d="M162.03,63.32c-.05,.36-.68,.63-.69,.63-.52,.21-.71,.05-.76-.03-.16-.25,.07-.86,.8-1.22,.12,0,.29-.02,.41,.1,0,0,.27,.29,.24,.52"/><path class="k" d="M148.74,70.92c-.06,.21-.16,.4-.28,.56-.23,.3-.53,.53-.78,.82-.25-.04-.37-.08-.2-.53,.09-.25,.32-.71,.8-1.04,.1-.07,.19-.12,.19-.12,.28-.13,.37-.03,.27,.31"/><path class="k" d="M146.29,64.63c-.11,.14-.22,.25-.34,.32,0,0-.39,.22-.41,.11,0,0,.05-.47,1.02-1.07,.05-.03,.12-.07,.09,.04-.04,.11-.26,.48-.36,.61"/><path class="k" d="M146.97,61.69c-.2,.19-.42,.36-.61,.56-.27,.26-.52,.54-.8,.8-.14,.13-.83,.76-.91,.78,.07-.14,1.03-1.01,1.15-1.09,0,0,.23-.16,.3-.26-.11,.03-.16,.12-.25,.18,.02-.08,1.06-.96,1.15-1.03,.07-.05,.08-.06,.1-.06t-.12,.13"/><path class="k" d="M198.72,43.94c.07,.03,.14,.11-.18,.22-.19,.07-.44,.15-.76,.09-.08-.01-.18-.03-.23-.07,0,0-.23-.22-.22-.25,.01-.03,.07-.04,.12-.05,.41-.07,1.09-.02,1.26,.06"/><path class="k" d="M154.08,96.12c-.02,.19-.22,.29-.45,.39h-.02l-.02,.02h-.02l-.02,.02h-.02l-.02,.02h-.02l-.02,.02c-.32,.07-.81,.18-1.11,.02,0,0-.61-.33-.3-.77,.06-.09,.14-.14,.19-.17,.15-.07,.31,0,.46,0,.23-.02,.45-.09,.68-.1,.11,0,.2,0,.26,.01,.36,.09,.44,.45,.43,.55"/><path class="k" d="M141.21,68.78s-.65,.84-.75,.89h-.01s0-.07,.08-.24c-.11,.02,0-.15,.05-.23,.06-.08,.32-.43,.51-.58,.12-.08,.2-.05,.22-.04,0,.01,.01,.04-.1,.2"/><path class="k" d="M221.03,47.36c.28,.17,.17,.22,.07,.25,0,0-.35,.08-.62,0-.08-.03-.56-.26-.49-.36,.01-.02,.04-.06,.4-.08,.1,0,.31,0,.64,.2"/><path class="k" d="M142.11,81.31c-.03,.12-.12,.24-.16,.3-.14,.18-.3,.33-.44,.51-.07,.1-.12,.21-.19,.3-.07,.09-.16,.16-.24,.24-.16-.1-.21-.24-.02-.64,.16-.27,.48-.75,.81-.95,.32-.16,.25,.24,.25,.25"/><path class="k" d="M223.67,46.37s.18,.09,.21,.14h0c-.12,.04-1.77-.36-1.78-.48,.02-.03,.12-.03,.14-.03,.21,0,1.19,.24,1.44,.37"/><path class="k" d="M143.73,81.19c-.17,.78-.62,1.11-.76,.93-.07-.08-.13-.85,.46-1.2,.33-.17,.35,.05,.3,.26"/><path class="k" d="M220.24,44.13c.18,.05,.2,.07,.21,.07h0c-.23,.02-1.13-.28-1.16-.3,0,0,.01,0,.02,0,.1,.01,.65,.14,.94,.23"/><path class="k" d="M180.48,53.23c-.65,.18-.9,.25-1.34,.11,.12-.06,.23-.13,.36-.18h.02c.07-.02,.14-.02,.21-.03,.12-.03,.23-.07,.35-.09,.03,0,.08-.01,.12-.02,.14-.01,.22,.02,.29,.05v.17"/><path class="k" d="M211.02,62.71c.05,.1,.06,.34-.1,.45-.15,.1-.34,.14-.76,.14-.18-.44-.27-.76,.22-.88,.45-.1,.64,.29,.64,.29"/><path class="k" d="M161.91,144.21c.04,.11,.06,.21,.09,.32-.74,.56-.85,.65-1.32,.6-.03-.12-.09-.3-.03-.44,.08-.22,.29-.35,.38-.55,.11,.05,.19,.02,.36-.07,.2-.1,.39-.19,.53,.15"/><path class="k" d="M199.48,70.72c.86,1.91,.88,1.94,.52,2.45-.41,.57-2.94,2.15-3.56,1.84-.16-.08-.14-.19-.07-.56,.28-1.45-.39-2.37-.65-2.72,.17-.63,.96-.92,.93-1.66q.77-.59,1.12-.69c1-.23,1.22,.27,1.71,1.34"/><path class="k" d="M146.43,62.63c-.08,.08-.16,.17-.24,.25h-.02v.02h-.02v.02s-.09,.06-.08,.03c.01-.07,.44-.53,.58-.64h.02s0,0,0,0c-.01,.03-.04,.05-.05,.09h0s-.07,.1-.19,.23"/><path class="k" d="M154.46,145.96q-.22,.24-.22,.5c-.01,.43-.77,.89-1.05,.92-.31,.04-.52-.19-.53-.2-.26-.28-1.61-1.66-2.8-.85q-.59,.4-1.3,.27c-.52-.1-.96-.18-1.25,.33l-.24-.24c-.05-.74,.91-1.4,.95-1.43,.21-.12,.42-.24,.78-.3,.45-.08,.89,.06,1.34,.04,.25,0,.43-.23,.69-.23,.23,0,.35,.08,1.06,.5,.2-.59,.85-.55,1.1-.2,.05,.07,.09,.19,.12,.27,.44-.45,.72-.14,1.37,.59l-.03,.04"/><path class="k" d="M154.5,149.42c.06,.22-.09,.32-.2,.39-.22,.14-.46,.24-.68,.36,0,0,0,0-.01,.01-.05,.06-.07,.06-.15,.1,0,0-.08,.03-.21-.04-.42-.24-.31-.45-.26-.54q.05-.09,.91-.66v.02c.41-.16,.56,.16,.61,.36"/><path class="k" d="M164.1,51.3q-.05,.05-2.57,1.49l.08,.03h.02l.07-.04c-.31,.3-.5,.49-1.19,.92l-3.75,2.52,.02,.08c.11-.03,.21-.07,.32-.09-.27,.36-2.69,2.28-3.01,2.39q-.06,.15-.04,.26c.05,.02,.12,.04,.17,.05,0,0-.12,.49-.98,.95-.55,.29-1.2,.34-1.74,.65-.37,.21-.71,.45-1.1,.63-.02,0-.05,.02-.07,.03-.12,.05-.24-.02-.36,.02,.1-.94,1.14-.83,1.58-1.41l-.06-.05c.06-.21,.92-.98,1.2-.9,.01,.06,.04,.14,.07,.19l.11,.03,.03,.03q.15-.08,.35-.25l.05-.06c-.17-.05-.39,.12-.53-.1h-.15l.06-.06-.03-.08c.59-.7,1.6-.85,2.12-1.65l-.05-.08c.13-.27,.78-.86,1.03-.69-.01,.05-.03,.11-.04,.16,.47-.02,.6-.51,.94-.7q.31-.18,1.47-.98h-.05q.03-.07,.1-.15l-.07-.03c-1.28,.94-1.48,1.08-1.72,1.13l-.05-.05v-.07c-.55-.09-.82,.44-1.26,.59t.58-.5-.28,.12c.2-.23,5.39-3.19,5.43-3.21l.09-.06s.07-.04,.11-.06c.02,0,2.01-.63,2.28-.8,.38-.25,.87-.3,.87-.3-.01,.03-.03,.07-.05,.1"/><path class="k" d="M205.3,41.68c.08,0,.17,.01,.25,.02h-.02c.58,.06,.78,.09,.91,.13-.08,.03-.13,.05-1.29-.02-.1,0-.2-.02-.3-.01,.26,.06,.53,.05,.79,.15v.02s-1.13,0-2.05-.07h0c.07,.03,.08,.03,.11,.04l-.03,.02h0s.06,.04,.09,.05c-.19,.05-.38-.01-.57-.02q-.3-.02-1.15-.21l.02-.02s-.05-.02-.08-.03c.02-.01,.05-.04,.9,.01,.11,0,.22,0,.33,0h-.06q-.85-.1-.9-.1c.05-.02,.06-.02,.19-.03h-.04q1.01,.03,1.5,.04c-.34-.02-.69-.04-1.04-.06l2.38,.09h.03"/><path class="k" d="M181.37,45.98c-.46,.99-1.62,1.39-2.05,2.41,.56,.38,1.33,.29,1.81,.82-.06,.26-.07,.3-.45,.47,.37,.19,.85-.13,1.19,.24,.15,.17,.08,.48-.4,.61-.32,.09-.67,0-.97,.21q.07,.25,.97,.43c-.06,.39-.51,.32-.68,.58,.95,.67-.57,1.11-.59,1.11-.54,.08-1.09,0-1.62,.16-.08,.41-.55,.48-.72,.81,.16,.17,.17,.18,1.95,.22,2.02,.05,1.45,1.39,1.44,1.4-.21,.38-.69,.19-.95,.46t-.32,.86c-.24,.7-.86,1.68-2.43,2.36-.67,.29-1.51,.65-2.12,1.22-1.06,.98-1.19,2.57-2.28,3.54-.59,.52-1.45,.57-2,1.16-1.8,1.89-1.87,1.97-2.5,5.74-.27,1.6-.84,3.5-2.1,3.49-.05,0-.11,0-.16-.01-.4-.07-.67-.42-1.07-.49-.58-.1-1.16,.3-1.74,0-1.04-.53-1.1-.69-1.5-1.78-.13-.36-.56-.51-.63-.91-.07-.41,.34-.71,.28-1.12q-.12-.94-1.2-1.71c-.1-.93,.5-1.72,.55-2.62-1.15,1.03-1.33,.21-1.34,.2-.07-.53,.79-1.86,1.35-1.35q.07,.06,.13,.66l.05-.02q.39-.32,1.73-2.81c-1.24,.44-1.57,.55-1.84-.07,.41-.35,1.05-.25,1.41-.71,.15-.19,.22-.56-.28-.72-.33,.21-.51,.61-.89,.77-.89-.52,.38-1.41,.51-2.13t-.4-1.2c-.11-.05-.28-.1-.4-.09l-.12-.11q.18-.62,.11-.82c-.61-.25-1.6-.32-2.82,.79-.41,.37-.58,.36-.71,.35-.05-.14-.18-.23-.26-.35q.07-.18,.39-.63l-.06-.13c-.1,.02-.25,.05-.35,.05,.17-.54,.78-.42,1.1-.73-.15-.22-.18-.23-.53-.37,.08-.18,.09-.21,.42-.46,.74-.52,1.13-.76,2.19-1.39l.04-.02,.04-.02,.04-.02,.04-.02,.04-.02,.04-.02,.05-.02,.05-.02q.29-.24,.57-.55c-.2,.1-.38,.23-.58,.3-.01-.28,.57-.74,1.73-1.38,.96-.53,1.82-1.22,2.82-1.68,.66-.3,1.4-.3,2.06-.58,.05-.91,1.74-.69,1.75-.69q.08,.01,.75-.53c-.1,0-.23-.01-.33-.02,.44-.88,1.57-.41,2.11-1.08h.03c.38-.17,.74-.39,1.12-.54q1.5-.47,1.74-.56c.14-.05,.17-.06,.2-.07l.1-.03,.1-.03,.1-.03,.1-.03,.1-.03,.1-.03,.09-.03c-.04,.1-.14,.21-.23,.27q.63-.19,2.36-.09l.05,.15q-.17,.28-.18,.42l1.86-.91c.76-.42,1.75-.51,1.95-.53,.02,.02,.06,.04,.08,.05"/><path class="k" d="M204.17,50.28c.13,.14-.02,.21-.1,.24,.13,.28-.07,.36-.32,.26-.29-.11-.3-.21-.31-.26-.23-.04-.37-.1-.52-.21h-.01c-.25-.26-.05-.37,.17-.42,.08-.02,.1-.02,.13-.02,.15-.01,.27,0,.46,.07,.12,.05,.24,.14,.29,.19,.04,.05,.12,.08,.17,.1,.02,.01,.04,.03,.05,.05"/><path class="k" d="M143.73,65.69s-.51,.6-.57,.66c-.12,.13-.17,.15-.19,.15-.02-.06,.56-.75,.76-.9,.05-.03,.06-.03,.06-.02,0,.01,0,.03-.07,.11"/><path class="k" d="M148.28,138.83c.05,.27,.02,.41-.11,.44l-.2-.24c-.06-.22-.1-.34,0-.41,.04-.02,.07-.02,.07-.02,.08,.04,.17,.13,.24,.19v.04"/><path class="k" d="M119.42,122.37c0,.5,.02,1.18-.1,1.02l-.25-.73c-.07-.32-.25-1.42-.26-1.42,0,0-.03-.48,.08-.8,0,.14,.02,.28,.03,.41,.04-.1,.1-.22,.19,.02,.11,.27,.3,.83,.31,1.5"/><path class="k" d="M216.02,198.64c.07,.05,.08,.05,.09,.07-.05,.07-1.28-.17-1.34-.21h0c.09-.04,1.15,.09,1.25,.15"/><polyline class="k" points="216.01 198.63 216 198.63 215.99 198.63 216.01 198.63"/><path class="k" d="M118.96,116.3c0,.05-.1,1.23-.17,1.32-.07-.17,.17-2.77,.25-3.17v-.02s.01,.05-.05,.8c.02-.11,.02-.12,.03-.14,.03,.1-.06,1.21-.06,1.22"/><path class="k" d="M218.46,197.14c.6,.25,1.32,.57,1.32,.66-.03,.02-.08,.07-1.42-.3,.6,.18,.69,.26,.72,.29v.02c-.34,.11-1.61-.29-1.56-.4,0-.02,.47-.06,.57,.02l.21,.05c-1.04-.32-1.05-.53-1.01-.54h.02c-.09-.1-.11-.12-.06-.16,.19-.06,.54,.07,1.23,.35"/><g><path class="k" d="M208.72,194.55q-.11-.65-1.25-1.63c.58-1.53-.07-1.93-2-3.11,.16-.73-.21-1.36-.56-2,.31-.49,.33-1.11,.31-1.74-.01-.37,.08-.75-.02-1.11,.04-.74-.09-1.52-.28-2.07-.47-1.39-1.7-2.12-2.66-3.14,.02-.18,.04-.39,.07-.64l.09-.03c.13-.43,.33-.99,.5-1.41,.22-.1,.52-.23,.75-.32q.34-1.03-.1-4.12c-.37-2.65-3.32-4.24-2.94-7.2q.72-5.51,.65-5.68s-1.7-2.37-1.99-2.41c-.02,0-.03,0-.05,0-.49-.31-1.07-.48-1.68-.55-.53-.06-1.07-.03-1.59-.12-.55-.09-1.05-.37-1.6-.44-.49-.06-.95,.02-1.4,.23-.21,.1-.4,.25-.6,.36-.52,.28-.75,.11-1.27-.1-.52-.22-1.01-.13-1.34,.35-.15,.21-.32,.4-.49,.59-.38,.03-.77,.06-1.15,.08-.45-.34-1-.52-1.61-.5-.46,.01-.87,.19-1.31,.26-.21,.03-.4,.01-.59-.03-.05-.32-.15-.66-.27-1-.33-.97-.69-2.15-1.37-2.94-.64-.74-1.49-.96-2.41-.68-.63,.19-.94,.26-1.58,.09-.54-.14-1.04-.34-1.59-.43-.43-.07-.96,.08-1.35,0-.28-.06-.25-.35-.56-.63-.67-.6-1.4-.4-2.15-.13-.34,.12-.28,.21-.68,.21-.29,0-.57-.1-.85-.14-.37-.06-.75-.07-1.12,.02l-2.18-.38-.06,.07c-.29-.04-.58-.02-.86,.12-.46,.22-.68,.62-.93,1.05-.1,.17-.24,.43-.41,.69-.67,.15-1.57,.02-3.25-.21q-.46,1.08,.71,3.59c-.22-.04-.5-.1-.72-.14q-1.19-2.06-1.33-2.92c-.19,.09-.45,.2-.65,.29q-.59,3.46-.28,5.83c-.28,.15-.35,.19-1.17,.19-.12-.03-.26-.04-.42,0h0c-.17,0-.37,0-.59,0-.05,.09-.08,.14-.12,.35-.39,.3-.63,.74-.6,1.28,0,.14,.06,.36,.14,.59-.5-.01-.95-.08-1.34-.21-.15-.08-.31-.14-.47-.18-2.49-1.17-2.71-4.64-4.74-6.28-.21,.05-.48,.11-.69,.16l-.07,.05-.07,.05-.07,.05-.07,.05-.07,.05-.07,.05-.07,.05-.07,.05c-.08,.2-.19,.46-.26,.65-.38,.14-.93,.22-1.34,.18q-.1-.93-1.18-2.88v-.02h0l.05-.09c-.68-1.35-.91-2.87-1.65-4.2-1.96,.26-1.62,2.63-1.46,2.93,.94,1.74,1.27,7.11-3.06,2.83-3.53-3.48-6.25-11.13-4.31-14.48,.5-.86,1.15-.68,1.85-.49q2.48-3.82,3.09-3.5c.23-.38,.78-.73,1.2-.86,1.8,1.44,2.19,3.85,3.78,5.43,.13-.15,.31-.36,.45-.51,0-.33,0-.33,0-.34-.47-3.31-3.28-5.71-3.52-9.11,0-.14-.01-.29-.02-.43,.94-1.51,1.28-3.42,1.59-5.13,.17-.93,1.01-1.49,1.08-2.42,.03-.44-.11-.9-.4-1.22-.04-.04-.09-.09-.14-.14,.22-.36,.47-.72,.55-1.15,.12-.71-.16-1.38-.09-2.07,.06-.58,.58-.9,.67-1.5,.02-.16,.02-.31,0-.46,.28-.42-.08-1.16-.09-1.65,0-.67,.5-.85,.89-1.28,.35-.38,.41-.74,.4-1.22,.04,0,.08-.03,.14-.09,.22,0,.73-.36,.97-.46,.45-.19,.93-.43,1.09-.93,.12-.38,.02-.8-.22-1.09-.09-.11-.21-.18-.34-.22,.13-.3,.22-.61,.24-.94,.04-.7-.51-1.01,.1-1.46,.53-.38,1.04-.66,1.32-1.28,.03-.07,.05-.14,.07-.21,.75-.54,.83-.66,3.3-4.44l.03-.74c-.2-.13-.46-.31-.66-.44q-1.7,.42-2.32-3.84c-.19-.14-.45-.32-.65-.45-.21,.07-.48,.17-.69,.25-.06-.2-.14-.47-.2-.68,.61-.61,1.31-1.12,2.04-1.59,.08,.01,.16,.02,.25,.04,.3,.05,.59,.16,.9,.16,.3,0,.59-.11,.83-.3,.12-.1,.23-.22,.31-.36,.02-.03,.03-.06,.05-.09,.47-.13,1.04-.68,1.24-.87,.55-.51,1.02-1.09,1.06-1.85,0-.07-.01-.12-.02-.19,.19-.23,.37-.48,.54-.75l.07-.06,.1,.65c-.15,.33-.35,.76-.53,1.07-.15,.53-.31,1.24-.42,1.78-.39,.67-.51,1.45-.82,2.14,.08,.21,.19,.49,.28,.71l.47-.03s.03,.01,.05,.01c.24,.04,.43,.03,.64-.1,.2-.12,.34-.37,.34-.61,1.07-.55,2.38-.08,3.52-.36,.48-1.29,.38-2.85-2.88-2.96-.57-1.84,.97-3.61,.19-5.45-.31-.74-.95-1.05-1.65-1.28-.19-.41-.49-.77-.88-1.01-.29-.18-.62-.27-.95-.3-.12-.01-.2,0-.25,0,.03-.04,.05-.09,.07-.18,.09-.61-.59-.97-.74-1.22-.03-.12-.06-.24-.09-.35-.03-.33,0-.76,0-.99-.04-.6-.1-1.18-.17-1.77-.05-.4-.24-.75-.66-.86-.13-.04-.26-.05-.38-.06-.06-.07-.13-.13-.21-.2-.11,.07-.2,.16-.29,.25-.78,.23-1.09,1.17-1.03,2.06-.34,.79-.81,1.44-1.95,1.44-.64-.99-.1-2.05-.21-3.07l-.65-.2-.28-.62q-1.35-.35-5.7,7.34c.16,.39,.28,.8,.36,1.23-.34,.85-.64,1.84-.65,2.71,0,.7,.42,1.3,.11,1.96-.24,.52-.56,.89-.65,1.48-.1,.68,.11,1.28-.2,1.94-.31,.67-.7,1.29-.97,1.98-.05,.12-.09,.25-.14,.37-.11-.11-.23-.22-.34-.34-.15-.16-.3-.33-.46-.49-.28-3.11-.3-3.14-.48-3.38-.24,.07-.49,.1-.73,.1-.34-.45-.9-.75-1.54-.63h-.01c-.08-.07-.15-.16-.24-.23-.37-.28-.64-.13-1.06-.2-1.6-.25,0-1.62,.24-2.37,.13-.42,0-.72-.07-1.11-.12-.67,.08-.95,.5-1.46,.28-.34,.53-.68,.69-1.09,.14-.38,.13-.76,.39-1.08,.55-.67,.98-.94,1.06-1.89,.06-.65,.03-1.38,.07-2.08,.63-1.02,1.33-2.17,2.13-3.46q5.77-8.14,5.66-8.48c.48-.51,1.21-.62,1.73-1.07,.12-.16,.28-.38,.4-.55l.62,.39c-.04,.24-.09,.57-.13,.81,.13,.1,.14,.09,.14,.09h.02l.02-.02h.02l.02-.02h.02l.02-.02h.02c.22-.09,.51-.19,.72-.27l.45,.58c-.79,3.03-4.07,4.34-5,7.26,1.05-.15,1.13-.16,1.51-1.46,1.73,.26,2.97,3.25,4.87,1.73-.18-.36-.27-.94-.17-1.34l.7,.09c1.6-1.55-1.18-3.67,.66-5.19,.29,.37,.75,.81,1.14,1.07,.55-.38,1.03-.71,2.01-2.9-.97-.06-1.56-.88-2.4-1.19-.06-.42,.05-1.01,.22-1.4-.14-.16-.32-.38-.46-.54,.12-.11,.27-.25,.39-.36l.08-.04c-.43-.02-1,.07-1.41,.22,.11-.18,.25-.41,.36-.59-.14-.08-.32-.19-.46-.28-.14,.15-.34,.35-.48,.5-.31-.26-.71-.61-1.01-.88l.44-.6,.04-.73q-2.55,1.15-3.32,2.11c-.3,.38-.69,.89-.98,1.27,.11-.34,.26-.79,.46-1.08,.16-.21,.36-.5,.52-.71-.79,.23-1.14,.33-1.85,1.55-1.01,1.14-1.81,2.04-2.13,3.97,.2,.06,.46,.13,.65,.19-.09,.25-.21,.58-.3,.83q-.37,.6-1.48,2.18c.01-.25,.02-.58,.03-.84-.19-.08-.45-.18-.64-.26,.12-.83,.2-1.38,.4-1.92-1,1.43-2.28,3.26-3.91,5.61l-.17-.31c-1.14,.42-1.65,1.63-2.71,2.16-.12-.19-.28-.45-.4-.65,1.46-.9,2.95-3.57,2.96-3.59q-.04-.17,1.31-3.42-.58,.32-1.37,1.54c.07-.19,.16-.45,.23-.65-.16,.16-.38,.37-.54,.52,0-.23,0-.54-.01-.78l-.58,.21c-.41,.47-2.53,2.99-4.56,6.16,.91-1.02,1.69-2.15,2.54-3.22-1.21,1.68-2.32,3.81-3.19,6.16,.52-.34,.52-.34,.52-.34h.02v-.02h0c.75-.72,.83-.79,1.57-1.72-.39,.62-.71,1.27-1.07,1.91h-.28c-.18,.13-.43,.29-.61,.41-.26,.33-.27,.33-.28,.34l.12-.87c-.15-.16-.35-.37-.5-.52-.3,.32-.68,.76-.95,1.09,.1-.19,.23-.45,.33-.64-1.01,1.53-2.18,3.69-3.09,5.28-3.44,7.12-3.65,7.54-5.25,12.17-2.32,7.8-2.41,8.1-3.19,12.62v.05c-3.26,25.12,6.38,44.55,14.58,48.93,.16-.15,.36-.35,.52-.51-1.25-2.4-3.53-3.97-4.95-6.23q13.32,11.48,15.95,8.84c.53,.06,1.01,.3,1.51,.44,.32,1.17,1.93,1.04,2.86,.81,.56-.14,.44-.2,.87,.06,.24,.14,.42,.29,.72,.34,.58,.1,.97-.16,1.41-.39,.13,.95,.96,1.53,1.94,1.82,.47,.14,.8,.24,1.2,.52,.24,.17,.43,.33,.72,.39,.13,.03,.63-.08,1.11-.21,.03,0,.07,.02,.1,.03l.17-.11c.44-.14,.8-.29,.74-.38,.46,.65,1.47,.27,1.3-.55-.04-.2-.09-.4-.14-.61,.48,.21,.98,1.07,1.26,1.27,.23,.17,.44,.21,.69,.27h-.01c.02,.12,.03,.24,.05,.37,.02,.71,.56,1.1,1.18,1.2,.05,.07,.1,.15,.15,.23,.15,.3,.3,.6,.44,.9,.19,.66,.14,1.34,.24,2.09,.1,.76,.38,1.36,.83,1.98,.26,.35,.6,.69,.78,1.1,.17,.39,.17,.83,.27,1.24,.16,.62,.45,1.21,1.01,1.56,.32,.2,.69,.27,1.05,.34,.12,.02,.31,0,.42,.07,.01,0,.02,0,.03,.01-.01,.02-.01,.07,.03,.18,.26,.68,.65,1.19,1.31,1.53,.72,.37,1.55,.33,2.33,.51,.33,.16,.76,.37,1.3,.64,1.08,.84,1.89,2.1,3.52,1.78,.03,0,.05-.01,.08-.02,.41,.2,.85,.41,1.31,.64,2.83,1.38,6.31,.63,8.93,2.7,.17,.14,.4,.33,.57,.47,9.99,8.19,14.5,10.51,16.51,11.01,.34,.15,.79,.34,1.15,.43,.31,.14,1.21,.54,2.49,.95,.16,.55,.29,1.14,.87,1.41,.28,.13,.6,.14,.9,.09,.57-.1,.57-.23,1.2,.06,1.06,.49,3.03,.95,4.06,.18,.3,.06,.6,.14,.9,.23,1.46,.23,2.94,.02,4.4,.18-.07-.03-10.07-3.86-11.79-4.28Zm-79.37-42.95c-.24-.33-.53-.62-.75-.97-.11-.19-.29-.32-.39-.52-.09-.2-.1-.33-.1-.51,.29,.23,.35,.28,.69,1,.18,.38,.3,.64,.59,1.07l-.05-.07Z"/><path class="k" d="M145.11,67.15c.41-.49,.88-1.04,1.44-1.7-.17,.03-.25,.05-1.44,1.7Z"/><path class="k" d="M142.71,70.56c1.1-1.58,1.87-2.66,2.4-3.41-1.48,1.77-2.09,2.58-2.4,3.41Z"/></g><path class="k" d="M206.21,47.75c.05,.05-.03,.16-.22,.17-.19,0-.41-.11-.36-.18,.03-.03,.12-.05,.17-.06,.08,0,.16-.02,.24,0,.1,.02,.17,.07,.17,.08"/><g><path class="k" d="M281.21,108.42c-.21-1.21-.43-2.38-.64-3.43-.65-2.32-1.46-5.44-2.22-7.73-3.18-8.26-3.24-8.42-5.48-12.6-4.38-7.41-4.46-7.55-7.31-11.25-5.42-6.47-5.53-6.6-8.92-9.78-6.18-5.34-6.43-5.54-10.33-8.18-6.72-4.14-7.12-4.39-11.58-6.46-6.81-2.83-7.52-3.12-12.73-4.6l-.38-.1h.05c1.22,.35,1.65,.48,2.87,.84-.42-.12-.98-.28-1.4-.4,.2,.07,.46,.16,.66,.23h-.07l-.04-.02h-.07l-.04-.02h-.07l-.16-.06h-.01c-.21-.07-.49-.15-.7-.21,.39,.17,.91,.4,1.31,.55-1.73-.57-1.89-.61-2.79-.8,1.41,.81,6.15,2.53,6.2,2.55-.97-.1-1.91-.42-2.88-.51l-.21,.62c-.43,.07-1.01,.04-1.44-.04-.3,.27-.63,.71-.81,1.07l.36,.57c-1.42-.92-2.16-1.01-3.37-.9q.39,.34,2.66,1.49c-.92,.18-10.16-1.22-11.15-1.86-.53-.03-.54-.03-.54-.03h-.17c-.32-.39-.69-.67-1.36-.5-.39,.1-.7,.29-1.11,.38-.39,.09-.73,.19-1.01,.48-.49,.5-.53,1.34-.65,2.08-1.09,1.58-1.03,1.7-.76,2.16-1.34,.94-.81,2.48-.94,3.8-.16,.33-.27,.7-.35,1.07-.07,.11-.15,.21-.25,.31-.51,.24-.93,.46-1.07,1.22-.08,.42,0,.9,.22,1.27,.08,.13,.24,.35,.37,.44l.02,.02s.02,.06,.03,.09c-.81,1.29,.92,3.05,2.08,2.45,.3,.1,.6,.16,.93,.26,.59,.19,1.15,.37,1.79,.32,.57-.05,1.02-.28,1.4-.7,.29-.32,.27-.39,.69-.45,.37-.05,.7,.04,1.09-.05,.01,0,.02,0,.03,0,.98,.56,1.36,.83,2.43,1.7-.06,.05-.14,.12-.18,.18-.13-.14-.29-.25-.48-.3-.59-.16-1.33,0-1.93,.08-.24,.03-.44,.11-.59,.21-.15,.04-.3,.08-.47,.12,.02,.13,.04,.24,.06,.35-.23,.47-.23,1.1-.27,1.68-.02,.36,.26,.62,.56,.73,.2,.08,.39,.19,.57,.3,.13,.09,.26,.12,.39,.12-.2,.06-.39,.17-.53,.35-.15,.19-.32,.38-.45,.58-.03,.04-.21,.3-.29,.46-.08,.02-.16,.04-.21,.06-.25,.06-.42,.11-.62,.3-.45,.42-.4,.82-.31,1.25-.71,.45-1.02,1.36-.9,2.27l-3.15,4.16c-.16,.13-.37,.3-.53,.44,0,.24,0,.56,0,.79q6.34,4.89,4.64,5.81c-1.99,1.08-5.93-.58-6.25,2.6-.01,1.77,1.56,3.1,1.35,4.92,.05,.15,.09,.27,.13,.39,.06,.72,.34,1.5,.54,2.02,.19,.47,.38,1,.92,1.15,.18,.05,.38,.06,.58,.06,.1,.05,.1,.06,.1,.06h.01c.93-.16,2.61-.26,3.33,.74v.02c-.08-.16-.33-.08-.35,.09-.09,.84-.08,1.68-.33,2.47-.57,.67-.97,1.45-1.42,2.21-.43,.73-.98,1.43-1.3,2.2-.33,.79-.31,1.51-.1,2.32,.15,.58,.28,.78-.11,1.3-.27,.36-.67,.62-.99,.93-.52,.51-1.05,1.12-1.17,1.86-.14,.83,.31,1.61,.32,2.45,0,1.11-.55,2.14-.69,3.24-.13,1.03-.07,2.06-.04,3.09,.03,.97,0,1.95,.09,2.91,.04,.42,.11,.84,.3,1.22,.18,.34,.66,.65,.78,.98,.1,.29-.04,.65-.06,.93-.04,.49-.01,.99,.08,1.47,.17,.86,.54,1.69,.98,2.45,.45,.8,1.01,1.85,1.82,2.34,.29,.17,.66,.19,.95,.33,.42,.21,.67,.54,1.03,.84,.34,.28,.77,.55,1.22,.75,.25,.38,.51,.74,.78,1.09,.64,.86,1.31,2.01,2.28,2.56,.37,.21,.96,.12,1.27,.33,.24,.16,.38,.62,.53,.86,.52,.8,1.19,1.36,2.16,1.49,.98,.13,2.07-.1,3.03-.26,1.13-.19,2.25-.49,3.27-1.04,.49-.27,.89-.63,1.36-.94,.61-.4,.41-.14,.98,.22,.85,.54,2.02,.39,2.59-.46,.28-.42,.39-.94,.63-1.38,.37-.68,.39-.67,1.11-.79,1.2-.2,2.77-.45,3.74-1.22,.09-.07,.17-.15,.25-.24,1.09,.13,2.15,.35,2.9,1.39,1.45,2.03-.54,4.17,.18,6.22,.8,2.25,3.25,3.31,4.01,5.59,.18,.53,.64,3.81,.64,3.83,.05,2.63-1.7,4.84-1.73,7.44-.02,1.22,.57,2.29,.99,3.4,0,.19,0,.39-.03,.59-.09,.82-.81,1.35-.93,2.17-.12,.85,.31,1.08,.7,1.67,.27,.41,.17,.53-.08,.99-.18,.32-.36,.65-.45,1.01-.19,.73,0,1.43,.31,2.09,.12,.25,.37,.55,.47,.8,.22,.58-.02,.58-.27,1.11-.29,.62-.18,1.26,.18,1.71-.2,.4-.38,.8-.51,1.24-.15,.49,.27,1.1,.81,1.06,.46-.04,.84-.12,1.18-.35,.78-.35,1.52-.91,2.17-1.35,.37-.25,.7-.52,1.01-.81,1.99-1.35,3.44-3.18,4.63-4.93,.21-.31,.43-.76,.51-1.13,1.12-.79,1.03-2.33,1.98-3.22,.19-.21,.33-.37,.43-.57,.4,.31,1.13,.16,1.36-.41,.58-1.44,.93-3,1.34-4.5,.15-.54,.37-1.22,.42-1.86,1.15-1.57,3.17-2.4,3.82-4.4,1.35-4.14-.05-8.58,1.42-12.7,1.54-4.28,4.71-7.74,6.03-12.13,.06-.2,.13-.44,.2-.67,.21-.27,.41-.53,.58-.76,.43-.59,.9-1.21,1.05-1.94,.17-.84-.42-1.58-.16-2.33,.24-.7,.61-1.21,.5-2.01-.09-.69-.49-1.33-1.14-1.61-.63-.27-1.33-.23-1.87,.2-.27,.21-.39,.49-.62,.74-.07,.07-.15,.14-.23,.2-.07-.06-.16-.12-.26-.17-.03-.02-.06-.04-.1-.05,.04-.11,.08-.23,.09-.35,.02-.13,.06-.31,.08-.49,.3-.21,.59-.44,.84-.71,.91-.97,1.46-2.2,1.93-3.42,.03-.08,.06-.16,.09-.24,1.75-2.05,2.38-3.77,2.27-5.6,.04-.29,.08-.58,.18-.87,.29-.82,.32-1.65-.27-2.35-.11-.13-.42-.29-.49-.44-.03-.07,.03-.14,.01-.25-.11-.6,.03-1.05-.24-1.67-.21-.48-.42-.61-.75-.95-.47-.48-.28-.73-.22-1.21,2.13-.56,2.85-.27,4.88,3.17,.03,.28,.06,.57,.05,.85-.02,.52-.31,1.08-.23,1.61,.13,.86,1.67,1.06,1.52,1.76-.1,.46,.14,1,.63,1.11,.56,.13,.54,.84,.85,1.21-.1,.72,.09,1.52,.24,2.22,.27,1.27,1.13,2.62,1.19,3.9,.03,.67-.62,1.46,.05,2.02l.05,.04c-.03,.2-.02,.59-.02,.66,.02,.41,.1,.68,.38,.96,.06,.06,.16,.09,.24,.06,.15-.06,.28-.16,.38-.26,.26,1.71,.47,3.45,.61,5.11,1.69-2.26,.51-16.11,.49-16.25,.2,.27,.35,.48,.51,1Zm-55.91-62.75l-.06-.02c.37,.13,.86,.29,1.33,.47h0c.38,.15,.6,.25,.71,.3-.66-.24-1.31-.51-1.98-.75Zm15.22,26.25c.22-.03,.34,.01,.4,.14,.02,.05,.04,.12,.05,.2,.02,.12,.04,.14,.06,.19,0,.01,.02,.03,.03,.04,.01,.02,.02,.06,.03,.08,.11,.28,.27,.49,.33,.58h0l-.05,.08c-.24-.17-.27-.2-.67-.35-.33-.12-.45-.18-.65-.32,.1-.25,.31-.43,.46-.64Zm-3.2,2.13c.31,.11,.59-.01,.77-.25,.88,1.3,2.44,2.59,3.2,1.05,.11-.22,.4-.34,.34-.65l.1-.16h.24c.62,.74,1.08,1.05,2.23,1.46,2.71,.98,3.07,1.91,3.08,1.92,0,.06-.04,.13-.05,.19-1.7,.63-3.43-.68-5.13,.07-1.19,.52-2.55,1.68-2.56,1.69-.23,.23-.38,.5-.51,.78-.1-.63-.51-1.39-.95-2.21,.1-.36,.04-.78-.1-1.18-.13-.37-.34-.71-.5-1.06-.15-.33-.24-.6-.24-.97,0-.04,.08-.59,.09-.67Zm-24.98-17.87s-.09-.26,.22-.71c.2-.29,.51-.72,.39-1.39-.09-.49-.55-.83-.54-1.35,0-.02,0-.06,0-.08,.01-.11,.12-.27,.33-.29,.82-.08,.8,.7,.66,1.05-.96,2.26,3.3,4.4,3.35,4.42,1.31,.56,2.09,.12,2.61-.17,1.41-.79,2.11-.66,2.11-.66,.01,0,.03,.03,.04,.04-.27,.21-1.01,.38-1.45,.44h-.04c-1.64,.34-1.43,1.42-.55,2.05,.91,.66,.97,.69,.48,.79-.54,.11-1.44,.3-.74,1.6,.3,.56,.91,.93,1.03,1.61,.05,.29,.03,.52-.64,.64-.3,0-.6-.16-.9-.02-.79,.37-1.32,1.14-2.15,1.46-.02,0-1.91,.62-2.34-.04,.25-.08,.32-.2,.23-.41,.36-.07,.72,0,1.08-.07,1.25-.29,1.52-2.28,1.51-2.44-.02-.15-.06-.36-.11-.51-.19-.53-.7-.84-.89-1.35-.19-.5-.02-1.04-.19-1.54-.04-.11-.08-.27-.13-.38-.25-.55-.71-.91-.9-1.04-.81-.57-2.03-.5-2.46-1.64Zm36.49,35.92l-.2,.02c-1.17-.49-1.74-.72-2.74-.19h-.03c-.21,.04-.37,.09-.49,.17-.06-.07-.13-.13-.21-.17-.5-.26-.99-.06-1.23,.34-.08-.07-.16-.13-.21-.16-.29-.12-.54-.1-.85-.14-.14-.02-.23-.03-.29-.02-.01-.02-.03-.05-.07-.09-.12-.14-.18-.51-.34-.7-.19-.23-.54-.28-.81-.22-.29,.06-.48,.15-.67,.37-.08,.09-.14,.2-.19,.32-.04,.04-.07,.08-.08,.12-.05-.05-.1-.1-.16-.14-.2-.12-.39-.2-.63-.22-.53-.04-.91,.22-1.15,.61-.66,.1-1.17,.32-1.38,.69-.43,.77,.35,2.11-.82,2.46-.46,.14-1.16-.12-1.92-.52-.06-.12-.13-.25-.25-.35-.29-.28-.59-.33-.93-.34-.22-.27-.47-.48-.9-.56-.27-.05-.54-.02-.78,.08-.82-.04-1.66,.09-2.43-.28-1.11-.54-.97-3.3-2.4-2.51l-.04-.12c.11-.55-.69-2.23-2.05-2.15l-8.17,2.77c-.15,.13-.21,.42-.23,.61h.07l-.04,.02h-.01q-.61-.11-1.5,.79c-1.29,1.3-1.64,1.59-2.46,2.17v.14h.03q-.63-.14-1.19-.03c-.13-.1-.23-.24-.36-.35h.01c.28-.11,.34-.15,.45-.27l.22-.23h.01c1.03,.48,4.16-2.22,3.13-5.14-.33-.94-.38-1.09-.28-1.63,.2-1.01,1.23-1.5,1.53-2.44,.24-.76-.73-1.52-.02-2.28q2.1,.11,2.66-.39,1.64-1.49,1.89-1.41c1.2,.35,1.94,1.43,3.04,1.94,1.27,.6,2.73,.63,3.97,1.34,.62,.35,1.13,.9,1.48,1.57,.38,.73,.48,.79,.98,.99,.5,.51,.75,.03,.75,.03l.16-4.04c-.38-.44-1.88-1.23-3.03-1.6-1.66-.53-2.65-1.06-4.51-2.97,2.42,1.57,5.5,1.8,7.7,3.82,.83,.76,1.3,1.87,2.3,2.48,.57,.34,.83,.44,1.44,.63l.31,.04c3.48,.99,2.77-.31,2.47-.73-.44-.62-1.06-1.04-1.58-1.58l-.12-.22c.07-.1,.12-.26,.1-.38l.03-.05,.1-.27c.24-.19,.48-.24,.73-.23,.05,.07,.11,.15,.17,.22,.31,.36,.7,.58,1.12,.62-.06,1.64,2.89,5.01,4.95,4.69,.14,0,.29-.02,.44-.06v.02c.11,.17,.31,.37,.47,.47,.33,.2,.74,.28,1.08,.46,.4,.21,.82,.28,1.25,.07,.09-.05,.52-.49,.78-.74,.06,.29,.17,.56,.44,.8,.32,.27,.75,.41,1.16,.36,.25,1.3,.55,3.45,.34,3.71Zm18.2,6.97c-.24,1.59-.68,1.19-1,.58-.27-.51-.4-1.09-.8-1.53q-.19-.21-.76-.18s-.11-.02-.15-.08c-.18-.25-.29-.55-.47-.8-.36-.52-.79-.99-1.15-1.52-.1-.14-.22-.33-.3-.48,0-.01-.63-1.18-.42-1.38,.14,0,.26,.21,.51,.61,1.46,2.39,3.04,3.08,3.57,3.3l.11-.02c.4,.35,.6,.19,.91-.04l.16,.02c.03,.07,.06,.12,.08,.22,.01,.08,.01,.14,.01,.21-.14,.22-.18,.42-.28,1.09Z"/><path class="k" d="M282.2,114.73c.08,.76,.16,1.53,.27,2.29-.07-.72-.16-1.49-.27-2.29Z"/><path class="k" d="M281.87,112c-.29-1.99-.47-2.99-.65-3.58,.37,2.08,.72,4.29,.98,6.32-.1-.91-.2-1.83-.33-2.74Z"/></g><path class="k" d="M265.56,151.49c-.52,1.42-1.1,2.55-1.22,2.75-.41,.71-1.06,1.25-1.5,1.94-2.11,4-2.98,5.65-3.91,5.25-.15-.61,.75-3.97,.76-4,.2-.63,.78-1.01,1.06-1.58,.24-.5,.3-1.06,.48-1.58h.1c.61-1.15,.33-2.55,1.06-3.66,.94-1.44,1.85-.83,1.86-.82q.12-.34,.18-.65l.06-.07c.51-1.77,.96-3.29,1.88-3.41,1.2,.3-.77,5.78-.79,5.83"/><path class="k" d="M223.06,85.55c.4,1.15-.22,1.34-.45,1.41h-.02c-.21,.03-.52,.08-.69-.26-.01-.03-.03-.07-.04-.1-.08-.2-.11-.41-.19-.61-.1-.25-.25-.48-.35-.74-.03-.08-.08-.2-.1-.28-.05-.18-.14-.48,.01-.71,.11-.17,.26-.21,.44-.27,.72-.09,1.19,.94,1.4,1.56"/><path class="k" d="M236.97,86.12c.01,.06,.01,.15,.01,.21-.01,.21,0,.38,.14,.75q.27,.76,.27,.84c0,.12-.27,.31-.55,.11-.11-.08-.18-.18-.26-.29-1.32-.03-1.89-1.39-1.44-1.75,.11-.09,.25-.12,.38-.14,.36-.06,.72-.03,1.08-.12h.01c.09,0,.29,0,.37,.39"/><path class="k" d="M231.79,84.33c-.15-.44-.43-.72-.71-1.08-.03-.03-.05-.06-.08-.08l-.02-.03c-.17-.22-.36-.47-.65-.5-.08,0-.18,.07-.2,.15-.01,.05,0,.1,0,.16-.02,.03-.02,.07-.02,.11,0,.06,.01,.11,.02,.17,0,0-.02,.01-.02,.02-.1-.13-.21-.25-.36-.34-.17-.11-.35,0-.41,.17-.13,.31-.17,.63-.24,.96-.09,.46-.3,.78-.49,1.19-.13,.31-.16,.63-.03,.94,.05,.12,.53,.61,.52,.69h.02c0,.09,.02,.18,.05,.25-.27-.66-.69-.59-.9-.56-.26,.06-.47,.23-.72,.29-.23,.05-.47,.05-.71,.12-.56,.17-.08,.7,.27,.88,.62,.31,2.01,.36,2.11,.33,.29-.09,.24-.25-.03-.99v-.02c.27,.54,1.18,.68,1.4-.1,.11-.41,.03-.74-.2-1.06-.07-.3-.12-.6-.13-.87h0s0-.02,.01-.02c.05-.15,.08-.31,.1-.46,.19,.18,.41,.33,.72,.38,.38,.07,.84-.25,.69-.69Z"/><path class="k" d="M221.13,82.1c.17,.39,.36,.89,.36,.89-.14,.43-.56,.28-.73,.22-.14-.36-.3-.71-.44-1.07-.02-.05-.04-.12-.05-.18-.03-.2,.13-.26,.25-.29,.34-.04,.46,.09,.61,.44"/><path class="k" d="M217.78,61.58c-.16,.18-.27,.19-.33,.17-.1-.04-.16-.12-.25-.26-.07-.11-.1-.14-.14-.18,.1-.11,.16-.15,.24-.17,.12-.02,.2,.05,.32,.23,.08,.11,.12,.16,.18,.2l-.02,.02"/><path class="k" d="M219.54,59.77s.07,.15-.07,.23c-.09,.05-.4,.06-.41,.06,0,0-.19-.16-.2-.3,0-.11,.07-.18,.19-.26,.11,.05,.23,.09,.34,.15,.04,.02,.11,.06,.15,.13"/><path class="k" d="M240.4,88.66s.03,.11,.04,.16c.06,.36-.29,.43-.52,.27-.08-.06-.09-.07-.2-.26-.22-.45,.06-.55,.16-.57,.29-.03,.47,.2,.53,.4"/><path class="k" d="M243.8,89.72c.09,.34-.14,.92-.73,.58-.53-.31-.62-1.07-.14-1.2,.01,0,.04,0,.05-.01,.42-.03,.77,.43,.82,.63"/><path class="k" d="M146.39,62.9c-.19,.21-.37,.37-.4,.36-.01-.04,.36-.45,.54-.58,.03-.02,.03-.02,.04-.02,0,.03-.11,.15-.17,.23"/><path class="k" d="M132.3,78.13c-.13,.19-.25,.38-.38,.57l.61-.92c-.08,.12-.16,.23-.23,.35"/><path class="k" d="M157.4,61.54c-.07,.16-.26,.38-.41,.42-.02,0-.06,0-.08,0h-.02s-.07-.1-.11-.13c-.05-.04-.14,0-.17-.08-.03-.1,.11-.4,.39-.55,.26-.12,.51,.05,.39,.35"/><path class="k" d="M158.2,64.44c-.09,.4-.57,.69-.71,.51-.11-.14,0-.57,.4-.77,.4-.16,.31,.24,.31,.26"/><path class="k" d="M158.66,67.91c-.02,.12-.09,.43-.46,.55-.38,.15-.4-.2-.31-.42,.1-.24,.29-.34,.35-.37l.07-.03h.01c.38-.15,.33,.25,.33,.27"/><path class="k" d="M144.29,143.38c.25,.58-.03,1.01-.4,.86-.38-.16-.48-.68-.51-.85-.02-.25,.02-.39,.17-.5,.24-.13,.39,.02,.52,.16,.04,.05,.14,.15,.22,.34"/><path class="k" d="M149.31,149.29c.14,.31,.17,.62,.14,.77-.05,.22-.08,.24-.39,.41h0c-.56,.28-1.03-.61-1.01-1.05-.03-.36,.03-.55,.24-.71,.4-.21,.83,.13,1.04,.58"/><path class="k" d="M155.3,152.1c.22,.4,.21,.85-.03,1.1-.07,.07-.15,.14-.35,.19-.72,.17-.73,.17-.93,.11-.16-.05-.47-.19-.68-.63-.01-.03-.03-.07-.04-.1l-.24-.68c-.02-.1,0-.25,.11-.35,.05-.03,.1-.04,.16-.06,.09-.02,.18,.04,.26-.02,.1-.08,.21-.15,.33-.19,.02,0,.05-.02,.07-.02,.2-.05,.38-.02,.39-.02,.56,.09,.84,.46,.95,.67"/><path class="k" d="M159.46,150.73c.28,.57,.13,1.54-.71,1.26-.15-.05-.25-.11-.33-.15-.32,.79-1.25,.15-1.48-.48-.23-.62,.16-1.78,.57-2.03,.37-.18,.92-.07,1.33,.76,0-.01-.01-.03-.01-.04h.03v.02h.01v.02h0c.33,.27,.46,.4,.58,.64"/><path class="k" d="M162.6,150.55c.3,.58-.09,1.06-.56,.9-.71-.24-1.16-1.16-.73-1.49,.51-.27,1.07,.17,1.29,.59"/><path class="k" d="M210.43,186.22c.4,.53-.03,.8-.33,.75-.26-.05-.58-.27-.7-.48-.13-.23-.06-.59,.05-.67,.01,0,.03-.02,.05-.03,.3-.11,.71,.14,.93,.43"/><path class="k" d="M214.8,196.11c.27,.13,.42,.26,.33,.3-.03,.01-.04,.01-.16,0h-.02c-.11,.09-.99-.24-.99-.46,0-.04,.03-.05,.03-.05,.16-.05,.57,.09,.81,.21"/></g></g></g><g><g><path class="q" d="M218.5,286.22c.18-1.07-1.31-.77-2.18-1.01,.26,.16,.52,.38,.12,.51-.59,.18-1.89,.03-2.28-.39-.14,.32-.16,.77-.15,1.07,.01,.39,4.36,.57,4.49-.17Z"/><path class="n" d="M216.44,285.72c.4-.13,.14-.35-.12-.51-.54-.15-.99-.25-1.09-.29-.26-.11-.34-.35-.34-.35l-.27-.05s-.42,.72-.46,.81c.39,.42,1.7,.57,2.28,.39Z"/></g><g><path class="q" d="M199.7,286.22c.18-1.07-1.31-.77-2.18-1.01,.26,.16,.52,.38,.12,.51-.59,.18-1.89,.03-2.28-.39-.14,.32-.16,.77-.15,1.07,.01,.39,4.36,.57,4.49-.17Z"/><path class="n" d="M197.64,285.72c.4-.13,.14-.35-.12-.51-.54-.15-.99-.25-1.09-.29-.26-.11-.34-.35-.34-.35l-.27-.05s-.42,.72-.46,.81c.39,.42,1.7,.57,2.28,.39Z"/></g><path class="q" d="M198.23,236.55c-.01,.13-1.56,1.28-2.8,4.63-1.93,5.21-.7,38.08,.06,43.65,.1,.75,.94,.09,.94,.09l7.58-36.31,6.1,11.51,4.05,24.78,.9-.09s2.05-17.76,1.39-25.58c-.54-6.39-4.25-21.5-5.14-22.9-1.74-.37-10.37,0-13.08,.22Z"/><path class="y" d="M213.04,256.65c.35,1.09,.88,3.51,.91,4.65l.76,23.53,.35-.04s2.05-17.76,1.39-25.58c-.54-6.39-4.25-21.5-5.14-22.9-.74-.16-2.27-.5-4.51-.46-2.56,.05,4.44,15.27,6.24,20.79Z"/><path class="n" d="M186.79,206.08c-.14,.02-.27-.05-.32-.18-.15-.32-.49-1.07-.78-1.67,0,0-.42-.92-.16-1.4,0,0,.17-.08,.22,.22,0,0-.01-.82,.22-.93s.36,.24,.36,.24c0,0,.09-.2,.29-.1,.19,.1,.59,1.29,.6,1.83,0,0,.01-.6,.19-.53,.18,.06,.22,1.23,.02,1.55,0,0-.1,.42-.09,.64,0,.15-.32,.28-.56,.31Z"/><path class="p" d="M221.48,204.6c-.1-.22-.29-.37-.53-.43-.49-.12-1.72,.3-2.36,.55-.25,.1-.43,.32-.48,.59-.08,.47-.19,1.24-.15,1.81,.1,1.73,.4,8.97,.4,8.97,.38-.19-1.47,1.61-5.73,3.76-1.3,.66-4.05,1.49-5.25,1.69-2.52,.42-8.44,.35-10.25-.2-3.5-1.08-7.62-3.87-7.62-3.87,0,0-.52-7.23-.62-8.96-.03-.57-.23-1.32-.36-1.78-.07-.26-.28-.46-.54-.53-.66-.17-1.93-.46-2.41-.28-.22,.08-.4,.26-.47,.49-.56,1.62-2.72,8.82,1.06,12.93,2.19,2.39,7.24,5.27,10.94,6.34,.46,4.38,1.11,10.7,1.02,11.18,2.11,1.15,11.89,1.29,13.05,.85,0-.04,1.46-3.34,1.93-6.74,.32-2.35,.6-5.18,.77-6.92,3.1-1.72,6.45-4.36,7.99-6.47,3.29-4.51,.33-11.42-.41-12.96Z"/><path class="n" d="M219.64,204.72c.14-.02,.24-.12,.26-.26,.05-.35,.18-1.17,.29-1.82,0,0,.16-1-.23-1.39,0,0-.19-.03-.15,.28,0,0-.21-.79-.47-.83-.25-.04-.28,.33-.28,.33,0,0-.15-.16-.3-.01-.16,.15-.22,1.4-.08,1.93,0,0-.17-.57-.33-.46-.16,.11,.13,1.25,.4,1.5,0,0,.21,.38,.26,.59,.04,.14,.38,.18,.62,.14Z"/><g><path class="n" d="M202.86,219.89s-.11,1.87,.1,2.04c.21,.17,.93,.33,1.25-.18s-.3-2.03-.3-2.03l-1.05,.17Z"/><path class="w" d="M202.83,221.24c.43,.09,.99,.08,1.45-.16-.04-.33-.14-.69-.23-.96l-1.22,.2c0,.27-.02,.62,0,.93Z"/></g><path class="aa" d="M204.27,217.46s.96-2.44,0-3.69c-.96-1.25-6.17,.9-5.26,1.5,.22,.15,1.07-.05,.97,.43-.1,.49-.76,1.79-.32,2.58,.43,.79,1.42,1.53,2.62,1.12,1.2-.41,1.98-1.94,1.98-1.94Z"/><path class="n" d="M204.08,216.67c-.92-.62-2.75,.42-3,.78-.27,.4-.07,.93,.08,1.34,.14,.4,1.1,2.01,2.47,1.73,2.58-.53,.45-3.85,.45-3.85Z"/><path class="r" d="M204.27,213.77c-.3-.31-.75-.32-1.15-.3-.41,.02-.81,.1-1.21,.21-.79,.22-1.58,.51-2.27,.92-.17,.1-.34,.22-.46,.34-.07,.06-.1,.14-.1,.15,0,0,.01,.04,.08,.06,.16,.04,.39,.03,.62,.08,.11,.03,.28,.09,.34,.27,.02,.09,.01,.16,0,.23-.02,.05-.03,.11-.05,.16-.15,.4-.3,.78-.41,1.18-.1,.39-.16,.82,0,1.21-.24-.36-.22-.83-.16-1.24,.07-.42,.21-.83,.32-1.22,.01-.05,.02-.1,.03-.14,0-.04,0-.07,0-.08,0-.02-.06-.06-.15-.07-.18-.04-.38-.02-.62-.06-.14-.02-.32-.14-.33-.35,0-.19,.1-.3,.18-.39,.17-.18,.35-.29,.53-.41,.75-.43,1.55-.71,2.39-.88,.42-.08,.84-.13,1.27-.12,.21,.01,.43,.04,.63,.11,.2,.06,.4,.18,.52,.36Z"/><path class="v" d="M221.48,204.6c-.1-.22-.29-.37-.53-.43-.49-.12-1.72,.3-2.36,.55-.25,.1-.43,.32-.48,.59-.08,.47-.19,1.24-.15,1.81,.1,1.73,.4,8.97,.4,8.97,.38-.19-1.47,1.61-5.73,3.76-1.3,.66-3.97,1.4-3.97,1.4,0,0,1.12,4.06,.67,7.74-.53,4.35-3.14,8.94-3.14,8.94,0,0,4.04,.16,5-.21,0-.04,1.46-3.34,1.93-6.74,.32-2.35,.6-5.18,.77-6.92,3.1-1.72,6.45-4.36,7.99-6.47,3.29-4.51,.33-11.42-.41-12.96Z"/></g></g><g><polygon class="j" points="258.58 112.69 246.28 113.66 245.71 106.45 258.02 105.48 254.42 109.39 258.58 112.69"/><path class="q" d="M247.42,126.62c-.09-.03-.15-.11-.16-.21l-1.91-21.43c-.01-.14,.09-.26,.22-.27,.14-.01,.26,.09,.27,.22l1.91,21.43c.01,.14-.09,.26-.22,.27-.04,0-.08,0-.11-.01Z"/></g><g><polygon class="j" points="221.24 60.94 208.93 61.9 208.37 54.69 220.67 53.73 217.07 57.64 221.24 60.94"/><path class="q" d="M210.07,74.87c-.09-.03-.15-.11-.16-.21l-1.91-21.43c-.01-.14,.09-.26,.22-.27,.14-.01,.26,.09,.27,.22l1.91,21.43c.01,.14-.09,.26-.22,.27-.04,0-.08,0-.11-.01Z"/></g><g><polygon class="j" points="205.27 150.89 192.97 151.86 192.4 144.65 204.71 143.68 201.11 147.59 205.27 150.89"/><path class="q" d="M194.11,164.82c-.09-.03-.15-.11-.16-.21l-1.91-21.43c-.01-.14,.09-.26,.22-.27,.14-.01,.26,.09,.27,.22l1.91,21.43c.01,.14-.09,.26-.22,.27-.04,0-.08,0-.11-.01Z"/></g><g><ellipse class="h" cx="114.19" cy="290.56" rx="34.66" ry="4.46"/><g><g><g><path class="j" d="M84.85,291.16s-.06,0-.1,0c-.33-.05-.56-.36-.5-.69l8.65-54.2c.05-.33,.36-.56,.69-.5,.33,.05,.56,.36,.5,.69l-8.65,54.2c-.05,.3-.3,.51-.6,.51Z"/><path class="j" d="M104.03,291.16s-.06,0-.1,0c-.33-.05-.56-.36-.5-.69l8.65-54.2c.05-.33,.36-.56,.69-.5,.33,.05,.56,.36,.5,.69l-8.65,54.2c-.05,.3-.3,.51-.6,.51Z"/><path class="j" d="M112.28,236.96h-18.78c-.33,0-.61-.27-.61-.61s.27-.61,.61-.61h18.78c.33,0,.61,.27,.61,.61s-.27,.61-.61,.61Z"/><path class="j" d="M110.13,250.43h-18.78c-.33,0-.61-.27-.61-.61s.27-.61,.61-.61h18.78c.33,0,.61,.27,.61,.61s-.27,.61-.61,.61Z"/><path class="j" d="M107.98,263.9h-18.78c-.33,0-.61-.27-.61-.61s.27-.61,.61-.61h18.78c.33,0,.61,.27,.61,.61s-.27,.61-.61,.61Z"/><path class="j" d="M105.83,277.37h-18.78c-.33,0-.61-.27-.61-.61s.27-.61,.61-.61h18.78c.33,0,.61,.27,.61,.61s-.27,.61-.61,.61Z"/></g><g><path class="j" d="M143.72,291.16c-.29,0-.55-.21-.6-.51l-8.67-54.2c-.05-.33,.17-.64,.5-.69,.33-.05,.64,.17,.69,.5l8.67,54.2c.05,.33-.17,.64-.5,.69-.03,0-.06,0-.1,0Z"/><path class="j" d="M124.5,291.16c-.29,0-.55-.21-.6-.51l-8.67-54.2c-.05-.33,.17-.64,.5-.69,.33-.05,.64,.17,.69,.5l8.67,54.2c.05,.33-.17,.64-.5,.69-.03,0-.06,0-.1,0Z"/><path class="j" d="M135.05,236.96h-18.83c-.33,0-.61-.27-.61-.61s.27-.61,.61-.61h18.83c.33,0,.61,.27,.61,.61s-.27,.61-.61,.61Z"/><path class="j" d="M137.2,250.43h-18.83c-.33,0-.61-.27-.61-.61s.27-.61,.61-.61h18.83c.33,0,.61,.27,.61,.61s-.27,.61-.61,.61Z"/><path class="j" d="M139.36,263.9h-18.83c-.33,0-.61-.27-.61-.61s.27-.61,.61-.61h18.83c.33,0,.61,.27,.61,.61s-.27,.61-.61,.61Z"/><path class="j" d="M141.51,277.37h-18.83c-.33,0-.61-.27-.61-.61s.27-.61,.61-.61h18.83c.33,0,.61,.27,.61,.61s-.27,.61-.61,.61Z"/></g><path class="j" d="M136.88,237.01h-44.88c-.5,0-.91-.41-.91-.91s.41-.91,.91-.91h44.88c.5,0,.91,.41,.91,.91s-.41,.91-.91,.91Z"/></g><g><path class="l" d="M119.92,166.14s1.73,1.44,8.68,1.43c0,0,3.26-8.67,6.34-8.17,6.09,.99,1.15,7.41,1.15,7.41,0,0-3.02,4.7-8.6,4.54-7.18-.21-9.16-2.59-9.21-3.01-.24-2.09,1.63-2.21,1.63-2.21Z"/><g><path class="q" d="M108.64,234.9c-.25-.45-1.48-.82-2.45-1.07,.29,.17,.59,.41,.15,.56-.65,.22-2.1,.08-2.55-.37-.14,.36-.16,.85-.14,1.19,.03,.43,5.4,.42,4.99-.32Z"/><path class="n" d="M106.34,234.39c.44-.15,.15-.39-.15-.56-.6-.15-1.11-.25-1.22-.3-.29-.11-.39-.38-.39-.38l-.3-.05s-.45,.81-.49,.91c.45,.45,1.9,.59,2.55,.37Z"/></g><g><path class="q" d="M116.5,234.7c-.25-.45-1.48-.82-2.45-1.07,.29,.17,.59,.41,.15,.56-.65,.22-2.1,.08-2.55-.37-.14,.36-.16,.85-.14,1.19,.03,.43,5.4,.42,4.99-.32Z"/><path class="n" d="M114.2,234.19c.44-.15,.15-.39-.15-.56-.6-.15-1.11-.25-1.22-.3-.29-.11-.39-.38-.39-.38l-.3-.05s-.45,.81-.49,.91c.45,.45,1.9,.59,2.55,.37Z"/></g><path class="n" d="M106.04,181.92c0,.14-.64,3.6-3.07,6.72-5.67,7.26,1.22,44.85,1.22,44.85h.48s1.36-19.73,2.32-26.25c.6-4.05,3.32-16.02,3.32-16.02l3.54,14.91-1.83,27.34,.45-.12s8.51-22.7,8.49-28.7c-.11-24.33-3.66-21.21-4.08-23.16-1.23,.62-8.37,1.45-10.83,.42Z"/><path class="t" d="M120.68,166.98c-2.19-1.1-6.59-3-9.44,.61-1.46,1.84-2.61,10.04-2.61,10.04,0,0,.1,.06,0,0h0c-2.32,1.85-5.27,3.55-6.32,6.92-2.07,6.59-1.55,14.91-1.55,14.91,3.13,1.19,6.18,1.81,8.88,2.04,1.79,.15,3.3,.34,4.8,.24,4.72-.32,5.84-.69,6.63-.94,.88-14.9-2.15-18.4-2.53-20.17,.78-1.12,6.35-11.54,2.16-13.65Z"/><path class="l" d="M121.09,166.68c-4.5-2.26-7.59-2.23-9.93,.73-1.47,1.87-2.54,10.17-2.54,10.17,0,0,.1,.06,0,0,0,0,1.93,1.51,3.19,2.01,1.72,.68,4.7,1.17,6.71,1.03,.79-1.13,6.82-11.81,2.57-13.94Z"/><path class="ac" d="M117.81,165.4c-3.17-.85-4.89-.21-6.64,2.01-1.47,1.87-2.54,10.17-2.54,10.17,0,0,.1,.06,0,0,0,0,.22,.32,1.18,1.06,2.14,1.64,4.98,1.73,4.98,1.73,0,0,1.19-.84,2.65-4.7,1.25-3.32,.86-10.13,.37-10.27Z"/><path class="n" d="M118,162.59s-1.34,3.3-1.28,3.74c.05,.43,.54,1.14,1.19,.42,.65-.72,1.23-3.8,1.23-3.8l-1.14-.36Z"/><path class="w" d="M118.51,161.39s-1.02,2.37-1.13,2.87c-.09,.43,.89,1.75,1.09,1.32,.41-.87,1.05-3.87,1.05-3.87l-1.01-.32Z"/><path class="j" d="M121.42,161.96c-.15,.34-.74-1.44-1.44-1.85,0,0-3.02,3.25-2.67,3.85,0,0-2.45-.69-2.62-3.93,0,0-4.2,.32-4.6-1.15-1.17-4.23,2.56-7,5.53-7.03,3.91-.04,2,5.02,1.66,5.88,0,0,6.72-1.57,4.15,4.24Z"/><path class="n" d="M121.38,162.82c.11-.3,0-1.37-.11-2.27-.1-.74-.79-1.26-1.53-1.14-1.15,.18-2.41,.45-2.73,.71-.5,.41-.44,1.19-.4,1.77,.04,.58,.31,1.6,.71,2.06,.36,.41,1.33,.72,1.86,.65,1.58-.18,1.99-.64,2.22-1.78Z"/><path class="al" d="M114.79,180.37l-6.3-2.73s.1,.06,0,0h0c-2.37,1.85-5.39,3.56-6.47,6.92-2.12,6.59-1.6,14.91-1.6,14.91,3.2,1.19,6.32,1.81,9.09,2.03,.6,.05,1.72,.15,1.72,.15,0,0,2.32-5.5,2.83-12.96,.54-7.94,.74-8.32,.74-8.32Z"/><g><polygon class="n" points="135.31 179.93 137.22 180.04 137.31 178.51 135.22 178.87 135.31 179.93"/><path class="n" d="M136.46,179.9c.09,.13,1.65,.24,1.76,.04,.12-.2-1.49-.33-1.49-.33l-.27,.28Z"/><path class="n" d="M136.86,179.78c.11,.12,1.66,.07,1.76-.13,.1-.21-1.53-.41-1.53-.41l-.23,.55Z"/><path class="n" d="M136.98,178.79c.09,.13,1.63,.33,1.76,.14,.13-.19-1.43-.42-1.43-.42l-.33,.28Z"/><path class="n" d="M137.02,179.26c.15,.15,1.95,.36,1.89,.1-.03-.15-1.69-.48-1.69-.48l-.21,.38Z"/><path class="n" d="M135.98,178.74s1.03-.71,1.17-.67c.14,.03-.56,.63-.56,.63l-.6,.05Z"/></g><path class="n" d="M136.33,160.25c.17,0,.72-.46,.83-.58,.24-.25,.91-.87,.91-.87l-1.58-.93s-.42,1.07-.51,1.44c-.04,.16-.24,.56-.15,.7,.06,.1,.38,.25,.49,.25Z"/><path class="ac" d="M111.64,167.62c-.52,.13-.74,.76-.46,1.21,1.04,1.66,4.01,6.04,8.45,9.49,2.81,2.19,10.44,6.12,14.27,3.71,3.29-2.07,.52-5.43,.52-5.43l-11.83-.95s-7.57-8.84-10.97-8.03Z"/><g><path class="l" d="M113.97,172.71c.71,1.14,1.58,2.17,2.53,3.12,.48,.47,.97,.92,1.49,1.34,.53,.42,1.08,.79,1.65,1.15-.46-.49-.94-.95-1.43-1.4-.47-.47-.95-.93-1.41-1.4-.94-.93-1.85-1.89-2.83-2.82Z"/><path class="l" d="M121.13,174.03c-.63-.75-1.3-1.47-1.98-2.19-.66-.73-1.41-1.37-2.17-2-.77-.61-1.58-1.19-2.47-1.65-.45-.22-.91-.42-1.39-.55-.48-.12-1.01-.17-1.48-.02,.49-.06,.97,.04,1.42,.22,.45,.17,.88,.39,1.29,.64,.82,.51,1.61,1.08,2.36,1.69,.76,.61,1.5,1.24,2.22,1.91,.72,.66,1.44,1.32,2.2,1.95Z"/></g><g><polygon class="j" points="141.98 142.65 131.22 149.22 127.37 142.92 138.13 136.35 136.66 141.57 141.98 142.65"/><path class="q" d="M138.23,160.5c-.08,0-.17-.04-.21-.12l-11.66-18.63c-.07-.12-.04-.27,.08-.35,.12-.07,.27-.04,.35,.08l11.66,18.63c.07,.12,.04,.27-.08,.35-.04,.03-.09,.04-.13,.04Z"/></g><path class="j" d="M116.57,162.63s3.47-1.96,2.74-3.41c-.73-1.45-4.14-.35-3.96,1.17,.17,1.52,1.22,2.24,1.22,2.24Z"/><path class="j" d="M119,158.55s.69,2.64,3.01,4.56c0,0,.39-3.5-1.27-4.37-1.66-.87-1.74-.19-1.74-.19Z"/><path class="n" d="M136.13,158.87s-.11-1.37-.02-1.48,.53,1.14,.53,1.14l-.51,.34Z"/><path class="n" d="M138.2,158.7c.03,.13-.89,.56-1.03,.46-.13-.1,.54-.81,.81-.74,.09,.03,.19,.17,.21,.28Z"/><path class="n" d="M138.15,158.21c.06,.11-.99,.82-1.14,.74-.16-.08,.47-1,.78-1.04,.11-.01,.31,.2,.37,.3Z"/><path class="n" d="M137.53,157.53c.09,.11-.8,.97-.97,.89-.17-.08,.34-.95,.63-1.03,.09-.02,.28,.07,.34,.14Z"/><path class="n" d="M137.82,157.82c.09,.16-.97,.99-1.06,.79-.05-.12,.44-.9,.8-.97,.09-.02,.22,.11,.26,.19Z"/><path class="f" d="M111.46,153.61c-.64,.77-1.16,1.67-1.33,2.62-.08,.47-.05,.98,0,1.46,.05,.48,.15,.98,.33,1.38l.02,.08s.13,.18,.28,.24c.15,.08,.31,.15,.49,.2,.35,.1,.73,.16,1.11,.19,.76,.07,1.54,.05,2.32,.02h0c.12,0,.22,.09,.23,.21,.03,.74,.18,1.53,.51,2.21,.17,.34,.38,.66,.66,.92,.29,.25,.64,.46,.95,.69-.35-.18-.71-.34-1.05-.57-.33-.24-.6-.56-.81-.91-.21-.35-.36-.73-.47-1.12-.11-.39-.2-.78-.23-1.2l.23,.21c-.79,.07-1.59,.1-2.39,.04-.4-.03-.81-.09-1.21-.21-.2-.06-.4-.14-.6-.26-.19-.13-.39-.23-.5-.6l.02,.08c-.22-.53-.28-1.03-.32-1.56-.02-.52,0-1.03,.12-1.56,.13-.51,.35-.99,.64-1.41,.29-.42,.62-.81,1.01-1.14Z"/></g></g></g><g><path class="ag" d="M259.1,145.48c-1.33,.01-2.67,.07-4.01,.16,1.05-.2,2.09-.4,3.14-.6,.41-.08,.22-.73-.18-.66-2.62,.51-5.26,.92-7.91,1.22-.37,.04-.75,.08-1.13,.11,2.88-.7,5.78-1.35,8.68-1.93,.33-.07,.24-.66-.09-.63-3.13,.31-6.35,.46-9.51,.87,.81-.21,1.62-.41,2.44-.57,2.3-.46,4.51-.83,6.75-1.6,.3-.1,.24-.62-.09-.6-2.66,.16-5.31,.51-7.95,.88-.27,.04-.54,.08-.81,.12,1.29-.54,2.57-1.08,3.86-1.61,.24-.1,.22-.54-.07-.51-3.17,.32-6.31,.91-9.39,1.78,.77-.57,1.53-1.13,2.29-1.71,.21-.16,0-.52-.21-.37-1.2,.83-2.4,1.68-3.58,2.53-.23,.17-.08,.58,.21,.49,2.88-.89,5.8-1.55,8.77-1.97-1.6,.65-3.2,1.3-4.79,1.95-.93,.26-1.84,.6-2.7,1.11-.28,.16-.07,.68,.23,.55,.86-.36,1.72-.72,2.58-1.07,1.46-.41,2.99-.59,4.49-.8,1.23-.17,2.46-.33,3.69-.46-1.14,.24-2.28,.45-3.44,.68-2.44,.49-4.84,1.2-7.17,2.11-.36,.14-.21,.71,.17,.61,2.31-.61,4.68-.81,7.04-1.04,.52-.05,1.05-.11,1.57-.16-2.95,.67-5.89,1.4-8.81,2.19-.25,.07-.25,.36-.12,.52-.05,.02-.09,.03-.14,.05-.33,.12-.28,.74,.1,.68,5.35-.82,10.73-1.25,16.09-1.93,.24-.03,.24-.4,0-.4Z"/><path class="ag" d="M257.79,147.79c-4.77-.04-9.8-.14-14.5,.8-.18,.04-.12,.33,.05,.33,.18,0,.36-.01,.55-.02-.05,.13,.02,.3,.18,.29,4.57-.24,9.16-.55,13.73-.8,.36-.02,.35-.6-.01-.6Z"/><path class="ag" d="M257.5,149.59c-4.84-.03-9.67,.24-14.48,.87-.28,.04-.28,.5,0,.47,.34-.03,.68-.07,1.01-.1-.21,.06-.43,.12-.64,.19-.32,.11-.24,.61,.09,.62,3.55,.07,7.11,.13,10.66,.2-3.63,.62-7.32,.87-10.98,1.13-.41,.03-.4,.68,.01,.69,2.36,.02,4.71,.3,7.06,.46-.59,.05-1.19,.09-1.8,.1-1.15,.02-2.3,.03-3.45,.12-.86,.07-1.82,.09-2.56,.59-.29,.19-.15,.66,.18,.67,2.22,.07,4.44,.14,6.66,.21-.37,.02-.75,.05-1.12,.06-1.89,.08-3.86-.11-5.67,.56-.23,.09-.35,.43-.14,.61,.44,.4,.99,.32,1.55,.34,1.11,.05,2.21,.1,3.32,.15,1.21,.06,2.41,.11,3.62,.17-1.17,.18-2.36,.29-3.55,.36-1,.06-2,.08-3,.13-.58,.03-1.12,.02-1.6,.41-.21,.17-.23,.61,.09,.67,2,.37,4.01,.62,6.02,.77-2.12,.2-4.25,.25-6.31,.9-.37,.12-.29,.73,.11,.72,2.36-.04,4.72,.05,7.07,.25-2.52,.67-5.18,.61-7.69,1.37-.34,.1-.31,.62,.01,.72,1.84,.56,3.78,.25,5.64,.55-.75,.19-1.51,.27-2.33,.29-.92,.02-1.77,.09-2.57,.62-.3,.2-.16,.71,.19,.71,1.11,0,2.21,.11,3.3,.3-.96,.22-1.94,.35-2.92,.46-.33,.04-.51,.54-.17,.72,.74,.41,1.53,.44,2.32,.5-.71,.22-1.43,.4-2.16,.53-.41,.08-.3,.79,.11,.77,.34-.02,.67-.01,1,0-.54,.23-1.07,.46-1.61,.7-.26,.11-.39,.57-.07,.72,.19,.09,.38,.18,.57,.25-.12,.09-.24,.17-.38,.25-.39,.21-.09,.8,.3,.71h.02c.11,.04,.24,.02,.35-.09l.09-.02c.18-.04,.25-.2,.25-.37,.13-.11,.25-.24,.37-.38,.18-.22,.1-.58-.18-.65-.07-.01-.13-.04-.19-.06,.66-.29,1.32-.57,1.98-.86,.32-.14,.37-.66-.01-.76-.05-.01-.09-.02-.14-.03,.47-.15,.93-.3,1.39-.48,.34-.13,.34-.64-.01-.75-.54-.18-1.12-.2-1.69-.24,.83-.15,1.65-.34,2.46-.63,.33-.12,.34-.65-.01-.74-.76-.19-1.53-.34-2.3-.44,.28,0,.55,0,.83-.03,.91-.09,1.78-.33,2.63-.7,.33-.14,.33-.6-.01-.73-1.66-.6-3.41-.4-5.12-.55,2.55-.46,5.17-.47,7.6-1.52,.38-.16,.29-.68-.11-.73-1.67-.19-3.35-.31-5.03-.37,2.02-.2,4.07-.24,6.04-.79,.38-.11,.28-.72-.11-.72-2.55-.02-5.08-.23-7.6-.61,.4,0,.79,.02,1.09,0,.93-.04,1.86-.08,2.79-.16,1.74-.14,3.46-.4,5.14-.89,.39-.11,.27-.7-.11-.72l-5.32-.24c-.89-.04-1.77-.08-2.66-.12-.33-.02-.97,.04-1.57,.03,1.48-.24,3.04-.13,4.53-.2,2.04-.1,4.07-.3,6.09-.59,.42-.06,.43-.71-.01-.72-2.87-.09-5.74-.18-8.61-.27h.02c1.08-.05,2.16-.04,3.24-.07,2.03-.06,3.9-.47,5.89-.79,.42-.07,.43-.76-.01-.72-2.36,.22-4.71,0-7.06-.2,3.03-.28,6.05-.62,9.02-1.33,.34-.08,.23-.62-.09-.62-3.37-.06-6.74-.12-10.11-.18,1.26-.05,2.53,.01,3.8-.03,2.29-.07,4.57-.37,6.82-.84,.33-.07,.23-.61-.09-.61Zm-7.62,.82c-.12,0-.24,0-.36,0,1.06-.06,2.11-.11,3.17-.14-.93,.08-1.87,.13-2.81,.14Z"/></g><g class="m"><polygon class="ah" points="282.95 242.99 309.2 236.36 309.2 282.18 282.9 294.33 282.95 242.99"/><polygon class="c" points="241.84 239.23 268.69 232.7 309.2 236.36 282.95 242.99 241.84 239.23"/><polygon class="j" points="282.95 242.99 282.9 294.33 241.79 287.9 241.84 239.23 282.95 242.99"/></g><g><path class="l" d="M267.77,143.92c-.16,.31-.03,.63,.14,.94,1.17,2.11,6.31,9.96,7.04,10.72,.77,.8,3.67,2.66,3.57,.08-.04-.99-.64-4.25-2.1-7-2.41-4.55-5.14-11.46-8.66-4.74Z"/><g><path class="n" d="M266.21,161.33s-.54,2.39-.3,2.66c.24,.27,1.13,.62,1.66,.02s.04-2.69,.04-2.69h-1.4Z"/><path class="w" d="M265.93,162.8c.47,.35,1.21,.79,1.86,.57,.02-.44-.02-1.13-.08-1.5h-1.62c-.07,.35-.11,.53-.16,.93Z"/></g><path class="n" d="M268.58,161.91c.23-.21,.59-1.2,.87-2.04,.23-.7-.16-1.44-.86-1.66-1.09-.33-2.31-.64-2.7-.55-.62,.14-.89,.86-1.11,1.38-.22,.52-.42,1.54-.26,2.11,.14,.52,.86,1.2,1.35,1.37,1.47,.52,2.02,.29,2.71-.61Z"/><path class="ac" d="M255.4,181.47s1.73-13.13,3.33-15.76c.83-1.37,2.71-1.77,3.96-1.82,2.62-.11,7.48-.4,9.85-.57,.81-.06,1.47-.65,1.62-1.44h0c.56-2.99,.88-6.48,.88-6.48l2.97-1.89s1.4,3.68-.43,9.38c-.66,2.05-1.42,3.25-1.98,4.2-.19,.32-.93,3.85-1.17,5.12-.38,2.02-1.12,4.58-1.42,5.67-3.24,1.56-10.57,.65-12.08,.28,.01-.1-.45-2.68-.69-4.9-.22-2.03,.04-1.97-.18-3.33-.09-.43-.51,12.06-.51,12.06l-4.16-.51Z"/><path class="aa" d="M270.99,157.32c-.19-.67-.8-1.14-1.44-1.15-.11-.56-.39-1.05-.87-1.36-.63-.42-1.14-.23-1.82-.18-.94,.08-.71-.74-1.49-.98-.3-.09-.54-.04-.75,.11-.4-.69-1.44-.74-2.02,.08-.61,.88-.6,3.23,.83,3.91,1.98,.94,6.03-.27,5.47,2.68-.11,.59-.3,.85-.38,1.31-.05,.27,.24,.41,.43,.28,.23-.14,1.53-1.65,1.78-2.43,.07-.22,.15-.47,.18-.72,.17-.53,.2-1.1,.07-1.55Z"/><path class="l" d="M269.52,163.52s.28-.02,.42-.03c1-.06,1.9-.12,2.6-.17,.81-.06,1.47-.65,1.62-1.44h0c.56-2.99,.88-6.48,.88-6.48l2.97-1.89s1.4,3.68-.43,9.38c-.66,2.05-1.42,3.25-1.98,4.2-.19,.32-.93,3.85-1.17,5.12-.38,2.02-1.12,4.58-1.42,5.67-1.22,.59-3.01,.82-4.86,.87-.18,0-.55,0-.55,0,0,0,1.76-4.52,2.17-8.9,.31-3.33-.25-6.34-.25-6.34Z"/><g><path class="q" d="M271.57,237.12c-.02-1.11,1.63-.96,2.7-1.26-.32,.19-.65,.47-.15,.63,.73,.23,2.34,.04,2.83-.48,.17,.4,.2,.95,.19,1.33-.02,.49-5.55,.72-5.57-.22Z"/><path class="n" d="M274.12,236.49c-.5-.16-.18-.44,.15-.63,.67-.19,1.23-.31,1.35-.37,.33-.14,.42-.43,.42-.43l.34-.06s.52,.89,.57,1c-.49,.52-2.11,.71-2.83,.48Z"/></g><g><path class="q" d="M262.8,237.12c-.1-1.08,1.63-.96,2.7-1.26-.32,.19-.65,.47-.15,.63,.73,.23,2.34,.04,2.83-.48,.17,.4,.2,.95,.19,1.33-.02,.49-5.48,.72-5.57-.22Z"/><path class="n" d="M265.35,236.49c-.5-.16-.18-.44,.15-.63,.67-.19,1.23-.31,1.35-.37,.33-.14,.42-.43,.42-.43l.34-.06s.52,.89,.57,1c-.49,.52-2.11,.71-2.83,.48Z"/></g><path class="q" d="M273.01,177.87c.02,.16,3.65,3.86,4.58,8.02,2.08,9.24-.06,43.25-.41,48.58-.03,.4-.35,.72-.76,.73l-.62,.02c-.3,0-.56-.2-.62-.5l-7.73-43.27-1.8,13.58,2.42,30.08-1.21,.12s-9.29-24.88-9.87-31.56c-1.55-17.64,3.49-24.92,3.92-25.98,1.39,.66,9.37,1.38,12.1,.17Z"/><path class="y" d="M273.01,177.87c.02,.16,3.65,3.86,4.58,8.02,2.08,9.24-.06,43.25-.41,48.58-.03,.4-.35,.72-.76,.73l-.62,.02c-.3,0-.56-.2-.62-.5l-7.73-43.27s.76-4.59,.76-7.02c0-3.71-.62-5.9-.62-5.9,0,0,.27,0,.41,0,2,0,3.92-.17,5-.65Z"/><path class="am" d="M270.99,157.32c-.21-.62-.81-1.09-1.44-1.08-.04,0-.07-.03-.08-.06h0c-.1-.49-.37-.95-.77-1.23-.4-.3-.88-.33-1.39-.24-.25,.03-.51,.09-.82,.03-.33-.05-.53-.35-.66-.55-.24-.4-.77-.58-1.12-.32h0c-.07,.05-.16,.04-.21-.03v-.02c-.24-.44-.86-.58-1.31-.34-.47,.24-.71,.76-.81,1.3-.1,.54-.07,1.11,.07,1.65,.08,.27,.2,.52,.35,.75,.17,.22,.38,.41,.63,.56-.26-.12-.5-.29-.69-.51-.18-.23-.32-.48-.43-.76-.19-.55-.24-1.15-.16-1.73,.04-.29,.12-.58,.26-.85,.15-.27,.37-.5,.65-.65,.55-.32,1.36-.16,1.69,.43l-.22-.05c.52-.4,1.29-.09,1.55,.4,.15,.23,.26,.4,.48,.44,.2,.05,.47,0,.72-.03,.26-.03,.53-.06,.81-.01,.28,.05,.54,.18,.75,.35,.44,.34,.7,.85,.79,1.38l-.08-.06c.7,.04,1.3,.59,1.44,1.23Z"/><path class="ac" d="M252.89,194.56c-.74-.63-.3-3.1-.21-3.44,.61-2.45,2.51-10.89,3.22-12.01,.65-1.02,1.32-3.41,3.13-.82,.78,1.12,1.29,5.14,1.29,6.72,0,5.07-3.31,13.08-7.43,9.55Z"/><path class="n" d="M254.05,194.42c-.17,0-.31,.12-.35,.28-.11,.41-.26,1.1-.4,1.89-.06,.36-.04,1,.06,1.37,.15,.54,.44,.87,.53,.97,.28,.31,.39,0,.39,0,0,0,.15,.21,.36,.06,.21-.16,.44-1.66,.34-2.31,0,0,.14,.71,.34,.6s0-1.51-.3-1.85c0,0-.2-.48-.24-.74-.03-.18-.43-.26-.73-.25Z"/><g><path class="n" d="M267.3,137.85c-.29-.12-.83-.23-1.15-.22-.48,.02-.82,.27-.92,.32-.31,.17,.01,.32,.01,.32,0,0,2.67-.15,2.05-.42Z"/><g><polygon class="q" points="259.08 143.34 258.21 143.84 258.82 144.34 259.5 143.99 259.08 143.34"/><path class="y" d="M261.03,140.68l1.72,3.2-.08,.06c-.05,.04-.13,.04-.18,0-.22-.16-.85-.53-1.64-.31-.67,.19-1.05,.39-1.22,.49-.06,.04-.15,.02-.18-.05l-.42-.79c-.04-.07,0-.15,.06-.18,.24-.11,.76-.35,.99-.59,.28-.3,.76-1.12,.71-1.6,0-.06,.02-.12,.08-.15l.16-.09Z"/><path class="j" d="M271.1,136.22l.9,1.66c.08,.16,.03,.35-.12,.44l-8.92,5.62c-.08,.05-.18,.02-.23-.06l-1.71-3.21c-.04-.08-.01-.18,.07-.22l9.56-4.38c.16-.07,.35-.01,.43,.14Z"/></g><path class="n" d="M269.35,142.74c.16-.13,.21-.34,.14-.52-.19-.48-.84-1.85-.84-1.85l-1.12,.7s-1.86-.33-1.98-.07c-.12,.26,1.61,1.37,2.14,1.48,0,0,.54,.32,.77,.54,.16,.15,.61-.06,.89-.29Z"/><path class="n" d="M265.35,138.1c-.31,.04-.68,.11-.96,.28-.41,.25-.55,.47-.6,.56-.15,.27-.05,.5,.04,.44,.65-.48,2.19-1.36,1.52-1.28Z"/><path class="n" d="M266.25,137.64c-.31,.04-.68,.11-.96,.28-.41,.25-.55,.47-.6,.56-.15,.27-.05,.5,.04,.44,.34-.25,1.08-.51,1.46-.79,.35-.25,.38-.53,.06-.49Z"/></g></g><g><path class="n" d="M8.53,211.64c-.23-.09-2.75,1.49-3.34,2.56-.45,.83-.94,3.44-.59,3.73s.53-.27,.53-.27c0,0,.04,.58,.43,.49,.24-.06,.57-1.28,1.07-2.06,.3-.48,.88-.84,1-1.19,0,0-.07,1.17,.29,1.14,.36-.03,.9-2.01,.85-2.66-.04-.44,.17-1.58-.25-1.74Z"/><g><path class="q" d="M11.85,296.19c-.4-2.36,2.89-1.7,4.8-2.24-.58,.34-1.15,.84-.26,1.12,1.29,.4,4.17,.06,5.04-.86,.3,.71,.35,1.69,.33,2.36-.03,.86-9.63,1.26-9.91-.38Z"/><path class="n" d="M16.39,295.07c-.89-.28-.31-.77,.26-1.12,1.19-.33,2.18-.56,2.4-.65,.58-.24,.75-.77,.75-.77l.6-.11s.93,1.58,1.02,1.79c-.87,.92-3.74,1.26-5.04,.86Z"/></g><g><path class="q" d="M65.17,294.4c.4-2.36-2.89-1.7-4.8-2.24,.58,.34,1.15,.84,.26,1.12-1.29,.4-4.17,.06-5.04-.86-.3,.71-.35,1.69-.33,2.36,.03,.86,9.62,1.26,9.91-.38Z"/><path class="n" d="M60.63,293.28c.89-.28,.31-.77-.26-1.12-1.19-.33-2.18-.56-2.4-.65-.58-.24-.75-.77-.75-.77l-.6-.11s-.93,1.58-1.02,1.79c.87,.92,3.74,1.26,5.04,.86Z"/></g><path class="y" d="M26.07,183.53c-.03,.29-3.81,5.82-6.54,13.19-4.26,11.49-1.81,83.07-.15,95.36,.22,1.66,4.18,0,4.27-2.06,.58-12.96,15.16-79.88,15.16-79.88l17.35,81.23h4.07s-2.28-58.18-4.88-89.09c-.86-10.2-4.22-19.01-4.71-19.77-3.85-.81-18.6,.55-24.57,1.03Z"/><path class="q" d="M26.07,183.53c-.03,.29-3.81,5.82-6.54,13.19-4.26,11.49-1.81,83.07-.15,95.36,.12,.88,1.3,.83,2.39,.27,.47-.24,.09-25.59,6.26-55.18,2.32-11.13,4.29-21.91,6.48-30.7,3.02-12.15,5.74-20.49,3.93-20.43-5.08,.17-9.67-2.72-12.38-2.51Z"/><path class="ac" d="M43.45,151.29c-2.95-2.15-6.74-4.27-21.56-.57-1.47,.37-2.89,.95-4.3,1.8,1.23,4.97-.45,11.72-.45,11.72,1.69,3.17,2.96,6.88,3.86,10.15,1.15,4.22,2.53,13.59,2.53,13.59,0,0,10.22,.36,15.15,0,4.06-.3,11.98-2.56,11.95-4.98-.05-4.81-.57-12.32-2.07-19.1-1.75-7.92-5.12-12.6-5.12-12.6Z"/><path class="ad" d="M17.74,152.43c-3.63,3.47-4.2,5.25-5.7,8.29-3.05,6.18-6.1,24.43-6.49,27.61-.75,6.01,10.02-6.64,10.02-6.64,0,0-.21-4.9,3.01-12.62,.77-1.84,3.27-6.91,3.27-6.91,0,0-2.49-4.88-4.12-9.73Z"/><path class="ad" d="M3.99,208.93c-3.18-5.15,2.29-32.69,6.87-28.12,2.41,2.4,4.72,.9,4.72,.9l-2.55,27.04s-3.42,9.28-9.04,.18Z"/><g><path class="n" d="M89.09,110.22c.64-1.44-.11-3.43-1.37-3.02-.15,.05-.69,.46-1.14,.81-.36,.28-.66,.52-.66,.52,0,0,.81-1.09,.36-1.21s-.87,.43-1.14,.91c-.27,.48-2.04,2.91-1.23,4.71-.16-.06,.41,.33,.63,.3,1.18-.16,3.86-1.46,4.55-3.02Z"/><path class="n" d="M89.62,106.01s.88-.07-.94,1.56l-2.44,.69s2.73-2.14,3.38-2.26Z"/></g><path class="ad" d="M27.27,149.19s7.57,38.7,5.95,49.94c-.19,1.29-1.21,2.28-2.5,2.43l-12.42,1.45s.67-7.65,1.15-10.16c.53-2.78,2.94-10.93,2.94-10.93l-9.23-23.44s2.06-4.48,4.74-6.61c1.91-1.52,4.43-1.99,9.37-2.69Z"/><path class="ai" d="M32.11,178.92l-7.83-17.79,1.82-1.14-3.35-.82,.88-6.58c.28-2.1,1.79-3.86,3.85-4.36,.54-.13,1.15-.24,1.82-.31l-.83,2.05c-.29,.71-.36,1.49-.19,2.24l3.03,12.32,.83,14.39Z"/><path class="ai" d="M76,113.55c-2.37,2.99-13.64,20.8-13.64,20.8,0,0,1.95,7.28,5.42,4.75,3.83-2.79,8.23-7.12,13.41-11.74,3.8-3.39,3.5-11.21,3.11-14.96-.12-1.18-1.22-2.02-2.38-1.81-1.86,.35-4.49,1.15-5.92,2.95Z"/><path class="ai" d="M66.67,131.09s-14.6,10.54-18.31,12.96c-1.62,1.06-3.82,2.39-10.21,4.69-1.95,.7,4.02,2.47,2.95,7.76,4.09-1.36,26.09-16.5,29.28-19.36,3.34-2.99-3.71-6.05-3.71-6.05Z"/><path class="ak" d="M31.92,151.46s9.75,27.35,6.77,36.51c0,0,8.16-.69,10.66-3.22,2.5-2.53-9.23-36.05-9.23-36.05l-8.19,2.75Z"/><path class="ai" d="M33.32,148.45s12.02,32.48,13.68,48.97c.09,.85,.98,1.35,1.76,.99l6.15-1.07-3.92-19.34s-.91-12.1-1.48-15.05c-.22-1.11-.78-4.41-1.6-7.41-.38-1.39,3.37-4.97,3.37-4.97,0,0-5.67-3.42-7.82-3.42-7.27,0-10.22,.74-10.22,.74l.09,.56Z"/><path class="ad" d="M42.2,175.57s-8.51-26.81-9.28-27.5c0,0-1.12-1.12,.87-.89s4.58,1.6,6.33,4.14c1.75,2.54,2.22,3.18,2.22,3.18l-2.18,1.79,3.3,.72-1.25,18.55Z"/><path class="q" d="M33.75,151.89l-.58,1.95-.94,.17-1.75-1.62s1.66-1.83,3.27-.5Z"/><path class="q" d="M32.21,153.03s.89,12.96,1.02,17.47c.13,4.51,.22,6.45,.22,6.45l4.58,1.18,2.09-3.24s-5.6-20.13-7.26-21.87c-1.66-1.74-.66,.02-.66,.02Z"/><g><path class="n" d="M28.83,145.07s-.03,5.59,.63,6.07c.67,.48,2.82,.83,3.7-.76,.88-1.59-1.23-6-1.23-6l-3.11,.69Z"/><path class="w" d="M28.98,149.11c1.29,.2,2.94-.87,3.88-2.36-.17-.98-.12-.4-.43-1.19l-3.57-.81c.02,.8,.03,3.44,.11,4.36Z"/></g><path class="aa" d="M33.75,142.93c-.01-.09-.19-8.92-.49-9.74-.34-.91-.73-2.16-1.65-3.07-1.67-1.67-5.83-1.58-7.35,.67-.82,1.21-1.67,5.04-4.25,3.96,0,0-1.94-1.3-1.08,.6,1.08,2.38,2.93,2.6,2.93,2.6,0,0,2.81,7.31,5.2,7.29,.17,0,7.03-.16,6.69-2.31Z"/><path class="n" d="M33.63,142.17c.02-.69-.92-2.5-1.41-3.38-.2-.36-.53-.66-.93-.75-2.17-.51-5.4,1.62-5.86,2.36-.55,.91-.02,2.07,.35,2.94,.37,.87,2.94,4.91,5.67,3.49,2.97-1.55,2.46-2.78,2.18-4.66Z"/><path class="ac" d="M33.21,148.01s.4,1.15-1.47,3.47l2.16,1.22s1.75-1.36-.69-4.7Z"/><path class="ak" d="M28.93,148.76s-.03,.62,2.99,2.7l-1.17,2.37s-3.42-1.26-1.82-5.07Z"/><path class="e" d="M31.61,130.13c-.96-.79-2.22-1-3.4-.93-1.18,.05-2.37,.45-3.18,1.22-.41,.39-.65,.85-.9,1.42-.25,.56-.49,1.13-.8,1.69-.32,.55-.71,1.12-1.35,1.52-.64,.41-1.52,.39-2.15,.1h-.01l-.06-.04c-.19-.12-.42-.25-.61-.32-.09-.04-.2-.04-.16-.04,.02,0,.11-.05,.13-.11,.02-.04,0-.05,.01-.02,.03,.31,.3,.87,.55,1.26,.26,.42,.58,.8,.96,1.09,.37,.3,.84,.53,1.25,.62h.05c.11,.03,.2,.11,.24,.21,.44,1.06,.9,2.12,1.39,3.16l.72,1.57c.26,.51,.49,1.05,.86,1.49-.45-.37-.76-.88-1.08-1.36-.31-.49-.63-.98-.91-1.49-.57-1.01-1.11-2.04-1.64-3.07l.29,.21c-.65-.11-1.15-.37-1.64-.72-.48-.35-.87-.78-1.19-1.27-.16-.24-.29-.49-.42-.75-.12-.27-.25-.51-.28-.92,0-.1,0-.24,.08-.41,.08-.17,.29-.31,.45-.33,.3-.05,.46,.02,.62,.07,.31,.11,.55,.25,.81,.41l-.07-.04c.49,.21,.97,.22,1.39-.03,.43-.24,.77-.71,1.07-1.2,.3-.5,.56-1.04,.82-1.6,.24-.55,.61-1.18,1.14-1.6,1.03-.86,2.36-1.18,3.61-1.15,1.24,.06,2.57,.41,3.4,1.35Z"/></g><g><g><g><path class="y" d="M376.62,293.33c.25,.57,.33,1.38,.32,1.93-.01,.7-8.46,.97-8.54,.36-.3-2.22,2.54-2.04,4.27-2.37-1.12,.18-.89,.69-.17,.89,1.08,.3,3.42-.03,4.12-.81Z"/><path class="n" d="M372.67,293.24s.08-.01,.12-.03c.93-.17,1.68-.5,1.86-.58,.23-.1,.39-.35,.49-.56,.11-.22,.15-.4,.15-.4l.9-.03s.02,.09,.05,.23c.1,.42,.31,1.32,.37,1.45-.7,.77-3.04,1.11-4.12,.81-.73-.21-.95-.71,.17-.89Z"/></g><g><path class="y" d="M409.33,293.33c.25,.57,.33,1.38,.32,1.93-.01,.7-8.46,.97-8.54,.36-.29-2.22,2.54-2.04,4.27-2.37-1.12,.18-.89,.69-.17,.89,1.08,.3,3.42-.03,4.12-.81Z"/><path class="n" d="M405.38,293.24s.08-.01,.12-.03c.93-.17,1.68-.5,1.86-.58,.23-.1,.39-.35,.49-.56,.11-.22,.15-.4,.15-.4l.9-.03s.02,.09,.05,.23c.1,.42,.31,1.32,.37,1.45-.7,.77-3.04,1.11-4.12,.81-.73-.21-.95-.71,.17-.89Z"/></g><path class="y" d="M356.81,143.59c.22,.26-.06,.98-.33,1.33-.27,.35-.87,.85-1.16,.75-.18-.06-.38-.23-.54-.42,.23-.04,.84-.22,1.13-.96,.21-.54,.21-.88,.18-1.07,.24,.04,.53,.16,.72,.37Z"/><path class="a`" d="M356.1,143.22c.04,.19,.04,.53-.18,1.07-.29,.74-.9,.92-1.13,.96-.22-.23-.37-.45-.37-.45l1.19-1.62s.22-.01,.49,.04Z"/><path class="a`" d="M356.1,143.22c-.27-.05-.49-.04-.49-.04l-1.19,1.62s.15,.22,.37,.45c-.07,.02-.11,.02-.11,.02l-6.94-4s.09-.03,.12-.05c.32-.17,.71-.5,1.1-1.11,.38-.61,.44-1.12,.4-1.46l6.66,4.38s.05,.06,.07,.2Z"/><path class="y" d="M349.37,138.65c.04,.35-.02,.85-.4,1.46-.39,.61-.78,.94-1.1,1.11-.04,.02-.08,.04-.12,.05l-.85-.49,1.9-2.51,.57,.37Z"/><path class="y" d="M349.37,138.65l-.57-.37-1.9,2.51,.85,.49c-.26,.11-.56,.09-.83-.05-.69-.36-2.22-1.22-3.54-1.94,.43-.31,.95-.85,1.55-1.7,.5-.72,.81-1.32,.98-1.81l3.1,2.2c.12,.07,.22,.17,.27,.3,.04,.1,.08,.22,.1,.38Z"/><path class="a`" d="M326.91,131.62c.24,.02,.49,0,.74-.03,1.1-.18,2.7-.87,3.86-3.17,.72-1.45,.94-2.54,.94-3.34,0-.15-.02-.29-.04-.43l13.02,8.96c.43,.3,.68,.78,.65,1.29-.01,.24-.07,.53-.18,.87-.17,.49-.48,1.09-.98,1.81-.6,.85-1.12,1.38-1.55,1.7-1.03,.77-1.59,.4-1.59,.4l-5.68-3.08-9.18-4.97Z"/><path class="y" d="M332.46,125.08c0,.8-.22,1.9-.94,3.34-1.16,2.3-2.77,2.99-3.86,3.17-.24,.04-.49,.05-.74,.03l-.83-.45,5.01-7.43,1.32,.91c.03,.14,.04,.29,.04,.43Z"/><path class="y" d="M332.41,124.65l-1.32-.91-5.01,7.43,.83,.45c-.38-.04-.76-.16-1.11-.35l-25.98-14.3c.12-.04,.24-.1,.33-.19,1-.84,2.59-2.76,3.72-4.61,1.12-1.82,1.77-4.25,2.02-5.34l25.22,15.9c.68,.43,1.17,1.12,1.3,1.91Z"/><path class="a`" d="M305.79,106.12c.14,.1,.21,.26,.17,.41-.01,.08-.04,.18-.06,.3l-.91-.57-6,10.24,.83,.46c-.29,.12-.63,.11-.93-.03l-6.2-2.89c.58,.36,2.33-1.4,4.1-4.06,.24-.38,.5-.78,.77-1.21,.07-.11,.13-.22,.2-.34,.09-.14,.16-.28,.24-.42,.03-.05,.06-.08,.08-.13,.11-.19,.21-.37,.31-.56,.09-.18,.19-.36,.27-.52,1.16-2.27,1.7-4.11,1.3-4.57l5.85,3.88Z"/><path class="a`" d="M304.99,106.27l.91,.57c-.25,1.09-.9,3.53-2.02,5.34-1.13,1.84-2.72,3.77-3.72,4.61-.1,.09-.21,.15-.33,.19l-.83-.46,6-10.24Z"/><path class="y" d="M299.94,102.25c.4,.46-.14,2.29-1.3,4.57,.57-1.16,.84-2,.65-2.12-.26-.15-1.25,.99-2.33,2.66,.85-1.44,1.82-3.15,2.92-5.16,.03,.02,.06,.03,.07,.05Z"/><path class="y" d="M295.06,107.39c1.98-3.28,4.14-5.6,4.81-5.19-1.1,2.01-2.06,3.72-2.92,5.16-.01,.02-.02,.03-.03,.05-.15,.24-.3,.48-.45,.73-.24,.4-.47,.8-.68,1.17-.02,.03-.03,.05-.04,.07-2.05,3.39-3.06,4.68-3.06,4.68-.68-.4,.39-3.39,2.38-6.67Z"/><path class="al" d="M299.28,104.7c.19,.12-.07,.96-.65,2.12-.08,.16-.18,.34-.27,.52-.1,.19-.2,.38-.31,.56-.02,.05-.05,.08-.08,.13-.08,.14-.16,.28-.24,.42-.06,.11-.12,.22-.2,.34-.26,.43-.52,.83-.77,1.21-.98,1.43-1.83,2.37-2.06,2.22-.23-.15,.21-1.31,1.02-2.83,.02-.03,.03-.05,.04-.07,.35-.57,.73-1.21,1.13-1.91,.01-.02,.02-.03,.03-.05,1.08-1.67,2.07-2.81,2.33-2.66Z"/><path class="al" d="M298.37,107.33c-.1,.19-.2,.38-.31,.56,.11-.19,.21-.37,.31-.56Z"/><path class="al" d="M297.74,108.44c.08-.14,.16-.28,.24-.42-.08,.14-.15,.28-.24,.42Z"/><path class="al" d="M296.47,108.13c.15-.25,.31-.49,.45-.73-.41,.7-.78,1.33-1.13,1.91,.21-.37,.44-.77,.68-1.17Z"/><path class="y" d="M294.72,112.21c.23,.15,1.07-.79,2.06-2.22-1.77,2.67-3.51,4.43-4.1,4.06,0,0,1.01-1.29,3.06-4.68-.82,1.52-1.26,2.69-1.02,2.83Z"/><path class="y" d="M364.73,192.78c.65-5.49,2.96-9.9,5.03-12.91h.01c1.81,1.15,4.47,1.23,7.36,.74,4.39-.73,9.29-2.76,12.54-4.38,2.11-1.07,3.53-1.95,3.66-2.21,2.18,1.23,7.23,4.52,11.44,12.39,5.98,11.18,4.51,92.79,5.24,105.25,0,.02-3.57,.25-3.57,.25l-19.14-82.91-9.87,82.45c-.06,.94-2.17,.97-2.37,.99-.52,.08-1.01-.3-1.03-.82-.64-15.2-10.72-86.87-9.3-98.83Z"/><path class="n" d="M423.94,161.35c.26-.18,.63-.72,.63-.72,.22-.5,.72-.7,.99-.8,.34-.12,.6-.29,.72-.21,.23,.17-.46,.63-.46,.63-.1,.09-.18,.21-.26,.33,.42-.21,1.11-.98,1.29-.64,.23,.42,.35,1.64-.01,2.17s-2.18,.37-2.31,.39c-.2,.04-.39-.06-.48-.23-.17-.32-.29-.8-.1-.93Z"/><path class="n" d="M334.44,139.36c-.21-.02-.05-.23-.09-.43-.1-.54-.84-1.8-.66-2.82,.11-.6,.25-1.94,1.01-2.3,.13-.06,.09,.25,.06,.73,0,0,.6-1.11,.99-1.19,.39-.08,.2,.48,.2,.48,0,0,.31-.23,.57-.01,.17,.14,.03,.57-.23,1.42-.24,.77-.36,.97-.3,1.29,0,0,.9,.47,1.15,.63,.24,.15-.57,.16-1.36,.14-.09,0-.3,.47-.34,.55-.15,.32-.17,1.01-.02,1.44,.14,.4-.6,.1-.98,.07Z"/><path class="al" d="M334.18,138.38c.58-.14,1.16-.2,1.71-.16l.27,.02s.1,.02,.15,.04c.31,.06,.57,.27,.71,.58,1.28,2.95,4.66,19.31,4.66,19.31l4.68,2.08s-7.09,6.55-10.09,2.82c-.94-1.17-5.14-13.25-5.62-20.96-.12-1.83,1.64-3.25,3.52-3.73Z"/><path class="q" d="M364.73,192.78c.65-5.49,2.96-9.9,5.03-12.91h.01c1.81,1.15,4.47,1.23,7.36,.74,1.1-.18,2.23-.45,3.35-.77,1.63-.46,11.47,20.29,17.83,47.26,6.87,29.13,10.2,64.66,9.71,64.7-.82,.06-1.58,.1-1.58,.1l-19.14-82.91-9.87,82.45c-.06,.94-2.17,.97-2.37,.99-.52,.08-1.01-.3-1.03-.82-.64-15.2-10.72-86.87-9.3-98.83Z"/><path class="i" d="M364.12,140.05c-.38-.04-7.35,7.88-4.05,15.67,3.3,7.79,16.56,4.25,16.56,4.25l-12.52-19.91Z"/><g><path class="n" d="M367.54,148.31s.89,4.8,.58,5.45c-.31,.66-1.54,1.81-2.33,.43-.79-1.38-.2-5.78-.2-5.78l1.95-.1Z"/><path class="w" d="M368.09,151.9c-.51,.68-1.74,1.29-2.66,.81-.06-1.03-.04-2.16,.01-3.04l2.33-.12c.13,.81,.21,1.4,.32,2.35Z"/></g><path class="d" d="M362.9,144.39c.41-1.17,1.72-1.76,2.87-1.31,1.79,.69,3.74,1.57,4.17,2.1,.67,.84,.3,2.08,.03,3-.1,.38-.3,.86-.55,1.34-.01,.02-.02,.04-.03,.05-.35,.68-.82,1.34-1.28,1.69-.16,.12-.36,.22-.59,.29h-.01c-.81,.3-1.98,.34-2.62,.12-2.49-.84-3-1.72-2.96-3.64-.08-.52,.46-2.22,.97-3.63Z"/><path class="w" d="M367.52,151.55s0,.02,0,.03l-.02-.02h.01Z"/><path class="ac" d="M381.41,152.53c8.22,1.21,17.83,10.16,17.83,10.16l4.29,6.9s-10.09-1.8-17.94-7.7c-2.37-1.78-4.64-3.16-5.64-4.44-.08-.1-.03-5.15,1.46-4.93Z"/><path class="al" d="M361.6,154.82c-9.06,3.06-20.61,3.34-20.61,3.34l-2.48,6.04s12.4,.58,21.24-3.67c2.67-1.29,4.49-2.52,5.73-3.58,.1-.09-3.09-2.39-3.87-2.13Z"/><path class="t" d="M423.86,160.83c-.2-.53-1.34-.9-1.91-.88-4.14,.14-23.73,1-26.53,1.42-1.97,.3-8.12-.05-4.32,3.48,.35,.33,12.48,4.97,15.01,5.52,8.13,1.75,21.29-.07,17.76-9.54Z"/><path class="t" d="M362.88,154.39c1.69-.34,13-2.35,15.64-2.06,2.09,.23,5.33-.32,6.8,2.94,3.2,7.11,7.49,16.79,8,18.73h0c-.13,.28-2.12,3.56-4.08,4.89-3.23,2.2-6.89,3.82-11.3,4.4-5.59,.74-9.75-.94-9.75-.94-1.51-3.61-3.33-8.06-5.64-12.85-.87-1.79-3.13-6.66-3.2-10.78-.03-2.47,1.4-3.91,3.52-4.35Z"/><path class="al" d="M362.88,154.39c.47-.1,1.68-.32,3.23-.58,.21-.04,.66-.11,.66-.11,0,0,2.88,8.65,6.73,16.16,3.45,6.73,9.08,12.39,9.08,12.39,0,0-.58,.18-.87,.27-1.2,.35-2.45,.62-3.77,.79-5.59,.74-9.75-.94-9.75-.94-1.51-3.61-3.33-8.06-5.64-12.85-.87-1.79-3.13-6.66-3.2-10.78-.03-2.47,1.4-3.91,3.52-4.35Z"/><path class="i" d="M372.45,170.98c-3.94-4.21-3.33-15.46-5.3-23.26-.82-3.27-4.68-4.22-4.04-7.66,.54-2.92,4.46-4.11,6.12-1.53,0,0,4.01-4.2,7.96-1.88s3.12,8.23,3.12,8.23c0,0,6.1-1.02,3.65,4.37,0,0,13.48-1.43,17.38,9.48,3.9,10.91-5.98,18.46-11.05,19.09-4.64,.58-12.01-.6-17.84-6.84Z"/></g><path class="g" d="M366.78,146.73c.7,1.69,1.13,3.49,1.53,5.28,.36,1.8,.58,3.62,.85,5.42,.27,1.8,.5,3.61,.81,5.4,.3,1.8,.56,3.56,1.27,5.18,1.28,3.29,3.94,5.91,7.15,7.45,1.6,.8,3.32,1.35,5.09,1.74,1.76,.42,3.57,.63,5.4,.74-3.64,.22-7.4-.25-10.83-1.73-1.72-.73-3.32-1.78-4.67-3.1-1.36-1.32-2.41-2.95-3.13-4.7-.74-1.75-1.01-3.64-1.28-5.43-.25-1.82-.47-3.64-.62-5.46-.32-3.64-.61-7.26-1.55-10.8Z"/></g><g><path class="s" d="M95.75,40.35c1.33-2.61-1-5.83-4.81-6.64-3.81-.81-8.33,.95-9.33,3.63,0-2.1-.03-4.28-1.38-6.16-1.35-1.88-4.46-3.32-7.35-2.72-3.75,.78-4.7,4.11-4.99,6.82,.62-5.33-.93-10.78-4.42-15.55-1.69-2.31-4.6-4.74-8.31-4.47-3.47,.25-5.62,2.71-6.92,4.96-3.6,6.25-4.94,13.12-3.86,19.8,2.04-3.39-2.78-7.7-8-7.17-5.22,.53-8.06,5.63-4.71,8.47l64.08-.97Z"/><path class="s" d="M95.94,40.47c1.59-3.35-1.63-6.29-4.67-7.05-3.39-.85-8.48,.17-10.02,3.71,.26,.07,.53,.14,.79,.21,.01-2.38-.12-4.9-1.74-6.8-1.48-1.73-3.89-2.69-6.13-2.68-4.44,.02-6.4,3.46-6.86,7.43h1.18c.55-5.27-.9-10.49-3.83-14.89-2.36-3.55-6.14-6.51-10.66-5.57-4.52,.94-6.84,5.59-8.39,9.49-2.02,5.06-2.61,10.49-1.8,15.87,.08,.51,.85,.56,1.08,.14,2.41-4.51-3.5-7.95-7.3-8.09-3.81-.14-9.32,3.03-7.7,7.57,.3,.85,.97,1.93,1.9,2.1,.39,.07,.87-.01,1.27-.02,2.05-.03,4.1-.06,6.15-.09,14.69-.22,29.38-.45,44.07-.67,4.16-.06,8.32-.13,12.48-.19,.75-.01,.75-1.18,0-1.17-9.23,.14-18.46,.28-27.68,.42-11.6,.18-23.2,.35-34.8,.53-.39,0-1.05,.15-1.43,.02-.36-.12,.19,.13-.16-.22-1-.97-1.06-2.49-.52-3.7,1.31-2.9,5.04-3.86,7.92-3.23,2.53,.56,6.44,3.07,4.8,6.13,.36,.05,.72,.09,1.08,.14-.71-4.67-.25-9.42,1.3-13.89,1.3-3.75,3.4-8.7,7.6-9.9,4.58-1.31,8.26,2.32,10.41,5.89,2.42,4.03,3.52,8.62,3.05,13.31-.08,.76,1.1,.75,1.18,0,.37-3.26,1.97-6.38,5.68-6.48,1.91-.05,4.06,.77,5.35,2.21,1.57,1.76,1.66,4.09,1.68,6.32,0,.39,.62,.62,.79,.21,1.2-2.83,4.99-3.88,7.8-3.64,2.97,.25,7.29,2.74,5.77,6.33-.11,.26,.26,.49,.38,.22Z"/></g><g><path class="s" d="M252.04,14.58c3.7,.02,6.62,3.02,6.52,6.78,0,.21-.17,.31-.34,.31s-.33-.1-.32-.31c.1-3.42-2.56-6.13-5.93-6.13v-.23c.03-.14,.05-.28,.06-.42Z"/><path class="s" d="M251.67,14.59c.12,0,.25,0,.37,0-.01,.14-.03,.28-.06,.42-.1-.13-.21-.27-.31-.41Z"/><path class="s" d="M246.81,10.83c2.56-1.25,5.49,.87,5.23,3.75-.12,0-.25,0-.37,0,.1,.13,.21,.27,.31,.41v.23c-.1,0-.21,0-.31,0-.23,0-.35-.21-.31-.41,.55-2.79-2.43-4.67-4.71-3.16l-.04-.06c.08-.26,.16-.52,.21-.78Z"/><path class="s" d="M246.81,10.83c-.05,.26-.13,.52-.21,.78-.16-.12-.31-.24-.47-.36,.22-.17,.45-.31,.68-.42Z"/><path class="s" d="M246.61,11.61l.04,.06c-.06,.04-.13,.09-.19,.13-.23,.17-.55-.11-.47-.36,.03-.07,.05-.15,.07-.22l.08,.03c.16,.12,.31,.24,.47,.36Z"/><path class="s" d="M223.21,16.68c-.18,.07-.35,.14-.53,.22,.02-.2,.04-.4,.06-.6,.16,.12,.31,.25,.47,.39Z"/><path class="s" d="M239.33,.21c4.88,.96,8.57,5.68,7.48,10.62-.23,.11-.46,.25-.68,.42l-.08-.03c.85-2.94-.18-6.16-2.43-8.22-2.52-2.31-6.32-2.86-9.53-1.94-6.94,1.98-10.09,9.24-10.8,15.83-.03,.26-.32,.42-.53,.22l-.16-.14,.07-.08c.18-.08,.35-.15,.53-.22-.15-.13-.31-.26-.47-.39,.36-3.29,1.27-6.56,3.03-9.39,2.85-4.58,8.06-7.77,13.56-6.69Z"/><path class="s" d="M258.21,21.98c-7.72-.3-15.47-.18-23.19-.16-3.89,0-7.77,0-11.65,.02-1.94,0-3.88,.02-5.82,.03-1.53,.01-3.13-.08-4.67,.09v-.08c.08,0,.17-.05,.17-.16,.02-2.3,1.07-4.59,3.21-5.65,2.1-1.04,4.63-.62,6.36,.9l.16,.14c.21,.2,.5,.04,.53-.22,.71-6.6,3.86-13.85,10.8-15.83,3.21-.92,7.02-.37,9.53,1.94,2.25,2.06,3.28,5.28,2.43,8.22-.02,.07-.04,.15-.07,.22-.08,.25,.24,.53,.47,.36,.06-.05,.13-.09,.19-.13,2.28-1.51,5.26,.37,4.71,3.16-.04,.2,.09,.42,.31,.41,.1,0,.21,0,.31,0,3.37,0,6.02,2.71,5.93,6.13,0,.21,.16,.31,.32,.31v.31Z"/><path class="s" d="M222.74,16.29c-.03,.2-.05,.4-.06,.6l-.07,.08c-1.73-1.51-4.27-1.93-6.36-.9-2.14,1.06-3.19,3.35-3.21,5.65,0,.1-.09,.16-.18,.16-.07,0-.13-.03-.14-.11-.35-2.51,1.12-5.11,3.39-6.21,2.15-1.04,4.74-.67,6.62,.74Z"/><path class="s" d="M235.02,21.82c7.73-.01,15.47-.13,23.19,.16,.04,0,.07,0,.11,0,.12,0,.12,.18,0,.19-7.76,.3-15.54,.18-23.3,.17-3.89,0-7.77,0-11.65-.02-1.94,0-3.88-.02-5.82-.03-1.78,0-3.65,.1-5.42-.19-.02,0-.02-.04,0-.05,.25-.04,.5-.08,.75-.1,1.54-.16,3.14-.08,4.67-.09,1.94-.01,3.89-.02,5.82-.03,3.89-.02,7.77-.02,11.65-.02Z"/></g><path class="s" d="M403.03,51.9c0-.17,0-.34-.04-.53-.62-2.51-2.78-4.15-5.28-4.55-2.24-.36-4.35,.38-6.31,1.41-.81-2.61-3.08-4.68-6.02-4.92-2.98-.24-5.58,1.42-7.16,3.79-.96-2.12-1.36-4.54-2.57-6.54-1.38-2.29-3.59-4.09-6.39-3.95-5.05,.26-8.3,5.93-10.15,10.62-1.83-1.37-4.13-2.03-6.5-1.94-2.04,.08-4.01,.65-5.89,1.42-1.51,.62-3.79,1.25-4.54,2.82-.15,.31-.26,.7-.23,1.07-1.28,.73-1.02,3.14,.82,3.14h58.66c1.15,0,1.69-.96,1.61-1.85Z"/><g><path class="ab" d="M298.2,36.91c-3.64-2.92-9.04-1.74-11.7,1.71-.99,1.28-1.59,2.71-1.87,4.21-.31,.69-.56,1.41-.73,2.14-.99,4.27,1.12,9.29,5.72,10.7,4.74,1.45,9.37-2.32,11.1-6.28,1.78-4.08,1.24-9.48-2.52-12.48Z"/><path class="aa" d="M295.83,36.31c-3.49-2.88-8.72-1.66-11.32,1.8-.97,1.28-2.09,3.67-2.67,5.94-1.08,4.24,1.11,9.68,5.54,11.05,4.56,1.41,9.07-2.4,10.78-6.36,1.76-4.09,1.28-9.46-2.33-12.43Z"/><path class="o" d="M295.15,39.66c-1.54-1.65-4.58-2.22-6.42-.71-1.69,1.4-1.58,3.82,.17,5.08,.98,.7,2.17,.98,3.17,1.63,1.14,.74,1.67,2.22,.75,3.38-.88,1.09-2.55,1.29-3.83,.99-1.67-.38-2.57-1.42-2.39-3.12,.02-.22-.18-.35-.37-.25-1.08,.57-.81,2.07-.22,2.89,.73,1.03,2.08,1.58,3.3,1.72,2.33,.28,5.13-.92,5.16-3.59,0-1.16-.59-2.17-1.51-2.83-1.12-.81-2.64-1.04-3.65-2-1.13-1.06-.58-2.76,.77-3.34,1.54-.67,3.27,.09,4.65,.79,.42,.21,.73-.33,.44-.64h0Z"/><path class="o" d="M291.66,36.61c-.67,.7-.96,1.81-1.27,2.71-.35,1.01-.78,2.13-.8,3.21,0,.22,.33,.28,.42,.09,.42-.95,.57-2.03,.88-3.02,.29-.95,.83-1.95,.88-2.94,0-.06-.08-.07-.11-.04h0Z"/><path class="o" d="M289.37,45.43c-.73,.93-.88,2.42-1.19,3.54-.19,.7-.38,1.41-.56,2.11-.16,.61-.4,1.22-.31,1.85,.02,.16,.24,.27,.36,.12,.72-.93,.85-2.46,1.14-3.59,.31-1.19,.98-2.72,.8-3.96-.02-.11-.16-.18-.24-.08h0Z"/><path class="o" d="M293.54,37.3c-.71,.47-.9,1.81-1.17,2.59-.36,1.06-.98,2.25-1,3.38,0,.16,.23,.24,.33,.11,.62-.84,.84-2.03,1.17-3.02,.29-.85,1.05-2.15,.74-3.04-.01-.03-.05-.05-.08-.03h0Z"/><path class="o" d="M291.27,46.93c-.72,.88-.84,2.4-1.11,3.49-.17,.7-.35,1.39-.52,2.09-.12,.5-.24,.72-.01,1.16,.02,.05,.09,.05,.13,.03,.42-.28,.41-.56,.53-1.06,.16-.64,.32-1.28,.47-1.92,.27-1.11,.91-2.6,.69-3.73-.02-.08-.12-.14-.19-.06h0Z"/></g><g><polygon class="s" points="122.55 17.03 127.73 23.36 158.31 17.42 122.55 17.03"/><path class="p" d="M127.35,23.03c.37,.33,.54,9.77,.54,9.77l1.58-7.82,28.65-7.52-30.76,5.57Z"/><polygon class="ae" points="139.55 28.85 127.89 32.8 129.47 24.98 145 25.16 139.55 28.85"/><path class="s" d="M129.47,24.98c.18,.05,3.47,8.38,3.47,8.38l25.37-15.94-28.84,7.56Z"/></g><g><path class="aa" d="M38.73,94.99c0-7.19-5.53-13.02-12.36-13.02s-12.36,5.83-12.36,13.02c0,5.03,2.7,9.38,6.66,11.55,.12,.27,.23,.54,.33,.83,.38,1.13,.6,2.34,1.26,3.31,1.1,1.61,3,2.05,4.64,2.02,.12,0,.24-.02,.35-.02,.21,0,.41,0,.62-.02,1.3-.11,3.29-.64,4.01-2.07,.15-.3,.24-.66,.31-1.04,.11-.21,.21-.44,.3-.69,.34-.93,.53-1.96,.68-3,3.34-2.33,5.55-6.33,5.55-10.87Z"/><path class="o" d="M27.7,100.63c.25-.18,.48-.39,.68-.64,.61-.77,1.14-2.3,.27-3.09-.86-.79-1.61,.21-1.71,.98-.11,.84-.07,1.73,.04,2.63-.25,.13-.51,.23-.79,.28-.02-.06-.03-.11-.05-.17-.44-1.2-1.32-2.86-2.75-3.3-1.09-.34-1.34,.64-1.17,1.42,.37,1.69,2.03,2.63,3.64,2.53,.1,.33,.19,.65,.26,.98,.82,3.46,.67,6.84,.29,10.33-.02,.14,.24,.17,.28,.03,.88-3.56,.8-7.84-.37-11.4,.25-.05,.48-.12,.72-.22,.17,1.18,.42,2.36,.57,3.45,.34,2.65,.34,5.12-.18,7.75-.06,.33,.43,.46,.55,.14,1.03-2.84,.54-6.06,.12-8.97-.13-.91-.28-1.82-.4-2.73Zm-4.55-1.06c-.22-.3-.5-.72-.44-1.09,.14-.9,.91-.6,1.46-.12,.76,.67,1.23,1.55,1.56,2.47-1.02,.03-2.01-.49-2.57-1.27Zm4.37-.93c-.03-.3-.03-.6,.01-.89,.34,.11,.68,.22,1.02,.32,.19,.24-.3,1.21-.41,1.39-.14,.22-.31,.42-.51,.6-.05-.47-.09-.94-.11-1.42Z"/><path class="p" d="M30.18,112.74c0-.31-.19-.57-.5-.69-.15-.06-.32-.06-.47-.02-.12-.04-.25-.06-.41-.01-.67,.19-1.36,.25-2.06,.28-.44-.06-.87-.13-1.3-.2-.36-.11-.79-.18-1.03,.12-.09,.12-.11,.23-.08,.33-.11,.21-.14,.45-.06,.67,.09,.26,.3,.48,.57,.61-.16,.16-.24,.38-.17,.62,.08,.27,.31,.45,.58,.57,.14,.07,.29,.13,.45,.16-.07,1.39,4.17,.91,3.8-.36,0-.03-.02-.06-.04-.09,.25-.15,.47-.36,.56-.56,.13-.27,.11-.58-.12-.79,.17-.17,.28-.4,.29-.65Z"/></g></g></svg>