<?xml version="1.0" encoding="UTF-8"?><svg id="a" xmlns="http://www.w3.org/2000/svg" viewBox="0 0 313.79 348.15"><defs><style>.b{fill:#7e318e;}.c{fill:#b5e700;}.d{fill:#7cffff;opacity:.23;}.e,.f{fill:#fff;}.g{fill:#004f60;}.h{fill:#a22672;}.i{fill:#d05b86;}.j{fill:#ebb58a;}.k{fill:#e79f00;}.l{fill:#9fc7c7;}.m{fill:#c2e5e5;}.n{fill:#4a4a4a;}.o{fill:#a20059;}.p{fill:#381f00;}.q{fill:#303030;}.r{fill:#796f40;}.s{fill:#97c7c7;}.f{opacity:.48;}.t{fill:#ebceab;}.u{fill:#c2724a;}.v{fill:#ce2300;}.w{fill:#d0005e;}.x{opacity:.11;}.y{fill:#e6e6e6;}.a`{fill:#593100;}.aa{opacity:.34;}.ab{fill:#0059a2;}.ac{fill:none;stroke:#fff;stroke-dasharray:0 3.54;stroke-linecap:round;stroke-width:1.77px;}.ad{fill:#005173;}.ae{fill:#242424;}.af{opacity:.19;}.ag{fill:#6ed059;}.ah{fill:#737373;}.ai{fill:#000060;}.aj{fill:#276d81;}.ak{fill:#e53b00;}.al{fill:#ab5756;}.am{fill:#290045;}.an{fill:#d1c46d;}.ao{fill:#adadad;}.ap{opacity:.12;}.aq{fill:#a27847;}.ar{fill:#7aa100;}.as{fill:#474747;}.at{fill:#2e839b;}.au{fill:#795640;}.av{opacity:.21;}.aw{fill:#6f0000;}.ax{fill:#3394b0;}.ay{fill:#a22600;}.b`{fill:#5c0043;}.ba{fill:#740000;}.bb{fill:#545454;}.bc{fill:#ab3656;}.bd{fill:#1f1f1f;}.be{fill:#fb7f83;}.bf{fill:#b87500;}.bg{fill:#009788;}.bh{fill:#0057b9;}.bi{fill:#c4c4c4;}.bj{fill:#b99800;}.bk{fill:#f27459;}.bl{fill:#367977;}</style></defs><circle class="at" cx="156.9" cy="173.37" r="156.9" transform="translate(-76.64 161.72) rotate(-45)"/><g><path class="aj" d="M31.04,215.2c-.23-.59-1.18-1.51-.78-2.11-.15-.09-.61,.05-.87,.13,0,.34-.04,.79-.21,1.09-.2,.37-.81,.58-.91,.79-.28,.62-.01,1.95-.01,2.65,0,1.67,.61,4.15,2.66,4.22,1.59,.05,.79-3.14,.67-4.22-.1-.87-.23-1.74-.55-2.55Z"/><path class="aj" d="M81.11,270.37c-.55-1.08-1.36-1.04-2.13-1.75-.5-.46-.5-1.18-1.11-1.47-.2-1.84-1.84-1.77-2.67-2.89-.87-1.17,.73-.66,.8-1.44,.03-.36-1.11-1.37-1.38-1.67-.83-.94-1.63-1.78-2.49-2.69-.44-.46-.95-.78-1.31-1.31-.27-.4-.46-.93-.83-1.23-.47-.38-1.12-.18-1.56-.55-.38-.32-.41-.86-.63-1.25-.54-.95-1.22-1.87-1.83-2.71-1.25-1.75-2.35-3.66-3.44-5.47-.62-1.04-.92-1.81-2.09-2.23-.74-.26-1.47-.6-2.18-.85-.77-.27-.82-.5-.97,.33-.18,1,.97,2.77,1.43,3.64,.08,.14,.56,1.08,.6,1.11,.44,.35,.91,.19,1.34,.69,.57,.66,.82,1.81,1.22,2.53,.51,.92,1.43,1.44,1.97,2.22,.44,.63,.44,1.69,.89,2.23,.27,.32,.54-.06,.8,.57,.16,.39-.09,1.03,0,1.45,.15,.73,.59,2.11,1.54,2.01,.25,1.34,1.27,3.2,2.01,4.27,.71,1.01,1.36,2.12,2.09,3.03,1.03,1.29,2.1,2.43,3.15,3.65,.52,.6,1.13,.85,1.66,1.35,.4,.38,.57,1.01,.95,1.41,.36,.39,.93,.74,1.35,1.08,1.29,1.08,1.18,.83,2.77,.9,.07-1.55,.71-3.64,.04-4.98Z"/><path class="aj" d="M95.4,224.96c0-.9,.99-.85,1.45-1.46,.39-.52,.35-.9,.33-1.62-1.03,.06-1.21-.42-2.12-.57-.75-.12-2.14-.17-2.83,.11-.87,.34-1.21,.99-1.14,1.89,.09,1.05,.95,1.29,1.66,2,.91-.12,1.71-.31,2.66-.34Z"/><path class="aj" d="M122.03,222.19c-.02-.81,.68-1.11,1.04-1.66,.26-.39,.51-1.05,.75-1.48,.43-.76,1.44-2.06,1.67-2.96,.34-1.3-.63-2.37-2-1.8-.68,.28-2.27,2.39-2.66,2.9-1.07,1.36,.1,4.12,1.2,4.99Z"/><path class="aj" d="M107.63,64.24c-1.38,.25-3.33,1.68-2.67,3.67l.17-1.83c0,.87-.02,1.76,.03,2.61,2.61-3.37,6.11-3.01,10.14-2.78,1.75,.1,3.16,.74,4.64,1.59,1.73,.99,2.92,1.01,4.15-.75-1.1-.31-1.97-.36-3-1-.32-.2-.44-.78-.81-.97-.42-.22-1.07,.06-1.54-.13-.51-.21-.78-.59-1.29-.78-1.14-.43-.48-.23-1.45-.18-1.25,.06-1.7,.36-2.86-.42-.49,1.37-4.77,.85-5.51,.98Z"/><path class="aj" d="M140.07,72.57c-.33,.09-.71,.7-1,.92-.48,.37-1.98,.98-1.8,1.65,1.05,.56,2.53-.02,3.64,0,.33-.63,.18-1.57,.18-2.3-.25-.23-.73-.34-1.01-.27Z"/><path class="aj" d="M141.09,72.82v.02h.01v-.02Z"/><path class="aj" d="M141.1,72.85l.15,.31c0-.12-.06-.22-.15-.31Z"/><path class="aj" d="M141.25,68.24c-.35-.33-1.1,.06-1.58,.17-.68,.16-.93,.18-1.36,.75-.32,.43-.36,1.02-1.04,1.09-.25,.73,.16,1.3,.07,1.99,.72,.47,2.22,.37,2.85-.25,.48-.47,.4-.78,.56-1.34,.14-.49,.49-.67,.65-1.08,.11-.29,.08-1.12-.15-1.34Z"/><path class="aj" d="M160.96,88.26c-1.45,1.33,1.37,1.41,2.34,.95,.02-.08,.24-.15,.26-.23,.27-1.4-1.96-1.29-2.6-.71Z"/><path class="aj" d="M163.71,85.06c.06-.17-.24-.95-.32-1.09-.15-.26-.03-.28-.25-.51,.11,.12-.87-.36-.73-.32-.22-.08-.55-.02-.75-.13-.3-.16-.23-.42-.56-.54-1.43-.53-1.76,1.28-3.04,.35-.16,.44-.28,1.7,.25,1.89,.14,.8,1.05,1.19,1.48,1.75-.05-1.34,1.89-1.16,2.78-1.16,.38,0,.92,.36,1.13-.24Z"/><path class="aj" d="M165.81,83.9c-.51-.14-.65-.65-1.25-.17,.09,.84,.97,1.54,1.81,1.66,.13-.51,.62-.62,1.09-.59-.02-.32,.01-.68,.07-.98-.44,.11-1.27,.21-1.73,.08Z"/><path class="aj" d="M192.63,85.58c.52-.17,1.1-.73,1.14-1.35,.52,.04,.84-.45,.63-.98-.29-.74-1.54-.47-2.2-.47-.14,.19-.42,.44-.33,.67,.28,.73,.25,1.56,.77,2.13Z"/><path class="aj" d="M130.02,45.49c-.68,0-1.3,.05-1.95,.13-1.34,.18-2.76-.82-3.46,.84,1.27,.18,1.42,1.16,2.54,1.46,.39,.11,.6-.18,1,.02,.33,.17,.58,.7,.87,.93,.61-.82,2.05-.87,3.01-1.19-.1-.23-.04-.62-.21-.86,.49-.08,1.04,0,1.51,.08,.62-1.66-2.41-1.43-3.31-1.43Z"/><path class="aj" d="M124.94,47.82c-.49,.28-.36,.89-.32,1.43,1.14,.48,1.41,.01,2.63,.11,.06-.2,.05-.55-.02-.74-.7-.09-1.22-.6-1.85-.8h-.44Z"/><path class="aj" d="M132.69,48.39c-1.19-.15-2.58,1.11-3.76,1.32-.04,.64,.02,1.03,.44,1.33,.22,.16,1.53,.44,1.78,.34,.1-.04,1.28-1.38,1.36-1.54,.24-.44,.19-.9,.18-1.45Z"/><path class="aj" d="M121.2,28.27c.47,.11,.89,.1,1.37,.11,.19,0,.53-.22,.81-.2,.16,0,.39,.32,.46,.32,.67-.06,.85-.37,1.45-.7,.73-.4,1.06-.3,1.88-.39,1.11-.12,.44-.19,.97-.67,.63-.57,.21-.6,1.32-.67,1.07-.06,2.85,.41,3.23-.83-2.25-1.2-4.15-.71-6.43-.25-.7,.14-6.21,1.89-5.1,3.09,0,.07,.02,.14,.04,.19Z"/><path class="aj" d="M137.56,27.98c1.13,.59,.35,.95-.28,1.2-3.07,1.21,1.54,1.04,1.85,2.29-.66-.09-1.19,.32-1.49,.92-.73,1.49,.35,.96,1.06,1.72,.66,.7-.24,1.06,.9,1.39,.61,.18,1.72-.39,1.86,.45-1.98,.2-.75,1.13,.45,1.25,.69,.78,.72,2.41,1.38,3.19,.21-.54,.62-.57,.77-.76,.16,.92-.34,2.35-1.13,2.81-.12,.07,.85,.8,1.03,.83,.46,.09,.75-.15,1.13-.35,.55-.28,1.98-1.1,2.19-1.67-.17,1.69,2.69,.5,3.64,.36-.65,.18-3.49,.73-2.58,1.67,.46,.48,2.65,.86,3.35,.78,.56-.07,1.45-.39,1.98-.58,.31-.12,.49-.43,.8-.51,.44-.12,1.14,.18,1.54,0,.65-.3,1.31-1.48,.5-1.99,1.34-.39,1.32,1.09,2.52-.35,.46,.23,.47,.68,.89,.89,.23,.11,1.57-.37,1.85-.36,.74,0,.84-.47,1.4-.63,.62-.18,1.45,.24,2.03-.09,.62-.34,.4-.64,.71-1.15,.1-.17,.49-.31,.57-.46,.08-.15,.02-.15,.08-.2,.81-.65,5.15,.32,4.67-1.33-.22-.75-1.38-.99-1.99-1.31,.66-.07,3.04,1.04,2.67-.69-.23-1.05-2.38-.9-3.12-1.1-.1-.03-.28-.27-.55-.34-.46-.11-1.06,.23-1.46,.13-.67-.18-1.18-.76-1.55-1.23-1.1-1.41-1.51-2.92-.5-4.51-.55-.09-1.39-.68-1.59-1.15,.28,.06,.65-.08,.93-.03,.1-.43,.24-.49,.69-.55,.47-1.48-2.49-.22-2.42-1.75,1.09-.24,3.58-.27,2.78-2.24-.12-.3-.66-.52-.91-.85-.26-.35-.13-.72-.46-1.04-.77-.73-3.07-.44-3.1-1.86-1.3-.07-2.92,.29-4.18-.03-.27-.07-.18-.47-.46-.55-.3-.09-.79,0-1.09,0-1.21,.05-1.71,.22-2.35,1.11-.58,.81-.65,.88-1.77,.9,.11,1.49-.34,1.41-1.57,1.76-1.1,.31-2.3,.6-3.37,.95-1.06,.34-1.57,1.11-2.5,1.78-1.15,.82-1.91,.51-3.14,.96-.8,.29-4.7,2.22-4.59,2.97,.72-.27,1.06-1.07,1.93-.63Zm3.19,8.8c.38-.04,.67,.04,.91,.19l-.91-.19Z"/><path class="aj" d="M171.36,40.27c-.48-1.36-3.66-.44-4.63,.03-.43,.21-.9,.55-1.3,.75-.4,.21-1.06,.73-1.36,.79-.84,.18-2.04-.9-2.25,.58,1.15,.86,2.49,1.95,3.8,2.4,.59,.2,1.44,.21,2.2,.11,.11-.01,.94-.29,.96-.29,.44,.06,.48,.41,.91,.51,.51,.12,1.32,.13,1.79,.19,1.02,.14,.54,.12,1.4-.42,2.1-1.32,.33-1.59-.29-3.32,.93-.12,.99,1.51,2.17,.77,.45-.28,.15-.77,.82-.99,.42-.14,1.18,.16,1.62,.19,.02-.6,.34-1.06,.48-1.64,.39,.17,.71,.47,.89,.86,.38,.1,2.47,.02,2.87-.2,1.23-.66-.34-1.03-1.03-1.41-.19-.1-.86-.6-.97-.7-.22-.18-.59-.76-.8-.91-.58-.43-2.11-.11-3.05-.07,.33,1.63-2.48,.53-3.37,1.21l.33-.33c-1.29,.41-.57,1.09-1.2,1.88Z"/><path class="aj" d="M179.54,43.46c-.55-1.99-2.15-1.37-3.44-.64-.29,.16-1.31,.73-1.45,1-.19,.38-.03,1.34-.09,1.76,.98,.05,2.18-.2,3.09,.24,1.01-.46,.08-1.26,.54-1.78,.37-.42,.94-.01,1.33-.58Z"/><path class="aj" d="M182.19,42.26c-.77-.73-.76,1.01-1.53,.92-.05,.42,0,.81,.12,1.19,.4-.07,.88-.15,1.32-.09,.25-.22,.45-1.68,.09-2.01Z"/><path class="aj" d="M183.28,46.36c.05-.48,.36-.81,.26-1.31-.03-.15-.15-.24-.13-.43-1.69-.08-1.83,.41-1.74,1.96,.55,.1,1.08-.08,1.61-.22Z"/><path class="aj" d="M184.09,47.64c-.21,.08,.53,1.18,.75,1.17,.3-.02,.34-.07,.37-.54,.06-.96-.67-.79-1.12-.63Z"/><path class="aj" d="M186.11,48.31c.17,.31,.46,.55,.82,.55,.43,0,.74-.47,1.07-.67,.04-.02-.34-.25-.79-.45-.77-.34-1.75-.57-1.11,.57Z"/><path class="aj" d="M188.54,49.76c.11,.04,.21,.06,.32,.08,.09,0,.17,0,.26,0l-.58-.08Z"/><path class="aj" d="M190.32,51.49c.74,.45,2.19,.14,2.79,.76-.08-.16-.03-.32-.07-.48,.24,.01,.47-.15,.57-.16-.46-.18-.71-.44-1.09-.69-.12-.08-.5-.18-.57-.24-.09-.08-.25-.47-.26-.47-.83-.41-1.9-.18-2.82-.37-.24,0-.48,0-.7,0,.26,.44,1.63,1.32,2.16,1.64Z"/><path class="aj" d="M195.53,48.16c.03-.55-1.51-1.06-1.84-1.37-.08-.07-.08-.35-.17-.46-.19-.2-.48-.22-.71-.38-.22-.16-.41-.41-.63-.58-.61-.46-1.28-.51-2.06-.44l.33,.17c-.2-.02-.49,.14-.72,.33,.14,.26,.37,.5,.49,.76-.22,.08-.58-.09-.76,0-.32,.14-.53,.42-.82,.67,.13,.26,.45,.6,.76,.59,.51-.02,.12-.39,.43-.49,.25-.08,2.13-.22,2.2-.1,.22,.38-.72,.68-.67,1.14-.08,0-.21,.02-.31,.04-.12,.37-.25,1.14,.08,1.39,.42,.33,1.32-.42,1.08,.67,.63-.22,1.84-.34,2.48-.05-.04-.26-.11-.63-.24-.89-.17-.33-.61-.6-.64-1.05,.35-.08,1.68,1.07,1.73,.05Z"/><path class="aj" d="M197.93,52.69c0,.28,.02,.59,.06,.86,1.73-.2,2.9,.02,4.49,.67,.22,.09,.58,.1,.78,.22,.19,.12,.29,.45,.51,.53,1.39,.5,1.48-1.6,2.73-1.37-.47-.4-.85-1.15-1.39-1.34-.57-.21-1.31,.11-1.15-.9,.06,0,.33,0,.26-.01-.84,0-1.4,.19-2.1-.07-.46-.17-.76-.39-1.17-.62-.45-.25-.85-.27-1.25-.65-.37-.35-.58-.82-1-1.15-.4,.35-1.11,.67-1.3,1.2-.17,.44,.29,.88,.29,.87-.12,.55-.13,1.18-.23,1.72,.14-.03,.34,.06,.48,.03Z"/><path class="aj" d="M200.12,43.19c0,.1-.02,.22-.02,.32-.43,.02-.88,0-1.31,.02,.02,.12-.05,.29-.04,.39-.56,.03-1.16-.03-1.7,.04-.05,.97-.76-.03-1.01-.12-.42-.15-.87,.23-1.33,.24,.09,.31,.22,.82,.49,1.02,.69,.52,.64-.33,1.46-.18-.04,.23,.09,.28,.07,.5,.91,.14,2.74-.46,3.34,.19-1.02,.15-1.77-.49-1.66,.82,.17-.04,1,.18,1.11,.35,0,.12,0,.2-.02,.31-1.4-.15,.12,1.17,.26,1.32-.33-.01,0,0-.28,.19,.68,1.6,3.65,2.88,5.02,2.02-.15-.27,.22-.77-.06-.86,.68-.39,.41,1.11,.95,1.39,.13,.07,1.08,.14,1.2,.02,.31-.3,.02-.31-.07-.57-.33-.91-1.25-1.67-1.58-2.57,1.55-.62,1.57,2.5,3.06,2.14-.02-1.07,.34-.95,1.32-.99,.05-.37,.48-1.04,.44-1.32-.07-.54-1.01-.73-1.46-1.14-.5-.45-.72-1.43-1.2-1.77-.58-.43-1.01-.1-1.53-.74-.53-.65-.59-2.7-1.73-2.67-.3,0-.35,.34-.49,.36-.72,.11-.97-.31-1.52-.61-.27-.15-.25-.07-.78,.13-.27,.1-.29-.04-.29,.21,0,.57,.08,1.24-.07,1.77-.16-.1-.42-.08-.58-.18Z"/><path class="aj" d="M188.83,44.34c-.04-.81,.79-.87,.83-1.29,.05-.66-.6-.57-.92-1.1-.62,.6-1.92,.37-2.75,.55l.33-.11c-.18-.05-.46,0-.65,.02-.25,.97,1.01,1.34,1.61,1.43,.27,.62,.97,.64,1.55,.51Z"/><path class="aj" d="M187.87,41.44c.37-.17,.59-.52,.25-.94-.41-.52-1.82-.47-1.78,.38,.04,.82,1.03,.8,1.53,.57Z"/><path class="aj" d="M184.71,41.27l-.06-.46c-.07,.1-.06,.25,.06,.46Z"/><path class="aj" d="M186.03,38.79c-1.1-.31-2.31-1.39-3.32-1.91-.64-.33-1.03-.73-1.72-.85-.67-.11-1.5-.03-2.17,.01-.21,1.4,1.67,1.75,2.61,2.25,.63,.33,3.49,2.11,1.15,2.25-.15,.59,.68,2.26,1.28,2.41,1.34,.34,.56-1.69,.77-2.34l.03,.2c.19-.3,.99-.24,1.23-.55,.27-.34,.16-1.05,.15-1.47Z"/><path class="aj" d="M223.58,95.71c-.18,.26-.39,.47-.65,.61-.15,1.11,.69,1.36,1.5,.82,1.2-.8-.57-.42-.43-1.35l-.42-.08Z"/><path class="aj" d="M237.07,88.47c-1.32-.24-.64,1.45-.5,1.91,.23,.73,.07,.48,.6,.93,.49,.41,.6,.77,1.38,.65,.04-.96-.26-3.26-1.49-3.48Z"/><path class="aj" d="M215.51,92.3c-.57,.89-1.45,.12-2.17,.6-.72,.48-.26,1.49,.34,1.73,.1-.27,.08-.59,.09-.9,.38,.33,1.61,.33,2-.09,.33-.35,.19-1.15-.26-1.33Z"/><path class="aj" d="M256.96,70.18c-1.25,.02-1.59,1.91-1.65,2.96,.57-.04,1.13,.12,1.71,.09,.24-.9,.92-.72,1.22-1.35,.14-.3,.11-1.72,.06-2.04-.45-.02-1.08-.14-1.34,.35Z"/><path class="aj" d="M251.14,74.22c-1.02-.1-1.19-.49-1.75-1.23-.18-.08-.38-.1-.57-.07,.05,.6,.2,1.32,.33,1.89,.41,.12,.71,.47,1.16,.43,.49-.04,1.34-.25,1.86-.31,.51-.06,1.04,.08,.79-.74-.58-.07-1.25,.09-1.81,.04Z"/><path class="aj" d="M193.78,40.51c-.71,.13-.52,.52-.9,.73-.35,.19-1.08,.08-1.48,.09-.03,.27,.09,.45,.31,.58,.95,.55,1.4,.86,2.42,.52,.1-.03-.06-.35,.25-.38,.14-.01,.24,.19,.35,.23,.35,.12,.51,.53,.88,.65,1.11,.37,.32-.4,.53-.93,.1-.27,.72-.1,.56-.59-.06-.2-.73-.24-.9-.39,.24-.08,.46-.18,.75-.15,.06-.57-2.24-.46-2.75-.36Z"/><path class="aj" d="M190.27,38.37c-.88-.05-1.77-.01-2.65-.01l-.08,.25c0,.72,.89,1.4,1.48,1.71,.82,.43,1.79,.1,2.71,.12-.02-.16,.12-.45,.08-.64,.25,.03,.54-.06,.75-.09,.03-.27,.08-.56,.12-.81-.61-.09-2.23,.29-2.4-.52Z"/><path class="aj" d="M174.97,25.35c.36,.16,.44,.36,.77,.58,.57,.38,1.13,.31,1.66,.67,.27,.18,1.16,.87,1.12,1.17-.58-.02-1.13,.13-1.71,.1-.06,1.27,.36,1.49,1.24,2.33,.25,.24,.59,.84,.81,1,.33,.23,.85,.07,1.35,.09-.03,.89,.34,1.41,.23,2.31-.58-.01-.44,.65-.22,1.01,.25,.4,.96,.66,1.4,.83,.21-.77-.92-1.35,.25-1.81,.3-.12,.4-.12,.45-.08l.04,.08c.01,.07,.02,.17,.12,.25l.57,1.15c.01,1.05,.02,1.13,1.1,1.02,.7-.07,1.41-.11,2.13-.1,.24,.79-.79,.58-1.16,.99,1.29,.93,2.97,.47,4.59,.42,1-.03,.86-.47,1.58-.92,.35-.22,.61,.14,.81-.39,.17-.44-.1-.86-.55-.87-.08-.32-.15-.65-.19-.98-1.06-.1-.98-.67-1.71-1.26-.57-.45-1.47-.76-2.27-.75-.82,.01-1.28,.13-1.86-.58-.65-.79-.52-1.47,.45-1.59,.85-.1,1.77,.29,2.08-.54,.44-1.19-1.04-1.2-1.81-.88-.72,.29-.62,1.18-1.63,.91-.49-.13-1.04-.68-.78-1.22,.39-.84,2.48-.68,3.22-.79,1.39-.2,1.87,.02,3.18,.58,.65,.28,2.11,.87,2.64,.19-.44-.94-2.11-.51-2.5-1.49-.92-.06-1.47-.08-2.15-.76-.63-.64-.65-1.75-1.66-2-.83-.2-1.41-.68-2.18-.92-.51-.15-1.09-.54-1.64-.49-.08,.67,.76,.83,.72,1.48-.66,.14-1.04-1.01-1.63-1.22-.43-.16-1.97-.34-2.25,0-.73,.89,1.1,1.23,1.32,1.8,.42,1.08-1.42,.69-1.84,.36-.11-.09-.08-.43-.16-.51-.19-.19-.39-.23-.61-.39-.29-.21-.61-.37-.89-.6l.24,.48c-.08-.07-.14-.16-.17-.3-1.03-.05-2.11-.05-3.14,0-.05,.36-.36,1.14-.16,1.41,.15,.21,.62,.14,.82,.23Z"/><path class="aj" d="M196.61,28.78h-.58l.33,.08c-.05,.58,.64,1.26,.92,1.75,.43,.74,1.46,.8,2.27,.91,.41,.06,.99-.03,1.38,.1,.29,.1,.1,.54,.67,.49,1.3-.12,0-1.24-.47-1.46-.73-.34-1.25-.16-2.08-.21,0-.58-.67-.47-1-.83-.11-.12,.09-.47-.02-.58-.27-.27-1.03-.25-1.41-.25Z"/><path class="aj" d="M199.27,28.62s.09,.03,.14,.05c.17,.02,.35,0,.53,.04l-.67-.08Z"/><path class="aj" d="M201.25,29.94c.07-.73-1.17-1.04-1.83-1.27-.06,0-.12-.02-.18-.04-.33,1.1,1.17,1.37,2.02,1.31Z"/><path class="aj" d="M198.53,27.53l-.33,.08c-.43-.11-.86,0-.82,.49,.4,.02,.82,.02,1.22,0,.04-.19,.02-.39-.07-.57Z"/><path class="aj" d="M297.01,165.94c0-.25,.02-.47-.12-.64-.42-.1-1.02,0-1.45,.02-.14,1-.12,2.05,.57,2.85,0-.29,.4,.04,.51-.2,.11-.26,.13-.67,.29-.88,.25-.33,.19-.75,.19-1.14Z"/><path class="aj" d="M296.72,165.17c.08,.04,.13,.08,.17,.14,0,0,.02,0,.03,0l-.2-.14Z"/><path class="aj" d="M292.75,165.8c-.56,.15-1.13-.14-.89,.56,.1,.28,.57,.57,.79,.58,.47-1.07,.32-.96,2.01-.98-.02-.31,0-.65,0-.93-.69-.12-1.27,.59-1.93,.77Z"/><path class="aj" d="M289.48,167.14c-.3,.67,.32,.54,.61,.5,.27-.04,.38-.29,.3-.66-.25-.01-.77-.14-.91,.15Z"/><path class="aj" d="M81.54,275.92s.05,.02,.07,.02c.04-.01,.09-.02,.14-.02h-.21Z"/><path class="aj" d="M81.74,275.92h.46c-.15-.03-.31-.03-.46,0Z"/><path class="aj" d="M106.17,287.89c-1.16-1.27-3.32-2.32-4.9-2.76-1.24-.34-1.83-.52-2.75-1.36-1.03-.94-2.14-1.28-3.42-1.86-.82-.37-.84-.67-1.92-.56-.85,.09-.79,.1-1.44-.07-1.13-.29-2.07-.87-3.1-1.26-.53-.2-.79-.22-1.22-.55-.43-.34-.77-.83-1.25-1.18-1.41-1.05-2.89-1.83-4.57-2.34-.55,.16-1,.66-.86,1.31,.19,.83,1.46,.89,1.99,1.35,.16,.14,.19,.7,.37,.9,.28,.3,1.15,.65,1.54,.86,.66,.37,1.42,.99,2.1,1.22,1.21,.39,1.75,.13,2.76,.73,.91,.54,2.03,.57,3.1,.96,1.68,.62,2.38,2.05,4.13,2.31,1.55,.22,3.04,.87,4.44,1.44,1.72,.69,3.07,1,4.98,.88Z"/><path class="aj" d="M113.48,289.12c-.46-.15-.44-.45-.86-.56-.71-.19-2.31-.54-2.89-.1-1.91,1.44,.37,1.35,1.71,1.66,1.07,.25,2.22,.36,3.38,.32,.03-.38,.03-.78,0-1.17-.41-.12-.94-.02-1.34-.15Z"/><path class="aj" d="M88.55,264.48c-.18,.39-.02,1.22-.02,1.66,0,1.34,.44,2.24,1.19,3.34,.36,.53,1.03,.76,1.31,1.24,.32,.55,.16,1.44,.27,2.06,.17,.89,.25,.83,.88,1.14,.74,.35,1.04-.12,1.33,.88,.5-.36,2.02-.34,2.47,.14,.29,.31,.2,1.26,.5,1.69,.5-.88,1.33-.68,2.15-.52,.28,.06,.88,.08,1.1,.24,.26,.19,.19,.68,.32,.78,.73,.55,1.48,.03,2.29,.56,.52,.34,.84,1,.86,1.62,1.12-.4,2.71-.25,3.72,.25,.52-.78,.68-1.99,.8-2.88,.07-.48-.12-1.03,.21-1.44,.58-.73,1.32-.18,2.02-.44,1.44-.55,.03-1.62,.46-2.67,.42-1.04,2.47-.78,3.41-.56,0-.64-1.22-1.33-1.58-1.95-.54-.93-.34-2.15-.94-2.71-.35-.32-.91-.12-1.23-.8-.34-.73-.07-.8,.32-1.33,.17-.23,.89-1.02,1.09-1.08,.82-.27,1.23,.76,2.11,.54,.15-.36,0-.74,.1-1.09,.11-.35-.2-.27,.1-.65,.09-.11,.44,.04,.58-.1,1.32-1.29,.06-1.13-1.01-1.58-.64-.27-2.5-.93-2.77-1.44-.43-.82,.13-1.23-.88-1.79-.56-.31-1.35-.63-1.33,.34-1.04,.51-1.73,1.49-2.84,1.78-1.59,.41-2.93,.78-4.36,1.78-1.14,.8-1.64,1.61-3.13,1.66-1.29,.04-2.59-.05-3.87,.02,.06,1.44-.08,1.85-1.5,1.53-.98-.22-1.87-1.46-2.73-1.21l.33-.22c-.41,.31-1.48,.61-1.76,1.22Z"/><path class="aj" d="M116.36,248.14c-.8,1.18-1.68,1.91-2.74,2.82-.67,.58-1.32,1.27-2.08,1.69-.64,.35-1.27,.47-1.15,1.39,.51-.48,1.3-.46,1.92-.7,.61-.23,.95-.59,1.46-.97,.92-.68,1.79-1.72,2.93-2.01,.02-.85,0-1.71,0-2.56l-.33,.33Z"/><path class="aj" d="M117.94,236.43c-.03,1.73-.14,3.52,1.69,4.14,.33,.11,.82-.04,.98,.41,.16,.47-.35,.57-.42,.75-.28,.69,.36,1,.15,1.74-.46,.02-.93,0-1.39,.03,.49,1.18,1.34,2.16,1.96,3.31,.09,0,.44-.12,.52-.17-.06-.88,.38-1.3-.05-2.09-.41-.74-1.03-1.5,.25-1.64,.99-.11,1.36,.06,1.87,.69,.45,.56,.9,1.18,1.35,1.72,.36-.41,.4-1.01,.88-.83,.22,.08,.08,.4,.22,.51,.13,.1,.42,.09,.49,.16,.15,.14,.34,.29,.5,.44,.34,.33,.51,.89,.92,1.14,.69,.44,1.31,.15,1.15-.73-.76,.15-.89-.57-.99-1.18-.13-.81,.03-.88-.74-1.32-.4-.23-.48-.22-.82-.54-.28-.26-.11-.46-.53-.65-.43-.19-1.52-.03-1.95,.03,.04,.12,.01,.27,.04,.37-1,.33-1.82-1.94-1.73-2.73,.14-1.4,.42-2.18,1.99-2.26,.03-.82-.18-1.24,.85-1.34-.01-.61-.01-.96-.24-1.48-.25-.56-.5-.85-.43-1.5,.04-.44,.47-.94,.17-1.17-.29-.22-.83,.1-1.26-.24-.52-.41-.34-.59-1.14-.67-.44-.04-1.36-.27-1.69,.08-.35,.37-.03,1.08-.24,1.5-.21,.42-1.02,.57-.67,1.08,.26,.38,.4,1.36,.25,1.81-.28,.9-1.14,.54-1.92,.63Z"/><path class="aj" d="M122.85,250.45c.08,.68,.02,.51,.65,.68,.34,.09,.82,.08,1.17,.07-.12-.65,.52-.59,1-.58,.01-.08,0-.15,.02-.22,.23-.03,.39-.19,.64-.19,.23-.73-.52-.84-.75-1.39,0-.02-1.27-.15-1.44-.23-.43-.22-.53-.84-1.18-.52,.1,0,.2,0,.3,0-.12,.05-.26,.21-.41,.26,.44,.91-.11,1.24,0,2.13Z"/><path class="aj" d="M126.27,250.8c-.55-.29-1.03,.17-1.25,.56-.13,.22,.06,.49-.12,.75-.19,.28-.55,.2-.73,.43-.94,1.17,.53,1.82,1.1,2.6,.92-.52,1.42-1.51,2.23-2.11,.61-.45,.85-.54,.94-1.32,.04-.39,.03-.96-.09-1.26-.01,.52-.4,.47-.78,.74-.43,.31-.73,.94-1.29,1.1-.2-.67,.78-1.07,0-1.49Z"/><path class="aj" d="M129.2,249.72c-.36,.41,.27,1.05,.15,1.63,.35,.05,.72,.02,1.08,.04-.08,.78-.33,1.45,.81,1.73,.16-.31,.43-.59,.72-.73-.4-.62-.68-.98-.93-1.68,.71-.19,1.51-.11,2.14,.25-.01-.55-.39-1.21-.57-1.74-.21-.66-.66-1.22-.85-1.9-.63,.03-2.7-.58-2.31,.64,.8,.08,1.22,1.02,1.49,1.68-.45,0-1.47-.21-1.73,.08Z"/><path class="aj" d="M126.97,256.33c-1.68-.26-4.96,.95-4.29,3.26,.3,.05,.61,.1,.91,.1-.13-.61,.41-.74,.91-.74,.03-.1,.09-.21,.11-.32,.58-.04,1.1,.07,1.66,.16l-.33,.08c.98,.17,.63-.96,1.44-.75,.54,.14,.99,1.3,1.16,1.76-.47,.11-.5,.63-.43,1.08,.12,.71,.49,.74,1,1.15,.47,.38,.81,.93,1.27,1.32,.56,.48,.82,.39,1.53,.52,.08-.5,.61-.86,.6-1.34,0-.42-.53-.94-.89-1.08-.16-.6,.87-1.2,1.3-1.48,.02,.35,0,.71,.03,1.06,.75,.09,.94,1.55,1.74,.38,.38-.56,.02-1.52,0-2.19-.03-.76,.06-1.44-.26-2-.1-.17-.39-.13-.49-.42-.07-.21,.09-.46,.1-.67,.03-.35,.07-.7,.05-1.07-.73-.07-1.38-.83-2.14-.67,.02,.27-.01,1.2-.2,1.37-.38,.35-1.05-.09-1.48,.15-.38,.21-.26,.63-.59,.88-.43,.32-3.53,.61-2.71-.54Z"/><path class="aj" d="M130.4,56.26c-.16,.42-.59,.55-1.02,.6,.38,.24,.94,.53,.9,1.16,.79,.34,1.82-.62,.77-.99-.08-.42-.27-.7-.64-.77Z"/><path class="aj" d="M116.7,272.86c-.76,.89-.94,2.04-1.14,3.15-.08,.42-.09,1.27-.34,1.61-.13,.18-1.5,.5-1.5,.5-.18,1.26,.99,2.24,1.9,2.83,.04-.11,.17-.26,.21-.39,.23,.3,.79,1.83,.55,2.23-.23,.38-.61,.11-.84,.47-.14,.21,0,1,.01,1.24,.55-.08,.76,.26,1.24,.35,.5,.09,1.16,0,1.67-.01-.51-1.52-.59-3.71-.39-5.31,.43-.07,.91-.02,1.3,.19,.07,.37-.04,.95,.1,1.3,.25,.61,.74,.42,1.15,.86,.53,.56,.72,1.42,.76,2.21,.97,.02,1.89-.02,2.9,.02-.2,.68-1.2,.11-.93,1.14,.12,.46,1.01,.94,1.42,.92,.56-.03,1.06-.77,1.02-1.32-.02-.33-.38-1.09-.59-1.34-.38-.46-1.09-.56-1.43-1.08-.3-.45-.13-1.12-.4-1.58-.56-.95-2.25-1.5-2.33-2.79,.82-.12,2,.24,2.74-.15,.3-.16,.39-.6,.79-.72,.29-.09,.78,0,1.08,0,.38-.92-1.83-.96-2.38-.99-.56-.03-1.21-.06-1.77,0-.72,.08-1.1,.57-1.82,.67-.98,.14-1.35-.82-1.96-1.4-.54-.51-1.34-1.48-.27-2.11,.59-.35,2.27-.21,3-.24,.75-.03,.72,.22,1.26,.42,.54,.2,1.22,.25,1.83,.41,2.2,.61,4.39,1.66,6.42,.08,.52-.41,1.61-2.45,.57-1.74q-1.18,.8-1.84,1.05c-.87,.33-2.64,.13-3.54-.05-1.21-.24-2.4-.32-3.51-.92-.9-.48-1.58-1.11-2.67-.84-.79,.2-1.75,.75-2.25,1.33Z"/><path class="aj" d="M138.34,271.7c-.98,.06-.59,.58-.83,1.17-.17,.42-.64,.56-.75,1-.17,.66,1.85,2.1,.35,2.59,0,.16,1.94,1.71,2.31,1.64,.23-.81-.94-.97-.58-1.91,.33-.84,1.02,.03,1.82-.6,.02-.45,.1-1.04,.01-1.49-.07-.33-.39-.48-.35-.9-.82,.13-2.03-.51-1.57-1.43l-.42-.08Z"/><path class="aj" d="M133.34,282.02c-.18,.09-.57,.44-.75,.56,.82,.41,1.65,.35,1.93,1.27,.88,.03,1.29-.06,2.06-.42-.73-1.51-1.6-1.4-3.24-1.4Z"/><path class="aj" d="M141.34,282.02c-.61,0-1.14,.08-1.75,.08-.37,.53-1.35,.3-1.24,1.16,.7,.03,1.4-.01,2.08-.07,.5-.04,1.02-.16,1.53-.08,.47,.07,.49,.22,.96,.34,.31,.08,.69-.09,1,0,.49,.13,.31,.17,.65,.41,.28,.2,1.19,1.24,1.68,.69,.28-.31-.43-1.41-.75-1.6-.59-.35-1.44-.06-2.08-.4-.78-.42-1.15-.52-2.08-.52Z"/><path class="aj" d="M192.28,286.6c-.23-.64-1.39-.57-1.91-.57-.92,0-1.53,.02-2.28-.61-.23-.19-.48-.71-.64-.82-.26-.19-.48-.13-.75-.24-.62-.26-1.13-.83-1.78-1.06-.66-.23-1.43-.07-2.12-.1-.75-.03-1.98,0-2.68-.25-.65-.24-.86-.59-1.64-.67-1.92-.2-3.83-.67-5.76-.67-1.02,0-1.73-.27-2.65-.5-.92-.23-1.31-.59-2.29-.68-.88-.09-1.77-.19-2.7-.15-.95,.05-1.35,.41-2.11,.84-.91,.51-1.51,.62-2.21,1.42-.67,.76-1.03,1.32-2.09,1-.5-.15-.82-.4-1.26-.6-.39-.17-.86-.28-1.23-.42-.02-.34,.16-1.32-.03-1.58-.24-.34-1-.02-1.23-.64,1.22-.5,.23-1.77-.59-1.94-.94-.19-1.86-.47-2.81-.62-.31-.05-.96-.25-1.25-.12-.23,.1-.23,.45-.44,.6-.92,.66-2.12,.38-3.18,.39-.51,0-1.46-.06-1.05,.77,.08,.16,1.59,.85,1.89,.9,.71,.14,1.23-.43,1.91,.01,.45,.29,.46,.63,1.01,.81,.78,.25,3.07-.31,3.26,.75-1.21,.33-2.9,.04-3.86,.99,1.23,.37,1.42,1.13,2.25,1.91,.33,.31,.84,.55,1.44,.33,.38-.14,.4-.47,.87-.65,1.73-.67,2.06,.53,3.11,1.23,.52,.35,.98,.32,1.54,.25,1.21-.15,1.34-.01,2.48,.4,.96,.35,2.06,.46,2.99,.74,1.25,.38,1.76,.74,2.5,1.75,.27,.37,1.24,1.75,.77,2.24-.17,.18-.71-.02-.96,.12-.2,.12-.37,.42-.5,.59-.26,.34-.89,.98-.89,1.37,.54,.07,1.12-.02,1.68,.03,.14,.01,.84,.17,.9,.15,.31-.08,.32-.32,.6-.52,.88-.64,2.82-.62,3.73-.05,.45,.28,.77,.75,1.31,.92,.62,.2,1.43,.08,2.1,.08h3.66c.48,0,.94-.27,.86-.82,.14,.02,.32-.06,.45-.04,0-.31-.28-.84-.13-1.14,0,.02,1.3-.82,1.31-.82,.26-.1,.59,.06,.86,0,.37-.09,.46-.31,.72-.42,.66-.26,1.04-.29,1.52,.24,.68,.04,1.38,0,2.05,.1,.93,.13,1.19,.53,1.91,1.11,.49,.39,.95,.66,1.51,.97,.89,.48,1.87,.38,2.83,.4,1.33,.04,2.65,.18,3.97,.18,.76,0,2.2,.28,2.61-.59,.4-.85-.99-.72-1.58-.91-.81-.26-1.74-.14-2.41-.62-.19-.13-.19-.43-.42-.56-.2-.11-.6,.04-.84-.05-.46-.18-.39-.46-.67-.67-.29-.22-.73-.4-1.06-.52-.44-.16-.72-.33-1.11-.5-.56-.25-1.82-.27-1.72-1.17,.68-.23,2.65-.16,2.23-1.32Z"/><path class="aj" d="M155.41,288.77c-.02,.54-.03,1.11,0,1.65,.49,.1,1.56-.54,1.73-.99,.24-.64-.24-1.16-.66-1.41l.08-.25c-.97-.17-.18,1.17-1.15,1.01Z"/><path class="aj" d="M130.45,292.43c-.7,.24-1.31,.57-2.02,.83-.29,.11-.54,.06-.82,.24-.32,.21-.31,.67-.84,.68-.09,.85,3.82,.98,3.75-.34,.11,0,.21,.03,.32,.08,.33-.49,1.4-.1,1.98-.31,.83-.29,1.16-.47,2.07-.37,.54,.05,1.31,.22,1.42-.56,.11-.8-.72-.78-1.32-.83-1.44-.14-3.26,.15-4.56,.59Z"/><path class="aj" d="M115.9,291.96c.31,.17,.55,.44,.77,.6,.08,.06,.36,.2,.49,.26,.12,.06,.45,.17,.55,.24,.28,.18,.46,.49,.84,.53,.09,.3,.54,.2,.83,.19,.04-1.04-.69-1.34-1.51-1.84-.84-.52-2-.32-3.04-.32l.22,.06c.26,.16,.56,.14,.84,.29Z"/><path class="aj" d="M117.11,290.35c-.02,.23,1.17,.92,1.49,.99,.58,.13,1.06,.02,1.45-.46,.28-.47-2.85-1.33-2.93-.53Z"/><path class="aj" d="M121.55,290.79c-.71,.26-1.74,.89-.33,.89,.76,0,1.58,.14,2.33,.06,.44-.05,1.92-.46,1.05-.88-.61-.3-2.5-.25-3.04-.06Z"/><path class="aj" d="M203.86,280.26c-.6-.11-.25-.05-.75,.41-.37,.35-.46,.18-.59,.76-.08,.35,0,.8-.01,1.16-1.04-.22-1.29,.97-2.07,1.27-.78,.3-1.22-.4-1.59-.92-.56,.23-.56,.52-.88,.91-.5,.62-.34,.66-1.19,.67-.95,0-1.68,.26-2.57,.43-.49,1.79,5.67,.35,6.31,.07,.44-.18,.99-.43,1.38-.68,.23-.15,.39-.53,.62-.66,.29-.17,.73-.05,1.01-.21,.87-.53,1.28-1.77,1.23-2.76-.62,.12-.63-.39-.9-.44Z"/><path class="aj" d="M205.34,279.11c-.28-.09-4.41-2.13-4.14-.76,.82,0,2.59,.28,3.31,.74,.69,.45,1.02,2.25,1.68,2.1,.78-.17,.55-.98,.33-1.35-.35-.58-.5-.51-1.17-.73Z"/><path class="aj" d="M210.68,281.02l-.25-.08c.5,.16,.22,.5,.33,.91,.2,.72,.38,.79,.98,1.19,.23,.15,.65,.62,.93,.67,.7,.11,.86-.52,1.34-.97-1.02-.29-2.25-1.86-3.33-1.72Z"/><path class="aj" d="M216.09,282.19l.33,.25c-.41-.1-.82-.05-.82,.4,.37,.16,.88,.83,1.3,.49,.59-.48-.46-.98-.82-1.14Z"/><path class="aj" d="M219.93,282.37c.12,.99,2.67,1.44,3.41,.82-.63-.71-2.47-.87-3.41-.82Z"/><path class="aj" d="M222.76,285.16c.83,.42,2.3,.72,2.73-.32-.26-.04-.27-.15-.54-.15-.62,0-2.13-.3-2.19,.48Z"/><path class="aj" d="M227.49,284.26c.11-.65-.62-.58-.96-.97-.27-.31-.36-.82-.53-1.19-.21,.9-1.48,.04-.6,1.29,.6,.86,1.06,.92,2.09,.87Z"/><path class="aj" d="M227.13,285.14c-.62,.46-.02,1.16,.61,1.05,.38-.07,.88-.45,1.32-.53,.05-.52-1.63-.74-1.93-.51Z"/><path class="aj" d="M233.82,298.75c-.62,0-1.24,.01-1.81-.16,.32-.11,.46-.32,.39-.66-.48,.14-1.69,.19-2.07,.49-.47,.37-.26,1.13,.42,1.17,.77,0,3.73,.5,4.19-.06,.65-.8-.69-.77-1.11-.77Z"/><path class="aj" d="M237.34,287.8c-.12,.58-.09,1.16-.07,1.75,1.66,.29,1.82-1.54,.07-1.75Z"/><path class="aj" d="M238.95,289.51c-.27,.35-.62,.68-.56,1.15,.02,.15,1.03-.02,1.14-.12,.43-.39-.15-1.01-.58-1.03Z"/><path class="aj" d="M260.23,280.34c-.34,.2-.6,.07-.98,.08,.04,.58-.86,1.38-.62,1.72,.22,.31,1.24,.22,1.55,.1,.19-.07,.93-1.31,1.06-1.54,.12-.22,.32-.48,.14-.7-.37-.46-.88,.19-1.15,.35Z"/><path class="aj" d="M264.91,275.26c-.49-.04-.75,.72-1.01,1.03-.34,.41-.81,.61-1.23,.95-.4,.32-.49,.64-.82,1.05-.03,.04-.71,.51-.18,.62,.2,.04,.27-.04,.33-.21,.13-.38,.98-.57,1.33-.79,.42-.27,.53-.46,.85-.83,.19-.22,1.92-1.71,.72-1.81Z"/><path class="aj" d="M201.31,312.78c-.23-.14-.63,.09-.87-.02-.08-.03-.58-.37-.46-.34-.42-.12-1.38-.03-1.81-.21-.62-.26-.43-.72-.86-1.11-.83-.75-2.24-.03-3.24-.78-.57-.43-.79-1.3-1.39-1.56-.36-.16-1.13,.18-1.57,.1-.49-1.98-3.54,.07-4.35-1.75-.42-.94-.02-2.7-1.76-2.57-.03-.64,.14-1.31,.09-1.76-.42-.39-1.13-.41-1.45-.68-.35-.3-.39-.81-.66-1.17-.52,.28-1.15,1.78-2.09,1.06-.54-.42-.26-1.92-.03-2.38-.95-.06-1.53-1.57-1.99-2.27-1.02-1.53-1.05-.92-1.83,.35-.7,1.14-1.68,1.9-1.81,3.34-.09,.97,.1,1.69-.14,2.77-.5,2.27-3.14,4.77-5.78,3.88-.69-.23-1.06-.86-1.83-1-.58-.11-1.27,.16-1.83-.02-.77-.25-1.48-.82-2.28-1.09-.5-.17-.81-.33-1.29-.37-.79-.06-1.09,.3-2.06-.29-.41-.25-1.29-.86-1.12-1.45,.11-.4,1.29-.61,1.54-.87,.41-.44,.53-.79,.46-1.44,1.5-.04,3.17-1.63,.8-2.13-.36-.08-1.46-.12-1.8,.01-.35,.14-.41,.61-.81,.77-1.21,.46-1.33-.68-2.29-.89-.03,1.38-1.01,.12-1.46,0-.62-.19-1.21,.23-1.89-.02-.57-.2-.92-.7-1.55-.84-.63-.13-1.68-.1-2.22,.05,.65,.3,1.53,.57,1.32,1.46-.99,.05-1.99,.02-2.98,.02-.98,0-1.66,.61-2.52,.46,0,.49-.41,.72-.91,.66,.17,.69-.44,.85-.74,1.3-.42,.63-.44,.63-.51,1.44-.53-.05-.89,.03-1.43-.09-.47-.1-1.06,0-1.54-.02-.02-.45-.33-.55-.79-.44-.32-.68-1.48-.4-2.1-.73-.42-.22-.06-.55-.53-.71-.77-.26-2.22-.02-3.01,.02,.03,.88-1.87,.56-2.56,.66,.07,.17,0,.57,.09,.75-.8-.09-1.24,1.04-1.86,.63,.06,.24-.07,.57-.03,.81-.5,.04-.92-.19-1.41-.19,0,.58,.17,1.18,.05,1.75-.92,.15-1.25-1.09-2.06-1.33-.05-.29-.12-.25-.24-.44-.97,.92-1.38,1-1.31,2.47-1.06,.19-1.42,.94-2.14,1.33-.92,.5-2.12,.31-3.11,.31-.31,0-.44,.36-.79,.21-.38-.17-.17-.73-.55-.87-.66-.25-.76,.22-1.21,.34-1.03,.27-2.59,.25-3.63,.08-.01-.09-.02-.18-.04-.28-1.04-.12-2.29-.29-3.32-.07-.83,.17-1.26,.57-2.22,.62-.61,.03-1.93-.45-2.32-.33-.8,.24-.25,1.1-.36,1.87-.16,0-.36,.05-.52,.03-.07,.88,2.49,2.42,2.54,3.43-1-.58-1.24,.11-.84,.42,.57,.43,1.39,.67,1.95,1.16,.54,.47,.86,1.19,1.35,1.61,.56,.47,1.07,.37,1.71,.6,.98,.35,.4,1.49,1.7,1.66,.21,.46,.05,.28,.54,.44,.01,.43,.03,.89-.03,1.3-.25-.04-.59,.1-.82,.06,.12,.85,3,1.33,3.74,1.65,1.85,.78,3.47,.65,5.56,.65,1.73,0,3.37-.06,5.09,.01-.05,.21,.08,.53,.03,.75,.86,.05,1.76-.06,2.58,.13,1.09,.24,1.66,.7,2.83,.65-.16-1.36,2.25-.87,3.12-.87,1.57,0,3.06,.44,4.64,.56,1.51,.11,2.61-.45,4.03-.45,1.01,0,7.09-.49,6.87,.78,1.02,0,2-.12,2.99-.23,.21-.02,1.07-.17,1.22-.11,.52,.19,.4,.67,.75,.9,.49,.32,1.18,.14,1.67,.4,.45,.23,.21,.54,.82,.71,.79,.22,1.9-.02,2.65-.27,.61-.21,3.38-1.71,2.97,.14-.66,.03-1.5-.19-1.77,.57,.63,.16,1.28,.38,1.91,.54,.01-.23,.19-.61,.15-.87,.69,.29,4.13,.05,3.98,1.09,2.6,.13,5.14-.08,7.74,.13,.89,.07,1.4-.41,2.14-.67,.62-.22,1.19-.22,1.95-.22,1.68,0,2.83-.26,4.4-.35,0-.1,.08-.27,.08-.41,.53,.04,1.37,.28,1.87,.18,.69-.13,1.38-.49,2.07-.67,.32-.09,.71-.02,1-.24,.11-.08,.5-.71,.5-.71,2.4-.46,3.81-2.4,5.95-3.43,.59-.29,1.35-.23,1.86-.49,.5-.25,.97-.89,1.42-1.29,.92-.81,1.12-1.78,1.97-2.47,.86-.69-.7-1.96,.42-2.35,.12-.49,.03-1.13-.42-1.41Z"/><path class="aj" d="M168.48,140.19c.08,.38,.29,.85,.34,1.22,.11,.83-.02,1.75,0,2.59,.02,1.05,.78,1.06,.92,2.08,.22,1.62-.09,3.5-.09,5.16s.42,3.25,.73,4.85c.19,1,.18,2.05,.5,3.02-.02-.89,0-1.78,1.14-1.71,.92,.06,.76,1.4,1.61,1.15,.05-1.68-.67-2.76-1.67-3.98-.69-.84-.63-1.45-.41-2.51,.13-.6,.21-1.86,.67-2.33,.99-1.04,.76,.81,1.52,.68,1-.17-.41-1.73-.63-2.1-.75-1.32-1.45-2.84-1.73-4.4-.19-1.06-.04-2.14-.42-3.16-.22-.58-.64-1.16-.83-1.75-.16-.5-.08-1.07-.25-1.55,0-.02-.71-1.17-.73-.67-.02,.39,.06,.76,.07,1.13,.04,.82-.15,.69-.57,1.26-.43,.57-.33,.33-.18,1.01Z"/><path class="aj" d="M160.16,185.97c-.59,.69-.03,1.66-.66,2.27-.83,.82-1.14-.44-2.1-.02-.03-.14-.25-.32-.27-.52-.55-.01-.69,.34-1.13,.5-.38,.13-.97,.12-1.41,.16-.7,.06-2.31,.05-2.87,.42-.29,.19-.74,.98-.97,1.32-.35,.52-.3,.88-.92,1.15-.58,.25-1.36,.92-1.96,1.18,0,.84,1.85,0,2.48,.12,1.43,.27,1.68-.19,2.65-.97,.87-.7,1.81-.61,2.93-.56,.57,.02,3.16-.58,2.63,.62-.15,.34-.45,.31-.57,.71-.05,.17-.06,.66,.01,.83,.5,1.23,1.81,1.81,2.82,.92,.36-.32,.86-.94,1.06-1.36,.41-.87-.54-.9-.47-1.77,.06-.76,2.3-1.21,2,.03,.12,.02,.2-.04,.32-.07,1.01-.29,3.1,.29,3.5-1.02,.15-.48,0-1.29,.01-1.84,.45-.03,1.01-.15,1.47-.12,.19,.65-.61,.61-.65,1.56-.03,.95,1.25,.08,1.73-.5,.62-.75,.57-1.18,.43-2-.08-.47,.11-1.42-.45-1.61,.12,.02,.23,0,.36,.02-.05-.64,.42-.61,.59-1.07,.12-.33,0-.92,0-1.27,0-.7-.39-1.48-.21-2.17,.16-.63,1.18-1.17,1.03-1.86,.04,.18,.16,.32,.19,.55,.04,0,.19,0,.22,0,.28-1.09,.15-2.58,.01-3.66-.08-.66-.08-1.46-.35-2.08-.28-.64-.45-.76-.5-1.55-.76,.2-.91-.33-1.53-.42-.13,.4-.13,.8-.2,1.22,.27-.16,.59-.3,.9-.22,.41,1.17-1.18,1.33-1.33,.07-.37,.04-.6,.32-.97,.42,.05-.01-.18,1.98-.18,2.07,.04,.66,.17,1.24,.17,1.91,0,.79-.14,1.01-.39,1.68-.19,.53-.17,1.02-.2,1.64-1.47,.35-1.6,2.19-2.9,2.78-.2,.09-.57,.11-.73,.23-.15,.11-.22,.31-.37,.44-.34,.29,.05,.74-.82,.56-.64-.13-1.04-1.1-.18-1.23-.82-.41-1,.41-1.33,1.06-.18,.35-.69,1.9-.9,1.58-.08-.02,.09-.18,.01-.15Z"/><path class="aj" d="M152.99,196.26c.73,.07,.78-.32,.92-.92,.16-.63,.11-1.18,1.03-1.15,.48,.02,.86,.45,1.21,.76,.48-1.06,1.38-1.33,.31-2.34-.47-.45-.66-.6-1.39-.51-.97,.13-1.07,1.16-2.22,1.22-.35,.02-.79-.27-1.04-.23-.75,.1-.11,1.84-.33,2.34,.29,.28,1.08,.78,1.5,.82Z"/><path class="aj" d="M146.28,194.26c-.32,.17-1.16,.01-1.53,.03-.06,.78,.22,1.88,.92,2.32,.22-.26,.33-.53,.58-.74,.75,.69,.06,3.12,.58,3.99,.31-.27,1.96-1.95,1.84-1.08-.05,.32-.61,1.47-.81,1.75-.22,.3,.92-.7,.95-.22,1.15,.79,.61-.74,.84-1.52,.22-.73,.39-1.27,.52-2.01,.1-.6,.06-.84,.67-1.17-.94,0-.95-.84-1.33-1.5-.39-.68-1.97-1.01-2.75-.49l.42-.25c-.59,.06-.47,.68-.89,.9Z"/><path class="aj" d="M167.9,166.96c-.06,.35-.03,.66-.26,.96-.38,.48-.72,.43-.53,1.16,.12,.46,.69,.32,.9,.68,.18,.31-.17,.94-.13,1.32,.04,.42,.36,.89,.67,.33,.2-.35-.18-.76,.22-1.11,.47,.31,.91,.69,1.48,.75,.04-.1,.03-.2,.01-.3,0,.02-.53-.44-.58-.55-.19-.36-.08-.45-.05-.86,.06-.74,.32-.71,1-.46,.96,.36,2.35,2.02,3.51,1.45,.39-.19,.47-1.4,.62-1.76,.68-1.67,1.95-1.98,3.61-2,.54,0,1.48-.25,.66-.61-.27-.12-.69,0-.93-.15-.23-.15-.34-.54-.44-.79-.26-.68,0-.95,.14-1.66,.05-.28,.15-.52-.16-.66-.48-.22-.46,.23-.6,.49-.42,.81-.57,.77-1.5,.66-.33-.04-.68-.04-.98-.16-.62-.25-.93-.81-1.34-1.29-.3-.35-.64-.62-.99-.93-.71-.63-1.34-1.79-1.82-.34-.27,.83-.2,1.75-.2,2.66,0,.49,.04,1.01,0,1.5-.06,.79-.79,1.38-1.49,1.15-.58-.19-.69-.37-.83,.51Z"/><path class="aj" d="M2.18,159.26c-.14-.34-.03-.65-.11-.99-.19-.81-.65-1.42-.78-2.22-.12-.72,.07-1.68,0-2.38h0c-.61,4.88-.99,9.83-1.14,14.84,.15-1.01,.69-2.06,1.03-2.91,.25-.64,.44-1.09,.59-1.77,.22-.99,.77-1.16,1.22-1.99,.29-.53,.27-1.16,.01-1.67-.2-.39-.6-.35-.81-.89Z"/><path class="aj" d="M.1,169.29H.1c0-.27,.02-.53,.03-.8-.04,.27-.06,.54-.03,.8Z"/><path class="aj" d="M182.87,327.21c-.58,.13-1.2-.08-1.79,.07-.77,.2-1.69,.41-2.43,.7-.61,.24-.71,.32-1,.92,2.4-.32,4.79-.69,7.15-1.11,.17-.26,.24-.73,.29-1.02-.97-.05-1.37,.25-2.23,.44Z"/><path class="aj" d="M180.18,18.58c.44,.26,1.49,2.17,1.59,2.7,1.2-.32,2.84-.59,4.07-.46,.83,.09,.96,.06,1.58,.48,.62,.42-.04,1.46,1.26,1.18-.16,.58-.66,.88-1.3,.85,.86,.37,1.71,.47,2.53,1.25,.21,.2,.18,.85,.48,1.01,.51,.27,.87-.11,1.3,.03,1.43,.45,1.98,1.26,3.56,1.15,.88-.06,1.45-.56,2.23-.76,1.01-.26,1.59,.04,2.67-.07-.54-3,5.39,.33,6.5,.68-.04-.24,.07-.57,.03-.81,1.18-.05,2.47-.5,3.54-.06-10.5-3.79-21.52-6.49-32.92-7.97,.65,1.05,1.98,.29,2.87,.81Z"/><path class="aj" d="M212.33,26.52l.02,.1c.18,.35,.22,.76,.14,1.14-.61-.07-1.15,.11-1.61,.54,1.44,.47,2.76,1.67,3.77,2.86,1.09,1.29,2.57,2.49,3.52,3.76-.7-.1-1.15,.16-1.16,.86,0,.17-.14,0-.19,.15-1.73,.53-9.63-.45-9.83-2.63-1.08-.04-2.25,.28-3.3,.09-1.34-.24-2.4-1.18-3.83-1.27-1.6-.11-2.96,.29-4.49-.34-.77-.31-.89-.89-2.01-.93-1.23-.05-2.35,.8-3.59,.63-.22,1.18,1.44,1.74,2.07,2.46l.04-.21c.22,.15,.4,.34,.61,.48,.14-.18,.31-.45,.3-.66,.45,.06,1.12-.05,1.69,.07,.67-.08,2.62-.49,2.18,.36-.39,.77-1.56,0-1.67,1.07,.71,.02,1.25,.37,1.98,.37,.11,.82-.86,.5-1.42,.58-.05,.56,.42,.92,.82,1.17-.65,.03-1.89-.3-2.46,.08-.75,.51-.47,1.71-.57,2.47,.76,.03,1.54,.04,2.3,0-.04-.18,.07-.46,.03-.64,.83-.04,1.69,0,2.52-.03-.11-1.04,1.12-1.99,2.13-1.54,.52,.24,.34,.58,.86,.76,.03,.01,1.07-.27,1.26-.28-.15,.21-.35,.38-.58,.51-.65,.39-.29,.98-1.32,.67,0,0-1.36-1.61-1.24-.12,.07,.88,2.81,1.89,2.69,.35,.58-.04,1.17-.02,1.76-.02,1.11,0,1.42,1.42,2.52,1.65-.26,.48-.34,.83-.31,1.26,.02,.33,1.26,.61,.13,.99-.05,.18-.05,.54,0,.71,.44-.01,.94,.08,1.33,.35,.21,.14,.46,.79,.63,.84,.85,.24,.98-.72,1.69-.03,.35,.33,.55,1.25,.89,1.68,.55,.71,1.01,1.21,.87,2.19-.43,.02-.87,0-1.3,.02,0,.55,.22,2.11-.02,2.56-.27,.52-1.08,.41-1.23,.98-.15,.55,.91,1.31,1.22,1.53-2.77-.09,.23,.75,.12,1.46-.1,.66-1.18,.08-1.23,.78-.05,.6,1.01,.66,1.22,.98-.97,.1-.33,1.15-.05,1.61,.2,.33,.61,.62,.76,.97,.21,.5-.01,1.08,.33,1.57,.35,.5,1.42,.51,1.62,1.31,.26,1.07-.69,1.09-1.34,1.58-.47,.35-1.1,.98-1.38,1.48-.28,.49-.11,1.03-.37,1.52-.39,.72-.97,.29-1.51,.72-.3,.24-.29,.53-.48,.84-.82,1.32-.89,1.91-2.42,1.9,.01,.36,.01,.65,.22,.97-.62,.44-2-.21-2.25,.75-.09,.36,.49,.34,.46,.69-.03,.3-.3,.64-.32,.78-.09,.87,.14,.67,.51,1.52,.27,.62,.07,1.17,.38,1.79,.37,.74,1.14,1.13,1.31,2.01,.23,1.2-1.58,2.33,.04,3.21,.59,.32,1.62-.24,2.17-.23,.79,0,1.63,.73,2.32,.71,.57-.02,.98-.7,1.77-.46,.54,.17,.68,.67,1.23,.79-.2,.41-.95,.72-1.4,1.09-.07-.17-.22-.38-.25-.55-1.21-.29-.58,2.99-.54,3.87,.16,.02,.37,.05,.54,.02,.6,.28,1.29,.3,1.78,.56,.82,.44,.15,.64,1.1,.24,.83-.35,1.91-2.44,2.62-1.72,.09-.62,.02-1.32-.05-1.96,.64,.31,1.6,.92,2.09,1.33,.29,.23,.29,.64,.65,.87-.31,0-.64,.17-.97,.15,.15,.96,1.51,.89,.65,1.85-.62,.7-1.01-.19-.83,.95,.07,.44,.52,.7,.75,1.05,.31,.46,.47,.99,.76,1.47,.32,.54,.87,.95,1.18,1.49,.48,.03,.99,0,1.47,.02,.12,1.39,2.19,.22,2.76,1.38,.23-.23,.6-.57,.81-.89,.39-.6,.25-1.08,.96-.78,.12,.05,.28,.48,.41,.59,.19,.16,.57,.23,.8,.43,.42,.36,.61,1.18,1.34,.97,0-.42-.05-1.06,.15-1.41,.23-.39,.79-.72,.94-.21-.29-.99,.72-.54,1.01-.99,.29-.46-.32-1.16,.33-1.43,.15,.54,1.08,1.12,1.49,1.51,.55,.53,.99,.9,1.24,1.64,.13,.36,.06,.75,.19,1.09,.06,.16,.4,.15,.44,.32,.05,.2-.11,.37-.1,.53,.03,.27-.09,.62-.02,.9,.09,.35,.38,.49,.48,.81,.3,.86-.34,1.13-.57,1.77-.29,.83,.43,.92,.57,1.41,.16,.55-.19,1.41-.22,1.98-.04,.83-.05,1.67,0,2.5,.16,.05,.47,.05,.63,0,0-.81,.51-.87,.76-1.57,.14-.41,.02-1.06,.02-1.5v-3.08c0-.83,.5-1.11,.5-1.94,0-1.42-.87-2.42-1.17-3.89-.09-.45-.02-.56-.26-.95-.16-.25-.45-.28-.61-.58-.41-.78-.12-1.9-.41-2.75-.17-.49-.45-1.19-.82-1.53-.49-.44-1.09-.16-1.55-.45-.49-.31-.52-1.19-.77-1.66-.23-.42-.64-.75-.92-1.14-.46-.65-1.8-2.27-1.51-3.1,.45,.17,.32,.71,.55,1.04,.32,.45,1.06,.74,1.47,1.07,.7,.56,1.43,1.2,2.08,1.8,.14-.34,.12-.7,.1-1.06,0-.16,.04-.36,0-.51-.05-.21-.33-.39-.34-.43-.19-.69-.02-1.51-.11-2.22-.02-.17-1.37-.66-1.56-.93-.85-1.22,.47-1.68,1.25-2.08,.48-.24,.81-.67,1.33-.85,.03-.01,.03-.98,.11-1.14,.19-.41,.5-.44,.75-.78,.33-.45,.32-1.16,.83-1.54,.59-.43,1.92-.29,2.48-.26-.06,0-.1-.02-.1-.08,.2-.44,.73-.61,1.15-.73-.58-.55-.32-2,.45-2.23,.65-.19,.77,.21,1.39,.29,.57,.08,.82-.23,1.33-.42,.39-.14,.79-.27,1.17-.09,.31,.14,.4,.79,1,.68,.25-.05,.5-.56,.76-.69,.59-.3,.77-.06,1.24,.17,.39,.19,.75,.52,1.23,.44,.42-.07,.67-.62,1.14-.66,.56-.05,.61,.37,1.04,.54,.76,.32,.69-.12,1.19-.4,.94-.53,1.19,.34,2.06,.59,1.04,.3,1.26-.09,1.58-.83,.1-.22,0-.4,.14-.63,.07-.12,.44-.28,.56-.4,.28-.28,.46-.64,.69-.96,.37-.5,.57-.78,1.27-.6,.68,.17,.46,.46,.83,.9,.35,.41,.93,.51,1.25,.84-1.06-.07-.85,1.21-.82,1.92,2.32-.45,3.99,1.04,5.79,2.36,2.24,1.63,4.83,3.02,6.87,4.89,.82,.75,1.38,1.59,2.4,2.1,.22-.24,.92-.44,1.24-.27,.36,.19,.29,.73,.68,.98,.73,.48,2.11,.17,2.97,.61-.02,.13,.05,.32,.02,.45,.38,.05,.83-.04,1.21,.03,.47,.09,.81,.38,1.24,.41,.15-.69-.22-1.42-.1-2.14,1.23-.1,1.7,.92,2.63,1.57,.33,.23,.89,.67,1.35,.63h0c-17.98-25.66-43.43-45.69-73.21-56.92Z"/><path class="aj" d="M127.82,183.46c-.12,0-.22,0-.32,.02,.1,.01,.21,0,.32-.02Z"/><path class="aj" d="M125.38,206.54c-.11-.02-.25-.06-.39-.09,.08,.13,.21,.16,.39,.09Z"/><path class="aj" d="M203.9,94.35c1.07,.15,.57-.33,1.28-.59,.61-.22,.78,.12,1.22,.21,.6,.12,.78,.1,1.44,0,.76-.12,2.56,.56,3.11-.42,.52-.93-.94-.98-1.41-1.58-.77-.99,.15-1.3,.08-2.3-.07-.93-1.08-1.39-1.89-1.56-1.67-.36-4.42,.39-2.48,2.25-.46,.92-1.84-.87-2.3-1.22-1.26-.93-2.41,.1-3.77-.25-1.12-.28-1.36-.55-2.82-.42-1.23,.11-2.84-.38-3.98-.14-.82,.17-.46,.6-1.15,.99-1.41,.77-3.44-.75-3.24,1.67,.71,.2,1.06,.05,1.4,.77,.35,.73,.13,1.45-.71,1.38-.6-.05-1.01-1.06-1.86-1.02-.67,.04-.88,.52-1.42,.78-1.18,.58-2.68,.66-3.94,1.22-.86,.38-1.32,.61-2.08-.33-.33-.41-.97-1.47-1.09-1.99-.02-.07-2.47-.15-2.74,0-.79,.39-.68,1.54-1.68,1.8-1.18,.3-2.58-1.34-3.42-1.79-3.16-1.7-6.86-1.36-10.54-1.2-.33,1.5,.3,1.77,1.52,2.31-.95,1.1-1.75-.78-2.58,.82-.97-.59-2.17-1.39-2.95-.05-1.97-1.61-1.87-.03-2.83,1.25-.92-.63-2.13-1.89-2.02-2.9,.09-.82,1.09-.6,.68-1.91-.27-.88-.81-1.08-1.33-1.88-1.2-.37-1.35-.11-2.12-1.33-.81,.63-.2,2.09-1.04,2.53,.04-.02-2.76-.53-3.14-.54-.17-1.83-.55-2.05-2.34-2.32-2.31-.35-2.83-.69-4.07-2.63,3.33,.05,5-.86,4.88-4.16-.97,.25-1.6-.73-2.62-.72-.05-.82,.08-1.67-.23-2.46-.89-.03-2.54-.34-3.3,0-.64,.29-1.45,2.4-1.86,.5-.65,.49-1.53,.76-2.13-.19-.47-.74-3.37-.5-4.53-.5-2.38,0-2.79,.33-4.33,1.96-.84-.93-2.51-2.74-4.01-1.8-.42,.26-.26,.79-.57,1.06-.28,.24-.83,.63-1.1,.93-.35,.39-.8,.28-.92,.81,.06-1.68-.41-2.18-2.27-2.1,.36-.52,.67-1.18,1.06-1.63-.98-.65-.95,.32-1.66,.64-.56,.25-1.26,.42-1.74,.68-.56,.31-1.01,1.08-1.58,1.35-.61,.28-1.31,.15-1.89,.4-.35,.15-1.46,.91-1.63,1.2-.34,.58,.13,1.43-.31,1.94-.9,1.07-2.19-.19-2.21,2.06,0,.17-4.52,.57-5,.55-.43-1.7,1.14-1.32,2.13-1.54,.73-.16,1.07-.69,1.73-1.01,.51-.25,1.29-.23,1.78-.55,.85,.07,.64-1.35,1.1-1.87,.54-.61,2.04-.94,2.79-1.38,1-.58,1.41-1.78,2.3-2.29,.38-.22,1.2-.25,1.62-.41,.18-.07,.5-.39,.74-.5,.34-.15,.72,.13,1.03-.21,.34-.37,.14-1.63-.22-1.97-.57-.54-1.12-.21-1.8,.09-.46,.2-.88,.56-1.58,.63-.67,.06-1.59-.18-2.22,.02-.55,.17-.3,.42-.65,.62-.73,.42-1.57,.62-2.21,1.08-1.23,.89-1.11,2.57-2.45,3.31-1.31,.71-1.52-.19-1.14-1,.06-.13,.46-.59,.58-.86,.12-.27,.14-.65,.24-.93,.52-1.36,.81-2.48,.6-4.07-.38-.03-.78-.03-1.16,0-.07,1.46-2.01,1.87-3.12,1.52,.61-.77,1.32-.13,1.06-1.63-.94-.12-.63-.84-1.06-1.27-.51-.51-1.14-.34-1.78-.85,.26-1.12,1.11-.09,1.63-.61,.56-.55-.71-1.25-1.19-1.54-.67-.4-1.2-.68-1.98-.88-.43-.11-1.86,.03-2.24-.2-.82-.49-.2-1.06,.4-1.44,1.07-.7,.7,.03,1.88,.11,2.16,.15,2.49-1.77,1.85-3.28,.1,1.17-2.34,.95-3.08,1.39-.37,.22-.69,.95-1.06,1.12-.73,.32-1.37-.1-2.09-.14,.47-.2,.93-.68,.76-1.29-.09,0-.18-.02-.28-.03,.1-.7-.13-.75-.6-1.03-.77-.47-.81-.17-1.42,.25-.58,.4-2.13,1.82-2.24,0,.85-.13,2.73-1.18,1.54-2.26-.84-.76-1.36,1-2.54,.93-.22-.75,.86-1.1,1.34-1.53,.91-.82,.85-.9,2.02-.89,1.55,0,3.13-1.05,4.31-1.91-.09,1.51-.25,1.36-1.38,2.23-.91,.7-1.79,1.76-.96,2.79,1.34,1.66,4.73-.57,5.55-1.89-.24-1.21,1.83-1.43,2.36-2.41,.36-.67,.13-1.11,.73-1.58,.57-.45,1.35-.4,2-.68,.03-.57,.01-1.17,.03-1.74,.65-.04,1.34-.04,1.99,0,0,.06-.05,.16-.04,.19,.46-.7,1.44-.76,1.93-1.49,.48-.71,.12-1.83,1.31-1.97-.15,0-.44-.1-.63-.1-.09-.31-.31-.41-.37-.74-1.67-.21-.08-1.6-.53-2.71-.21-.52-.82-.76-1.23-1.08-.58-.46-1.22-1.18-1.8-1.56-1.11-.72-2.47-1-3.5-1.86-1.31-1.08-.48-1.92-.8-3.36-.42-1.89-2.38-.81-3.94-.78-1.94,.04-3.18-.01-4.84,.89-1.64,.89-1.47,1.52-1.37,3.09-.58,.03-1.22-.17-1.43,.31-2.45,1.38-7.48,1.18-9.27,3.37,.32,.09,.67,.38,1.04,.48-.33,.21-.62,.66-.91,.82,1.01,.46,3.4,.53,4.45,.75,2.54,.54,2.02-.51,4.46-1.17,1.61-.44,2.77,.24,3.92,.94,1.06,.64,1.13,1.44,2.75,1.76,.73,.14,1.29,.13,2.01,0-.23,.64-1.5,2.52-2.42,2.61-1.24,.12-1.8-2.02-3.33-2.41-.63-.16-1.57-.04-2.21,.03-.38,.04-.61,.75-.9,.78-.37,.04-.99-.38-1.21-.33-1.36,.31-2.07,.23-3,1.29-2.07,.26-.61,1.81-1.05,3.16-.36,1.12-3.86,4.13-3.32,1.53,1.45-.38,1.65-1.84,1.46-3.16-1.17-.36-1.12,.46-1.91,.81-1.12,.49-1.96,.54-3.17,.46,1.43-.1,1.29-1.73,2.61-2-1.32-.7-2.99-.24-4.18,.57-1.97-1.83,1.23-1.72,1.88-2.72,.43-.66-.22-2.7-.35-3.43,1-.34,1.52-.55,2.19-1.22,.35-.35,.2-.91,.62-1.3,.38-.36,1.02-.47,1.51-.63,2.01-.67,3.51-.48,5.58-.99,.01-.69,1.28-.67,1.33-1.29-1.27-.25-1.56-.45-2.79-.08-.82,.25-1.28,.3-2.24,.42,1.15-.16,.26-1.49,1.43-1.79,.37-1.3-2.35-2.35-.69-3.3,.72-.41,1.44,.41,2.21,.51,1.1,.15,1.42-.28,2.25-.67,2.5-1.18,6.6-3.63,9.45-3.37,.77,.07,1.59,1.38,2.51,.71,.63-.46-.18-1.43,.91-1.83,.89,1.9,2.76,.39,3.18-.82-.93,.03-2.12-.4-2.8-.98,1.29-.38,1.47-1.42,1.49-2.66h0c-24.97,9.41-46.9,25-63.94,44.91h0c1.8,0,1.65,.07,2.88-1.11,.88-.85,1.38-2.42,2.89-2.03,.16,1.34,.03,1.89-.91,2.87-.78,.81-2.1,.88-.82,2.26,2.21-.57,1.97-3.42,4.77-2.51-.53-2.64,3.18-.51,4-.58,.28,.95-.25,1.7-1.27,1.62-.6,1.52-.58,2.58-2.17,1.67-.32,.63-.42,1.41-.43,2.09-.18-.04-.51,.08-.74,.03-.08-.15-.1-.3-.18-.45-1.28,.25-.16,1.68-.15,2.63,1.23-.17,2.71-2.23,3.28-1.91,.82,.45,.55,2.95,.5,3.74-.7-.6-1.72-1.11-2.04,.18-.53-.33-1.09-.51-1.73-.47-.15,1.06-1.16,2.05-1.53,2.97-.57,1.45-.88,1.72-1.96,2.83-.61,.63-2.97,5.89-4.18,4.67-.37-.38-.07-3.11-.02-3.67,.13-1.34,.53-2.12,1.37-3.13,1.09-1.31,1.42-1.96,1.78-3.66,.19-.93,.64-.82,.23-1.86-.27-.7-1.02-.7-1.21-1.47,.54-.25,.88-.55,1.46-.59-.26-.85-.5-2.43-1.02-3.25-1.74,.88-2.35,2.61-3.65,3.93-.53,.54-1.54,.9-1.93,1.58-.47,.83-.2,1.8-.7,2.59-.83,1.33-1.18,.77-1.34,2.47-.11,1.16,.06,1.55-.53,2.53-.68,1.13-1.01,.48-1.11,2.04-.03,.5,1.48,1.36-.5,1.52,.85,1.61-.05,2.32-1.85,3.47-1.53,.98-4.03,1.51-4.85,3.29-.18-1.91,.89-4.95,2.21-6.29-1.38-.99,.2-1.5-.04-2.77-1.79,2.7-3.51,5.46-5.14,8.27,.21,1.47-.48,2.05-1.23,3.11-.65,.92-2.1,2.53-.12,2.53-1.08,1.67-1.73,3.17-2.51,5.01-.71,1.68-1.84,3.31-2.45,5.08-1.35,3.92-3.97,7.78-6.01,11.11-2.71,7.77-4.82,15.82-6.29,24.1,0,1.48,.08,3.04,.51,4.43,.5,1.59,2.03,2.5,2.2,4.23,.32,.1,.46,.18,.63-.07,.11-.15,.3-.32,.38-.54,.26,.66,.81,.75,1.19,1.31,.31,.46,.1,1.05,.66,1.39,.1-.23,.26-.25,.36-.49,.8,.22,.47,1.05,1.48,.82-.02-1.15,.89-.09,1.16,.08,1-.77,.26-1.85,1.88-1.99,.73-.06,2.57-1.37,2.81-1.92,.26-.62-.52-2.75,.75-2.82-.05-.99,.12-2.04-.1-3-.19,.05-.46-.06-.65-.02-.06-1.08-.22-2.27,.07-3.33,.13-.48,.42-.72,.62-1.13,.23-.47,.18-.98,.38-1.44,.12-.27,.49-.48,.51-.77,.07-1.02-.54-.46-1.02-.33-.64,.17-1.44,.18-2.06-.03-.02-.79-.17-1.56-.43-2.31-.34-.95-.39-1.75,.32-2.56,.75-.84,1.71-1.19,1.44-2.52-.14-.67-.13-.74-.76-.64-.13,.02-.25,.04-.35,.07,.15-.5,.24-1.02,.5-1.51,.4-.77,.91-1.23,1.19-2.15,.46-1.49,.44-3.19,1.07-4.58,.7-1.54,1.77-2.84,2.58-4.36,.66,.92,.76,2.1,.6,3.19-.11,.76-.6,1.36-.89,2.06-.62,1.46-1.17,2.86-1.6,4.36-.2,.7-.08,1.51-.16,2.31-.09,.84-.34,1.71-.5,2.53-.14,.73-.32,1.5,.14,2.17,.2,.28,.64,.48,.86,.75,.31,.38,1.01,1.14,1,1.67,0,.43-.37,.93-.5,1.31-.14,.39-.14,.7-.4,1.08-.41,.63-.83,1.13-.61,1.99,.13,.51,.45,.88,.6,1.4,.12,.42-.16,.64,.07,1.02,.5,.85,.45,2.31,.77,3.25,.33,.97,.8,1.93,1.24,2.83,.47,.95,1.08,1.88,1.65,2.74,.29,.44,.5,1.07,.89,1.42,.49,.44,1.1,.6,1.1,1.41,0,.91,.04,1.83,0,2.74-.05,1.06-.84,1.48-.59,2.58,.45,2.01,1.22,3.32,1.09,5.5,0,.14-.05,.27-.1,.4-1.04,.26-.78,1.53-.74,2.41,.06,1.27-.32,3.15,.85,4.02,.1,.08,.38-.08,.49,0,.28,.18,.38,.46,.68,.59,.23,.1,.71,0,.97,.01,.06,1.77-1.01,2.39-1.45,3.97-.39,1.44-.35,2.96-.77,4.39-.34,1.12-.47,2.19-.58,3.36-.24,2.35-.27,4.68-.18,7.05,.08,2.31-.33,4.81,0,7.08,.12,.81,.34,1.41,.34,2.27,0,1.33,.25,2.59,.33,3.91,.1,1.72,.14,3.06,.83,4.58,.49,.44,.89,2.19,1.2-.37,.87,.88,2.12,.93,1.82-.65,.63-.19,1.42-.32,2.12-.25,.26-1.47,.07-2.91,.77-4.14,.3-.52,.27-.62,.71-1.33,.4-.64,.43-1.1,.5-1.83,.11-1.07-.06-2.71,.87-3.58,1.07-1,1.83,.75,3.51,.57-.02-.28,.24-.77,.17-1.13,.49,.06,.99,0,1.44,.29,.76-1.04,1.32-.96,2.36-1.32,1.03-.36,1.55-.86,2.68-.99,2.49-.31,4.52,.61,4.73-2.48,.78,.21,1.58,.55,2.39,.54,.1,.93,.53,.95,1.06,1.27,.34,.2,1.08,.02,1.47,.19,.32,.14,.55,.67,.87,.81,1.28,.56,1.77-.09,1.41-1.4,2.92-1.33,1.77,3.76,1.72,4.9-.04,.76,.04,1.86,.16,2.66,.19,1.29,.87,1.62,1.47,2.7,.55,.98,.76,2.21,1.09,3.31,.35,1.14,.59,2,.45,3.32-.13,1.22-1.69,2.83-1.23,4.07,.51,1.4,2.5,1.1,3.73,.91,1.69-.25,2.24-.49,2.51,1.5,.34,2.6-.89,4.79-.17,7.32,2.06,.13,.66,2.93,.67,4,0,.75,.34,1.2,.21,1.88-.1,.53-.77,1.2-.89,1.82-.14,.76,.08,1.44-.19,2.13-.32,.79-1,.8-.97,1.83,.06,1.57,.45,.44,1.17,1.16,1.25,1.24,3.77,5.57,2.14,7.33,1.2,1.2,.84,2.57,1.39,3.95,.54,1.35,1.63,2,1.62,3.54,1.25,1.21,4.87,5.75,6.48,5.3,.41-1.91-1.5-2.97-1.98-4.47-.45-1.39,.43-3.22,0-4.62-.72-2.39-3.26-3.59-4.6-5.57-1.41-2.08-1.18-4.89-2.56-6.96-.68-1.02-1.11-.47-1.17-1.88-.04-.98,.23-.93,.63-1.65,.75-1.36,1.55-2.81,2.38-4.14,1.04-1.67,1.33-1.62,2.85,.01-.62,.1-1.03,.47-1.01,1.14,2.14,.05,2.53,1.3,3.7,2.88,.47,.64,.49,.52,.67,1.24,.14,.56,.12,1.06,.36,1.55,.61,1.27,1.48,1.51,2.53,2.23,.44,.3,1.44,1.44,1.47,2,.05,.93-.49,.29-.71,.97-.3,.93,.72,2.36,1.54,2.34,.44-.01,.82-.49,1.23-.61,.62-.19,1.26-.05,1.87-.28,.69-.26,.99-.93,1.58-1.28,.59-.36,1.1-.22,1.76-.36,.7-.14,2.36-.7,2.9-1.11,.95-.72,.72-4.47,.78-5.69,.05-.97,.52-2.21,.09-3.05-.24-.47-.86-.73-1.17-1.13-.53-.68-.99-1.5-1.46-2.23-.67-1.05-.69-1.89-1.1-3-.37-1.02-1.27-1.65-1.69-2.62-.47-1.08-.39-2.46-.23-3.6,.19-1.4,.67-1.49,1.78-2.32,.81-.6,3.21-1.25,4.25-1.3,.72-.03,.27,.11,1.12,.2,.72,.07,2.57,.42,2.71,1.29-.89,.49-.36,2.5,.23,2.71,.88,.32,2.06-1.46,2.26-2.21,.52-.09,1.05,.43,1.59,.48,.6,.05,1.27-.25,1.88-.27,1.46-.06,2.56,.25,3.53-.99,.94,.1,.81,.99,1.81,.89,.28-.03,.37-.45,.8-.56,.3-.08,.8-.02,1.12,0,.62,.04,1.42,.35,2,.22,.68-.15,1.5-.67,2.17-.91,1-.36,1.88-1.03,2.86-1.45,1.56-.67,2.64-1.47,3.77-2.72,1.78-1.97,4.62-3.88,5.09-6.65,.18-.03,.46,.03,.71,.09,0,0,0-.01-.01-.02,.91-.41,1.36-.25,1.65-1.31,.22-.8-.12-1.63,.58-2.25-.42-.85-1.04-1.53-1.35-2.45-.43-1.28-.13-1.28,1.18-1.35,.64-1.69-.41-3.45-1.1-4.88-.55-1.15-1.6-2.54-1.86-3.75-.24-1.09,.09-1.21-.72-2.08-.61-.65-1.01-.36-.61-1.44,.71-1.89,2.21-1.64,3.73-2.18,.09-.59,.4-1.15,1.03-1.27-.07,0-.14-.02-.2-.05,.61-.15,2.29,.24,2.71-.31,.15-.19-.07-1.56-.09-1.87-1.05-.06-1.41-.01-2.2-.55-.57-.39-.82-.85-1.56-.56-.91,.36-2.41,2.6-3.34,.55-.34-.74,.08-1.26-.43-1.99-.19-.28-1.06-.63-1.23-1.06-.75-1.89,1.19-2.12,2.52-2.05,.06,.38,.26,.57,.47,.88,.08-1.73,1.36-2.57,2.68-3.42,.87-.55,2.03-1.54,3.09-.93,1.08,.62,.63,1.74,0,2.54-.36,.46-.57,.91-.87,1.36-.09,.14-.36,.48-.41,.58-.19,.32-.53,.3-.57,.75,2.89,.18,5.15-3.37,7.84-1.41,.29,.21,1.4,.99,1.48,1.31,.11,.5-.35,.46-.42,.68-.02,.08-.2,.84-.24,.9-.51,.76-1.44,.84-1.01,1.81,.51,1.15,1.62,.29,2.37,.82,.6,.42,1.27,2.07,1.28,2.77-.33,.24-.77,.33-1.19,.26-.03,1.28,.79,1.75,.65,2.97-.11,.97-.53,.95-.78,1.79-.09,.31,.11,1.17,.13,1.54,.69-.21,1.54-.04,2.31-.1,.4-.03,.85-.07,1.22-.25,.35-.17,.69-.78,.98-.87,.87-.28,1.02,.25,1.8-.53,.74-.73,.84-1.26,.89-2.24,.1-2.38-.99-4.43-2.22-6.38-.52-.83-1.4-1.75-1.51-2.76-.03-.31-.05-1.11,.3-1.3,.14-.07,.97-.02,.76,.21,.62-.68,.92-1.21,1.76-1.65,.64-.34,1.33-.87,1.77-1.46,.55-.74,.23-.87,.46-1.76,.19-.74,.65-.89,1.22-1.31,.21-.15,.53-.2,.75-.36,.22-.16,.43-.48,.65-.67,.52-.45,1.07-.4,1.58-.69,.48-.28,.8-.78,1.2-1.15,1.14,1.22,2.55,1.85,4.13,.61,.63-.5,1.27-1.22,1.86-1.77,.59-.55,1.13-1.35,1.16-2.22,1.06-1.17,2.24-2.32,3.3-3.57,.5-.58,.99-1.35,1.33-2.03,.31-.62,.16-1.77,.58-2.17l-.55,.22c.29-.45,.2-.92,.44-1.3,.27-.41,.91-.6,1.2-1.02,.3-.44,.21-.88,.46-1.25,.22-.33,.7-.44,.87-.86,.52-1.28,.28-3.99,.28-5.22l.07-2c1.33-4.22,0-5.55,0-5.55l-1.55-.67-.89-1.11h-1.33l-1.36,1.11-1.52-.89v-1.55h-2.89l1.11-1.11v-1.11h.89l2.71-3.22c.34-.64,.68-1.7,1.15-2.23,.52-.59,1.41-.94,1.84-1.54,.43-.59,.59-1.64,1.2-2.22,.72-.67,1.77-1.1,2.66-1.22,.39-.05,.82,.09,1.2,0,.41-.1,.64-.47,1.11-.57,1.38-.3,2.53,.49,3.9-.1,.9-.39,.95-.84,1.67-1.43,.75-.61,1.25-.32,2.3-.21,.13,.64,.34,1.32,.54,1.85,.72-.59,1.31-.49,2.14-.75,.37-.11,.53-.42,.88-.54,.31-.1,.99,.07,1.24-.21,.65-.72-1.27-2.68-.79-3.83,.6-1.44,1.19-3.13,2.6-3.87,.44-.23,1.59-.77,2.06-.56,.94,.41,1.19,2.42,2.43,1.97,.22-1.58,.89-2.63,.9-4.29,0-.81-.12-1.86,1.04-1.61,.72,.16,.38,.83,.41,1.39,.04,.82,.27,.74,.55,1.34,.06,.13,.39,.04,.46,.44,.04,.25-.4,.34-.44,.55-.1,.5,0,.95-.35,1.33-1.72,.26-1.2,2.45-1.56,3.64-.32,1.06-.68,2.22-1.18,3.2-.43,.84-1.31,1.21-1.68,2.03-.32,.7,.58,2.61-.68,2.58-.2,6.03,3.65,12.08,5.97,15.41,.05-1.05,1.01-1.4,1.35-2.26,.47-1.16-.4-2.83,.09-3.82,.47-.96,1.43-.54,1.46-1.9,.02-.86-.68-1.85-.22-2.58,.34-.54,1.73-.62,1.79-1.44,.06-.81-1.14-1.24-1.23-2.14-.09-.91,.2-1.78,1.21-1.88,.11-.47-.7-1.48-.87-2.09-.45-1.6-.88-1.22-2.21-1.79-.12-1.42-.6-2.84-.35-4.32,.2-1.16,.25-.61,1.09-1.13,.81-.5,.5-1.29,1.16-1.81,1.06,.98,.91,.32,1.55-.59,.46-.65,.84-1.92,1.47-2.05,.7-.14,1.38,.89,2.06,.91,1.16,.04,.46-2.27,.56-3.22,.13-1.23,.84-1.93,1.33-3,.57-1.25,.7-2.87,1.99-3.4,.68-.28,2.42-.14,1.77-1.36-.47-.89-2.79-1.46-3.56-1.98-.17-.11-.18-.41-.43-.58-.14-.09-.94-.18-.98-.24-.58-.82,.83-.58,1.12-1.2,.6-1.26-1.55-2.68-1.4-3.85,.32,.39,.72,.59,1.22,.66Zm-154.16,3.03c-.21,.66-2.75,1.98-3.5,2.27-.06-.54-.04-1.18-.08-1.76-.66,.04-.72,.01-1.06,.7-.52-2.19-1.45,.04-1.83,.63-.48,.75-1.33,.94-1.62,1.95-.11,.4,.05,1.13-.09,1.5-.35,.93-.28,.5-1.2,1.2-.79,.6-1.42,1.36-2.17,1.97,.91-.09,1.21-.87,2.14-.44,.27,.97-.47,1.02-.64,1.63-.21,.77-.14,1.53-.19,2.33-.21,.02-.75-.08-.95-.17,0-.89-.82-1.17-1.06-1.97-1.34,.86-.98,1.35-.99,2.75-.22,.1-.39,.05-.64,.06l-.17-.17c-.56,.63,.13,1.09-.16,1.66-.52,1.04-1.63,.99-2.3,1.71-.41,.44-.48,1.72-1.16,1.82-.88,.12-1.26-1.28-1.38-1.81-.14-.6-.12-1.77,0-2.38,.22-1.11,.76-1.05,1.18-1.99,.68-1.5,.1-2.93,1.97-4.04,1.64-.98,3.3-.03,3.84-2.29,.21-.9-.09-1.54,.37-2.37,.42-.78,1.29-1.56,1.75-2.33,.38-.64,.68-1.11,1.18-1.61,.43-.43,1.07-.85,1.52-1.35,1.61-1.77,.82-2.66,3.67-2.66,.15,1.9,2.65,.39,3.34,2.37,.19,.54-.37,.77-.31,1.29,.07,.61,.72,.91,.53,1.51Z"/></g><g><ellipse class="ac" cx="156.92" cy="173.57" rx="156.39" ry="92.19" transform="translate(-65.76 101.71) rotate(-30)"/><ellipse class="ac" cx="156.92" cy="173.57" rx="92.19" ry="156.39" transform="translate(-71.85 222.68) rotate(-60)"/><ellipse class="ac" cx="156.92" cy="173.57" rx="92.19" ry="156.39"/></g><g><line class="ac" x1="156.3" y1="70.76" x2="156.3" y2="278.61"/><line class="ac" x1="66.3" y1="226.65" x2="246.3" y2="122.72"/><line class="ac" x1="246.3" y1="226.65" x2="66.3" y2="122.72"/></g><g><circle class="e" cx="158.54" cy="17.17" r="12.33" transform="translate(105.59 167.59) rotate(-76.79)"/><circle class="e" cx="292.66" cy="96.62" r="12.33" transform="translate(-14.81 75.51) rotate(-14.34)"/><path class="e" d="M306.18,252.8c0,6.81-5.52,12.33-12.33,12.33s-12.33-5.52-12.33-12.33,5.52-12.33,12.33-12.33,12.33,5.52,12.33,12.33Z"/><path class="e" d="M170.86,328.9c0,6.81-5.52,12.33-12.33,12.33s-12.33-5.52-12.33-12.33,5.52-12.33,12.33-12.33,12.33,5.52,12.33,12.33Z"/><path class="e" d="M31.9,251.21c0,6.81-5.52,12.33-12.33,12.33s-12.33-5.52-12.33-12.33,5.52-12.33,12.33-12.33,12.33,5.52,12.33,12.33Z"/><path class="e" d="M31.9,98.62c0,6.81-5.52,12.33-12.33,12.33s-12.33-5.52-12.33-12.33,5.52-12.33,12.33-12.33,12.33,5.52,12.33,12.33Z"/><circle class="e" cx="28.14" cy="174.18" r="14.79" transform="translate(-148.3 174.18) rotate(-80.83)"/><circle class="e" cx="93.45" cy="286.85" r="14.79" transform="translate(-137.43 92.66) rotate(-31.89)"/><circle class="e" cx="222.76" cy="285.83" r="14.79" transform="translate(-126.92 380.94) rotate(-67.28)"/><circle class="e" cx="285.54" cy="173.44" r="14.79"/><circle class="e" cx="221.63" cy="61.81" r="14.79"/><circle class="e" cx="93.45" cy="61.81" r="14.79"/><circle class="e" cx="156.3" cy="70.76" r="20.49" transform="translate(-15.15 64.32) rotate(-22.21)"/><circle class="e" cx="245.4" cy="123.23" r="20.49"/><circle class="e" cx="245.4" cy="223.26" r="20.49"/><circle class="e" cx="157.93" cy="274.56" r="20.49"/><circle class="e" cx="69.35" cy="223.26" r="20.49"/><circle class="e" cx="69.35" cy="123.71" r="20.49" transform="translate(-67.16 85.27) rotate(-45)"/></g><circle class="bg" cx="156.02" cy="173.85" r="28.5"/><path class="e" d="M155.98,140.14c-18.49,0-33.54,15.05-33.54,33.54s15.05,33.54,33.54,33.54,33.54-15.05,33.54-33.54-15.05-33.54-33.54-33.54Z"/><g><circle class="b" cx="69.35" cy="124.09" r="24.64" transform="translate(-71.61 142.5) rotate(-68.24)"/><g><path class="y" d="M50.1,139.46c4.51,5.65,11.46,9.27,19.25,9.27s14.73-3.62,19.25-9.27c-.26-2.47-1.93-4.68-4.45-5.51l-9.84-3.21h-9.93l-9.84,3.21c-2.52,.82-4.19,3.03-4.45,5.51Z"/><path class="ay" d="M69.35,133.28l-3.32,2.08,1.83,1.54-1.89,11.6c1.1,.15,2.23,.24,3.37,.24s2.27-.08,3.37-.24l-1.89-11.6,1.83-1.54-3.32-2.08Z"/><path class="j" d="M78.48,117.43c-.12-.01-.23,0-.35,0l.03-4.77h-17.64l.03,4.78c-1.06,.19-1.78,1.55-1.61,3.11,.14,1.3,.85,2.33,1.7,2.62,.49,2.44,1.82,4.6,3.73,6.12v1.44l4.97,2.53,4.97-2.53v-1.44c1.89-1.51,3.21-3.64,3.71-6.05,1.05-.01,1.99-1.18,2.16-2.7,.17-1.61-.59-3.01-1.7-3.13Z"/><path d="M76.46,110.38v-.02c-1.39-3.4-5.65-3.73-8.47-3.31-2.16,.32-4.3,1.44-5.86,2.96-1.84,1.79-2.58,3.75-2.48,6.22,.01,.27,.61,2.96,.92,2.68,3.15-2.84,6.4-4.22,8.94-4.88-.16,1.13-1.21,2.02-1.21,2.02,2.88-.48,4.71-1.87,5.52-2.62,.03,0,.05,0,.07,0,.43,.19,3.28,1.54,4.24,4.75,0-.03,.46-.72,.51-.81,1.39-2.61,.58-6.21-2.18-6.98Z"/><path d="M65.99,129.71c.54,.43,3.12,2.22,6.49,.2,.06-.04,.08-.12,.04-.18l-.88-1.31c-.06-.09-.19-.07-.22,.03l-.28,.81c-.03,.1-.17,.12-.22,.03l-.4-.62c-.06-.09-.18-.07-.22,.02l-.25,.62c-.04,.1-.17,.11-.23,.01l-.36-.63c-.05-.09-.17-.08-.22,0l-.34,.6c-.05,.1-.2,.08-.23-.02l-.21-.68c-.03-.09-.14-.12-.2-.06l-.6,.54c-.08,.07-.2,.02-.21-.08l-.07-.63c-.01-.11-.14-.15-.22-.07l-1.18,1.22c-.05,.05-.05,.14,.01,.19Z"/><path d="M69.25,124.02c0-.07-.07-.12-.14-.11-.56,.09-2.8,.54-3.46,1.75-.4,.73-.6,1.37-.71,1.81-.03,.11,.12,.19,.2,.1,.29-.33,.71-.66,.89-.8,1.17-.96,3.34-.8,3.22-2.76Z"/><path d="M69.4,124.02c0-.07,.07-.12,.14-.11,.56,.09,2.8,.54,3.46,1.75,.4,.73,.6,1.37,.71,1.81,.03,.11-.12,.19-.2,.1-.29-.33-.71-.66-.89-.8-1.17-.96-3.34-.8-3.22-2.76Z"/></g></g><g><circle class="ax" cx="155.55" cy="173.57" r="35.2"/><g><path class="y" d="M155.59,184.1h-7.09l-5.05,1.65v20.89c3.77,1.38,7.85,2.14,12.1,2.14,3.93,0,7.71-.65,11.24-1.84v-21.49l-4.11-1.34h-7.09Z"/><path class="bh" d="M155.59,187.71l-4.74,2.98,2.62,2.2-2.54,15.58c1.51,.2,3.05,.31,4.62,.31s3.16-.12,4.7-.32l-2.54-15.57,2.62-2.2-4.74-2.98Z"/><path class="j" d="M168.64,165.07c-.17-.02-.33-.01-.5,.01l.05-6.82h-25.2l.05,6.83c-1.52,.27-2.54,2.21-2.3,4.44,.2,1.86,1.21,3.33,2.43,3.74,.7,3.49,2.61,6.58,5.33,8.75v2.06l7.09,3.61,7.09-3.61v-2.06c2.69-2.15,4.59-5.19,5.31-8.64,1.49-.02,2.85-1.68,3.08-3.86,.25-2.3-.84-4.3-2.43-4.47Z"/><path class="p" d="M165.75,155l.02-.02c-2-4.85-8.09-5.33-12.12-4.73-3.09,.46-6.15,2.05-8.38,4.22-2.63,2.56-3.69,5.36-3.54,8.89,.02,.39,.88,4.23,1.32,3.83,4.5-4.06,9.14-6.03,12.78-6.98-.23,1.61-1.73,2.88-1.73,2.88,4.11-.69,6.72-2.67,7.88-3.74,.04,0,.07,0,.11,0,.61,.27,4.68,2.21,6.05,6.79-.01-.05,.65-1.03,.72-1.16,1.98-3.73,.83-8.87-3.11-9.97Z"/><g><path class="ai" d="M154.14,208.74c-5.94-10.19-8.32-23.79-8.32-23.79l-11.46,3.74c-6.83,1.86-6.39,5.97-6.39,5.97v.79c6.17,7.78,15.57,12.88,26.17,13.3Z"/><path class="ai" d="M183.12,195.44v-.79s.44-4.11-6.39-5.97l-11.46-3.74s-2.39,13.6-8.32,23.79c10.6-.42,19.99-5.52,26.17-13.3Z"/></g><g class="aa"><g><path d="M141.18,197.21c-.06-.14-.01-.3,.11-.39l2.57-1.78c.23-.16,.16-.51-.11-.57l-2.63-.62c-.15-.04-.26-.17-.25-.33,.16-3.17,3.09-6.58,3.79-7.88h0s-4.87,3.34-5.05,8.54c0,.16,.12,.31,.28,.33l2.04,.3c.3,.04,.38,.44,.11,.59l-2.2,1.26c-.14,.08-.2,.25-.14,.4,.52,1.23,3.04,6.57,8.77,11,.57,.12,1.15,.22,1.73,.31-6.03-4.76-8.53-10-9.03-11.16Z"/><path d="M169.16,194.82l2.04-.3c.16-.02,.28-.17,.28-.33-.18-5.2-5.05-8.54-5.05-8.54h0c.7,1.3,3.63,4.71,3.79,7.88,0,.15-.1,.29-.25,.33l-2.63,.62c-.27,.06-.34,.42-.11,.57l2.57,1.78c.13,.09,.17,.25,.11,.39-.5,1.17-3,6.4-9.03,11.16,.58-.09,1.16-.19,1.73-.31,5.72-4.43,8.24-9.77,8.76-10.99,.06-.15,0-.32-.14-.4l-2.2-1.26c-.26-.15-.19-.55,.11-.59Z"/></g></g></g></g><g><circle class="ao" cx="293.85" cy="252.95" r="17.74"/><g><path class="y" d="M293.72,256.61h-3.58l-2.48,.81v12.16c1.93,.72,4.01,1.11,6.19,1.11,1.98,0,3.87-.33,5.65-.92v-12.44l-2.2-.72h-3.58Z"/><path class="o" d="M293.72,258.43l-2.39,1.5,1.32,1.11-1.54,9.44c.89,.14,1.8,.21,2.73,.21,.84,0,1.67-.06,2.49-.18l-1.54-9.48,1.32-1.11-2.39-1.5Z"/><path d="M294.54,271s.05,.03,.07,.04h0s-.05-.03-.07-.04Z"/><path class="ae" d="M293.85,270.69c5.55,0,10.5-2.55,13.75-6.54v-2.23s.22-2.07-3.22-3.01l-5.77-1.88s-1.37,7.84-4.84,13.03h0s-.03,.04-.05,.07h-.03s-.03-.05-.05-.07h0c-3.47-5.19-4.84-13.03-4.84-13.03l-5.77,1.88c-3.44,.94-3.22,3.01-3.22,3.01v1.85c3.24,4.2,8.32,6.91,14.04,6.91Z"/><g class="aa"><path d="M292.89,271s-.05,.03-.07,.04h0s.05-.03,.07-.04Z"/><path d="M300.57,262.02l1.03-.15c.08-.01,.14-.08,.14-.17-.09-2.62-2.54-4.3-2.54-4.3h0c.35,.66,1.83,2.37,1.91,3.97,0,.08-.05,.15-.13,.16l-1.33,.31c-.14,.03-.17,.21-.05,.29l1.3,.9c.06,.04,.09,.12,.06,.19-.32,.74-2.21,4.71-7.24,7.38-5.03-2.67-6.92-6.64-7.24-7.38-.03-.07,0-.15,.06-.19l1.3-.9c.11-.08,.08-.26-.05-.29l-1.33-.31c-.08-.02-.13-.09-.13-.16,.08-1.6,1.55-3.31,1.91-3.97h0s-2.46,1.68-2.54,4.3c0,.08,.06,.15,.14,.17l1.03,.15c.15,.02,.19,.22,.06,.3l-1.11,.63c-.07,.04-.1,.13-.07,.2,.35,.82,2.49,5.32,7.84,7.52h.28c5.36-2.19,7.49-6.7,7.84-7.52,.03-.08,0-.16-.07-.2l-1.11-.63c-.13-.08-.09-.28,.06-.3Z"/></g><path class="j" d="M300.3,247.02c-.08,0-.17,0-.25,0l.02-3.44h-12.7l.02,3.44c-.76,.13-1.28,1.11-1.16,2.24,.1,.93,.61,1.68,1.22,1.89,.35,1.76,1.31,3.31,2.69,4.41v1.04l3.58,1.82,3.58-1.82v-1.04c1.36-1.08,2.31-2.62,2.67-4.35,.75-.01,1.43-.85,1.55-1.94,.12-1.16-.42-2.17-1.23-2.25Z"/><path class="n" d="M298.85,241.95h0c-1.01-2.46-4.08-2.7-6.11-2.4-1.56,.23-3.1,1.04-4.22,2.13-1.32,1.29-1.86,2.7-1.78,4.48,0,.2,.44,2.13,.67,1.93,2.27-2.05,4.61-3.04,6.44-3.52-.11,.81-.87,1.45-.87,1.45,2.07-.35,3.39-1.34,3.97-1.89h.05c.31,.14,2.36,1.11,3.05,3.42,0-.02,.33-.52,.36-.59,1-1.88,.42-4.47-1.57-5.03Z"/><path class="n" d="M293.62,251.77s-.05-.08-.09-.08c-.39,.07-2.02,.38-2.49,1.26-.29,.53-.44,1-.51,1.31-.02,.08,.08,.13,.14,.07,.21-.24,.52-.48,.65-.58,.84-.69,2.41-.58,2.32-1.99Z"/><path class="n" d="M293.76,251.77s.05-.08,.09-.08c.39,.07,2.02,.38,2.49,1.26,.29,.53,.44,1,.51,1.31,.02,.08-.08,.13-.14,.07-.21-.24-.52-.48-.65-.58-.84-.69-2.41-.58-2.32-1.99Z"/></g></g><g><circle class="u" cx="157.21" cy="274.54" r="24.64" transform="translate(-153.97 331.61) rotate(-70.59)"/><g><path class="l" d="M157.24,280.57h-4.97l-2.54,.83v16.63c2.36,.75,4.87,1.16,7.47,1.16,2.79,0,5.47-.47,7.97-1.33v-16.31l-2.98-.97h-4.97Z"/><path class="bl" d="M157.24,283.1l-3.32,2.08,1.83,1.54-1.99,12.22c1.13,.16,2.28,.25,3.45,.25s2.36-.09,3.5-.25l-1.99-12.21,1.83-1.54-3.32-2.08Z"/><path class="j" d="M166.37,267.25c-.12-.01-.23,0-.35,0l.03-4.77h-17.64l.03,4.78c-1.06,.19-1.78,1.55-1.61,3.11,.14,1.3,.85,2.33,1.7,2.62,.49,2.44,1.82,4.6,3.73,6.12v1.44l4.97,2.53,4.97-2.53v-1.44c1.89-1.51,3.21-3.63,3.71-6.05,1.05-.01,1.99-1.18,2.16-2.7,.17-1.61-.59-3.01-1.7-3.13Z"/><g><path class="ah" d="M157.07,299.18c-4.78-7.21-6.67-18.02-6.67-18.02l-8.02,2.62c-4.78,1.3-4.47,4.18-4.47,4.18v1.89c4.48,5.65,11.4,9.29,19.16,9.33Z"/><path class="ah" d="M176.51,289.84v-1.89s.31-2.88-4.47-4.18l-8.02-2.62s-1.89,10.81-6.67,18.02c7.77-.04,14.68-3.68,19.16-9.33Z"/></g><g class="x"><path d="M156.08,300.55s-.06,.04-.1,.06h0s.06-.04,.1-.06Z"/><g><path d="M166.74,288.07l1.43-.21c.11-.02,.2-.12,.2-.23-.12-3.64-3.53-5.98-3.53-5.98h0c.49,.91,2.54,3.3,2.65,5.52,0,.11-.07,.2-.18,.23l-1.84,.43c-.19,.04-.24,.29-.08,.4l1.8,1.25c.09,.06,.12,.17,.08,.27-.41,.95-2.69,5.73-8.56,9.39,.28-.02,.55-.04,.82-.06,5.89-3.25,8.33-8.4,8.76-9.42,.04-.1,0-.22-.1-.28l-1.54-.88c-.18-.11-.13-.38,.08-.42Z"/><path d="M147.15,289.75c-.04-.1,0-.21,.08-.27l1.8-1.25c.16-.11,.11-.36-.08-.4l-1.84-.43c-.1-.02-.18-.12-.18-.23,.11-2.22,2.16-4.6,2.65-5.52h0s-3.41,2.34-3.53,5.98c0,.11,.08,.22,.2,.23l1.43,.21c.21,.03,.26,.31,.08,.42l-1.54,.88c-.1,.06-.14,.17-.1,.28,.44,1.03,2.88,6.18,8.76,9.42,.27,.03,.55,.05,.82,.06-5.87-3.65-8.15-8.44-8.56-9.39Z"/></g></g><path class="p" d="M149.14,259.19c1.87-2.35,5.78-3.62,8.22-1.99,2.44-1.63,6.35-.36,8.22,1.99,1.71,2.15,1.78,5.48,1.15,8.03-.02,.08-.31,1.15-.44,1-2.92-3.17-5.22-4.56-6.75-5.16-.16,1.36,1.22,2.52,1.22,2.52-2.81-.47-4.62-1.8-5.46-2.57-1.53,.58-3.87,1.95-6.86,5.2-.14,.15-.43-.92-.44-1-.64-2.55-.57-5.88,1.15-8.03Z"/></g></g><g><circle class="w" cx="19.92" cy="252.12" r="17.74"/><g><path class="y" d="M19.92,269.86c5.62,0,10.63-2.62,13.88-6.7,.07-2.03-1.2-3.95-3.23-4.61l-7.08-2.31h-7.15l-7.08,2.31c-2.03,.66-3.29,2.58-3.23,4.61,3.25,4.08,8.26,6.7,13.88,6.7Z"/><path class="ax" d="M19.92,258.06l-2.39,1.5,1.32,1.11-1.47,9.01c.83,.12,1.68,.18,2.54,.18s1.71-.06,2.54-.18l-1.47-9.01,1.32-1.11-2.39-1.5Z"/><path class="t" d="M26.5,246.66c-.08,0-.17,0-.25,0l.02-3.44H13.57l.02,3.44c-.76,.13-1.28,1.11-1.16,2.24,.1,.93,.61,1.68,1.22,1.89,.35,1.76,1.31,3.31,2.69,4.41v1.04l3.58,1.82,3.58-1.82v-1.04c1.36-1.08,2.31-2.62,2.67-4.35,.75-.01,1.43-.85,1.55-1.94,.12-1.16-.42-2.17-1.23-2.25Z"/><path class="bj" d="M25.05,241.58h0c-1.01-2.46-4.08-2.7-6.11-2.4-1.56,.23-3.1,1.04-4.22,2.13-1.32,1.29-1.86,2.7-1.78,4.48,0,.2,.44,2.13,.67,1.93,.98-.88,1.97-1.56,2.92-2.1,0,.77-.77,1.34-.77,1.34,2.36-.7,3.8-2.25,4.2-2.74,.03,0,.06-.02,.09-.02-.11,.81-.87,1.45-.87,1.45,2.07-.35,3.39-1.34,3.97-1.89,.02,0,.04,0,.05,0,.31,.14,2.36,1.11,3.05,3.42,0-.02,.33-.52,.36-.59,1-1.88,.42-4.47-1.57-5.03Z"/></g></g><g><circle class="b" cx="222.91" cy="285.83" r="19.96"/><g><path class="l" d="M222.91,305.79c6.37,0,12.05-2.99,15.7-7.64,.01-2.23-1.4-4.31-3.63-5.04l-7.97-2.6h-8.04l-7.97,2.6c-2.3,.75-3.73,2.94-3.62,5.25,3.66,4.53,9.26,7.44,15.54,7.44Z"/><path class="bf" d="M222.99,292.55l-2.69,1.69,1.49,1.25-1.65,10.11c.91,.13,1.83,.2,2.77,.2,.99,0,1.97-.08,2.92-.22l-1.64-10.09,1.49-1.25-2.69-1.69Z"/><path class="aq" d="M230.39,279.72c-.09-.01-.19,0-.28,0l.03-3.87h-14.29l.03,3.87c-.86,.15-1.44,1.25-1.3,2.52,.11,1.05,.69,1.89,1.38,2.12,.4,1.98,1.48,3.73,3.02,4.96v1.17l4.02,2.05,4.02-2.05v-1.17c1.53-1.22,2.6-2.94,3.01-4.9,.85-.01,1.61-.95,1.75-2.19,.14-1.3-.48-2.44-1.38-2.53Z"/><path d="M216.65,273.19c1.52-1.9,4.68-2.93,6.66-1.61,1.98-1.32,5.14-.29,6.66,1.61,1.39,1.74,1.44,4.44,.93,6.5-.02,.06-.25,.93-.36,.81-2.36-2.57-4.23-3.69-5.47-4.18-.13,1.1,.99,2.04,.99,2.04-2.27-.38-3.74-1.46-4.42-2.08-1.24,.47-3.14,1.58-5.56,4.21-.11,.12-.34-.75-.36-.81-.52-2.07-.46-4.76,.93-6.5Z"/></g></g><g><circle class="ax" cx="19.57" cy="99.07" r="17.74" transform="translate(-11.91 3.12) rotate(-6.99)"/><g><path class="y" d="M19.57,116.81c5.57,0,10.54-2.57,13.8-6.59,.15-2.1-1.12-4.11-3.21-4.79l-7.08-2.31h-7.15l-7.08,2.31c-2.02,.66-3.28,2.56-3.23,4.58,3.25,4.14,8.29,6.8,13.96,6.8Z"/><path class="h" d="M19.5,104.94l-2.39,1.5,1.32,1.11-1.48,9.07c.86,.13,1.73,.19,2.62,.19,.84,0,1.67-.06,2.47-.18l-1.48-9.09,1.32-1.11-2.39-1.5Z"/><path class="t" d="M26.07,93.53c-.08,0-.17,0-.25,0l.02-3.44H13.14l.02,3.44c-.76,.13-1.28,1.11-1.16,2.24,.1,.94,.61,1.68,1.22,1.89,.35,1.76,1.31,3.31,2.69,4.41v1.04l3.58,1.82,3.58-1.82v-1.04c1.36-1.08,2.31-2.62,2.67-4.35,.75-.01,1.43-.85,1.55-1.94,.12-1.16-.42-2.17-1.23-2.25Z"/><path class="a`" d="M24.62,88.46h0c-1.01-2.46-4.08-2.7-6.11-2.4-1.56,.23-3.1,1.04-4.22,2.13-1.32,1.29-1.86,2.7-1.78,4.48,0,.2,.44,2.13,.67,1.93,2.27-2.05,4.61-3.04,6.44-3.52-.11,.81-.87,1.45-.87,1.45,2.07-.35,3.39-1.34,3.97-1.89h.05c.31,.14,2.36,1.11,3.05,3.42,0-.02,.33-.52,.36-.59,1-1.88,.42-4.47-1.57-5.03Z"/><path class="a`" d="M17.07,102.37c.37,.3,2.24,1.62,4.69,.15,.04-.02,.05-.08,.03-.12l-.65-.96c-.04-.06-.12-.05-.15,.02l-.21,.61c-.02,.07-.11,.08-.15,.02l-.31-.47c-.04-.06-.12-.05-.15,.01l-.19,.48c-.03,.06-.11,.07-.15,0l-.27-.48c-.03-.06-.11-.06-.14,0l-.26,.46c-.04,.06-.13,.05-.15-.02l-.16-.52c-.02-.06-.09-.08-.13-.04l-.45,.41s-.13,.02-.14-.05l-.05-.48c0-.07-.09-.1-.14-.05l-.87,.9s-.03,.09,0,.12Z"/></g></g><g><circle class="ag" cx="28.11" cy="174.34" r="19.96"/><g><path class="q" d="M43.35,187.21c.65-2.65-.84-5.4-3.48-6.26l-7.97-2.6h-8.04l-7.97,2.6c-2.4,.78-3.86,3.13-3.61,5.55,3.65,4.74,9.37,7.79,15.82,7.79s11.58-2.75,15.25-7.08Z"/><path class="ab" d="M29.09,183.34l1.49-1.24-2.69-1.69-2.69,1.69,1.49,1.24-1.74,10.71c1.03,.16,2.09,.25,3.17,.25,.93,0,1.84-.07,2.73-.19l-1.75-10.77Z"/><path class="aq" d="M35.28,167.57c-.09-.01-.19,0-.28,0l.03-3.87h-14.29l.03,3.87c-.86,.15-1.44,1.25-1.3,2.52,.11,1.05,.69,1.89,1.38,2.12,.4,1.98,1.48,3.73,3.02,4.96v1.17l4.02,2.05,4.02-2.05v-1.17c1.53-1.22,2.6-2.94,3.01-4.9,.85-.01,1.61-.95,1.75-2.19,.14-1.3-.48-2.44-1.38-2.53Z"/><path d="M33.65,161.86h0c-1.13-2.77-4.59-3.03-6.87-2.7-1.75,.26-3.49,1.16-4.75,2.4-1.49,1.45-2.09,3.04-2.01,5.04,0,.22,.5,2.4,.75,2.17,2.55-2.3,5.18-3.42,7.24-3.96-.13,.92-.98,1.63-.98,1.63,2.33-.39,3.81-1.51,4.47-2.12,.02,0,.04,0,.06,0,.35,.15,2.66,1.25,3.43,3.85,0-.03,.37-.58,.41-.66,1.12-2.12,.47-5.03-1.76-5.66Z"/></g></g><g><circle class="an" cx="69.35" cy="222.93" r="24.64" transform="translate(-163.4 204.71) rotate(-68.24)"/><path d="M70.35,242.67s.06,.04,.1,.06h0s-.06-.04-.1-.06Z"/><g><path class="l" d="M69.38,228.18h-4.97l-3.22,1.05v16.95c2.55,.9,5.3,1.39,8.16,1.39s5.55-.48,8.08-1.36v-17.01l-3.09-1.01h-4.97Z"/><path class="ar" d="M69.38,230.71l-3.32,2.08,1.83,1.54-2.11,12.97c1.17,.17,2.36,.26,3.57,.26s2.44-.09,3.63-.27l-2.11-12.97,1.83-1.54-3.32-2.08Z"/><path d="M70.5,248.16s.06,.04,.1,.06h0s-.06-.04-.1-.06Z"/><path class="ae" d="M69.35,247.56c7.82,0,14.79-3.65,19.31-9.34v-2.66s.31-2.88-4.48-4.18l-8.02-2.62s-1.91,10.89-6.72,18.1h0s-.04,.06-.06,.09h-.05s-.04-.06-.06-.1h0c-4.81-7.2-6.72-18.09-6.72-18.09l-8.02,2.62c-4.78,1.3-4.47,4.18-4.47,4.18v2.66c4.51,5.69,11.48,9.34,19.3,9.34Z"/><g class="aa"><path d="M68.22,248.16s-.06,.04-.1,.06h0s.06-.04,.1-.06Z"/><g><path d="M78.88,235.68l1.43-.21c.11-.02,.2-.12,.2-.23-.12-3.64-3.53-5.98-3.53-5.98h0c.49,.91,2.54,3.3,2.65,5.52,0,.11-.07,.2-.18,.23l-1.84,.43c-.19,.04-.24,.29-.08,.4l1.8,1.25c.09,.06,.12,.17,.08,.27-.44,1.02-3.05,6.49-9.97,10.21,.15,0,.3,0,.45-.01,7.18-3.1,10.07-9.17,10.55-10.29,.04-.1,0-.22-.1-.28l-1.54-.88c-.18-.11-.13-.38,.08-.42Z"/><path d="M59.29,237.36c-.04-.1,0-.21,.08-.27l1.8-1.25c.16-.11,.11-.36-.08-.4l-1.84-.43c-.1-.02-.18-.12-.18-.23,.11-2.22,2.16-4.6,2.65-5.52h0s-3.41,2.34-3.53,5.98c0,.11,.08,.21,.2,.23l1.43,.21c.21,.03,.26,.31,.08,.42l-1.54,.88c-.1,.06-.14,.17-.1,.28,.48,1.12,3.36,7.2,10.55,10.29,.15,0,.3,.01,.45,.01-6.93-3.73-9.57-9.24-9.97-10.21Z"/></g></g><path class="t" d="M78.51,214.86c-.12-.01-.23,0-.35,0l.03-4.77h-17.64l.03,4.78c-1.06,.19-1.78,1.55-1.61,3.11,.14,1.3,.85,2.33,1.7,2.62,.49,2.44,1.82,4.6,3.73,6.12v1.44l4.97,2.53,4.97-2.53v-1.44c1.89-1.51,3.21-3.64,3.71-6.05,1.05-.01,1.99-1.18,2.16-2.7,.17-1.61-.59-3.01-1.7-3.13Z"/><g><path class="aw" d="M76.49,207.81v-.02c-1.39-3.4-5.65-3.73-8.47-3.31-2.16,.32-4.3,1.44-5.86,2.96-1.84,1.79-2.58,3.75-2.48,6.22,.01,.27,.61,2.96,.92,2.68,3.15-2.84,6.4-4.22,8.94-4.88-.16,1.13-1.21,2.02-1.21,2.02,2.88-.48,4.71-1.87,5.52-2.62h.07c.43,.19,3.28,1.54,4.24,4.75,0-.03,.46-.72,.51-.81,1.39-2.61,.58-6.21-2.18-6.98Z"/><path class="aw" d="M69.13,221.46c0-.07-.07-.12-.14-.11-.56,.09-2.79,.54-3.45,1.75-.39,.72-.6,1.35-.7,1.79-.03,.12,.12,.2,.21,.11,.29-.32,.7-.64,.88-.79,1.17-.96,3.34-.8,3.22-2.75Z"/><path class="aw" d="M69.43,221.46c0-.07,.07-.12,.14-.11,.56,.09,2.79,.54,3.45,1.75,.39,.72,.6,1.35,.7,1.79,.03,.12-.12,.2-.21,.11-.29-.32-.7-.64-.88-.79-1.17-.96-3.34-.8-3.22-2.75Z"/></g></g></g><g><circle class="c" cx="158.81" cy="17.74" r="17.74" transform="translate(102.92 167.44) rotate(-75.9)"/><g><path class="s" d="M158.99,21.42h-3.58l-2.5,.82v12.23c1.85,.65,3.83,1.01,5.9,1.01,2.19,0,4.29-.4,6.22-1.13v-12.13l-2.47-.8h-3.58Z"/><path class="e" d="M158.99,23.25l-2.39,1.5,1.32,1.11-1.54,9.46c.79,.11,1.6,.17,2.43,.17,.95,0,1.88-.08,2.79-.22l-1.53-9.41,1.32-1.11-2.39-1.5Z"/><path class="j" d="M165.57,11.84c-.08,0-.17,0-.25,0l.02-3.44h-12.7l.02,3.44c-.76,.13-1.28,1.11-1.16,2.24,.1,.93,.61,1.68,1.22,1.89,.35,1.76,1.31,3.31,2.69,4.41v1.04l3.58,1.82,3.58-1.82v-1.04c1.36-1.08,2.31-2.62,2.67-4.35,.75-.01,1.43-.85,1.55-1.94,.12-1.16-.42-2.17-1.23-2.25Z"/><path class="as" d="M158.81,35.48c5.73,0,10.82-2.72,14.06-6.93v-1.81s.22-2.07-3.22-3.01l-5.77-1.88s-1.37,7.84-4.84,13.03h0s-.03,.04-.05,.07h-.03s-.03-.05-.05-.07h0c-3.47-5.19-4.84-13.03-4.84-13.03l-5.77,1.88c-3.44,.94-3.22,3.01-3.22,3.01v2.22c3.25,3.98,8.2,6.52,13.73,6.52Z"/><g class="af"><path d="M158.16,35.81s-.05,.03-.07,.04h0s.05-.03,.07-.04Z"/><path d="M165.83,26.83l1.03-.15c.08-.01,.14-.08,.14-.17-.09-2.62-2.54-4.3-2.54-4.3h0c.35,.66,1.83,2.37,1.91,3.97,0,.08-.05,.15-.13,.16l-1.33,.31c-.14,.03-.17,.21-.05,.29l1.3,.9c.06,.04,.09,.12,.06,.19-.32,.74-2.21,4.71-7.24,7.38-5.03-2.67-6.92-6.64-7.24-7.38-.03-.07,0-.15,.06-.19l1.3-.9c.11-.08,.08-.26-.05-.29l-1.33-.31c-.08-.02-.13-.09-.13-.16,.08-1.6,1.55-3.31,1.91-3.97h0s-2.46,1.68-2.54,4.3c0,.08,.06,.15,.14,.17l1.03,.15c.15,.02,.19,.22,.06,.3l-1.11,.63c-.07,.04-.1,.13-.07,.2,.35,.82,2.49,5.32,7.84,7.52,.1,0,.2,0,.3,0,5.34-2.2,7.47-6.69,7.82-7.51,.03-.08,0-.16-.07-.2l-1.11-.63c-.13-.08-.09-.28,.06-.3Z"/></g><path d="M153.16,6.03c1.35-1.69,4.16-2.61,5.92-1.43,1.76-1.17,4.57-.26,5.92,1.43,1.23,1.55,1.28,3.94,.83,5.78-.01,.06-.22,.83-.32,.72-2.1-2.29-3.76-3.28-4.86-3.72-.12,.98,.88,1.82,.88,1.82-2.02-.34-3.33-1.3-3.93-1.85-1.1,.41-2.79,1.4-4.94,3.75-.1,.11-.31-.66-.32-.72-.46-1.84-.41-4.23,.83-5.78Z"/></g></g><g><circle class="w" cx="246.3" cy="123.11" r="24.64"/><g><path class="bj" d="M253.48,106.32l-5.88-.27v-.1h-7.53s-8.59,5.77-1.66,21.84h16.19c6.93-16.07-1.12-21.48-1.12-21.48Z"/><path class="y" d="M246.38,128.9h-4.97l-3.67,1.2v16.12c2.67,.99,5.55,1.53,8.56,1.53s5.92-.55,8.6-1.55v-16.15l-3.56-1.16h-4.97Z"/><path d="M247.51,148.88s.06,.04,.1,.06h0s-.06-.04-.1-.06Z"/><path class="bk" d="M246.3,147.75c7.85,0,14.84-3.68,19.35-9.4v-2.07s.31-2.88-4.48-4.18l-8.02-2.62s-1.91,10.89-6.72,18.1h0s-.04,.06-.06,.09h-.05s-.04-.06-.06-.1h0c-4.81-7.2-6.72-18.09-6.72-18.09l-8.02,2.62c-4.78,1.3-4.47,4.18-4.47,4.18v2.19c4.51,5.65,11.46,9.28,19.25,9.28Z"/><g class="ap"><path d="M245.23,148.88s-.06,.04-.1,.06h0s.06-.04,.1-.06Z"/><g><path d="M236.3,138.08c-.04-.1,0-.21,.08-.27l1.8-1.25c.16-.11,.11-.36-.08-.4l-1.84-.43c-.1-.02-.18-.12-.18-.23,.11-2.22,2.16-4.6,2.65-5.52h0s-3.41,2.34-3.53,5.98c0,.11,.08,.21,.2,.23l1.43,.21c.21,.03,.26,.31,.08,.42l-1.54,.88c-.1,.06-.14,.17-.1,.28,.45,1.06,3.03,6.49,9.3,9.71,.24,.02,.48,.03,.72,.04-6.19-3.68-8.58-8.68-8.99-9.65Z"/><path d="M255.88,136.41l1.43-.21c.11-.02,.2-.12,.2-.23-.12-3.64-3.53-5.98-3.53-5.98h0c.49,.91,2.54,3.3,2.65,5.52,0,.11-.07,.2-.18,.23l-1.84,.43c-.19,.04-.24,.29-.08,.4l1.8,1.25c.09,.06,.12,.17,.08,.27-.42,.97-2.8,5.96-8.99,9.65,.24-.01,.49-.03,.73-.05,6.26-3.22,8.83-8.64,9.28-9.7,.04-.1,0-.22-.1-.28l-1.54-.88c-.18-.11-.13-.38,.08-.42Z"/></g></g><circle class="bi" cx="246.35" cy="135.52" r=".64"/><path class="bi" d="M246.99,139.49c0,.36-.29,.64-.64,.64s-.64-.29-.64-.64,.29-.64,.64-.64,.64,.29,.64,.64Z"/><path class="bi" d="M246.99,143.45c0,.36-.29,.64-.64,.64s-.64-.29-.64-.64,.29-.64,.64-.64,.64,.29,.64,.64Z"/><path class="t" d="M255.51,115.58c-.12-.01-.23,0-.35,0l.03-4.77h-17.64l.03,4.78c-1.06,.19-1.78,1.55-1.61,3.11,.14,1.3,.85,2.33,1.7,2.62,.49,2.44,1.82,4.6,3.73,6.12v1.44l4.94,4.44,4.99-4.44v-1.44c1.89-1.51,3.21-3.63,3.71-6.05,1.05-.01,1.99-1.18,2.16-2.7,.17-1.61-.59-3.01-1.7-3.13Z"/><path class="bj" d="M238.28,107.52c1.87-2.35,5.78-3.62,8.22-1.99,2.44-1.63,6.35-.36,8.22,1.99,1.71,2.15,1.78,5.48,1.15,8.03-.02,.08-.31,1.15-.44,1-2.92-3.17-5.22-4.56-6.75-5.16-.16,1.36,1.22,2.52,1.22,2.52-2.81-.47-4.62-1.8-5.46-2.57-1.53,.58-3.87,1.95-6.86,5.2-.14,.15-.42-.92-.44-1-.64-2.55-.57-5.88,1.15-8.03Z"/></g></g><g><circle class="ao" cx="92.9" cy="61.38" r="19.96"/><g><path d="M101.69,60.18h0l-1.64-1.36,1.64-1.76h0c.37-.4,.6-.96,.6-1.58,0-.97-.57-1.79-1.36-2.09,0-.04,0-.08,0-.13,0-1.23-.91-2.22-2.04-2.22-.04,0-.07,0-.11,0-.29-1.14-1.24-1.97-2.38-1.97-.53,0-1.02,.18-1.43,.5-.27-.54-.79-.9-1.39-.9-.47,0-.89,.23-1.18,.58-.38-.25-.82-.4-1.29-.4-.69,0-1.32,.31-1.77,.81-.2-.07-.42-.11-.64-.11-1.08,0-1.96,.91-2.03,2.06-.63,.2-1.1,.86-1.1,1.66,0,.04,0,.07,0,.1-.83,.28-1.43,1.12-1.43,2.12,0,.55,.19,1.06,.5,1.45,.37,.6,.83,1.05,.83,1.05l.69,.83-.69,.64s-.46,.35-.83,.81c-.31,.3-.5,.69-.5,1.12,0,.77,.6,1.42,1.43,1.64,0,.03,0,.05,0,.08,0,.61,.47,1.13,1.1,1.28,.08,.89,.96,1.59,2.03,1.59,.22,0,.44-.03,.64-.09,.45,.39,1.08,.63,1.77,.63,.47,0,.92-.11,1.29-.31,.29,.27,.71,.45,1.18,.45,.6,0,1.12-.28,1.39-.7,.4,.24,.89,.38,1.43,.38,1.14,0,2.09-.65,2.38-1.53,.04,0,.07,0,.11,0,1.13,0,2.04-.77,2.04-1.72,0-.03,0-.07,0-.1,.79-.23,1.36-.87,1.36-1.62,0-.48-.23-.91-.6-1.22Zm-3.09,.22c-.18-.07-.38-.11-.59-.11-.62,0-1.13,.31-1.31,.75-.25-.23-.63-.39-1.05-.39s-.81,.16-1.07,.4c-.08,0-.16,0-.23,0-.25-.24-.63-.39-1.06-.39s-.81,.16-1.07,.4c-.07,0-.14,0-.21,.01-.25-.25-.64-.41-1.08-.41s-.8,.15-1.05,.39c-.18-.43-.69-.75-1.31-.75-.25,0-.49,.06-.69,.15-.25-.32-.63-.56-1.07-.68l-.13-.94,.13-1.22c.44-.15,.82-.47,1.07-.88,.2,.12,.44,.19,.69,.19,.62,0,1.13-.41,1.31-.97,.25,.3,.63,.5,1.05,.5s.83-.21,1.08-.53c.07,0,.14,.01,.21,.02,.25,.31,.63,.52,1.07,.52s.8-.2,1.06-.51c.08,0,.16,0,.23-.01,.25,.31,.63,.52,1.07,.52s.8-.2,1.05-.5c.18,.56,.69,.97,1.31,.97,.21,0,.41-.05,.59-.14,.19,.29,.44,.52,.73,.68l.14,1.36-.14,1.05c-.29,.12-.54,.31-.73,.53Z"/><path class="y" d="M92.99,66.62h-4.02l-3.18,1.04v12.37c2.21,.84,4.6,1.31,7.11,1.31s4.95-.48,7.17-1.33v-12.39l-3.06-1h-4.02Z"/><path d="M93.91,82.81s.05,.03,.08,.05h0s-.05-.03-.08-.05Z"/><g><path class="be" d="M108.61,73.69v-1.08s.25-2.33-3.62-3.38l-6.5-2.12s-1.47,8.39-5.17,14.23c6.21-.13,11.71-3.09,15.29-7.64Z"/><path class="be" d="M92.62,81.33c-3.7-5.83-5.17-14.23-5.17-14.23l-6.5,2.12c-3.88,1.05-3.62,3.38-3.62,3.38v1.26c3.6,4.49,9.1,7.38,15.29,7.47Z"/></g><g class="ap"><path d="M92.06,82.81s-.05,.03-.08,.05h0s.05-.03,.08-.05Z"/><g><path d="M100.69,72.7l1.16-.17c.09-.01,.16-.1,.16-.19-.1-2.95-2.86-4.84-2.86-4.84h0c.4,.74,2.06,2.67,2.15,4.47,0,.09-.06,.16-.14,.18l-1.49,.35c-.15,.04-.19,.24-.06,.33l1.46,1.01c.07,.05,.1,.14,.06,.22-.31,.73-2.01,4.29-6.29,7.19,.27-.03,.54-.06,.81-.1,4.2-2.63,5.98-6.39,6.32-7.17,.04-.08,0-.18-.08-.23l-1.25-.71c-.15-.09-.11-.31,.06-.34Z"/><path d="M84.83,74.06c-.03-.08,0-.17,.06-.22l1.46-1.01c.13-.09,.09-.29-.06-.33l-1.49-.35c-.08-.02-.15-.1-.14-.18,.09-1.8,1.75-3.73,2.15-4.47h0s-2.76,1.89-2.86,4.84c0,.09,.07,.17,.16,.19l1.16,.17c.17,.02,.21,.25,.06,.34l-1.25,.71c-.08,.05-.11,.14-.08,.23,.34,.79,2.12,4.56,6.35,7.2,.26,.03,.53,.06,.79,.09-4.29-2.9-6-6.47-6.31-7.2Z"/></g></g><g><circle class="bi" cx="92.97" cy="71.98" r=".52"/><path class="bi" d="M93.49,75.2c0,.29-.23,.52-.52,.52s-.52-.23-.52-.52,.23-.52,.52-.52,.52,.23,.52,.52Z"/><path class="bi" d="M93.49,78.41c0,.29-.23,.52-.52,.52s-.52-.23-.52-.52,.23-.52,.52-.52,.52,.23,.52,.52Z"/></g><path class="aq" d="M100.39,55.84c-.09-.01-.19,0-.28,0l.03-3.87h-14.29l.03,3.87c-.86,.15-1.44,1.25-1.3,2.52,.11,1.05,.69,1.89,1.38,2.12,.4,1.98,1.48,3.73,3.02,4.96v1.17l4.02,3.48,4.02-3.48v-1.17c1.53-1.22,2.6-2.94,3.01-4.9,.85-.01,1.61-.95,1.75-2.19,.14-1.3-.48-2.44-1.38-2.53Z"/><path d="M102.3,52.71c0-.97-.57-1.79-1.36-2.09,0-.04,0-.08,0-.13,0-1.23-.91-2.22-2.04-2.22-.04,0-.07,0-.11,0-.29-1.14-1.24-1.97-2.38-1.97-.53,0-1.02,.18-1.43,.5-.27-.54-.79-.9-1.39-.9-.47,0-.89,.23-1.18,.58-.38-.25-.82-.4-1.29-.4-.69,0-1.32,.31-1.77,.81-.2-.07-.42-.11-.64-.11-1.08,0-1.96,.91-2.03,2.06-.63,.2-1.1,.86-1.1,1.66,0,.04,0,.07,0,.1-.83,.28-1.43,1.12-1.43,2.12,0,.55,.19,1.06,.5,1.45,.37,.6,.83,1.05,.83,1.05l1.15,1.38,.19-1.77c.44-.15,.82-.47,1.07-.88,.2,.12,.44,.19,.69,.19,.62,0,1.13-.41,1.31-.97,.25,.3,.63,.5,1.05,.5s.83-.21,1.08-.53c.07,0,.14,.01,.21,.02,.25,.31,.63,.52,1.07,.52s.8-.2,1.06-.51c.08,0,.16,0,.23-.01,.25,.31,.63,.52,1.07,.52s.8-.2,1.05-.5c.18,.56,.69,.97,1.31,.97,.21,0,.41-.05,.59-.14,.19,.29,.44,.52,.73,.68l.2,1.91,2.16-2.31h0c.37-.4,.6-.96,.6-1.58Z"/></g></g><g><path class="ag" d="M310.3,96.15c0,9.8-7.94,17.74-17.74,17.74s-17.74-7.94-17.74-17.74,7.94-17.74,17.74-17.74,17.74,7.94,17.74,17.74Z"/><g><path d="M298.99,87.31l-5.65-.2v-.06l-.78,.03-.78-.03v.06l-5.65,.2s-4.38,3.03,.61,12.19h11.66c4.99-9.16,.61-12.19,.61-12.19Z"/><path class="y" d="M292.39,100.29h-3.58l-2.67,.87v11.52c1.99,.77,4.15,1.2,6.41,1.2,2.14,0,4.19-.38,6.09-1.07v-11.65l-2.68-.88h-3.58Z"/><path class="j" d="M298.97,90.71c-.08,0-.17,0-.25,0l.02-3.44h-12.7l.02,3.44c-.76,.13-1.28,1.11-1.16,2.24,.1,.93,.61,1.68,1.22,1.89,.35,1.76,1.31,3.31,2.69,4.41v1.04l3.57,3.73,3.58-3.73v-1.04c1.36-1.08,2.31-2.62,2.67-4.35,.75-.01,1.43-.85,1.55-1.94,.12-1.16-.42-2.17-1.23-2.25Z"/><path d="M293.2,114.68s.05,.03,.07,.04h0s-.05-.03-.07-.04Z"/><path class="g" d="M292.56,113.89c5.52,0,10.46-2.52,13.71-6.48v-1.79s.22-2.07-3.22-3.01l-5.77-1.88s-1.37,7.84-4.84,13.03h0s-.03,.04-.05,.07h-.03s-.03-.05-.05-.07h0c-3.47-5.19-4.84-13.03-4.84-13.03l-5.77,1.88c-3.44,.94-3.22,3.01-3.22,3.01v1.31c3.24,4.23,8.34,6.97,14.09,6.97Z"/><path class="e" d="M292.84,108.06c0,.26-.21,.46-.46,.46s-.46-.21-.46-.46,.21-.46,.46-.46,.46,.21,.46,.46Z"/><path class="e" d="M292.84,110.91c0,.26-.21,.46-.46,.46s-.46-.21-.46-.46,.21-.46,.46-.46,.46,.21,.46,.46Z"/><path d="M300.73,90.97c-.32-3.04-1.58-4.38-2.36-4.93l-.02-.02-.04-.03c-.12-.08-.25-.16-.38-.22-.03-.02-.07-.03-.09-.04-.02,0-.04-.02-.06-.02-.03-.01-.05-.02-.05-.02-.07-.03-.14-.05-.21-.07h0c-1.01-2.46-4.08-2.7-6.11-2.4-1.28,.19-2.55,.77-3.59,1.58h0c-3.53,2.67-3.49,6.93-3.49,6.93l1.08-1.87c.04,.33,.45,2.08,.66,1.89,2.27-2.05,4.61-3.04,6.44-3.52-.11,.81-.87,1.45-.87,1.45,2.07-.35,3.39-1.34,3.97-1.89h.05c.31,.14,2.36,1.11,3.05,3.42,0-.02,.33-.52,.36-.59,.22-.41,.36-.85,.43-1.3l1.21,1.62Z"/><path class="i" d="M294.62,104.09l-1.37,.34c-.18-.24-.46-.4-.78-.4h-.08c-.3,0-.57,.14-.74,.35l-1.18-.29c-.35-.17-.75,.09-.75,.47v.87c0,.37,.37,.62,.72,.49l.74-.29-.73,.87,.52,.06,.43,.69,.54-1.42c.14,.08,.3,.12,.47,.12h.08c.18,0,.34-.05,.48-.13l.55,1.43,.43-.69,.52-.06-.83-.99,1.05,.41c.34,.13,.72-.12,.72-.49v-.87c0-.39-.4-.64-.75-.47Z"/><g><polygon class="y" points="297.28 100.72 295.63 105.1 297.92 106.06 297.28 100.72"/><polygon class="y" points="286.92 106.06 289.21 105.1 287.57 100.72 286.92 106.06"/></g></g></g><g><circle class="k" cx="91.7" cy="287.05" r="19.96"/><g><path class="aw" d="M98.98,277.38l-6.36-.23v-.06l-.88,.03-.88-.03v.06l-6.36,.23s-4.93,3.41,.68,13.72h13.11c5.61-10.31,.68-13.72,.68-13.72Z"/><path class="m" d="M91.57,291.99h-4.02l-2.67,.87v12.95c2.13,.77,4.43,1.2,6.83,1.2s4.6-.41,6.69-1.15v-12.96l-2.79-.91h-4.02Z"/><path class="t" d="M98.97,281.2c-.09-.01-.19,0-.28,0l.03-3.87-5.24-2.77-1.2,1-7.85,1.77,.03,3.87c-.86,.15-1.44,1.25-1.3,2.52,.11,1.05,.69,1.89,1.38,2.12,.4,1.98,1.48,3.73,3.02,4.96v1.17l4.01,4.2,4.03-4.2v-1.17c1.53-1.22,2.6-2.94,3.01-4.9,.85-.01,1.61-.95,1.75-2.19,.14-1.3-.48-2.44-1.38-2.53Z"/><path d="M92.48,308.18s.05,.03,.08,.05h0s-.05-.03-.08-.05Z"/><g><path class="as" d="M91.39,307c-3.84-5.84-5.36-14.53-5.36-14.53l-6.5,2.12c-3.88,1.05-3.62,3.38-3.62,3.38v1.28c3.59,4.64,9.18,7.65,15.48,7.75Z"/><path class="as" d="M107.18,299.64v-1.67s.25-2.33-3.62-3.38l-6.5-2.12s-1.53,8.7-5.37,14.54h0c6.25,0,11.83-2.87,15.49-7.37Z"/></g><path class="e" d="M92.07,300.72c0,.29-.23,.52-.52,.52s-.52-.23-.52-.52,.23-.52,.52-.52,.52,.23,.52,.52Z"/><path class="e" d="M92.07,303.93c0,.29-.23,.52-.52,.52s-.52-.23-.52-.52,.23-.52,.52-.52,.52,.23,.52,.52Z"/><path class="v" d="M94.07,296.25l-1.54,.38c-.2-.27-.52-.45-.88-.45h-.09c-.34,0-.64,.16-.84,.4l-1.33-.33c-.39-.19-.85,.1-.85,.53v.98c0,.42,.42,.7,.81,.55l.83-.32-.82,.98,.58,.07,.48,.78,.61-1.6c.16,.09,.33,.14,.52,.14h.09c.2,0,.38-.06,.54-.15l.61,1.6,.48-.78,.58-.07-.94-1.12,1.18,.46c.39,.15,.81-.13,.81-.55v-.98c0-.44-.46-.72-.85-.53Z"/><g><polygon class="m" points="97.06 292.47 95.21 297.39 97.79 298.47 97.06 292.47"/><polygon class="m" points="85.41 298.47 87.99 297.39 86.14 292.47 85.41 298.47"/></g><path class="aw" d="M100.94,281.5c-.38-3.66-1.98-5.13-2.83-5.67l-.04-.02c-.3-.18-.5-.25-.5-.25h0c-.08-.02-.16-.05-.24-.08h0c-1.13-2.77-4.59-3.03-6.87-2.7-1.44,.21-2.87,.87-4.04,1.78h0c-3.97,3-3.93,7.8-3.93,7.8l1.21-2.11c.09,.36,1.08,2.36,1.33,2.14,4.75-4.06,8.18-4.56,9.69-4.54l1.76-1.5-1,1.7c.71,.37,2.51,1.49,3.18,3.73,0-.03,.37-.58,.41-.66,.24-.46,.4-.96,.48-1.47l1.37,1.82Z"/></g></g><g><circle class="c" cx="243.07" cy="221.66" r="24.64" transform="translate(-67.02 111.84) rotate(-22.86)"/><g><path d="M256.45,214.36c-.09-.17-.19-.33-.32-.47-.03-.03-.06-.05-.09-.08,.7-1.08,.66-2.47-.19-3.39-.4-.43-.91-.68-1.46-.77,.23-.62,.14-1.31-.31-1.79-.35-.38-.84-.54-1.34-.51-.08-.49-.29-.95-.64-1.33-.52-.56-1.24-.83-1.98-.81-.09-.22-.21-.42-.38-.6-.8-.86-2.18-.88-3.16-.09-.64-.36-1.52-.25-2.16,.35-.03,.03-.05,.06-.08,.09-.56-.3-1.24-.34-1.87-.11-.26,.03-.51,.11-.75,.24-.03-.03-.05-.06-.08-.09-.64-.59-1.52-.71-2.16-.35-.98-.79-2.36-.77-3.16,.09-.17,.18-.29,.39-.38,.6-.74-.02-1.46,.25-1.98,.81-.35,.38-.56,.84-.64,1.33-.5-.03-.99,.14-1.34,.51-.45,.48-.54,1.17-.31,1.79-.55,.09-1.06,.35-1.46,.77-.85,.91-.89,2.31-.19,3.39-.03,.03-.06,.05-.09,.08-.06,.07-.11,.15-.16,.22-.69,.64-.96,1.61-.6,2.47,.09,.23,.22,.43,.38,.6-.32,.66-.38,1.43-.09,2.13,.2,.48,.53,.87,.94,1.14-.24,.44-.29,.96-.1,1.44,.25,.61,.84,.98,1.49,1.03-.15,.54-.13,1.11,.09,1.65,.47,1.15,1.72,1.77,2.99,1.59,.01,.04,.02,.08,.04,.12,.47,1.14,1.85,1.65,3.1,1.14,.04-.02,.08-.04,.13-.06,.64,.68,1.71,.91,2.69,.51,.62-.26,1.09-.72,1.35-1.27h0l.89-1.94,.89,1.94h0c.25,.55,.72,1.01,1.34,1.27,.98,.4,2.05,.17,2.69-.51,.04,.02,.08,.04,.13,.06,1.24,.51,2.63,0,3.1-1.14,.02-.04,.03-.08,.04-.12,1.27,.18,2.52-.44,2.99-1.59,.22-.54,.24-1.11,.09-1.65,.66-.05,1.24-.42,1.49-1.03,.2-.48,.14-.99-.1-1.44,.41-.28,.75-.66,.94-1.14,.29-.7,.23-1.47-.09-2.13,.16-.17,.29-.38,.38-.6,.33-.81,.11-1.71-.49-2.36Zm-7.34,3.07c-.03,.07-.07,.14-.1,.21-.42,.13-.79,.43-.97,.87-.18,.43-.13,.9,.07,1.28-.03,.08-.06,.16-.09,.24-.42,.13-.79,.43-.97,.87-.18,.43-.13,.89,.07,1.27-.64-.05-1.26,.3-1.52,.92-.09,.21-.12,.43-.11,.65-.37,.07-.71,.23-.99,.46l-1.04-.3,.13-.28-.55,.16-.55-.16,.13,.28-1.04,.3c-.28-.23-.63-.38-.99-.46,.01-.22-.02-.44-.11-.65-.26-.62-.88-.98-1.52-.92,.2-.38,.24-.84,.07-1.27-.18-.44-.55-.74-.97-.87-.03-.08-.06-.16-.09-.24,.2-.38,.25-.85,.07-1.28-.18-.44-.55-.74-.97-.87-.03-.07-.07-.14-.11-.21,.22-.39,.27-.87,.09-1.32-.1-.25-.27-.45-.47-.6,.02-.02,.05-.03,.07-.06,.32-.35,.44-.81,.38-1.24,.06-.06,.12-.12,.18-.18,.43,.03,.87-.13,1.19-.47,.32-.35,.44-.81,.38-1.24,.05-.06,.1-.12,.14-.18,.45,.04,.9-.12,1.23-.47,.32-.34,.44-.79,.38-1.22,.58,.28,1.29,.17,1.75-.33,.19-.2,.3-.45,.36-.7,.25,.05,.5,.05,.74,.02,.07,.2,.17,.39,.32,.55,.46,.49,1.17,.6,1.75,.33-.05,.43,.07,.88,.38,1.22,.33,.35,.79,.51,1.23,.47,.05,.06,.09,.12,.14,.18-.06,.44,.06,.89,.38,1.24,.32,.34,.76,.5,1.19,.47,.06,.06,.12,.12,.18,.18-.06,.44,.06,.89,.38,1.24,.05,.05,.11,.1,.16,.14-.23,.16-.42,.37-.53,.65-.18,.45-.13,.93,.09,1.32Z"/><path class="y" d="M243.26,229.44h-4.97l-3.7,1.21v14.15c2.64,.97,5.5,1.5,8.48,1.5s5.96-.56,8.66-1.57v-14.14l-3.5-1.14h-4.97Z"/><path class="aq" d="M252.4,216.13c-.12-.01-.23,0-.35,0l.03-4.77-6.47-3.42-1.49,1.23-9.69,2.19,.03,4.78c-1.06,.19-1.78,1.55-1.61,3.11,.14,1.3,.85,2.33,1.7,2.62,.49,2.44,1.82,4.6,3.73,6.12v1.44l4.95,5.18,4.98-5.18v-1.44c1.89-1.51,3.21-3.64,3.71-6.05,1.05-.01,1.99-1.18,2.16-2.7,.17-1.61-.59-3.01-1.7-3.13Z"/><path d="M244.39,249.43s.06,.04,.1,.06h0s-.06-.04-.1-.06Z"/><g><path class="b`" d="M258.06,232.65l-8.02-2.62s-1.6,9.14-5.58,16.22c7.35-.41,13.83-4.04,18.07-9.51,0-.47-.17-2.92-4.48-4.1Z"/><path class="b`" d="M242.01,246.27c-3.98-7.08-5.59-16.23-5.59-16.23l-8.02,2.62c-4.78,1.3-4.47,4.18-4.47,4.18v.34c4.31,5.31,10.78,8.79,18.08,9.1Z"/></g><path class="e" d="M243.88,240.22c0,.36-.29,.64-.64,.64s-.64-.29-.64-.64,.29-.64,.64-.64,.64,.29,.64,.64Z"/><path class="e" d="M243.88,244.19c0,.36-.29,.64-.64,.64s-.64-.29-.64-.64,.29-.64,.64-.64,.64,.29,.64,.64Z"/><path d="M246.35,234.71l-1.91,.47c-.25-.34-.64-.56-1.09-.56h-.11c-.42,0-.79,.19-1.03,.49l-1.64-.41c-.48-.23-1.05,.12-1.05,.66v1.21c0,.51,.52,.87,1,.68l1.02-.4-1.02,1.21,.72,.09,.6,.96,.75-1.97c.19,.11,.41,.17,.65,.17h.11c.25,0,.47-.07,.67-.18l.76,1.98,.6-.96,.72-.09-1.16-1.38,1.46,.57c.48,.19,1-.17,1-.68v-1.21c0-.54-.56-.89-1.05-.66Z"/><g><polygon class="y" points="250.04 230.04 247.76 236.12 250.94 237.45 250.04 230.04"/><polygon class="y" points="235.66 237.45 238.84 236.12 236.56 230.04 235.66 237.45"/></g><path d="M254.65,211.25c0-1.19-.7-2.21-1.68-2.58,0-.05,0-.1,0-.16,0-1.51-1.13-2.74-2.52-2.74-.05,0-.09,0-.14,0-.36-1.4-1.54-2.44-2.94-2.44-.66,0-1.26,.23-1.76,.61-.33-.66-.97-1.12-1.71-1.12-.58,0-1.1,.28-1.46,.72-.46-.31-1.01-.49-1.6-.49-.86,0-1.63,.39-2.19,1-.25-.09-.52-.14-.79-.14-1.33,0-2.42,1.12-2.51,2.54-.78,.25-1.36,1.07-1.36,2.05,0,.04,0,.08,.01,.13-1.02,.35-1.76,1.39-1.76,2.61,0,.18,.02,.35,.05,.52-.03,.16-.05,.33-.05,.51,0,.68,.23,1.31,.61,1.79,.46,.74,1.02,1.3,1.02,1.3l1.42,1.71,.23-2.18c.55-.19,1.01-.58,1.32-1.08,.25,.15,.54,.24,.85,.24,.76,0,1.4-.5,1.61-1.19,.31,.37,.77,.62,1.3,.62s1.02-.26,1.33-.66c.09,0,.17,.02,.26,.02,.31,.39,.78,.64,1.32,.64s.99-.25,1.31-.62c.1,0,.19,0,.29-.01,.31,.39,.78,.64,1.32,.64s.99-.24,1.3-.62c.22,.69,.85,1.19,1.61,1.19,.26,0,.5-.06,.72-.17,.23,.35,.54,.64,.9,.84l.25,2.35,2.66-2.85h0c.46-.5,.75-1.19,.75-1.95,0-.17-.02-.34-.05-.5,.03-.17,.05-.34,.05-.52Z"/></g></g><g><circle class="ag" cx="158.54" cy="329.51" r="17.74"/><g><path class="y" d="M158.92,333.72h-3.58l-2.66,.87v11.68c1.83,.64,3.8,.99,5.85,.99,2.34,0,4.58-.46,6.63-1.29v-11.38l-2.67-.87h-3.58Z"/><path class="al" d="M158.92,335.54l-2.39,1.5,1.32,1.11-1.46,8.98c.7,.08,1.42,.13,2.15,.13,.99,0,1.96-.08,2.9-.24l-1.45-8.87,1.32-1.11-2.39-1.5Z"/><path d="M159.73,348.1s.05,.03,.07,.04h0s-.05-.03-.07-.04Z"/><path class="am" d="M158.54,347.25c5.85,0,11.03-2.83,14.26-7.19v-1.03s.22-2.07-3.22-3.01l-5.77-1.88s-1.37,7.84-4.84,13.03h0s-.03,.04-.05,.07h-.03s-.03-.05-.05-.07h0c-3.47-5.19-4.84-13.03-4.84-13.03l-5.77,1.88c-3.44,.94-3.22,3.01-3.22,3.01v1.94c3.25,3.84,8.11,6.28,13.53,6.28Z"/><g class="aa"><path d="M158.09,348.1s-.05,.03-.07,.04h0s.05-.03,.07-.04Z"/><g><path d="M165.76,339.12l1.03-.15c.08-.01,.14-.08,.14-.17-.09-2.62-2.54-4.3-2.54-4.3h0c.35,.66,1.83,2.37,1.91,3.97,0,.08-.05,.15-.13,.16l-1.33,.31c-.14,.03-.17,.21-.05,.29l1.3,.9c.06,.04,.09,.12,.06,.19-.3,.69-1.99,4.24-6.36,6.88,.18-.01,.37-.02,.55-.04,4.41-2.33,6.23-6.16,6.55-6.91,.03-.08,0-.16-.07-.2l-1.11-.63c-.13-.08-.09-.28,.06-.3Z"/><path d="M151.66,340.32c-.03-.07,0-.15,.06-.19l1.3-.9c.11-.08,.08-.26-.05-.29l-1.33-.31c-.08-.02-.13-.09-.13-.16,.08-1.6,1.56-3.31,1.91-3.97h0s-2.46,1.68-2.54,4.3c0,.08,.06,.15,.14,.17l1.03,.15c.15,.02,.19,.22,.06,.3l-1.11,.63c-.07,.04-.1,.13-.07,.2,.32,.76,2.17,4.66,6.67,6.98,.16,0,.33,0,.49,.01-4.42-2.65-6.13-6.22-6.42-6.92Z"/></g></g><path class="t" d="M165.53,324.13c-.18-3.47-2.67-6.51-6.42-6.51s-6.39,3.07-6.68,6.56c-.67,.24-1.11,1.16-.99,2.2,.1,.93,.61,1.68,1.22,1.89,.35,1.76,1.31,3.31,2.69,4.41v1.04l3.58,1.82,3.58-1.82v-1.04c1.36-1.08,2.31-2.62,2.67-4.35,.75-.01,1.43-.85,1.55-1.94,.12-1.14-.41-2.14-1.19-2.25Z"/><path class="a`" d="M166.96,321.91c0-.86-.51-1.59-1.21-1.86,0-.04,0-.07,0-.11,0-1.09-.81-1.97-1.81-1.97-.03,0-.07,0-.1,0-.26-1.01-1.11-1.76-2.12-1.76-.47,0-.91,.16-1.27,.44-.24-.48-.7-.8-1.23-.8-.42,0-.79,.2-1.05,.51-.33-.22-.73-.36-1.15-.36-.62,0-1.17,.28-1.57,.72-.18-.07-.37-.1-.57-.1-.96,0-1.74,.81-1.81,1.83-.56,.18-.98,.77-.98,1.47,0,.03,0,.06,0,.09-.73,.25-1.27,1-1.27,1.88,0,.32,.08,.61,.2,.88-.06,.18-.1,.37-.1,.57,0,.62,.34,1.16,.84,1.4,.11-.18,.25-.32,.4-.43l.86,1.04,.17-1.57c.39-.14,.73-.41,.95-.78,.18,.11,.39,.17,.62,.17,.44,0,.82-.24,1.04-.59,.24,.46,.7,.77,1.22,.77,.27,0,.52-.09,.73-.23,.25,.44,.69,.74,1.21,.74,.55,0,1.01-.34,1.25-.83,.24,.19,.53,.31,.85,.31,.47,0,.89-.26,1.15-.64,.22,.28,.56,.46,.95,.46,.19,0,.36-.05,.52-.12,.17,.25,.39,.46,.65,.61l.18,1.69,1.13-1.2c.18,.05,.35,.14,.5,.28,.36-.28,.6-.73,.6-1.25,0-.1-.01-.19-.03-.28,.16-.29,.25-.63,.25-.99Z"/></g></g><g><circle class="k" cx="286.92" cy="173.78" r="19.96"/><g><path class="y" d="M287.15,178.3h-4.02l-2.49,.81v13.61c1.98,.65,4.09,1.01,6.28,1.01,2.34,0,4.58-.4,6.66-1.14v-13.51l-2.4-.78h-4.02Z"/><path class="ba" d="M287.15,180.35l-2.69,1.69,1.49,1.25-1.67,10.27c.87,.11,1.75,.18,2.64,.18,1.06,0,2.09-.08,3.1-.24l-1.66-10.21,1.49-1.25-2.69-1.69Z"/><path d="M288.07,194.48s.05,.03,.08,.05h0s-.05-.03-.08-.05Z"/><path class="r" d="M302.76,184.28s.25-2.33-3.62-3.38l-6.5-2.12s-1.55,8.82-5.45,14.66h0s-.03,.05-.05,.07h-.04s-.03-.05-.05-.08h0c-3.9-5.84-5.45-14.65-5.45-14.65l-6.5,2.12c-3.88,1.05-3.62,3.38-3.62,3.38v2.16c3.66,4.45,9.21,7.3,15.42,7.3s12.2-3.07,15.85-7.83v-1.62Z"/><g class="av"><path d="M286.22,194.48s-.05,.03-.08,.05h0s.05-.03,.08-.05Z"/><g><path d="M294.85,184.38l1.16-.17c.09-.01,.16-.1,.16-.19-.1-2.95-2.86-4.84-2.86-4.84h0c.4,.74,2.06,2.67,2.15,4.47,0,.09-.06,.16-.14,.18l-1.49,.35c-.15,.04-.19,.24-.06,.33l1.46,1.01c.07,.05,.1,.14,.06,.22-.34,.8-2.35,4.99-7.58,7.98,.18,0,.35-.02,.53-.03,5.33-2.58,7.5-7.16,7.88-8.03,.04-.08,0-.18-.08-.23l-1.25-.71c-.15-.09-.11-.31,.06-.34Z"/><path d="M278.99,185.73c-.03-.08,0-.17,.06-.22l1.46-1.01c.13-.09,.09-.29-.06-.33l-1.49-.35c-.08-.02-.15-.1-.14-.18,.09-1.8,1.75-3.73,2.15-4.47h0s-2.76,1.89-2.86,4.84c0,.09,.07,.17,.16,.19l1.16,.17c.17,.03,.21,.25,.06,.34l-1.25,.71c-.08,.05-.11,.14-.08,.23,.38,.88,2.56,5.48,7.93,8.06,.16,0,.33,0,.49,.01-5.24-3-7.25-7.19-7.6-7.99Z"/></g></g><path class="t" d="M294.66,167.53c-.2-3.91-3-7.33-7.22-7.33s-7.17,3.43-7.51,7.35c-.8,.22-1.32,1.29-1.19,2.5,.11,1.05,.69,1.89,1.38,2.12,.4,1.98,1.48,3.73,3.02,4.96v1.17l4.02,2.05,4.02-2.05v-1.17c1.53-1.22,2.6-2.94,3.01-4.9,.85-.01,1.61-.95,1.75-2.19,.13-1.25-.43-2.34-1.27-2.51Z"/><g><path class="d" d="M291.5,169.41h-2.53c-.53,0-.96-.39-.96-.88v-1.26c0-.5,.45-.91,1-.91h2.6c.55,0,.97,.41,.95,.91l-.05,1.26c-.02,.49-.47,.88-1,.88Z"/><path class="f" d="M292.08,166.58l-3.94,2.57c.17,.16,.42,.26,.69,.26h2.53c.53,0,.98-.39,1-.88l.05-1.26c.01-.28-.12-.53-.34-.7Z"/><path class="d" d="M285.8,169.41h-2.53c-.53,0-.98-.39-1-.88l-.05-1.26c-.02-.5,.41-.91,.95-.91h2.6c.55,0,.99,.41,1,.91v1.26c0,.49-.42,.88-.96,.88Z"/><path class="f" d="M286.25,166.58l-3.82,2.57c.18,.16,.43,.26,.7,.26h2.53c.53,0,.96-.39,.96-.88v-1.26c0-.28-.15-.53-.38-.7Z"/><path class="bb" d="M292.46,166.53c-.22-.23-.53-.35-.86-.35h-2.6c-.55,0-1,.35-1.14,.81-.41-.17-.75-.13-.97-.03-.15-.45-.6-.78-1.13-.78h-2.6c-.33,0-.64,.13-.86,.35-.2,.21-.3,.47-.29,.75l.05,1.26c.02,.59,.56,1.06,1.2,1.06h2.53c.32,0,.63-.13,.85-.34,.2-.2,.3-.46,.3-.73v-1.16c.11-.08,.42-.22,.86,.02v1.14c0,.27,.1,.53,.3,.73,.22,.22,.53,.34,.85,.34h2.53c.64,0,1.17-.48,1.2-1.06l.05-1.26c.01-.28-.09-.55-.29-.75Zm-6.08,2.46c-.15,.15-.36,.23-.58,.23h-2.53c-.43,0-.8-.31-.81-.69l-.05-1.26c0-.17,.06-.34,.18-.47,.14-.15,.35-.24,.58-.24h2.6c.44,0,.8,.32,.8,.72v1.26c0,.17-.06,.33-.18,.45Zm5.93-.46c-.02,.38-.38,.69-.81,.69h-2.53c-.22,0-.43-.08-.58-.23-.12-.12-.19-.29-.19-.45v-1.26c0-.4,.37-.72,.81-.72h2.6c.22,0,.44,.09,.58,.24,.12,.13,.19,.3,.18,.47l-.05,1.26Z"/></g><path class="au" d="M281.38,164.43l-.23-.12s-.06-.07-.05-.11l.14-.57c-1.19,1.44-1.33,3.25-1.35,3.76,0,.07-.02,.17,.04,.15l.86-.31h0c.13-.07,.07-.15,.03-.19l-.14-.12h-.02s-.14-.15,0-.2h0l.3-.12c.13-.08,.04-.17,.01-.2l-.1-.08h0l-.07-.06c-.05-.05-.07-.13,.07-.18l.31-.12c.07-.03,.09-.12,.03-.17l-.23-.21c-.06-.05-.04-.14,.04-.17l.29-.1c.14-.05,0-.17,0-.17l-.26-.21c-.06-.05-.05-.13,.02-.17l.36-.19,.03-.02c.06-.06-.08-.13-.08-.13Z"/><path class="au" d="M293.22,164.41l.23-.12s.11-.08,.1-.13l-.1-.6c1.19,1.44,1.24,3.29,1.26,3.8,0,.07,.02,.17-.04,.15l-.86-.31h0c-.13-.07-.07-.15-.03-.19l.14-.12h.02s.14-.15,0-.2h0l-.3-.12c-.13-.08-.04-.17-.01-.2l.1-.08h0l.07-.06c.05-.05,.07-.13-.07-.18l-.31-.12c-.07-.03-.09-.12-.03-.17l.23-.21c.06-.05,.04-.14-.04-.17l-.29-.1c-.14-.05,0-.17,0-.17l.26-.21c.06-.05,.05-.13-.02-.17l-.36-.19-.03-.02c-.06-.06,.08-.13,.08-.13Z"/><path class="au" d="M293.94,173.29c.02-.05-.05-.08-.08-.04-.44,.73-1.2,1.41-1.47,1.64-.06,.05-.14,.05-.2,.01l-.25-.16c-.22-.11-.22,.09-.22,.09l.05,.32c0,.08-.03,.16-.18,.09h0l-.15-.1c-.11-.07-.26,0-.26,.14v.38c0,.11-.1,.19-.2,.16l-.54-.34-.86-2.73s-.05-.09-.09-.12c-.26-.17-1.27-.78-2.26-.83h-.04c-.99,.05-2,.66-2.26,.83-.04,.03-.07,.07-.09,.12l-.88,2.8-.62,.27c-.1,.02-.2-.06-.2-.16v-.38c0-.13-.15-.21-.26-.14l-.11,.08s-.25,.15-.21-.08h0l.04-.27c.07-.3-.2-.13-.2-.13l-.26,.17c-.06,.04-.14,.04-.2-.01-.26-.23-1.02-.91-1.47-1.64-.03-.05-.1-.01-.08,.04,.33,.98,1.03,2.52,2.43,3.66h0s1.51,1.47,4.35,1.94h0c2.84-.48,4.35-1.95,4.35-1.95h0c1.4-1.14,2.11-2.68,2.44-3.66Zm-4.7,2.95l-.06,.35c-.02,.11-.14,.17-.24,.11l-.54-.3c-.11-.06-.24,.01-.24,.13l-.04,.61c0,.13-.15,.2-.26,.13l-.61-.58c-.06-.04-.13-.04-.18,0l-.61,.58c-.11,.07-.25,0-.26-.13l-.04-.61c0-.12-.14-.19-.24-.13l-.54,.3c-.1,.06-.22,0-.24-.11l-.06-.35c-.02-.09-.1-.14-.18-.13-.04-1.03,.43-2.77,.43-2.77,.05-.37,1.6-.63,1.85-.67,.02,0,.04,0,.07,0,.25,.04,1.8,.3,1.85,.67,0,0,.48,1.77,.43,2.8l-.08-.02c-.09-.03-.19,.03-.21,.13Z"/></g></g><g><circle class="k" cx="156.02" cy="70.32" r="24.64"/><g><path class="y" d="M156.02,94.96c7.78,0,14.72-3.61,19.23-9.25,.4-3.04-1.41-6.03-4.43-7.02l-9.84-3.21h-9.93l-9.84,3.21c-3.02,.99-4.83,3.98-4.43,7.02,4.52,5.63,11.45,9.25,19.23,9.25Z"/><path class="ak" d="M156.02,78.02l-3.32,2.08,1.83,1.54-2.13,13.05c1.18,.17,2.38,.27,3.61,.27s2.43-.09,3.61-.27l-2.13-13.05,1.83-1.54-3.32-2.08Z"/><path class="aq" d="M165.16,62.17c-.12-.01-.23,0-.35,0l.03-4.77h-17.64l.03,4.78c-1.06,.19-1.78,1.55-1.61,3.11,.14,1.3,.85,2.33,1.7,2.62,.49,2.44,1.82,4.6,3.73,6.12v1.44l4.97,2.53,4.97-2.53v-1.44c1.89-1.51,3.21-3.64,3.71-6.05,1.05-.01,1.99-1.18,2.16-2.7,.17-1.61-.59-3.01-1.7-3.13Z"/><path d="M163.13,55.13l.02-.02c-1.14-2.77-4.18-3.5-6.79-3.45-.64,0-1.26,.06-1.82,.14-2.16,.32-4.3,1.44-5.86,2.96-1.84,1.79-2.58,3.75-2.48,6.22,.01,.27,.61,2.96,.92,2.68h.01s.08,.03,.11,0c1.31-1.19,2.64-2.11,3.93-2.84-.05,1.03-1.07,1.79-1.07,1.79,3.21-.96,5.19-3.04,5.8-3.76,.05-.01,.1-.03,.15-.04-.18,1.11-1.2,1.98-1.2,1.98,.05,0,.1-.02,.16-.03l-.03,.03c2.86-.48,4.68-1.85,5.5-2.6,.51,.23,3.26,1.59,4.2,4.74,0,0,.03-.06,.07-.14,.02,.05,.03,.09,.05,.14,0-.03,.46-.72,.51-.81,1.39-2.61,.58-6.2-2.18-6.98Z"/></g></g><g><circle class="ax" cx="221.63" cy="61.3" r="19.96" transform="translate(98.85 255.73) rotate(-73.19)"/><g><path class="y" d="M221.7,66.04h-4.02l-3.07,1v12.94c2.18,.82,4.55,1.27,7.02,1.27s4.66-.42,6.78-1.18v-13.15l-2.69-.88h-4.02Z"/><path class="bc" d="M221.7,68.09l-2.69,1.69,1.49,1.25-1.64,10.04c.9,.13,1.83,.2,2.77,.2,.99,0,1.96-.07,2.91-.21l-1.63-10.02,1.49-1.25-2.69-1.69Z"/><g><path class="ad" d="M221.63,81.26h.03s-.03-.05-.05-.08h0c-3.9-5.84-5.45-14.65-5.45-14.65l-6.5,2.12c-3.88,1.05-3.62,3.38-3.62,3.38v1.73c3.65,4.57,9.28,7.5,15.59,7.5Z"/><path class="ad" d="M237.31,72.03s.25-2.33-3.62-3.38l-6.5-2.12s-1.55,8.82-5.45,14.66h0s-.03,.05-.05,.07c6.34-.02,11.98-3,15.62-7.62v-1.6Z"/></g><g class="aa"><path d="M220.77,82.23s-.05,.03-.08,.05h0s.05-.03,.08-.05Z"/><g><path d="M229.4,72.12l1.16-.17c.09-.01,.16-.1,.16-.19-.1-2.95-2.86-4.84-2.86-4.84h0c.4,.74,2.06,2.67,2.15,4.47,0,.09-.06,.16-.14,.18l-1.49,.35c-.15,.04-.19,.24-.06,.33l1.46,1.01c.07,.05,.1,.14,.06,.22-.34,.78-2.24,4.78-7.17,7.75,.21-.01,.41-.03,.62-.05,4.98-2.62,7.02-6.94,7.39-7.79,.04-.08,0-.18-.08-.23l-1.25-.71c-.15-.09-.11-.31,.06-.34Z"/><path d="M213.53,73.48c-.03-.08,0-.17,.06-.22l1.46-1.01c.13-.09,.09-.29-.06-.33l-1.49-.35c-.08-.02-.15-.1-.14-.18,.09-1.8,1.75-3.73,2.15-4.47h0s-2.76,1.89-2.86,4.84c0,.09,.07,.17,.16,.19l1.16,.17c.17,.03,.21,.25,.06,.34l-1.25,.71c-.08,.05-.1,.14-.08,.23,.3,.99,2.4,5.22,7.39,7.79,.2,.02,.41,.03,.62,.04-4.94-2.98-6.84-6.97-7.18-7.76Z"/></g></g><path class="aq" d="M229.13,55.26c-.2-3.9-3-7.32-7.22-7.32s-7.18,3.45-7.51,7.38c-.76,.27-1.24,1.3-1.12,2.47,.11,1.05,.69,1.89,1.38,2.12,.4,1.98,1.48,3.73,3.02,4.96v1.17l4.02,2.05,4.02-2.05v-1.17c1.53-1.22,2.6-2.94,3.01-4.9,.85-.01,1.61-.95,1.75-2.19,.14-1.29-.46-2.4-1.34-2.53Z"/><path class="bd" d="M230.75,52.76c0-.97-.57-1.79-1.36-2.09,0-.04,0-.08,0-.13,0-1.23-.91-2.22-2.04-2.22-.04,0-.07,0-.11,0-.29-1.14-1.24-1.97-2.38-1.97-.53,0-1.02,.18-1.43,.5-.27-.54-.79-.9-1.39-.9-.47,0-.89,.23-1.18,.58-.38-.25-.82-.4-1.29-.4-.69,0-1.32,.31-1.77,.81-.2-.07-.42-.11-.64-.11-1.08,0-1.96,.91-2.03,2.06-.63,.2-1.1,.86-1.1,1.66,0,.04,0,.07,0,.1-.83,.28-1.42,1.12-1.42,2.12,0,.36,.08,.69,.22,.99-.07,.2-.11,.41-.11,.64,0,.7,.39,1.3,.94,1.57,.13-.2,.28-.36,.45-.48l.97,1.17,.19-1.77c.44-.15,.82-.47,1.07-.88,.2,.12,.44,.19,.69,.19,.5,0,.93-.27,1.17-.66,.28,.51,.78,.86,1.37,.86,.3,0,.58-.1,.82-.26,.28,.5,.78,.84,1.36,.84,.61,0,1.14-.38,1.4-.94,.27,.22,.59,.35,.95,.35,.53,0,1-.29,1.29-.72,.25,.31,.63,.52,1.07,.52,.21,0,.41-.05,.59-.14,.19,.29,.44,.52,.73,.68l.2,1.91,1.27-1.35c.21,.05,.41,.16,.58,.32,.37-.3,.63-.81,.67-1.42,0-.12,0-.23-.02-.34,.17-.32,.27-.7,.27-1.09Z"/><path class="bd" d="M228.48,60.92c.02-.05-.05-.08-.08-.04-.44,.73-1.2,1.41-1.47,1.64-.06,.05-.14,.05-.2,.01l-.25-.16c-.22-.11-.22,.09-.22,.09l.05,.32c0,.08-.03,.16-.18,.09h0l-.15-.1c-.11-.07-.26,0-.26,.14v.38c0,.11-.1,.19-.2,.16l-.54-.34-.92-1.95s-.05-.09-.09-.12c-.26-.17-1.27-.78-2.26-.83h-.04c-.99,.05-2,.66-2.26,.83-.04,.03-.07,.07-.09,.12l-.83,2.02-.62,.27c-.1,.02-.2-.06-.2-.16v-.38c0-.13-.15-.21-.26-.14l-.11,.08s-.25,.15-.21-.08h0l.04-.27c.07-.3-.2-.13-.2-.13l-.26,.17c-.06,.04-.14,.04-.2-.01-.26-.23-1.02-.91-1.47-1.64-.03-.05-.1-.01-.08,.04,.33,.98,1.03,2.52,2.43,3.66h0s1.51,1.47,4.35,1.94h0c2.84-.48,4.35-1.95,4.35-1.95h0c1.4-1.14,2.11-2.68,2.44-3.66Zm-4.7,2.95l-.06,.35c-.02,.11-.14,.17-.24,.11l-.54-.3c-.11-.06-.24,.01-.24,.13l-.04,.61c0,.13-.15,.2-.26,.13l-.61-.58c-.06-.04-.13-.04-.18,0l-.61,.58c-.11,.07-.25,0-.26-.13l-.04-.61c0-.12-.14-.19-.24-.13l-.54,.3c-.1,.06-.22,0-.24-.11l-.06-.35c-.02-.09-.1-.14-.18-.13-.04-1.03,.38-1.99,.38-1.99,.05-.37,1.6-.63,1.85-.67,.02,0,.04,0,.07,0,.25,.04,1.8,.3,1.85,.67,0,0,.54,.99,.49,2.02l-.08-.02c-.09-.03-.19,.03-.21,.13Z"/></g></g></svg>