<?xml version="1.0" encoding="UTF-8"?><svg id="a" xmlns="http://www.w3.org/2000/svg" viewBox="0 0 792 101.27"><defs><style>.b{fill:#fff;}.c{fill:#ffde17;}</style></defs><g><rect class="b" x="337.83" y="0" width="21.35" height="101.27" rx="10.68" ry="10.68"/><path class="b" d="M303.66,10.68h40.88V90.6h-40.88c-9.43,0-17.08-7.65-17.08-17.08V27.76c0-9.43,7.65-17.08,17.08-17.08Z"/><rect class="b" x="263.09" y="34.37" width="29.59" height="32.54"/><path class="b" d="M387.28,41.05h-32.1c-3.69,0-6.68-2.99-6.68-6.68h0c0-3.69,2.99-6.68,6.68-6.68h32.1c3.69,0,6.68,2.99,6.68,6.68h0c0,3.69-2.99,6.68-6.68,6.68Z"/><path class="b" d="M387.28,73.58h-32.1c-3.69,0-6.68-2.99-6.68-6.68h0c0-3.69,2.99-6.68,6.68-6.68h32.1c3.69,0,6.68,2.99,6.68,6.68h0c0,3.69-2.99,6.68-6.68,6.68Z"/><rect class="b" y="41.38" width="270.57" height="18.51"/></g><g><path class="c" d="M443.49,101.27h0c5.9,0,10.68-4.78,10.68-10.68V10.68c0-5.9-4.78-10.68-10.68-10.68h0c-5.9,0-10.68,4.78-10.68,10.68V90.6c0,5.9,4.78,10.68,10.68,10.68Z"/><path class="c" d="M464.54,10.68h40.88V90.6h-40.88c-9.43,0-17.08-7.65-17.08-17.08V27.76c0-9.43,7.65-17.08,17.08-17.08Z" transform="translate(952.88 101.27) rotate(180)"/><rect class="c" x="499.32" y="34.37" width="29.59" height="32.54" transform="translate(1028.22 101.27) rotate(180)"/><rect class="c" x="521.43" y="41.38" width="270.57" height="18.51" transform="translate(1313.43 101.27) rotate(180)"/></g></svg>