<?xml version="1.0" encoding="UTF-8"?><svg xmlns="http://www.w3.org/2000/svg" xmlns:xlink="http://www.w3.org/1999/xlink" viewBox="0 0 4000 2183.75"><defs><style>.bo{fill:url(#i);mix-blend-mode:multiply;}.bp{fill:url(#be);}.bq{fill:url(#t);}.br{fill:url(#ap);}.bs{fill:url(#r);}.bt{fill:url(#bk);}.bu{fill:url(#ai);}.bv{mask:url(#f);}.bw{fill:url(#y);}.bx{fill:url(#l);}.by{fill:url(#bl);}.c`{fill:url(#af);}.ca{fill:url(#aq);}.cb{fill:url(#u);}.cc{fill:url(#b`);}.cd{fill:url(#v);}.ce{fill:url(#av);}.cf{fill:url(#a`);}.cg{fill:#3c9192;}.ch{fill:url(#as);}.ci{fill:url(#m);}.cj{fill:url(#bh);}.ck{fill:url(#aw);}.cl{fill:url(#bm);}.cm{fill:url(#ba);}.cn{fill:url(#ao);}.co{fill:#fda893;}.cp{fill:url(#bj);}.cq{fill:url(#bd);}.cr{fill:url(#bg);}.cs{fill:#333;}.ct{fill:url(#ae);}.cu{fill:url(#bi);}.cv{fill:url(#p);}.cw{opacity:.15;}.cx{fill:url(#j);opacity:.81;}.cy{fill:url(#bb);}.d`{fill:url(#ad);}.da{fill:url(#ab);}.db{fill:url(#ak);}.dc{fill:url(#au);}.dd{fill:url(#b);}.de{fill:url(#bf);}.df{filter:url(#h);}.dg{filter:url(#e);}.dh{fill:url(#bc);}.di{fill:url(#aj);}.dj{fill:url(#ar);}.dk{opacity:.1;}.dl{fill:#361d51;}.dm{fill:url(#am);}.dn{fill:url(#x);}.do{fill:url(#at);}.dp{fill:url(#aa);}.dq{fill:url(#s);}.dr{fill:url(#bn);}.ds{fill:url(#n);}.dt{fill:url(#ac);}.du{fill:url(#w);}.dv{fill:url(#al);}.dw{fill:url(#o);}.dx{fill:url(#an);}.dy{fill:url(#ax);}.e`{fill:url(#q);}.ea{mask:url(#c);}.eb{fill:url(#ay);}.ec{fill:url(#k);}</style><radialGradient id="b" cx="1311.37" cy="6016.49" fx="1311.37" fy="6016.49" r="2862.89" gradientTransform="translate(0 -2414.7) scale(1 .53)" gradientUnits="userSpaceOnUse"><stop offset="0" stop-color="#fff"/><stop offset=".48" stop-color="#e0e9f9"/><stop offset="1" stop-color="#c3d6f5"/></radialGradient><filter id="e" y="1566.7" width="4000" height="617.05" color-interpolation-filters="sRGB" filterUnits="userSpaceOnUse"><feFlood flood-color="#fff" result="bg"/><feBlend in="SourceGraphic" in2="bg"/></filter><filter id="h" y="-9284" width="4000" height="32766" color-interpolation-filters="sRGB" filterUnits="userSpaceOnUse"><feFlood flood-color="#fff" result="bg"/><feBlend in="SourceGraphic" in2="bg"/></filter><mask id="f" y="-9284" width="4000" height="32766" maskUnits="userSpaceOnUse"><g class="df"/></mask><linearGradient id="i" x1="-664.53" y1="1877.67" x2="6061.82" y2="1871.5" gradientTransform="translate(4000 3750.46) rotate(-180)" gradientUnits="userSpaceOnUse"><stop offset="0" stop-color="#fff"/><stop offset=".25" stop-color="#b8b8b8"/><stop offset=".62" stop-color="#565656"/><stop offset=".88" stop-color="#181818"/><stop offset="1" stop-color="#000"/></linearGradient><mask id="c" y="1566.7" width="4000" height="617.05" maskUnits="userSpaceOnUse"><g class="dg"><g class="bv"><rect class="bo" y="1566.7" width="4000" height="617.05" transform="translate(4000 3750.46) rotate(180)"/></g></g></mask><linearGradient id="j" x1="-664.53" y1="1877.67" x2="6061.82" y2="1871.5" gradientTransform="translate(4000 3750.46) rotate(-180)" gradientUnits="userSpaceOnUse"><stop offset="0" stop-color="#fff"/><stop offset=".56" stop-color="#dae6f8"/><stop offset="1" stop-color="#c3d6f5"/></linearGradient><linearGradient id="k" x1="819.33" y1="437.78" x2="830.4" y2="437.78" gradientTransform="matrix(1, 0, 0, 1, 0, 0)" gradientUnits="userSpaceOnUse"><stop offset="0" stop-color="#796393"/><stop offset=".57" stop-color="#50386b"/><stop offset="1" stop-color="#361d52"/></linearGradient><linearGradient id="l" x1="1886.82" y1="1186.43" x2="1904.15" y2="1186.43" xlink:href="#k"/><linearGradient id="m" x1="321.13" y1="569.93" x2="332.2" y2="569.93" xlink:href="#k"/><linearGradient id="n" x1="1323.95" y1="448.86" x2="1335.03" y2="448.86" xlink:href="#k"/><linearGradient id="o" x1="1096.03" y1="809.45" x2="1107.11" y2="809.45" xlink:href="#k"/><linearGradient id="p" x1="593.46" y1="745.57" x2="597.81" y2="745.57" xlink:href="#k"/><linearGradient id="q" x1="585.79" y1="745.57" x2="605.48" y2="745.57" xlink:href="#k"/><linearGradient id="r" x1="2016.32" y1="431.55" x2="2020.67" y2="431.55" xlink:href="#k"/><linearGradient id="s" x1="2008.64" y1="431.56" x2="2028.34" y2="431.56" xlink:href="#k"/><linearGradient id="t" x1="1775.35" y1="348.29" x2="1779.7" y2="348.29" xlink:href="#k"/><linearGradient id="u" x1="1767.68" y1="348.29" x2="1787.38" y2="348.29" xlink:href="#k"/><linearGradient id="v" x1="2136.31" y1="838.36" x2="2140.67" y2="838.36" xlink:href="#k"/><linearGradient id="w" x1="2128.64" y1="838.36" x2="2148.34" y2="838.36" xlink:href="#k"/><linearGradient id="x" x1="1397.14" y1="291.61" x2="1401.49" y2="291.61" xlink:href="#k"/><linearGradient id="y" x1="1389.47" y1="291.61" x2="1409.17" y2="291.61" xlink:href="#k"/><linearGradient id="a`" x1="1729.34" y1="929.92" x2="1740.42" y2="929.92" xlink:href="#k"/><linearGradient id="aa" x1="1911.82" y1="705.43" x2="1916.18" y2="705.43" xlink:href="#k"/><linearGradient id="ab" x1="1904.15" y1="705.43" x2="1923.85" y2="705.43" xlink:href="#k"/><linearGradient id="ac" x1="232.86" y1="1195.09" x2="237.21" y2="1195.09" xlink:href="#k"/><linearGradient id="ad" x1="225.19" y1="1195.09" x2="244.89" y2="1195.09" xlink:href="#k"/><linearGradient id="ae" x1="512.43" y1="1021.43" x2="516.78" y2="1021.43" xlink:href="#k"/><linearGradient id="af" x1="504.76" y1="1021.43" x2="524.46" y2="1021.43" xlink:href="#k"/><linearGradient id="ai" x1="1328.93" y1="-65.95" x2="1474.64" y2="-65.95" gradientTransform="translate(2794.68 876.87) rotate(-175.18)" xlink:href="#k"/><linearGradient id="aj" x1="1392.02" y1="-65.95" x2="1411.54" y2="-65.95" gradientTransform="translate(2794.68 876.87) rotate(-175.18)" xlink:href="#k"/><linearGradient id="ak" x1="1170.66" y1="139.42" x2="1410.64" y2="139.42" gradientTransform="translate(2794.68 876.87) rotate(-175.18)" xlink:href="#k"/><linearGradient id="al" x1="1274.57" y1="139.41" x2="1306.73" y2="139.41" gradientTransform="translate(2794.68 876.87) rotate(-175.18)" xlink:href="#k"/><linearGradient id="am" x1="4427.13" y1="1076.6" x2="4993.08" y2="1582.69" gradientTransform="translate(6526.68) rotate(-180) scale(1 -1)" gradientUnits="userSpaceOnUse"><stop offset="0" stop-color="#00dcac"/><stop offset=".12" stop-color="#00cea6"/><stop offset=".72" stop-color="#01908d"/><stop offset="1" stop-color="#027984"/></linearGradient><linearGradient id="an" x1="1595.16" y1="963.83" x2="1610.22" y2="1395.68" gradientTransform="translate(189.06)" xlink:href="#am"/><linearGradient id="ao" x1="2121.76" y1="1538.85" x2="1413.73" y2="1599.11" gradientTransform="translate(189.06)" xlink:href="#am"/><linearGradient id="ap" x1="4203.52" y1="247.14" x2="4132.04" y2="706.64" gradientTransform="translate(3767.86 -987.7) rotate(150.64) scale(1 -1)" gradientUnits="userSpaceOnUse"><stop offset="0" stop-color="#b4f492"/><stop offset=".3" stop-color="#8ad192"/><stop offset=".77" stop-color="#4d9f92"/><stop offset="1" stop-color="#358c92"/></linearGradient><linearGradient id="aq" x1="3878.57" y1="518.8" x2="4178.1" y2="777.49" xlink:href="#ap"/><linearGradient id="ar" x1="4574.72" y1="630.54" x2="3938.22" y2="776.9" xlink:href="#ap"/><linearGradient id="as" x1="1147.02" y1="200.63" x2="1136.23" y2="2648.73" gradientTransform="matrix(1, 0, 0, 1, 0, 0)" gradientUnits="userSpaceOnUse"><stop offset="0" stop-color="#796393"/><stop offset=".57" stop-color="#50386b"/><stop offset="1" stop-color="#361d52"/></linearGradient><linearGradient id="at" x1="9.69" y1="367.99" x2="1762.18" y2="1899.4" gradientTransform="matrix(1, 0, 0, 1, 0, 0)" gradientUnits="userSpaceOnUse"><stop offset="0" stop-color="#fff"/><stop offset=".56" stop-color="#dae6f8"/><stop offset="1" stop-color="#c3d6f5"/></linearGradient><linearGradient id="au" x1="1141.72" y1="1759.35" x2="1141.72" y2="1876.24" xlink:href="#as"/><linearGradient id="av" x1="1064.67" y1="1728.79" x2="1204.87" y2="1868.99" xlink:href="#at"/><linearGradient id="aw" x1="648.87" y1="1691.4" x2="1197.44" y2="1276.55" gradientTransform="matrix(1, 0, 0, 1, 0, 0)" gradientUnits="userSpaceOnUse"><stop offset="0" stop-color="#60cdf9"/><stop offset=".23" stop-color="#5daff1"/><stop offset=".75" stop-color="#5872e1"/><stop offset="1" stop-color="#565adb"/></linearGradient><linearGradient id="ax" x1="1159.54" y1="1541.71" x2="1478.4" y2="832" gradientTransform="matrix(1, 0, 0, 1, 0, 0)" gradientUnits="userSpaceOnUse"><stop offset="0" stop-color="#fcee99"/><stop offset="1" stop-color="#fea975"/></linearGradient><linearGradient id="ay" x1="1297.69" y1="1141.63" x2="1421.98" y2="1141.63" gradientTransform="matrix(1, 0, 0, 1, 0, 0)" gradientUnits="userSpaceOnUse"><stop offset="0" stop-color="#595b68"/><stop offset=".54" stop-color="#37404d"/><stop offset="1" stop-color="#202d3b"/></linearGradient><linearGradient id="b`" x1="1332.11" y1="993.71" x2="1405.76" y2="993.71" xlink:href="#ay"/><linearGradient id="ba" x1="903.68" y1="1348.21" x2="287.47" y2="696.06" gradientTransform="matrix(1, 0, 0, 1, 0, 0)" gradientUnits="userSpaceOnUse"><stop offset="0" stop-color="#fa8696"/><stop offset=".68" stop-color="#c24872"/><stop offset="1" stop-color="#ac3164"/></linearGradient><linearGradient id="bb" x1="106.22" y1="539.6" x2="660.8" y2="1073.65" xlink:href="#ba"/><linearGradient id="bc" x1="332.04" y1="896.71" x2="622.08" y2="896.71" xlink:href="#at"/><linearGradient id="bd" x1="1765.3" y1="1930.2" x2="1772.22" y2="1679.9" gradientTransform="matrix(1, 0, 0, 1, 0, 0)" gradientUnits="userSpaceOnUse"><stop offset="0" stop-color="#595b68"/><stop offset=".25" stop-color="#545764"/><stop offset=".53" stop-color="#464b59"/><stop offset=".84" stop-color="#2f3947"/><stop offset="1" stop-color="#202d3b"/></linearGradient><linearGradient id="be" x1="1715" y1="1579.42" x2="1820.1" y2="1914.08" xlink:href="#ay"/><linearGradient id="bf" x1="1552.88" y1="1668.7" x2="1902.76" y2="1473.71" xlink:href="#aw"/><linearGradient id="bg" x1="1602.98" y1="1789.03" x2="1738.5" y2="1719.89" xlink:href="#ay"/><linearGradient id="bh" x1="1604.96" y1="1682.47" x2="2008.31" y2="1514.68" gradientTransform="matrix(1, 0, 0, 1, 0, 0)" gradientUnits="userSpaceOnUse"><stop offset="0" stop-color="#60cdf9"/><stop offset=".1" stop-color="#5ebef5"/><stop offset=".52" stop-color="#5a88e7"/><stop offset=".83" stop-color="#5766de"/><stop offset="1" stop-color="#565adb"/></linearGradient><linearGradient id="bi" x1="1553.97" y1="1767.72" x2="1975.75" y2="1769.11" xlink:href="#ay"/><linearGradient id="bj" x1="1660.08" y1="1672.64" x2="1957.41" y2="1461.05" xlink:href="#bh"/><linearGradient id="bk" x1="1770.51" y1="1666.05" x2="1622.55" y2="1668.82" gradientTransform="matrix(1, 0, 0, 1, 0, 0)" gradientUnits="userSpaceOnUse"><stop offset="0" stop-color="#767aa4"/><stop offset=".55" stop-color="#5c6080"/><stop offset="1" stop-color="#4b4f69"/></linearGradient><linearGradient id="bl" x1="1558.22" y1="1642.31" x2="1655.24" y2="1642.31" xlink:href="#bk"/><linearGradient id="bm" x1="1626.49" y1="1562.7" x2="1654.14" y2="1716.2" xlink:href="#bk"/><linearGradient id="bn" x1="1592.07" y1="1638.78" x2="1614.61" y2="1638.78" xlink:href="#at"/></defs><g id="a"><g><rect class="dd" width="4000" height="2183.75"/><g class="ea"><rect class="cx" y="1566.7" width="4000" height="617.05" transform="translate(4000 3750.46) rotate(180)"/></g></g><g><path class="ec" d="M830.4,437.78c0,3.06-2.48,5.54-5.54,5.54s-5.54-2.48-5.54-5.54,2.48-5.54,5.54-5.54,5.54,2.48,5.54,5.54Z"/><path class="bx" d="M1904.15,1186.43c0,4.79-3.88,8.67-8.66,8.67s-8.66-3.88-8.66-8.67,3.88-8.66,8.66-8.66,8.66,3.88,8.66,8.66Z"/><path class="ci" d="M332.2,569.93c0,3.06-2.48,5.54-5.54,5.54s-5.54-2.48-5.54-5.54,2.48-5.54,5.54-5.54,5.54,2.48,5.54,5.54Z"/><path class="ds" d="M1335.03,448.86c0,3.06-2.48,5.54-5.54,5.54s-5.54-2.48-5.54-5.54,2.48-5.54,5.54-5.54,5.54,2.48,5.54,5.54Z"/><path class="dw" d="M1107.11,809.45c0,3.06-2.48,5.54-5.54,5.54s-5.54-2.48-5.54-5.54,2.48-5.54,5.54-5.54,5.54,2.48,5.54,5.54Z"/><g><path class="cv" d="M595.64,755.42c-1.2,0-2.17-.97-2.17-2.17v-15.35c0-1.2,.97-2.17,2.17-2.17s2.17,.97,2.17,2.17v15.35c0,1.2-.97,2.17-2.17,2.17Z"/><path class="e`" d="M603.31,747.74h-15.35c-1.2,0-2.17-.97-2.17-2.17s.97-2.17,2.17-2.17h15.35c1.2,0,2.17,.97,2.17,2.17s-.97,2.17-2.17,2.17Z"/></g><g><path class="bs" d="M2018.49,441.4c-1.2,0-2.17-.97-2.17-2.17v-15.35c0-1.2,.97-2.17,2.17-2.17s2.17,.97,2.17,2.17v15.35c0,1.2-.97,2.17-2.17,2.17Z"/><path class="dq" d="M2026.16,433.73h-15.35c-1.2,0-2.17-.97-2.17-2.17s.97-2.17,2.17-2.17h15.35c1.2,0,2.17,.97,2.17,2.17s-.97,2.17-2.17,2.17Z"/></g><g><path class="bq" d="M1777.53,358.14c-1.2,0-2.18-.97-2.18-2.17v-15.35c0-1.2,.98-2.17,2.18-2.17s2.18,.97,2.18,2.17v15.35c0,1.2-.98,2.17-2.18,2.17Z"/><path class="cb" d="M1785.2,350.47h-15.35c-1.2,0-2.18-.97-2.18-2.17s.98-2.17,2.18-2.17h15.35c1.2,0,2.18,.97,2.18,2.17s-.98,2.17-2.18,2.17Z"/></g><g><path class="cd" d="M2138.49,848.21c-1.2,0-2.18-.97-2.18-2.17v-15.35c0-1.2,.98-2.17,2.18-2.17s2.18,.97,2.18,2.17v15.35c0,1.2-.98,2.17-2.18,2.17Z"/><path class="du" d="M2146.17,840.54h-15.35c-1.2,0-2.18-.97-2.18-2.17s.98-2.17,2.18-2.17h15.35c1.2,0,2.18,.97,2.18,2.17s-.98,2.17-2.18,2.17Z"/></g><g><path class="dn" d="M1399.32,301.45c-1.2,0-2.18-.97-2.18-2.17v-15.35c0-1.2,.98-2.17,2.18-2.17s2.18,.97,2.18,2.17v15.35c0,1.2-.98,2.17-2.18,2.17Z"/><path class="bw" d="M1406.99,293.78h-15.35c-1.2,0-2.18-.97-2.18-2.17s.98-2.17,2.18-2.17h15.35c1.2,0,2.18,.97,2.18,2.17s-.98,2.17-2.18,2.17Z"/></g><path class="cf" d="M1740.42,929.92c0,3.06-2.48,5.54-5.54,5.54s-5.54-2.48-5.54-5.54,2.48-5.54,5.54-5.54,5.54,2.48,5.54,5.54Z"/><g><path class="dp" d="M1914,715.28c-1.2,0-2.18-.97-2.18-2.17v-15.35c0-1.2,.98-2.17,2.18-2.17s2.18,.97,2.18,2.17v15.35c0,1.2-.98,2.17-2.18,2.17Z"/><path class="da" d="M1921.68,707.6h-15.35c-1.2,0-2.18-.97-2.18-2.17s.98-2.17,2.18-2.17h15.35c1.2,0,2.18,.97,2.18,2.17s-.98,2.17-2.18,2.17Z"/></g><g><path class="dt" d="M235.04,1204.94c-1.2,0-2.18-.97-2.18-2.17v-15.35c0-1.2,.98-2.17,2.18-2.17s2.18,.97,2.18,2.17v15.35c0,1.2-.98,2.17-2.18,2.17Z"/><path class="d`" d="M242.71,1197.27h-15.35c-1.2,0-2.18-.97-2.18-2.17s.98-2.17,2.18-2.17h15.35c1.2,0,2.18,.97,2.18,2.17s-.98,2.17-2.18,2.17Z"/></g><g><path class="ct" d="M514.61,1031.28c-1.2,0-2.18-.97-2.18-2.17v-15.35c0-1.2,.98-2.17,2.18-2.17s2.18,.97,2.18,2.17v15.35c0,1.2-.98,2.17-2.18,2.17Z"/><path class="c`" d="M522.28,1023.61h-15.35c-1.2,0-2.18-.97-2.18-2.17s.98-2.17,2.18-2.17h15.35c1.2,0,2.18,.97,2.18,2.17s-.98,2.17-2.18,2.17Z"/></g><ellipse class="dk" cx="1130.74" cy="1856.71" rx="963.72" ry="102.87"/></g></g><g id="ag"/><g id="ah"><g><g><g><path class="bu" d="M1331.89,781.05l-10.93,22.07,8.75,4.34c-2.38,8.6-2.94,17.42-1.77,25.95l-9.23,3.12,7.87,23.34,9.24-3.12c4.24,7.49,10.02,14.17,17.13,19.57l-4.34,8.75,22.07,10.93,4.33-8.75c8.6,2.38,17.42,2.93,25.95,1.77l3.12,9.23,23.34-7.87-3.12-9.24c7.49-4.24,14.17-10.02,19.56-17.13l8.76,4.34,10.93-22.07-8.75-4.34c2.38-8.6,2.93-17.42,1.77-25.95l9.24-3.12-7.88-23.34-9.23,3.12c-4.24-7.49-10.03-14.17-17.13-19.57l4.33-8.76-22.07-10.93-4.34,8.75c-8.6-2.38-17.42-2.93-25.95-1.77l-3.11-9.23-23.34,7.87,3.12,9.23c-7.49,4.25-14.17,10.03-19.57,17.13l-8.76-4.33Zm78.88,6.27c20.64,10.23,29.08,35.25,18.86,55.89-10.23,20.64-35.25,29.08-55.89,18.86-20.64-10.23-29.08-35.25-18.86-55.89,10.23-20.64,35.24-29.08,55.89-18.86Z"/><path class="di" d="M1387.93,833.44c4.83,2.39,10.68,.42,13.08-4.41,2.39-4.83,.42-10.68-4.41-13.08-4.83-2.39-10.68-.42-13.08,4.41-2.4,4.83-.42,10.69,4.41,13.08Z"/></g><g><path class="db" d="M1420.85,557.51l-18.01,36.35,14.42,7.14c-3.92,14.17-4.83,28.68-2.91,42.73l-15.21,5.13,12.97,38.43,15.21-5.13c6.99,12.33,16.51,23.33,28.21,32.23l-7.14,14.42,36.35,18.01,7.14-14.42c14.17,3.92,28.68,4.83,42.73,2.92l5.13,15.21,38.43-12.97-5.13-15.21c12.33-6.99,23.33-16.51,32.23-28.21l14.42,7.14,18.01-36.35-14.42-7.14c3.92-14.17,4.83-28.68,2.92-42.73l15.21-5.13-12.97-38.44-15.21,5.13c-6.99-12.33-16.51-23.33-28.21-32.23l7.15-14.42-36.35-18.01-7.14,14.42c-14.16-3.92-28.69-4.83-42.73-2.92l-5.13-15.2-38.44,12.97,5.13,15.21c-12.33,6.99-23.33,16.51-32.22,28.21l-14.42-7.14Zm129.91,10.33c33.99,16.84,47.9,58.05,31.06,92.04-16.84,33.99-58.05,47.9-92.04,31.06-34-16.84-47.9-58.05-31.06-92.05,16.84-34,58.05-47.9,92.05-31.06Z"/><path class="dv" d="M1513.13,643.8c7.95,3.94,17.6,.69,21.53-7.27,3.94-7.96,.69-17.6-7.26-21.54-7.96-3.94-17.6-.68-21.54,7.27-3.94,7.95-.69,17.6,7.27,21.54Z"/></g></g><g><g><path class="dm" d="M1934.43,1283.71c-48.03-18.27-4.73-39.65,25.42-48.18,24.39-6.9,85.47-18.15,60.68-59.78-25.97-43.61-50.84,10.25-71.5,16.33-46.16,13.59,1.88-44.32,13.34-59.76,15.71-21.15,48.76-64.38,7.95-71.58-33-5.82-67.18,40.16-80.87,63.08-9.76,16.34-33.76,92.87-58.74,75.9-18.91-12.84,.65-89.47-44.49-34.7-18.36,22.27-15.4,58.05-23.67,83.53-12.12,37.31-17.23,52.78-50.35,43.2-17.17-4.96-17.72-26.51-38.9-11.96-10.91,7.49-14.14,41.97-14.05,53.94,.85,109.98,44.82,183.64,65.57,193.13,28.08,12.86,80.27-5.71,104.28-19.51,11.94-6.86,33.72-18.19,32.18-35.58-1.72-19.51-31.84-16.7-32.96-28.16-3.17-32.5,56.61-1.45,73.17-6.08,21.44-6,56.95-44.3,34.46-64.56-2.31-2.08-95.75-8.85-42.3-38.6,29.59-16.47,61.33,29.23,89.88-3.22,41.09-46.69-31.1-40.59-49.11-47.45Z"/><path class="dx" d="M1926.46,1301.01c-20.64-8.71-41.97-16.58-64.44-18.49,15.81-19.75,32.38-39.32,44.41-61.25,3.39-6.18-6.72-10.46-10.09-4.31-1.47,2.67-3.1,5.27-4.69,7.89-1.73-6.7,.34-16.71,.97-22.06,1.62-13.81,6.82-26.22,12.25-38.89,2.78-6.49-7.3-10.81-10.08-4.31-7.05,16.43-12.61,32.13-13.85,50.09-.61,8.83-1.14,18.4,3.99,25.7-17,25.22-38.17,48.45-55.89,72.92-7.58-12.01-13.14-24.51-15.7-38.73-2.79-15.49-.9-31.23-2.51-46.83-.72-7.02-11.61-5.67-10.89,1.36,1.93,18.75-.27,37.17,4.45,55.65,3.55,13.93,9.92,26.25,17.83,38.15-20.37,29.45-39.19,60.07-54.65,92.4-5.14,10.74-9.83,21.68-14.37,32.7-10.23-15.29-18.71-31.25-24.6-48.82-3.28-9.77-6.91-20.13-8.22-30.36-.99-7.75-.17-15.07-3.23-22.43-2.71-6.52-12.89-2.45-10.18,4.08,3.74,9.01,2.48,20.75,4.85,30.39,2.29,9.3,5.13,18.53,8.35,27.55,6.6,18.45,16.32,35.18,27.54,51.17,.16,.23,.38,.33,.55,.52-7.66,19.03-15.15,38.14-23.67,56.75-.68,.53-1.29,1.2-1.69,2.21-.82,2.09-2.44,4.97-2.97,7.51-15.23,38.45-30.57,76.87-45.31,115.5-2.51,6.58,7.56,10.93,10.09,4.31,14.69-38.5,29.97-76.79,45.15-115.1,.09-.16,.22-.26,.31-.44,4.87-10.04,9.34-20.26,13.65-30.57,19.95,5.07,42.14-.76,60.75-8.23,6.56-2.63,2.48-12.82-4.08-10.18-16.18,6.5-34.92,11.55-52.4,8.11,9.6-23.57,18.64-47.4,29.57-70.35,4.35-9.13,9.01-18.1,13.87-26.96,.36,.26,.65,.56,1.12,.74,27.21,11.04,56.57,15.47,85.69,10.89,6.96-1.09,5.64-11.99-1.37-10.89-27.29,4.29-54.5,.27-80.01-10.09-.05-.02-.1,0-.15-.03,14.99-26.14,31.87-51.2,49.61-75.56,3.02-4.15,6.17-8.24,9.36-12.32,.63,1.51,1.9,2.72,4.1,2.9,21.81,1.74,42.27,9.33,62.27,17.78,6.5,2.74,10.83-7.34,4.31-10.09Z"/></g><path class="cn" d="M1639.73,1764.02c28.01-30.03,51.93-62.01,81.6-89.86-25.63-40.61-35.67-116.81-29.15-124.78,14.65-17.9,33.14,9.99,36.78,23.56,6.6,24.55,3.05,75.92-1.23,95.37,3.52-3.14,7.1-6.24,10.81-9.25,8.14-6.6,16.27-13.24,24.41-19.87-7.58-14.39-25.27-44.2-15.42-92.72,1.65-8.14,4.59-18.81,13.27-21.96,12.04-4.38,12.93,9.12,13.25,17.66,.56,14.65-.99,64.92-.4,88.31,16.28-13.28,32.59-26.56,48.95-39.74-9.19-30.11-20.16-66.66-6.69-97.25,8.82-20.01,24.57-3.33,28.07,9.9,6.27,23.7,1.64,51.48-6.8,75.66,7.74-6.19,15.48-12.38,23.26-18.49,1.39-1.09,2.81-2.16,4.2-3.24-5.78-14.4-12.89-27.66-13.45-43.72-.55-15.82,6.34-30.22,16.51-41.96,4.48-5.18,9.21-12.08,16.71-12.96,10.53-1.23,6.11,10.03,4.13,16.89-4.21,14.61-7.66,29.73-10.24,44.64-1.43,8.24-3.02,15.91-5.12,23.74-.54,2.02-.87,4.83-1.2,7.7,11.16-8.54,22.5-16.9,34.03-25.04-.72-26.58-1.4-58.73,16.42-80.59,11.69-14.34,20.79,2.81,20.67,14.38-.19,17.96-7.73,36.58-17.75,52.83,5.09-3.44,10.2-6.84,15.35-10.19,8.73-29.91,19.12-67.08,46.96-84.92,17.72-11.35,21.54,10.84,17.33,23.49-4.15,12.49-11.64,24.16-20.8,34.62,2.44-1.43,4.87-2.88,7.32-4.29,5.75-3.3,11.58-6.35,17.48-9.21,3.95-26.37,8.83-58.36,30.3-76.86,14.01-12.08,19.98,6.39,17.84,17.77-3.4,18.06-14.5,35.47-27.6,49.92,9.21-3.8,18.53-7.29,27.91-10.61,6.5-20.78,14.5-45.85,34.1-58.05,12.86-8,15.36,7.69,12.19,16.63-4.59,12.97-14.33,24.67-25.45,34.26,10.33-3.47,20.69-6.91,31.03-10.5,5.98-7.78,12.88-15.53,19.04-22.13,7.27-7.8,16.56-15.36,27.98-14.38,15.05,1.29,18,11.93,9.56,23.67-3.86,5.36-9.01,8.91-14.8,11.46,5.85,1.1,11.29,3.33,14.91,6.7,9.9,9.25,.83,18.2-9.91,20.26-11.96,2.29-24.28-2.22-35.88-4.49-8.59-1.68-17.68-.84-26.29-1.62-6.86,2.31-13.71,4.61-20.53,6.95,17.81-1.12,37.37,1.01,52.09,9.72,8.16,4.83,16.3,18.48,1.3,20.58-24.07,3.37-47.43-12.45-66.26-24.53l-.21-1.17c-19.19,6.87-38.11,14.46-56.43,24.17,6.15,0,12.18,.61,17.92,2.06,10.46,2.64,23.75,14.9,8.06,22.03-20.15,9.16-43.77,4.75-64.93-1.02-19.05,11.92-37.77,24.47-56.08,37.55,19.97-7.01,42.7-10.85,62.25-5.91,11.21,2.83,25.46,15.97,8.64,23.62-26.99,12.27-59.79,1.84-86-5.78l-.35-.69c-8.49,6.29-16.91,12.66-25.19,19.17-4.01,3.15-7.94,6.38-11.91,9.56,27.32-10.27,58.23-16.5,84.4-10.97,14.98,3.16,33.54,19.77,10.47,30.69-36.88,17.46-80.42,5.51-115.31-3.21-11.36,9.31-22.7,18.65-34.05,27.98,27.1-.95,83.18-6.27,101.41-6.49,8.53-.1,28.53,1.92,23.73,15.65-2.66,7.6-18.09,14.06-25.51,15.82-16.55,3.94-77.4-1.7-117.18-10.65-8.09,6.55-16.21,13.08-24.44,19.48-3.05,2.37-6.01,4.79-8.94,7.23,40-4.92,118.67-9.31,137.61-3.07,9.63,3.17,24.58,10.82,22.18,23.09-2.48,12.72-21.95,11.98-31.94,14.03-23.01,4.73-95.88-7.65-109.01-11.88-10.16-3.27-20.02-8.86-29.83-12.62-6.5,5.87-12.74,11.89-18.8,18.04,31.46,6.49,103.41,16.29,125.92,21.29,10.23,2.28,33.61,10.32,24.01,25.41-5.33,8.35-25.61,11.74-34.99,11.77-19.86,.07-85.09-21.44-130.23-42.36-18.67,20.29-36.31,41.47-55.74,62.3-5.88,6.3-16.21-2.26-10.32-8.58Z"/></g><g><g><path class="br" d="M533.03,1512.69s-99.69-107.61-253.17-79.97c0,0,23.92,134.22,109.07,228.65,85.16,94.43,144.1-148.68,144.1-148.68Z"/><path class="cg" d="M490.21,1616.85s-67.5-88.35-138.38-132.1c0,0,73.41,67.23,138.55,164.03l-.17-31.93Z"/></g><g><path class="ca" d="M519.66,1743.51s-104-153.22-35.76-262.79,123.74-124.78,123.74-124.78c0,0,128.76,219.36,7.81,387.05l-95.79,.52Z"/><path class="cg" d="M537.55,1722.38s68.43-173.33,53.71-332.31c0,0,36.17,171.81-39.16,335.19l-14.55-2.88Z"/></g><g><path class="dj" d="M583.98,1688.64c-143.87-145.02-309.38-58.13-415.82-48.07,0,0,71.57,199.94,293.1,189.18,84.05-12.08,176.85-29.85,122.72-141.11Z"/><path class="cg" d="M526.25,1736.25s-129.76-69.34-256.8-54.8c0,0,192.6,19.75,251.82,80.73l4.98-25.93Z"/></g></g><g><path class="ch" d="M1717.84,961.84H565.61c-12.42,0-22.59,10.15-22.59,22.59v835.93H1740.43V984.43c0-12.44-10.17-22.59-22.59-22.59Z"/><path class="do" d="M588.2,1007.02H1695.25v700.37H588.2V1007.02Z"/><g><path class="dl" d="M520.42,1809.07h-45.19c-6.23,0-11.3-5.06-11.3-11.3s5.06-11.3,11.3-11.3h45.19c6.23,0,11.3,5.06,11.3,11.3s-5.06,11.3-11.3,11.3Z"/><path class="dl" d="M610.79,1809.07h-45.19c-6.23,0-11.3-5.06-11.3-11.3s5.06-11.3,11.3-11.3h45.19c6.23,0,11.3,5.06,11.3,11.3s-5.06,11.3-11.3,11.3Z"/><path class="dl" d="M701.16,1809.07h-45.19c-6.23,0-11.3-5.06-11.3-11.3s5.06-11.3,11.3-11.3h45.19c6.23,0,11.3,5.06,11.3,11.3s-5.06,11.3-11.3,11.3Z"/><path class="dl" d="M791.54,1809.07h-45.19c-6.23,0-11.3-5.06-11.3-11.3s5.06-11.3,11.3-11.3h45.19c6.23,0,11.3,5.06,11.3,11.3s-5.06,11.3-11.3,11.3Z"/><path class="dl" d="M881.91,1809.07h-45.19c-6.23,0-11.3-5.06-11.3-11.3s5.06-11.3,11.3-11.3h45.19c6.23,0,11.3,5.06,11.3,11.3s-5.06,11.3-11.3,11.3Z"/><path class="dl" d="M972.28,1809.07h-45.19c-6.23,0-11.3-5.06-11.3-11.3s5.06-11.3,11.3-11.3h45.19c6.23,0,11.3,5.06,11.3,11.3s-5.06,11.3-11.3,11.3Z"/><path class="dl" d="M1356.35,1809.07h-45.19c-6.23,0-11.3-5.06-11.3-11.3s5.06-11.3,11.3-11.3h45.19c6.23,0,11.3,5.06,11.3,11.3s-5.06,11.3-11.3,11.3Z"/><path class="dl" d="M1265.98,1809.07h-248.72c-6.24,0-11.3-5.06-11.3-11.3s5.05-11.3,11.3-11.3h248.72c6.23,0,11.3,5.06,11.3,11.3s-5.06,11.3-11.3,11.3Z"/><path class="dl" d="M1446.73,1809.07h-45.19c-6.23,0-11.3-5.06-11.3-11.3s5.06-11.3,11.3-11.3h45.19c6.23,0,11.3,5.06,11.3,11.3s-5.06,11.3-11.3,11.3Z"/><path class="dl" d="M1537.1,1809.07h-45.19c-6.23,0-11.3-5.06-11.3-11.3s5.06-11.3,11.3-11.3h45.19c6.23,0,11.3,5.06,11.3,11.3s-5.06,11.3-11.3,11.3Z"/><path class="dl" d="M1627.47,1809.07h-45.19c-6.23,0-11.3-5.06-11.3-11.3s5.06-11.3,11.3-11.3h45.19c6.23,0,11.3,5.06,11.3,11.3s-5.06,11.3-11.3,11.3Z"/><path class="dl" d="M1717.84,1809.07h-45.19c-6.23,0-11.3-5.06-11.3-11.3s5.06-11.3,11.3-11.3h45.19c6.23,0,11.3,5.06,11.3,11.3s-5.06,11.3-11.3,11.3Z"/><path class="dl" d="M1808.21,1809.07h-45.19c-6.23,0-11.3-5.06-11.3-11.3s5.06-11.3,11.3-11.3h45.19c6.23,0,11.3,5.06,11.3,11.3s-5.06,11.3-11.3,11.3Z"/></g><path class="dc" d="M1853.39,1797.77v45.19c0,25.05-20.11,45.19-45.19,45.19H475.24c-25.05,0-45.19-20.13-45.19-45.19v-45.19H1853.39Z"/><path class="ce" d="M1265.9,1797.77h-259.84v11.3c0,6.21,5.09,11.3,11.3,11.3h248.54c6.21,0,11.3-5.09,11.3-11.3v-11.3h-11.3Z"/><g><path class="ck" d="M1293.42,1398.93c-18.23-18.08-41.08-18.08-59.31,0-13.89,13.74-27.79,27.49-41.38,41.53-3.73,3.88-6.87,4.63-11.5,2.09-8.96-4.93-18.52-8.81-27.19-14.19-40.19-25.25-73.95-57.81-103.83-94.56-14.79-18.23-28.09-37.65-37.2-59.61-1.79-4.48-1.64-7.32,2.09-10.91,13.89-13.44,27.49-27.19,41.08-40.93,18.97-19.12,18.97-41.53-.15-60.8-10.76-10.91-21.66-21.81-32.57-32.57-11.2-11.2-22.26-22.41-33.61-33.61-18.37-17.93-41.08-18.08-59.46,0-13.89,13.74-27.49,27.94-41.53,41.38-13.15,12.55-19.87,27.79-21.21,45.71-2.09,28.98,4.93,56.47,14.94,83.21,20.62,55.27,51.84,104.27,89.63,149.39,51.09,60.95,112.34,109.05,183.9,143.86,32.12,15.69,65.58,27.64,101.88,29.58,24.95,1.34,46.76-4.93,64.09-24.35,11.95-13.3,25.25-25.4,37.95-38.09,18.67-18.82,18.82-41.68,.3-60.35-22.41-22.41-44.67-44.52-66.93-66.78Z"/><path class="dy" d="M1519.74,936.27c-88.44-88.44-231.7-88.44-320.14,0-85.15,85.15-88.29,221.1-9.56,309.98l2.24,1.94c-8.52,18.52-23.3,41.23-46.61,52.73-7.77,3.73-5.98,15.24,2.54,16.58,25.55,4.03,62.15-.45,96.21-26.29l.45,.45c86.8,51.09,200.18,39.29,274.73-35.26,88.59-88.44,88.59-231.7,.15-320.14Z"/><g><path class="eb" d="M1421.74,1205.32c-.75,3.14-2.84,6.42-5.08,8.81-13.45,13.59-29.43,21.66-48.7,21.96-8.96,.15-18.08-.15-26.89-1.49-14.79-2.09-33.46-20.32-30.77-39.89,1.79-13.3,3.88-26.59,6.12-39.89,3.88-23.01,8.07-46.16,12.1-69.17,.3-1.49,.3-2.99,.3-4.48,0-9.71-2.99-13-12.55-14.34-4.03-.6-8.37-.9-12.1-2.24-4.78-1.64-6.87-5.38-6.42-9.26,.45-4.03,2.99-6.57,8.22-7.62,2.69-.6,5.53-.6,8.37-.6h69.91c8.66,0,13.74,4.03,14.04,12.7,.15,7.17-1.05,14.34-2.39,21.51-4.63,26.29-9.56,52.59-14.34,79.03-1.64,8.66-3.44,17.48-4.33,26.14-.45,4.18,.15,8.66,1.19,12.7,1.34,5.53,5.53,8.52,11.05,7.92,4.63-.6,9.26-2.24,13.74-3.88,3.59-1.34,6.72-3.88,10.46-5.23,4.93-1.94,9.41,1.79,8.07,7.32Z"/><path class="cc" d="M1369.31,956.59c20.32,.15,36.6,16.73,36.45,37.35-.15,20.47-16.73,37.05-36.6,36.9-20.62-.15-37.2-17.03-37.05-37.5,.15-20.47,16.73-36.9,37.2-36.75Z"/></g></g></g><g><circle class="cm" cx="477.06" cy="896.71" r="220.81"/><circle class="cy" cx="477.06" cy="896.71" r="184.86"/><path class="dh" d="M427.57,940.54c0-27.22,35.29-31.57,35.29-46.57,0-6.59-5.1-10.53-11.48-10.53-8.82,0-13.61,8.93-13.61,8.93l-10.21-6.8s6.91-15.1,24.98-15.1c13.29,0,24.56,8.08,24.56,22.33,0,24.24-33.81,28.39-34.13,42.64h35.29v11.8h-50.07c-.32-2.44-.64-4.57-.64-6.7Zm58.4-21.16l32.53-47.63h16.27v44.65h9.78v11.38h-9.78v19.45h-13.5v-19.45h-35.29v-8.41h0Zm35.29-2.98v-23.38c0-3.72,.54-7.87,.54-7.87h-.22s-1.7,4.03-3.72,6.91l-17.44,24.14v.21h20.84Zm66.59-4l-2.63,9.41c-14.93,53.49-69.42,87.24-123.32,73.86-51.77-12.85-83.94-63.01-76.21-114.12l15.6,4.35c3.62,1.01,6.97-2.27,6.03-5.91l-16.96-66.06c-.93-3.64-5.45-4.9-8.14-2.27l-48.73,47.72c-2.68,2.63-1.52,7.17,2.1,8.18l16.98,4.74c-12.67,69.13,29.98,137.99,99.58,156.11,72.27,18.82,145.98-25.91,166.06-97.84l2.51-9c.72-2.59-.79-5.28-3.39-6.01l-23.49-6.56c-2.59-.72-5.28,.79-6.01,3.39Zm27.75-41.16l-24.63,3.2c-2.67,.35-4.55,2.79-4.21,5.46l.97,7.47c.35,2.67,2.79,4.55,5.46,4.21l24.63-3.2c2.67-.35,4.55-2.79,4.21-5.46l-.97-7.47c-.35-2.67-2.79-4.55-5.46-4.21Zm-18.96-46.54l-21.64,12.19c-2.35,1.32-3.18,4.3-1.85,6.64l3.7,6.56c1.32,2.35,4.3,3.18,6.64,1.85l21.64-12.19c2.35-1.32,3.18-4.3,1.85-6.64l-3.7-6.56c-1.32-2.35-4.3-3.18-6.64-1.85Zm-35.01-36.05l-15.49,19.41c-1.68,2.1-1.34,5.17,.77,6.85l5.89,4.7c2.1,1.68,5.17,1.34,6.85-.77l15.49-19.41c1.68-2.11,1.34-5.17-.77-6.85l-5.89-4.7c-2.1-1.68-5.17-1.34-6.85,.77Zm-45.97-20.31l-7.09,23.8c-.77,2.58,.7,5.3,3.28,6.07l7.22,2.15c2.58,.77,5.3-.7,6.07-3.28l7.09-23.8c.77-2.58-.7-5.3-3.28-6.07l-7.22-2.15c-2.58-.77-5.3,.7-6.07,3.28Zm-50.23-1.61l2.34,24.73c.25,2.68,2.63,4.65,5.31,4.4l7.5-.71c2.68-.25,4.65-2.63,4.4-5.31l-2.34-24.73c-.25-2.68-2.63-4.65-5.31-4.4l-7.5,.71c-2.68,.25-4.65,2.63-4.4,5.31Zm-47.17,17.32l11.43,22.05c1.24,2.39,4.18,3.32,6.57,2.08l6.69-3.47c2.39-1.24,3.32-4.18,2.08-6.57l-11.43-22.05c-1.24-2.39-4.18-3.32-6.57-2.08l-6.69,3.47c-2.39,1.24-3.32,4.18-2.08,6.57Z"/></g><g><g><path class="cq" d="M1820.4,1897.03h-108.36c0-5.56,2.26-10.59,5.9-14.23,3.64-3.65,8.67-5.9,14.23-5.9h.19s23-3,23-21.78v-112.07h21.74v112.07c0,18.78,23,21.78,23,21.78h.19c11.12,0,20.13,9.01,20.13,20.13Z"/><path class="bp" d="M1870.42,1743.05h-208.41c3.44-19.02,20.03-32.83,39.36-32.78l64.85,.17,64.85-.17c19.33-.06,35.91,13.76,39.36,32.78Z"/></g><g><path class="de" d="M1734.74,1526.2c-5.35,18.57-32.32,66.95-42.79,73.88-13.63,9.03-56.36,25.97-78.59,34.61-4.01,1.56,10.86,18.04,10.86,18.04,0,0,57.48-13.73,80.9-27.77,6.62-3.97,20.98-17.46,39.15-44.5,5.51-8.2,18.26-24.49,19.68-36.13,1.63-13.39-14.43-22.61-29.22-18.13Z"/><path class="co" d="M1670.51,1857.33l.74,21.51s-5.32,3.94-16.31,1.98l-4.49-23.13,20.06-.36Z"/><path class="cs" d="M1659.31,1877.13s-3.48-4.28-6.31-4.13c-2.82,.14-18.77,15.25-26.24,16.42-7.47,1.17-7.1,9.42-4.17,10.36,3.35,1.07,52.55,.12,52.55,.12,0,0,2.1-17.45,.28-22.17-1.82-4.72-10.3,.58-16.11-.6Z"/><path class="cr" d="M1726.74,1673.99s-83.25-13.74-108.25,1.92c-18.96,11.87,29.88,187.2,29.88,187.2,8.7,2.71,20.78-1.06,25.5-5.78,0,0,7.68-20.69,.63-80.55-.94-7.95,0-26.1-8.47-58.24l63.37-27.98-2.65-16.57Z"/><path class="cj" d="M1800.87,1502.52s23.07,7.07,35.4,17.25c12.33,10.17,2.02,40.52,2.32,57.76,.3,17.23-2.73,117.29-29.01,129.86-19.85,9.49-103.41-4.92-97.3-30.5,4.06-17.01,11.77-48.28,17.12-90.59,3.53-27.9,2.04-48.52,5.35-60.1,3.31-11.58,41.93-24.86,41.93-24.86l24.19,1.19Z"/><path class="cs" d="M1744.61,1455.97c3.27,17.39,21.52,28.9,40.75,25.71,19.23-3.19,30.31-19.67,27.04-37.06-3.27-17.39-19.66-29.11-38.89-25.91-19.23,3.19-32.17,19.88-28.9,37.27Z"/><path class="co" d="M1816.31,1451.66c-2.02-1.97-4.27-1.58-6.23-.42-.04,.02-.06,.05-.1,.07-.28-2.92-.63-5.78-.98-8.37-.99-7.29-6.86-13.18-14.56-14.59-11.1-2.02-27.44-2.37-40.9,8.07-4.97,3.86-7.4,9.88-6.41,15.87,.43,2.54,1.02,5.52,1.78,8.7-1.47,0-2.93,.68-3.94,2.82-2.52,5.33,3.62,17.51,11.11,17.06,4.26,8.08,10.24,14.88,18.65,17.06l1.95,10.35s5.67,7.03,12.49,5.31c6.83-1.71,12.56-10,12.56-10l-1.94-10.31c6.14-5.37,8.76-13.64,9.96-20.6,.04-.23,.07-.45,.1-.68,10.28,2.17,11.44-15.52,6.47-20.34Z"/><path class="co" d="M1717.14,1857.33l.74,21.51s-5.32,3.94-16.31,1.98l-4.49-23.13,20.06-.36Z"/><path class="cs" d="M1705.18,1877.14s-3.48-4.28-6.31-4.13c-2.82,.14-18.77,15.25-26.24,16.42-7.47,1.17-7.1,9.42-4.17,10.36,3.34,1.07,52.55,.12,52.55,.12,0,0,2.1-17.45,.28-22.17-1.82-4.72-10.3,.58-16.11-.6Z"/><path class="cw" d="M1676.85,1802.73s-27.24-72.96-27.05-110.59c.07-15.18,2.1-16.53,15.21-17.66,13.11-1.13,11.84,128.26,11.84,128.26Z"/><path class="cu" d="M1827.19,1675.99s-144.37-7.94-169.15-.08c-21.32,6.76,36.96,187.2,36.96,187.2,8.7,2.71,20.78-1.06,25.5-5.78,0,0,4.43-10.77-2.62-70.63-.94-7.95-1.93-32.76-10.4-64.89l95.77,.48c20.52,0,27.01-17.3,24.85-37.71l-.91-8.59Z"/><path class="co" d="M1688.11,1636.5s-21.74,3.45-30.8,10.56c-9.07,7.11-21.22,13.23-19.41,16.9,1.81,3.68,14.61-4.13,14.61-4.13,0,0,3.05,6.63,13.53,9.5,10.48,2.88,32.88-14.04,32.88-14.04l-10.81-18.8Z"/><g class="cw"><path d="M1832.13,1519.09c-12.12,17.26-58.53,76.94-69,83.87-13.63,9.03-16.92,22.29-39.14,30.92-4.01,1.56-5.98,18.28-5.98,18.28,0,0,34.88-10.28,58.3-24.33,6.62-3.97,34.18-29.9,51.75-52.89,6.02-7.88,10.77-10.81,12.47-17.32,3.42-13.09,1.91-33.7-8.39-38.54Z"/></g><g class="cw"><path d="M1831.36,1516.21c-12.12,17.26-60.68,74.59-71.15,81.52-13.63,9.03-13.12,10.49-35.34,19.13l-3.1,19.64s28.2,.14,51.62-13.9c6.62-3.97,34.18-29.9,51.75-52.89,6.02-7.88,15.81-18.82,17.22-30.45,1.63-13.39-.7-18.21-11-23.05Z"/></g><path class="cp" d="M1831.36,1516.21c-12.12,17.26-58.53,76.94-69,83.87-13.63,9.03-51.76,27.78-73.99,36.42-4.01,1.56,8.91,19.31,8.91,19.31,0,0,54.84-16.81,78.26-30.85,6.62-3.97,34.18-29.9,51.75-52.89,6.02-7.88,15.81-18.82,17.22-30.45,1.63-13.39-2.85-20.56-13.15-25.4Z"/><g><path class="bt" d="M1605.65,1660.19h116.03c1.28,0,2.31,1.04,2.31,2.31v11.1c0,1.28-1.04,2.31-2.31,2.31h-116.03c-1.28,0-2.31-1.04-2.31-2.31v-11.1c0-1.28,1.04-2.31,2.31-2.31Z"/><path class="by" d="M1594.43,1675.91c-6.88,0-13.07-4.17-15.66-10.54l-20.27-49.93c-1.38-3.4,2.51-6.73,7.86-6.73h54.02c3.64,0,6.84,1.59,7.83,3.9l27.03,63.3h-60.81Z"/><path class="cl" d="M1628.21,1612.61l26.81,62.78h6.17l-26.81-62.78c-.99-2.31-4.19-3.91-7.83-3.91h-6.17c3.65,0,6.84,1.6,7.83,3.91Z"/><path class="dr" d="M1614.32,1638.78c1.4,6.06-2.37,10.98-8.44,10.98s-12.12-4.92-13.52-10.98c-1.4-6.06,2.37-10.98,8.44-10.98s12.12,4.92,13.52,10.98Z"/></g><path class="cs" d="M1810.07,1451.24s-29.21,.08-34.98-11.19c0,0,.3,6.95-3.49,11.19,0,0-10.5-10.14-14.29-5.42-3.79,4.72-3.2,22.27-8.42,15.17-12.03-16.37,8.18-31.03,8.18-31.03l29.04-5.93s26.19-1.83,23.95,27.21Z"/></g></g></g></g></svg>