<?xml version="1.0" encoding="UTF-8"?><svg id="a" xmlns="http://www.w3.org/2000/svg" viewBox="0 0 3000 2000"><defs><style>.b{fill:#333;}</style></defs><g/><path class="b" d="M2113.91,1072.51c-.22,4.81-.36,9.93-.63,14.89-.19,2.86-.38,5.75-.57,8.61-.25,2.85-.53,5.67-.88,8.4-.91,6.26-.22,9.46-1.2,15.37-.22,1.38-.44,2.77-.66,4.16-.23,1.39-.45,2.79-.68,4.19-.23,1.4-.45,2.8-.68,4.2-.25,1.4-.51,2.79-.76,4.18,.05,.86,.01,1.81-.08,2.82-.1,1.01-.25,2.08-.48,3.19-.44,2.22-1.05,4.59-1.66,6.94-.06-3.08-.13-4.57-.07-6,.03-.72,.09-1.42,.19-2.31,.09-.89,.22-1.95,.4-3.39,.34-2.8,.58-5.14,.52-6.71-.05-1.57-.34-2.36-.98-2.05,.3-1.78,.59-3.5,.87-5.15,.14-.83,.26-1.64,.38-2.44,.12-.8,.23-1.58,.34-2.35,.22-1.54,.43-3.01,.63-4.42,.2-1.41,.35-2.77,.51-4.08-.03-2.56-.2-4.46-.28-6.61-.09-2.15-.05-4.53,.37-8.05,.16-1.42,.1-4.55-.07-4.66-.55-.44-.81-2.3-1-4.53-.22-2.23-.38-4.84-.68-6.8,.11-2.06,.15-4.13,.2-6.19,.02-1.03,.05-2.05,.07-3.07,.02-1.02,.05-2.03,.04-3.03-.42-2.65-.82-5.11-1.24-7.58-.05-1.28-.12-2.59-.19-3.89-.07-1.46-.1-2.97-.13-4.5-.02-1.53-.09-3.06-.16-4.57-.07-1.5-.18-2.97-.34-4.34-.16-1.38-.42-2.66-.75-3.81-.1-1.37-.2-2.74-.3-4.12-.05-.69-.1-1.38-.16-2.08-.06-.7-.13-1.4-.2-2.1-.13-1.41-.27-2.83-.41-4.29-.07-.73-.14-1.46-.22-2.2-.09-.74-.17-1.49-.26-2.24-.53-1.7-1.09-3.75-1.65-5.57-.55-1.82-1.14-3.39-1.64-4.13-.48-.71-.82-1.57-1.09-2.69-.28-1.12-.47-2.49-.73-4.24-.46-3.1-1.04-4.85-1.7-6.78-1.31-3.64-1.65-3.7-1.64,.27,0,.95,.01,1.97,.02,2.96,.56,2.07,1.25,4.01,1.63,6.22,.39,2.35,.74,4.72,1.08,7.11,.32,2.39,.58,4.79,.87,7.2-.11,.79-.15,1.68-.14,2.64,0,.97,.03,2.01,.1,3.1,.07,1.09,.16,2.23,.26,3.39,.1,1.16,.22,2.34,.3,3.52,.04,.47-.08,1.5-.12,1.38-.19-.52-.55-1.54-.55-1.89-.09-3.37-.55-6.03-1.03-8.56-.24-1.27-.54-2.5-.79-3.78-.26-1.28-.51-2.6-.7-4.05-.48-1.34-.98-3.01-1.47-4.84-.49-1.83-.97-3.81-1.47-5.76-.53-1.95-1.06-3.88-1.61-5.6-.27-.86-.55-1.67-.83-2.4-.29-.73-.59-1.39-.89-1.96-.17,.45-.06,1.4,.12,2.51,.18,1.11,.45,2.39,.65,3.5,.31,1.74,.61,3.52,.86,5.31,.25,1.79,.49,3.59,.75,5.34,.13,.88,.27,1.75,.41,2.6,.13,.85,.27,1.69,.43,2.52,.31,1.64,.67,3.2,1.1,4.65l.16,1.49,.13,1.49c.09,.99,.17,1.99,.26,2.98,.17,1.99,.35,3.97,.47,5.95-.4,2.68-.33,5.03-.07,7.1,.24,2.07,.71,3.86,1.14,5.42,.77,2.65,.56,7.5,1.24,10.09,.29,1.12,.34,2.7,.33,4.4-.01,1.7-.09,3.53-.08,5.15,0,2.92-.13,5.87-.15,8.73-.05,2.86-.05,5.62,.24,8.18,.17,1.31-.26,6.43-.57,7.54-.59,2.16-.96,4.63-1.25,7.41-.15,1.39-.27,2.86-.44,4.39-.17,1.54-.37,3.15-.6,4.83,.1,.85,.23,1.86,.35,2.87,.11,1.02,.21,2.04,.3,2.92-.26,1.82-.46,3.23-.63,4.43-.09,.6-.17,1.14-.25,1.66-.09,.52-.18,1-.26,1.49-.4,2.17-.77,4.26-1.08,6.2-.31,1.94-.61,3.72-.78,5.3-.18,1.57-.25,2.93-.19,4,.06,1.07,.24,1.86,.62,2.31,.06,.08-.02,.96-.12,1.51-.26,1.3-.57,2.77-.89,3.88-.17,.55-.61,1.03-.62,.67-.05-3.06-.45-5.08-.69-7.59-.12-1.25-.24-2.64-.24-4.33-.01-1.69,.1-3.7,.31-6.21,.88-2.38,1.55-5.13,2.05-8.08,.23-1.48,.42-3.01,.58-4.58,.08-.78,.16-1.57,.22-2.37,.03-.4,.07-.8,.1-1.2,.02-.4,.05-.8,.07-1.21,.25-4.46,.48-7.48,.79-10.62,.16-1.57,.37-3.16,.63-4.98,.25-1.82,.53-3.85,.89-6.31,.42-2.76,.46-5.03,.16-6.97-.26-1.65-.33-4.33-.91-4.06-.2,.08-.35-.28-.44-.94-.09-.66-.12-1.62-.03-2.75,.1-1.33,.13-2.5,.11-3.58-.02-1.08-.08-2.07-.18-3.03-.19-1.92-.43-3.72-.5-5.91-.05-1.91-.05-3.92-.07-5.89-.01-.99-.04-1.97-.11-2.93-.03-.48-.07-.95-.13-1.42-.06-.46-.13-.92-.22-1.37-.18,.38-.27,.9-.31,1.51-.05,.61-.06,1.31-.04,2.04,.04,1.47,.16,3.09,.16,4.45,0,1.65,.01,3.31,.02,5.01,0,1.7,0,3.45,.01,5.29-.43,.86-.94,1.08-1.24,2.66-.31,1.58-.4,4.5-.65,7.01-.1-.74-.22-1.1-.23-1.6,0-2.53-.03-5.07,.03-7.57,.02-2.5,.11-4.96,.4-7.35,.19-1.46,.24-3.43,.22-5.23,0-1.64-.02-3.28-.15-4.54-.14-1.26-.39-2.14-.83-2.23-.36-.07-.79-2.05-1.19-3.17-.05,.51-.17,.99-.15,1.49,.45,9.94,.5,19.92,.13,29.9-.22,.47-.57,.75-.62,1.43-.1,1.24-.18,2.54-.25,3.83-.08,1.3-.14,2.6-.28,3.84-.35,3.32-.83,3.01-1.34,2.72-.11,.97-.22,1.9-.33,2.8-.11,.9-.2,1.78-.29,2.66l-.49,4.96-.25,2.48-.29,2.47-.59,4.95c-.09,.82-.21,1.63-.32,2.44l.07-.16c.21-.51,.39-1.02,.58-1.54-.03,.48-.06,.97-.09,1.46-.04,.49-.08,.97-.12,1.46-.08,.98-.16,1.96-.24,2.96-.04,.47-.08,.95-.13,1.43,.21,.21,.46,.26,.74,.14,.13-.05,.2,1.19,.1,2.03-.14,1.15-.49,3.27-.66,3.63-.49,1-.98,1.94-1.47,2.8-.1,.18-.21,.36-.31,.54-.07,.86,.29,.93,.47,1.46-.65,1.71-1.24,2.78-1.82,3.71-.58,.93-1.12,1.73-1.75,2.87-.38,1.85-.92,3.74-1.56,5.65-.65,1.91-1.44,3.83-2.25,5.79-.8,1.96-1.72,3.91-2.59,5.9-.32,.71-.62,1.42-.93,2.14-.1,.34-.19,.68-.28,1.01-.73,2.8-1.53,5.58-2.36,8.35,.07,.27,.2,.47,.41,.56-.35,.49-.67,.91-.96,1.29-.26,.86-.51,1.71-.77,2.56-.68,2.1-1.35,4.2-2.02,6.29-.17,.52-.34,1.04-.51,1.56-.18,.52-.36,1.03-.54,1.55-.36,1.03-.72,2.06-1.08,3.09-.36,1.03-.72,2.05-1.08,3.07-.37,1.02-.75,2.03-1.13,3.03-.76,2.01-1.5,4.02-2.28,5.99-.8,1.97-1.59,3.92-2.37,5.85-.2,.48-.4,.96-.59,1.44-.21,.48-.41,.95-.61,1.43-.41,.95-.82,1.89-1.23,2.83-.72,1.51-1.28,2.21-1.78,2.97-.5,.76-.96,1.58-1.47,3.33-.25,.84-.74,2.05-1.21,3.21-.24,.58-.47,1.15-.65,1.65-.2,.5-.35,.94-.43,1.27-.56,2.28-1.23,3.62-1.97,4.69-.73,1.08-1.52,1.9-2.36,3.13,.09-.54,.2-1.1,.36-1.7,.15-.61,.34-1.27,.59-2,.5-1.46,1.25-3.22,2.37-5.49,3.99-8.26,7.64-16.72,10.92-25.28,1.03-2.76,1.85-4.31,2.86-6.16,.59-1.09,1.37-3.31,1.96-5.03,.41-1.21,.74-2.33,1.01-3.4,.26-1.07,.48-2.1,.69-3.12,.15-.73,.3-1.45,.45-2.19-1.82,3.47-3.69,6.93-5.62,10.35l-.02,.05c-.3,.85-.59,1.71-.91,2.56-.32,.85-.64,1.7-.96,2.56-1.36,2.35-2.74,4.76-4.13,7.01-.71,1.98-.09,2.68-1.88,5.48-.38,.56-1.18,2.05-1.26,2.33-.31,1.19-.6,2.34-.88,3.51-.28,1.17-.56,2.35-.9,3.59-.81,1.75-1.62,3.5-2.43,5.25l-.62,1.31-.64,1.3c-.43,.87-.86,1.74-1.28,2.61-1.69,3.49-3.52,6.92-5.33,10.36-.45,.86-.93,1.71-1.4,2.56l-1.42,2.56-1.43,2.55c-.47,.85-.98,1.69-1.47,2.53-.99,1.68-1.99,3.36-2.98,5.04-1.01,1.67-2.05,3.32-3.09,4.98-.88,1.4-1.56,2.48-2.12,3.24-.55,.77-.95,1.24-1.2,1.44-.51,.4-.48-.26-.13-1.8,.08-.33,.17-.69,.27-1.05,.1-.37,.19-.75,.29-1.13,.2-.76,.4-1.52,.54-2.19,.27-1.35,.3-2.36-.38-2.38-.14,.01,1.15-2.52,1.93-3.88,1.01-1.78,1.86-2.73,2.22-2.5,.17,.11,.73-.47,1.34-.87,.45-.76,.92-1.55,1.4-2.35,.47-.8,.94-1.62,1.4-2.44,.93-1.64,1.83-3.28,2.58-4.84,1.13-2.4,1.73-4.67,2.13-6.39,.14-.6-.82,.17-1.52,1.04-1.64,2.03-2.2,2.18-1.32-.56,.81-2.52,.6-3.09-1.27-.43-.35,1.12-.71,2.22-1.06,3.33-.35,1.11-.74,2.2-1.12,3.32-.71,1.01-1.44,1.98-2.15,3.02-.25,.53-.55,1.11-.9,1.72-.42,.74-.91,1.52-1.42,2.32-.28,.63-.5,1.21-.62,1.61-.29,.94,.02,1.12,.1,1.74-.6,.7-1.11,1.31-1.59,1.87-.49,.56-.93,1.07-1.39,1.59-1.36,1.56-2.07,1.93-1.57,.43-1.11,1.17-2.45,2.5-2.85,3.15-1.13,1.73-3.04,3.92-4.69,5.91-1.68,1.96-3.09,3.72-3.15,4.68-1.51,1.5-2.96,2.81-4.33,4.1-.05,.04-.09,.09-.14,.13-.93,1.94-2.24,3.09-3.68,4.45-.24,.23-.67,.77-1.1,1.33-.44,.56-.86,1.15-1.07,1.5-1.03,1.76-1.95,3.47-2.58,4.86-.49,1.11-1.3,2.25-2.2,3.43-.9,1.17-1.92,2.35-2.88,3.48-.56,.67-1.12,1.23-1.66,1.74-.54,.51-1.08,.99-1.63,1.49-1.1,.99-2.24,2.1-3.63,3.8-.96,1.16-2,2.34-3.07,3.51-.54,.58-1.08,1.17-1.61,1.76-.27,.29-.54,.58-.81,.87-.27,.28-.55,.57-.82,.85-1.45,1.5-2.94,3.17-4.4,4.65-.72,.75-1.47,1.42-2.18,2.02-.72,.59-1.42,1.1-2.09,1.46-.59,.59-1.19,1.19-1.78,1.78l-.9,.89-.22,.22-.97,.94-.34,.33c-.92,.87-1.83,1.74-2.75,2.61-.46,.44-.91,.87-1.37,1.31-.67,.62-1.34,1.25-2.01,1.87-1.38,1.28-2.76,2.56-4.13,3.84-.37,.35-.72,.72-1.06,1.1-.31,.34-.62,.7-.95,1.07-.67,.75-1.45,1.57-2.55,2.49-.97,.8-1.93,1.62-2.89,2.43-.97,.8-1.95,1.61-2.93,2.42-.74,.6-1.47,1.2-2.2,1.79-.73,.6-1.46,1.19-2.2,1.76-1.89,1.47-3.78,2.94-5.81,4.49,.18-1.42,3.71-5.14-.77-2.9-1.64,.81-1.27,.43,1.45-1.95,.82-.72,1.5-1.41,2.78-2.62-1.68,1.15-2.92,1.94-4.16,2.84-.66,.48-1.26,.94-1.82,1.39-.56,.44-1.08,.87-1.58,1.3-.99,.86-1.89,1.72-2.89,2.65-.65,.59-1.53,1.04-2.62,1.58-1.09,.54-2.35,1.2-3.73,2.27-.93,.72-2.59,1.7-3,2.11-1.78,1.77-4.07,3.51-6.55,5.18-1.25,.81-2.54,1.61-3.83,2.39-.65,.39-1.29,.77-1.93,1.16-.64,.38-1.28,.76-1.91,1.12-3.3,1.87-6.66,3.31-9.93,4.7-.55,.23-.83-.04-.62-.37,.17-.3,.95-.99,1.77-1.5,.43-.27,.88-.53,1.33-.79,.45-.26,.91-.53,1.37-.8,.93-.53,1.87-1.06,2.79-1.59,.92-.53,1.82-1.07,2.66-1.62,.84-.55,1.59-1.15,2.25-1.76,1.38-1.29,3.29-2.48,5.13-3.61,1.83-1.16,3.61-2.25,4.77-3.26,1.63-1.38,3.31-2.76,5.06-4.11,.88-.67,1.76-1.34,2.65-2.02,.89-.67,1.77-1.38,2.66-2.08,.69-1.11,2.27-2.35,3.98-3.62,1.69-1.3,3.52-2.64,4.72-3.9,.05-.72-2.54,1.21-3.43,1.45-.86,.53-1.7,1.12-2.56,1.7-.85,.59-1.7,1.2-2.55,1.83-1.69,1.25-3.35,2.57-5.07,3.73-1.34,.92-2.74,2.05-3.88,3.03-.34,.29-.68,.58-1.01,.87-.34,.28-.67,.56-1,.84-.67,.56-1.33,1.12-1.99,1.68-.67,.56-1.34,1.11-2.04,1.67-.7,.56-1.42,1.12-2.2,1.66-1.4,.99-3.11,2-4.77,3-.83,.5-1.65,.99-2.43,1.45-.77,.47-1.49,.93-2.12,1.37-.78,.56-1.57,1.11-2.37,1.65-.4,.27-.8,.54-1.2,.81-.4,.27-.81,.52-1.22,.78-1.64,1.03-3.31,2.04-4.99,3.03-.84,.5-1.7,.97-2.56,1.44-.86,.47-1.73,.93-2.59,1.4-.87,.46-1.74,.92-2.61,1.38-.88,.45-1.77,.88-2.65,1.32-7.07,3.54-14.4,6.66-21.59,9.9-2.25,.46-4.31,.88-6.52,1.33-2.02,.4-4.42,1.25-5.85,2.19-.79,.52-1.64,1.02-2.55,1.51-.91,.49-1.89,.98-2.94,1.46-1.06,.48-2.18,.97-3.41,1.41-1.23,.45-2.55,.89-3.98,1.32-.38,.12-.84,.42-1.17,.62-.58,.34-1.26,.68-1.91,.89-.65,.21-1.26,.31-1.66,.22-.5-.12,.4-.76,.95-1.23,.33-.29,1.17-.7,1.79-1.08-.5,.06-1.03,.16-1.55,.26-.53,.1-1.06,.22-1.59,.37-1.05,.29-2.05,.66-2.9,1.12-2.54,1.43-7.51,2.55-9.85,3.92-.82,.48-4.61,1.03-5.04,.65-.26-.22-.65-.34-1.34-.3-.35,.02-.77,.07-1.28,.17-.26,.05-.54,.11-.85,.18-.31,.06-.64,.14-1.01,.22-1.75,.41-4.31,.86-5.11,1.22-1.39,.64-2.65,1.05-3.79,1.35-1.14,.3-2.18,.47-3.14,.56-.97,.09-1.86,.11-2.73,.08-.87-.03-1.72-.1-2.59-.15,2.63-.86,4.25-1.75,8.57-2.66,.52-.11,1.04-.26,1.56-.43,.52-.18,1.06-.39,1.63-.6,1.15-.42,2.45-.87,4.11-1.2,.38-.07,1.19-.48,1.17-.48-.64-.02-1.32-.09-2.13,.07-1.74,.31-3.57,.8-5.37,1.12-1.02,.17-2.64,.34-2.83,.24-.54-.32,.12-.96-3.13-.46-1.41,.22-2.41,.47-3.29,.75-.88,.28-1.65,.58-2.59,.85-.49,.14-2.48-.08-3.79,.11-2.56,.36-5.24,.65-7.79,1.01-2.55,.34-4.97,.78-7.01,1.54-.66,.24-3.5,.34-5.29,.55-1.15,.13-2.05,.16-2.65,.11-.6-.06-.9-.18-.87-.36,.02-.14,.44-.37,.88-.57,.44-.2,.9-.38,.99-.38,2.69-.08,4.85-.42,6.87-.82,2.02-.44,3.92-.93,6.09-1.29,1.92-.32,2.38-.62,3.04-1.07,1.54-1.07,2.66-1.3,5.76-1.41,1.79-.09,2.52,.23,5.25-.71,.81-.29,1.68-.54,2.58-.77,.9-.24,1.82-.45,2.76-.62,1.86-.34,3.75-.51,5.43-.49,1.17,0,1.67-.08,2.57-.58,.65-.37,1.56-.67,2.6-.96,.52-.14,1.08-.28,1.65-.42,.57-.15,1.17-.3,1.77-.45,2.18-.57,4.38-1.02,6.55-1.61,2.17-.6,4.32-1.28,6.42-2.22,3.44-1.6,6.29-2.46,6.91-2.91,.86-.6,1.25-.94,1.07-.98-.09-.02-.34,.02-.74,.13-.4,.1-.97,.26-1.72,.49-2.78,.82-5.86,1.6-7.56,2.66-.8,.52-1.45,.68-2.53,.66-.66,0-1.88,.06-2.61,.27-1.64,.47-3.3,.86-4.97,1.26-.84,.19-1.67,.39-2.51,.58-.84,.2-1.68,.36-2.53,.55-1.69,.36-3.37,.75-5.04,1.18-1.67,.42-3.34,.85-4.98,1.39-1.08,.35-2.99,.81-5.42,1.25-1.21,.23-2.54,.46-3.96,.7-.35,.06-.71,.12-1.08,.18-.36,.05-.73,.11-1.1,.16-.74,.1-1.5,.21-2.27,.31-1.54,.2-3.11,.42-4.68,.6-1.57,.16-3.13,.32-4.64,.46-.76,.07-1.5,.14-2.22,.2-.72,.07-1.43,.1-2.12,.15-1.37,.09-2.64,.16-3.77,.22,1.22-.29,2.38-.64,3.52-.95,.57-.15,1.13-.3,1.7-.41,.56-.12,1.13-.23,1.69-.3,2.31-.28,4.2-.59,5.88-.96,1.67-.39,3.12-.84,4.56-1.36,3.72-1.31,4.7-1.42,7.72-.79,.59,.12,1.56,.13,2.59,.03,1.03-.1,2.13-.33,2.96-.64,1.11-.42,2.16-.81,3.35-1.16,.59-.18,1.21-.33,1.89-.5,.67-.16,1.4-.31,2.2-.45,3.51-.61,4.51-1.72,7.11-2.3,2.23-.48,4.01-1.02,5.66-1.62,1.64-.61,3.16-1.23,4.91-1.81,1.67-.55,3.46-1.13,3.6-1.53,.17-.51,.42-1.21-.82-1.12-.48,.03-.95,.07-1.42,.1-.47,.02-.94,.04-1.42,.07-.96,.05-1.94,.1-3.02,.22-1.08,.11-2.25,.29-3.59,.54-1.34,.24-2.84,.56-4.57,1.01-1.13,.29-2.32,.48-3.56,.59-1.23,.13-2.5,.23-3.77,.44-1.03,.16-2.15,.44-3.23,.63-1.08,.19-2.14,.34-3.03,.29-.5-.02-2.23,.21-2.32,.25-1.36,.72-3.18,1.14-5.12,1.49-1.94,.34-4.01,.61-5.9,.88-1.77,.27-3.31,.54-4.79,.85-1.48,.31-2.89,.61-4.41,1.02-.56,.15-1.27,.27-2.07,.39-.8,.11-1.68,.21-2.6,.28-1.84,.15-3.83,.29-5.54,.5-.7,.09-1.32,.24-1.93,.41-.61,.17-1.2,.36-1.82,.52-1.33-.37-2.4-.75-3.97-1.04-1.57-.29-3.64-.53-6.97-.57-.38,0-.76-.02-1.14-.02-.38-.01-.75-.04-1.12-.06-.74-.04-1.48-.09-2.2-.15-1.46-.11-2.9-.23-4.37-.34-1.47-.13-2.98-.25-4.57-.32-.79-.04-1.61-.06-2.45-.07-.84-.01-1.71-.03-2.62-.02-1.53-.2-3.11-.39-4.71-.58-1.59-.2-3.2-.42-4.79-.64-3.18-.41-6.28-.98-9.03-1.59-1.12-.25-2.14-.55-3.12-.84-.98-.29-1.92-.58-2.88-.87,.1-.96,.19-1.86,.27-2.77-.79-.24-1.58-.48-2.37-.72-.79-.26-1.58-.52-2.39-.78-1.6-.53-3.22-1.06-4.91-1.62,.9-.11,1.84-.22,2.83-.34-.52-.22-1.03-.43-1.57-.64-.54-.21-1.11-.41-1.77-.62-1.31-.41-2.96-.77-5.36-1.04-.8-.08-1.61-.21-2.42-.34-.81-.13-1.63-.27-2.46-.41-1.65-.29-3.32-.58-5.01-.92-1.16-.63-2.27-1.24-3.34-1.82-.53-.29-1.06-.59-1.58-.87-.52-.3-1.03-.6-1.53-.9-.59-.35,.54-.27,1.39-.27,.42,0,.78-.03,.81-.13,.03-.11-.26-.28-1.13-.62-2.32-.91-1.67-1.57-4.1-2.62-.98-.42-.63-.85-.41-1.28-.93-.27-1.86-.53-2.76-.8-.05,0-.1,0-.14-.01-.87-.06-1.64-.08-2.41-.1-.77-.03-1.56-.07-2.45-.19-.89-.12-1.89-.35-3.11-.72-1.06,.1-2.79-.22-4.54-.59-1.53-.34-3.09-.71-4.26-.8,1.23,.56,2.46,1.12,3.68,1.68,.83,.37,1.65,.75,2.47,1.12,.83,.37,1.66,.71,2.48,1.06,.45,.19,.84,.5,1.54,.91-1.39-.42-2.77-.89-4.14-1.41-1.36-.54-2.71-1.11-4.05-1.7-1.34-.59-2.67-1.18-3.99-1.79-1.31-.62-2.61-1.23-3.91-1.82-1.11-.51-1.91-.63-2.7-.82-.79-.18-1.57-.44-2.65-1.21-3.01-2.14-5.32-3.37-8.75-4.46-.98-.3-4.19-1.88-4.56-2.21-1.07-.95-2.4-1.89-3.9-2.83-1.5-.94-3.19-1.86-4.92-2.86-1.47-.84-2.81-1.64-4.01-2.44-.6-.4-1.17-.81-1.7-1.21-.53-.42-1.03-.84-1.49-1.27-.58-.55-3.03-2.04-4.31-2.72-1.51-.78-2.62-1.13-3.98-1.74-2.22-1-3.34-1.52-4.47-2.29-1.13-.78-2.27-1.85-4.52-3.96-.71-.23-1.48-.59-2.3-1.04-.83-.45-1.69-1.01-2.61-1.63-.92-.62-1.87-1.31-2.87-2.04-.99-.73-2.03-1.48-3.07-2.27-.84,.12-1.69,.26-2.51,.39-1.1-.72-2.29-1.58-3.48-2.47l-.89-.67c-.29-.23-.59-.46-.88-.68-.58-.45-1.15-.89-1.71-1.31-2.21-1.67-4.15-2.92-5.17-2.77,.4,.5,1.2,1.45,2.04,2.45-.79-.49-1.62-1.03-2.42-1.61-.8-.59-1.58-1.2-2.32-1.82-1.48-1.23-2.77-2.46-3.58-3.46-.93-1.17-2.2-2.42-3.47-3.67-1.27-1.26-2.56-2.5-3.47-3.71-2.05-2.68-3.63-3.81-5.58-4.25-.2-.05-.62-.34-1.49-.84-8.57-8.23-17.17-17.39-25.3-26.96-.39-.46-.72-.87-1.02-1.27,.14,.11,.29,.22,.43,.33,1.69,1.3,3.38,2.61,5.06,3.86-.35-.4-1.83-2.08-2.54-3.16-.82-1.28-.86-1.82-.96-2.44-.1-.62-.3-1.31-1.4-2.92,.92,.75,1.88,1.47,3.08,2.41-.54-.72-1.06-1.41-1.58-2.1-.51-.69-1-1.38-1.52-2.05-3.32-4.31-7.62-8.98-9.39-13.09-.91-1.23-1.8-2.49-2.69-3.74l-1.32-1.88-1.3-1.9c-.87-1.27-1.76-2.52-2.69-3.76-.47-.62-.93-1.23-1.4-1.85-.47-.62-.96-1.23-1.45-1.83-.03-.04-.06-.07-.09-.11-.06-.05-.13-.1-.2-.17-1.62-1.48-1.8-.36-3.71-2.47-.61-.67-1.47-.79-1.29-.38,1.48,3.24,.69,3.37,0,3.64-.27-.48-.66-1.08-1.14-1.79-.36-.54-.77-1.14-1.19-1.78-.41-.64-.84-1.33-1.27-2.03-.38-1.11-.81-2.35-1.26-3.68-.21-.6-.41-1.23-.61-1.87-.08-.13-.16-.26-.24-.4-1.18-2.03-2.37-4.07-3.54-6.08-.1-.17-.19-.34-.29-.51-.32-.2-.58-.22-.96-.61-.7-.72-1.53-1.73-2.31-2.62-.64-1.6-1.24-3.22-1.88-4.84-.31-.81-.62-1.63-.94-2.46-.18-.51-.37-1.03-.55-1.54-.25-.48-.5-.96-.76-1.44l-.07-.14c-.67-.85-1.46-1.84-2.3-2.93-.59,.28-1.2,.57-1.87,.89,.21,.89,.5,2,.74,3.05,.18,.8,.48,1.72,.87,2.62,.19,.45,.41,.88,.64,1.29,.24,.4,.5,.78,.77,1.1,.7,.84,1.33,1.74,1.95,2.74,.63,1,1.22,2.11,1.9,3.33,1.27,2.33,1.69,3.48,1.17,3.74-.18,.08-.17,.38,0,.87,.17,.49,.48,1.19,.97,2.03,.84,1.48,1.65,2.36,2.46,3.3,.41,.47,.82,.95,1.23,1.53,.42,.58,.87,1.25,1.32,2.1,.04,.07,1.01,.56,1.54,.87,.62,.35,1.33,1.16,2.32,2.79,1.01,1.6,1.25,2.31,1.12,2.82-.19,.7-.93,.42-1.86-.2-.46-.31-.97-.71-1.48-1.11-.51-.4-1-.82-1.45-1.15-1.6-1.18-4.09-4.11-6.58-6.91,.65,1.21,1.15,2.14,1.59,2.96,.46,.81,.85,1.51,1.27,2.25,.1,.41,.47,1.33,.31,1.44-1.07,.83-2.25,1.5-3.27,2.14-.92-1.01-1.64-2.04-2.28-3.03-.62-1.01-1.14-1.99-1.71-2.88-.28-.44-.58-.96-.86-1.32-.28-.38-.53-.59-.82-.92-.83-.96-1.63-1.94-2.42-2.91-.79-.97-1.57-1.93-2.34-2.87,.45,1.58,.72,2.55,1.01,3.58-.68-.99-1.27-1.74-1.76-2.58-.35-.61-.7-1.25-1.04-1.89-.33-.65-.67-1.31-1-1.95-.66-1.29-1.32-2.53-1.99-3.59-.64-1-1.23-1.77-1.86-2.67-.62-.9-1.27-1.92-1.95-3.44-.13-.29-.71-1-.7-.92,.05,.47,.13,1.23,.36,1.66,1.39,2.62,2.33,4.98,3.24,7.14,.44,1.09,.85,2.14,1.26,3.17,.21,.52,.41,1.03,.61,1.54,.21,.51,.43,1.01,.66,1.51-.32-.37-.63-.74-.95-1.1-.31-.37-.62-.75-.94-1.13-.63-.76-1.26-1.52-1.9-2.29-.63-.78-1.28-1.56-1.93-2.36-.63-.81-1.26-1.63-1.9-2.48-.63-.83-1.64-3.07-2.24-3.84-.6-.79-.91-.55-1.43-.81-.73-1.68-1.05-2.86-1.29-3.93-.23-1.07-.41-2.02-.75-3.27-1.02-1.59-1.95-3.32-2.83-5.13-.87-1.82-1.65-3.75-2.43-5.71-.8-1.96-1.5-4-2.26-6.03-.38-1.02-.77-2.04-1.16-3.06-.38-1.02-.77-2.05-1.17-3.06-.7-1.39-1.42-2.66-2.09-3.53-.65-.88-1.25-1.36-1.74-1.18-.37-2.38-.38-3.72-.79-5.01-2.53-8.31-4.84-16.73-6.66-25.23-.27-1.27-.72-2.02-1.09-2.87-.19-.42-.35-.87-.47-1.41-.11-.55-.16-1.19-.13-2.01,.08-1.83-.5-4.07-.86-6.25-.44-2.84-.92-5.34-1.44-7.22-.5-1.89-1.08-3.17-1.8-3.56-.23-.14-.52-1.02-.78-1.57-.13-1.66,.17-1.75,.43-2.07,.26-.32,.5-.89,.31-3.5-.3-3.97-.29-5.9-.4-7.57-.09-1.67-.27-3.08-.63-6.06-.16,1.09-.33,2.22-.47,3.26-.35-1.11-.77-3.25-1-3.1-.95,.59-1.74-1.28-2.47-4-.36-1.36-.66-2.93-.98-4.5-.16-.79-.32-1.58-.47-2.34-.16-.76-.31-1.5-.46-2.19-.26-1.23-.04-5.38-.3-6.58-.4-2.03-.56-4.93-.77-7.5-.17-2.57-.39-4.82-1.02-5.55,.04-2.13,.15-4.08,.23-5.96,.09-1.88,.17-3.69,.31-5.55,.69-3.84,1.28-.48,2.04-2.48,.46-3.31-.59-4.68,.17-8.38-.27-2.21-.24-4.42,0-6.64,.12-1.11,.3-2.23,.55-3.35,.27-1.12,.59-2.24,.99-3.37,.07-.2,.13-1.77,.1-2.41-.08-1.56,.13-2.37,.42-3.16,.29-.78,.66-1.54,.97-2.99,.15-.87,.3-1.75,.45-2.65,.17-.9,.34-1.81,.52-2.74,.18-.93,.36-1.87,.55-2.83,.19-.95,.36-1.92,.58-2.9,.43-1.94,.86-3.93,1.3-5.93,.46-2,.97-4,1.46-6.01,.57-2.4,1.05-4.3,1.12-6.1,.05-1.18,.37-2.53,.79-3.91,.42-1.38,.92-2.81,1.27-4.16,.78-1.15,1.43-2.76,2.09-4.56,.65-1.8,1.24-3.8,1.87-5.72,.54-1.6,1.15-3.2,1.65-4.77,.26-.78,.48-1.56,.68-2.32,.2-.76,.36-1.5,.46-2.23,.07-.54,.42-1.57,.85-2.73,.22-.58,.45-1.19,.68-1.79,.23-.6,.46-1.18,.67-1.71,.69-1.82,1.55-3.75,2.27-5.59,.75-1.82,1.37-3.55,1.53-5.02,1.12-2.55,2.27-5.08,3.45-7.59-.03-.53-.02-1.11,.03-1.84,.06-.85,.18-1.89,.38-3.29,.05-.39,.12-.81,.18-1.26-.47,.64-.99,1.35-1.58,2.22,.83-1.79,1.41-3.11,1.88-4.15,.12-.68,.25-1.41,.39-2.21,.17-.96,.39-2.21,.24-2.31-.54-.47-1.53,.23-.61-3.98,.03-.15-.21-.05-.3,.18-.44,1.06-.99,2.29-1.3,3.35-.43,1.49-.89,3.02-1.36,4.52-.44,1.5-.9,2.98-1.34,4.35-.44,1.37-.87,2.64-1.27,3.75-.4,1.1-.74,2.04-1.05,2.73-.62,1.39-1.23,2.71-1.84,4.04-.3,.67-.61,1.33-.91,2.01-.29,.68-.59,1.37-.88,2.08-.33,.81-.7,2.19-1.06,3.32-.35,1.12-.72,2.25-1.06,3.35,.01-.68-.1-1.18,.06-2.02,2.37-13.19,4.71-24.77,5.79-33.83-.65,1.42-1.3,2.87-1.95,4.37-.32,.75-.64,1.52-.96,2.29-.32,.78-.64,1.57-.93,2.39-.6,1.63-1.18,3.33-1.75,5.11-.28,.89-.57,1.8-.83,2.74-.26,.94-.51,1.91-.75,2.9-.7,1.51-1.33,3.19-1.91,4.98-.57,1.79-1.06,3.7-1.54,5.64-.99,3.87-1.76,7.91-2.72,11.52-1.02,2.29-1.26,.66-1.82,.71,.14-1.14,.2-2.29,.44-3.42,.37-1.71,.74-3.42,1.11-5.13,.4-1.71,.82-3.41,1.24-5.11l.63-2.56c.21-.85,.42-1.7,.65-2.55,.45-1.7,.9-3.39,1.36-5.09,.66-2.56,1.55-5.26,2.28-7.82,.36-1.28,.68-2.52,.93-3.69,.25-1.16,.44-2.25,.49-3.23,.75-2.29,1.49-4.57,2.15-6.71,.66-2.14,1.19-4.15,1.41-5.92,.06-.48,.32-1.36,.64-2.34,.33-.97,.72-2.05,1.01-2.94-.13,.11-.26,.24-.4,.37-1.12,2.12-1.99,4.77-2.87,7.41-.44,1.32-.89,2.63-1.36,3.88-.45,1.25-.94,2.44-1.48,3.49,.2-1.38,.41-2.76,.61-4.14,.23-1.38,.46-2.75,.69-4.14-.44,.82-.84,1.72-1.22,2.65-.19,.47-.37,.94-.54,1.43-.17,.49-.33,.98-.49,1.47-.64,1.98-1.23,4.01-1.9,5.86-.16,.44-.33,.88-.5,1.31-.17,.43-.33,.86-.49,1.27-.33,.83-.65,1.61-.96,2.31-.88,1.99-2.05,4.71-2.08,3.14-.03-1.54,.48-4.49,.82-6.93,.04-.37,.43-1.33,.61-1.99,.41-1.43,.89-2.9,1.4-4.39,.51-1.49,1.02-2.99,1.55-4.45,1.05-2.93,1.94-5.77,2.31-8.26,.97-2.64,1.96-5.27,2.95-7.9,1.03-2.61,2.07-5.22,3.09-7.81,.31-.79,.54-1.46,.74-2.1,.2-.64,.36-1.24,.53-1.86,.35-1.25,.76-2.6,1.65-4.56,.21-.44,.4-.85,.58-1.24,.19-.38,.37-.74,.54-1.07,.34-.66,.66-1.23,.98-1.73,.64-1,1.27-1.73,2.1-2.42,.17-.14,.56-.81,.94-1.36,.43-1.46,.91-2.9,1.37-4.34,.47-1.44,.94-2.89,1.41-4.33,.25-.44,.49-.87,.72-1.3,.23-.43,.46-.85,.68-1.26,.44-.83,.84-1.65,1.22-2.45,.76-1.61,1.44-3.18,2.13-4.76,.71-1.56,1.42-3.14,2.24-4.76,.82-1.62,1.71-3.32,2.86-5.07,1.28-1.98,2.56-4.13,3.84-6.31,1.32-2.16,2.65-4.37,3.98-6.48,.35-.56,.73-1.09,1.11-1.64,2.92-3.09,1.12,1.53,3.82-1.17,1.13-1.62,2.3-3.23,3.39-4.84,1.11-1.6,2.12-3.2,2.9-4.86,.37-.78,.81-1.59,1.3-2.41,.49-.82,1.05-1.64,1.63-2.46,1.16-1.62,2.43-3.19,3.62-4.51,1.91-2.11,3.92-4.33,5.92-6.54,.99-1.11,2.02-2.18,3.02-3.24,1-1.06,2-2.09,2.97-3.07,1.14-1.16,1.79-1.87,2.33-2.55,.54-.69,.95-1.34,1.65-2.36,.5-.73,1.04-1.46,1.61-2.18,.57-.72,1.17-1.45,1.81-2.15,1.28-1.42,2.69-2.83,4.2-4.26,1.55-1.48,2.76-2.57,3.73-3.51,.97-.94,1.72-1.72,2.42-2.54,1.38-1.64,2.58-3.39,4.93-6.8-1.5,1.32-2.98,2.74-4.43,4.21-1.44,1.49-2.86,3.03-4.27,4.58-.71,.78-1.42,1.55-2.12,2.33-.7,.78-1.4,1.57-2.09,2.35-1.4,1.56-2.82,3.07-4.24,4.55,.24-.61,.31-1.14,.65-1.52,1.63-1.87,3.33-3.75,5.01-5.61,1.69-1.85,3.38-3.65,4.92-5.44,1.65-1.97,3.15-3.74,4.73-5.61,.8-.93,1.62-1.88,2.53-2.86,.91-.98,1.93-1.97,3.06-3.02,3.52-3.28,7.2-6.85,10.85-10.21,2.14-1.92,4.29-3.85,6.42-5.76,2.17-1.87,4.34-3.69,6.5-5.39,5.02-3.84,6.77-6.62,11.6-10.16,1.12-.83,2.25-1.67,3.38-2.51,1.13-.84,2.27-1.68,3.41-2.52,1.14-.84,2.28-1.69,3.42-2.53,1.16-.82,2.31-1.64,3.47-2.46,.57-.65,1.26-1.31,2.03-1.96,.78-.65,1.64-1.32,2.57-1.95,1.86-1.28,3.96-2.55,6.03-3.81-2.11,2.25-3.1,3.36-4.15,4.34-.52,.49-1.06,.96-1.75,1.52-.68,.57-1.52,1.24-2.65,2.15-2.2,1.76-4.01,3.27-5.06,4.44-1.06,1.16-1.41,1.93-.73,2.15-1.46,1.07-2.87,2.09-4.22,3.08-.68,.49-1.33,.99-1.97,1.48-.64,.49-1.27,.97-1.89,1.44-1.23,.95-2.41,1.85-3.54,2.72-1.13,.87-2.19,1.74-3.21,2.56-1.77,1.85-2.97,3.33-4.41,4.92-1.43,1.6-3.13,3.28-5.89,5.5-1.1,.91-3.25,3.19-3.21,3.38,.09,.71-1.03,2.21-2.45,3.94-1.4,1.75-3.11,3.73-4.26,5.34-1.52,1.4-2.99,2.85-4.47,4.28-.74,.72-1.47,1.44-2.2,2.15-.73,.71-1.45,1.42-2.15,2.13-1.55,2.18-2.98,4.23-4.41,6.29-.86,.95-1.72,1.94-2.58,2.91-.97,1.09-2,2.2-3.05,3.31-1.05,1.11-2.08,2.26-3.08,3.38-.99,1.13-1.94,2.25-2.79,3.35-.85,1.1-1.56,2.2-2.12,3.25-.89,1.05-1.77,2.1-2.67,3.16-.44,.53-.9,1.06-1.34,1.6-.44,.54-.88,1.09-1.33,1.64-.89,1.1-1.79,2.22-2.7,3.35-.46,.57-.92,1.14-1.38,1.73-.45,.59-.91,1.19-1.38,1.79-.8,1.59-1.84,3.45-2.71,5.13-.87,1.69-1.55,3.22-1.71,4.1-.15,.85-.51,1.69-1.1,2.68-.58,.99-1.41,2.11-2.44,3.55-1.84,2.54-2.65,4.2-3.52,6.04-1.6,3.52-1.4,3.8,1.36,.96,.66-.69,1.37-1.42,2.05-2.13,1.04-1.87,1.91-3.74,3.18-5.59,1.36-1.95,2.77-3.9,4.2-5.84,1.44-1.93,2.94-3.83,4.41-5.76,.63-.49,1.28-1.1,1.95-1.79,.68-.69,1.38-1.46,2.1-2.29s1.44-1.71,2.18-2.61c.74-.9,1.48-1.83,2.24-2.73,.31-.36,1.11-1.01,1.05-.9-.23,.51-.68,1.48-.93,1.74-2.29,2.47-3.82,4.7-5.24,6.85-.72,1.07-1.36,2.17-2.07,3.26-.71,1.1-1.46,2.22-2.33,3.39-.59,1.29-1.41,2.84-2.33,4.49-.92,1.65-1.97,3.4-2.97,5.15-.99,1.76-1.95,3.52-2.76,5.13-.4,.81-.77,1.58-1.08,2.3-.3,.73-.55,1.41-.73,2.02,.44-.2,1.02-.95,1.67-1.88,.65-.92,1.35-2.02,1.98-2.95,.99-1.46,2.03-2.94,3.09-4.4,1.07-1.45,2.15-2.91,3.19-4.35,.52-.72,1.03-1.44,1.52-2.15,.5-.7,.99-1.4,1.45-2.1,.93-1.39,1.76-2.76,2.46-4.1l.93-1.18,.95-1.16c.63-.77,1.26-1.54,1.9-2.32,1.27-1.54,2.52-3.09,3.82-4.58,2.16-1.64,3.75-3.36,5.01-5.03,1.27-1.65,2.19-3.26,2.97-4.68,1.3-2.43,4.84-5.76,6.16-8.08,.57-1.01,1.64-2.17,2.84-3.38,1.2-1.21,2.53-2.46,3.65-3.63,2.05-2.09,4.2-4.11,6.21-6.14,2.03-2.01,3.96-3.99,5.55-6.02,.79-1.05,4.68-4.41,5.68-4.99,1.93-1.13,3.92-2.64,6.07-4.43,1.08-.89,2.19-1.86,3.39-2.83,1.2-.98,2.46-2,3.81-3.03,.52-.68,1.13-1.49,1.75-2.3,.63-.8,1.27-1.61,1.82-2.3,1.45-1.12,2.58-1.99,3.54-2.73,.48-.37,.92-.7,1.34-1.02,.43-.31,.83-.59,1.23-.88,1.8-1.27,3.52-2.51,5.1-3.68,1.58-1.17,3.04-2.24,4.26-3.24,1.22-1,2.23-1.92,2.93-2.74,.71-.81,1.13-1.5,1.17-2.08,0-.1,.68-.68,1.14-.99,1.1-.75,2.34-1.58,3.35-2.15,.51-.28,1.16-.32,.91-.05-2.11,2.22-3.23,3.95-4.81,5.92-.79,.98-1.67,2.05-2.85,3.26-1.17,1.22-2.65,2.58-4.56,4.23-2.29,1.09-4.69,2.58-7.11,4.35-1.2,.9-2.41,1.86-3.61,2.87-.6,.5-1.21,1.02-1.82,1.54-.3,.26-.6,.52-.91,.79-.3,.27-.6,.54-.89,.81-3.29,3.02-5.57,5.02-7.98,7.05-1.21,1.01-2.47,2.01-3.93,3.12-1.45,1.12-3.07,2.39-5.04,3.89-2.23,1.68-3.85,3.28-4.98,4.88-.97,1.36-2.78,3.33-2.19,3.54,.2,.08,.06,.44-.34,.98-.39,.54-1.05,1.24-1.9,1.99-1,.88-1.84,1.7-2.58,2.49-.74,.79-1.39,1.54-1.99,2.29-1.21,1.51-2.29,2.96-3.77,4.58-1.3,1.4-2.7,2.83-4.07,4.26-.68,.72-1.34,1.44-1.97,2.17-.31,.37-.61,.73-.9,1.1-.28,.37-.55,.75-.8,1.13,.39-.15,.82-.46,1.28-.86,.46-.4,.95-.89,1.45-1.43,1-1.08,2.04-2.32,2.99-3.3,1.15-1.18,2.3-2.37,3.49-3.6,1.19-1.22,2.41-2.48,3.69-3.8,.91-.32,1.43-.12,2.75-1.04,1.32-.92,3.43-2.94,5.36-4.56-.44,.6-.61,.94-.95,1.3-1.77,1.81-3.52,3.65-5.31,5.4-1.76,1.77-3.55,3.47-5.42,4.98-1.16,.91-2.57,2.29-3.81,3.59-1.14,1.18-2.28,2.37-3.07,3.35-.78,1-1.22,1.8-.97,2.17,.2,.3-.86,2.02-1.36,3.1,.39-.33,.82-.59,1.15-.96,6.62-7.43,13.56-14.6,20.79-21.48,.48-.18,.93-.14,1.44-.59,.94-.81,1.9-1.69,2.86-2.56,.96-.87,1.92-1.76,2.88-2.55,2.57-2.13,2.69-1.57,2.86-1.01,.76-.62,1.49-1.2,2.19-1.77,.71-.57,1.39-1.13,2.07-1.7l3.81-3.21,1.91-1.6,1.94-1.57,3.88-3.13c.64-.52,1.3-1.03,1.96-1.54l1.97-1.52c1.83-1.41,2.34-2.8,1.43-3.14-.13-.06,.69-.99,1.35-1.52,.9-.73,2.64-2,3.01-2.13,1.05-.37,2.06-.7,3.01-.98,.48-.14,.94-.27,1.4-.39,.46-.11,.9-.22,1.33-.31,.33-.06-.36,.73-.77,1.24-.46,.56-1.61,1.56-1.66,1.83-.07,.6,.34,.87,.46,1.34,0,.1-.62,.65-.95,1-.66,.68-1.16,1.31-2,2.05l-1.06,.94c-.35,.32-.7,.64-1.05,.96-.7,.64-1.4,1.28-2.11,1.93-1.41,1.3-2.88,2.58-4.38,3.93-2.86,2.53-2.86,2.76-.53,1.42,.42-.24,1.07-.66,1.18-.65,.27,.06,.34,.31,.7,.28,.36-.03,.98-.34,2.38-1.37,1.96-1.44,4.72-3.49,5.81-4.59,1.88-1.87,4.21-3.89,6.6-5.86,1.2-.98,2.41-1.96,3.59-2.92,1.17-.96,2.29-1.92,3.33-2.81,1.12-.97,2.46-1.99,3.82-3.02,.68-.52,1.35-1.04,2.02-1.55,.67-.51,1.31-1.01,1.91-1.51,.77-.65,2.11-1.5,3.6-2.4,.37-.22,.76-.45,1.14-.68l1.17-.67c.78-.44,1.55-.88,2.26-1.3,3.8-2.28,7.69-4.43,11.55-6.56,1.95-1.03,3.9-2.06,5.84-3.08,.49-.25,.97-.51,1.46-.76,.49-.24,.98-.49,1.47-.73,.98-.49,1.95-.97,2.93-1.46,.97-.48,1.95-.96,2.92-1.44,.97-.47,1.95-.92,2.93-1.38,1.95-.91,3.88-1.83,5.82-2.69,1.94-.85,3.87-1.69,5.78-2.53,.48-.21,.96-.41,1.43-.62,.48-.2,.96-.39,1.44-.59,.96-.39,1.91-.78,2.85-1.17,1.57-.58,2.46-.69,3.35-.88,.89-.19,1.79-.46,3.38-1.35,.77-.43,1.96-.95,3.11-1.45,.57-.25,1.13-.5,1.62-.72,.49-.22,.91-.43,1.19-.6,1.99-1.24,3.41-1.73,4.69-1.99,1.28-.26,2.42-.3,3.88-.59-.44,.33-.91,.64-1.44,.97-.53,.33-1.13,.67-1.82,1.02-1.38,.7-3.14,1.43-5.53,2.27-8.63,3.12-17.15,6.63-25.47,10.46-2.67,1.25-4.33,1.79-6.35,2.41-1.18,.37-3.3,1.41-4.91,2.23-1.13,.58-2.15,1.15-3.1,1.72-.94,.59-1.81,1.17-2.67,1.75-.86,.58-1.71,1.16-2.6,1.75-.89,.59-1.82,1.18-2.83,1.81,1.27,.03-1.35,1.84-2.53,3.01,1.07-.47,2.09-.85,3.05-1.38,1.56-.88,3.15-1.69,4.73-2.53,1.59-.83,3.17-1.68,4.78-2.49,1.61-.8,3.23-1.61,4.85-2.41,.81-.4,1.62-.81,2.44-1.2,.82-.39,1.65-.77,2.47-1.16,2.61-.73,5.28-1.49,7.85-2.13,1.89-.93,1.94-1.85,5.18-2.61,.66-.14,2.27-.64,2.53-.79,1.05-.63,2.06-1.26,3.08-1.89,1.02-.64,2.05-1.29,3.15-1.94,1.8-.68,3.6-1.37,5.41-2.06l1.36-.51,1.37-.49c.91-.32,1.83-.64,2.74-.97,3.65-1.32,7.35-2.49,11.06-3.69,.92-.31,1.86-.57,2.79-.86l2.8-.84,2.81-.83c.93-.28,1.88-.52,2.82-.78,1.88-.51,3.77-1.02,5.65-1.53,1.89-.49,3.79-.94,5.69-1.41,1.61-.38,2.85-.68,3.78-.84,.93-.16,1.54-.22,1.87-.19,.65,.07,.16,.53-1.16,1.38-.29,.19-.6,.38-.93,.57-.32,.2-.66,.4-1,.6-.67,.4-1.34,.81-1.91,1.19-1.14,.77-1.87,1.48-1.39,1.97,.11,.09-2.58,1-4.09,1.43-1.97,.57-3.24,.65-3.33,.24-.04-.2-.85-.18-1.57-.31-.86,.23-1.74,.46-2.64,.7-.9,.24-1.8,.51-2.71,.77-1.81,.52-3.6,1.07-5.23,1.66-2.48,.93-4.5,2.14-5.99,3.08-.52,.33,.71,.45,1.81,.32,2.59-.31,3.1-.02,.55,1.32-2.34,1.24-2.59,1.79,.61,1.19,1.03-.55,2.06-1.1,3.08-1.64,1.02-.55,2.07-1.06,3.12-1.6,1.87-.36,3.72-.6,5.7-1.12,1.26-.3,3.17-1.07,3.99-1.53,.86-.47,.77-.82,1.14-1.32,.92-.08,1.71-.16,2.44-.23,.74-.06,1.42-.11,2.1-.17,2.18-.18,2.91,.09,1.17,.91-1.58,.75-3,1.41-2.58,1.83,.36,.35-.12,.91,2.87,.43,2.02-.32,3.91-.64,5.73-.97,1.83-.3,3.61-.61,5.39-.95,1.78-.35,3.56-.71,5.43-1.08,1.86-.38,3.8-.8,5.87-1.26,2.43-1.17,4.41-1.05,6.69-1.01,.33,0,1.02-.08,1.72-.18,.7-.1,1.42-.22,1.82-.33,1.96-.54,3.82-1.12,5.24-1.68,1.12-.45,2.5-.7,3.97-.92,1.46-.21,3.01-.34,4.49-.48,.87-.09,1.66-.09,2.41-.08,.75,.01,1.46,.05,2.2,.08,1.48,.06,3.07,.07,5.25-.19,1.5-.16,3.06-.27,4.65-.37,.79-.04,1.59-.09,2.38-.13,.4-.02,.79-.04,1.19-.06,.39-.01,.79-.03,1.18-.04,2.08-.06,4.31-.22,6.4-.26,1.04-.03,2.04,0,2.97,.08,.93,.08,1.78,.21,2.52,.41,.84-.01,1.68-.02,2.52-.03h3.4c1.26,.02,2.53,.03,3.79,.05,.63,0,1.26,.01,1.89,.02,.92,.02,1.83,.05,2.74,.07,1.89,.05,3.77,.09,5.64,.14,.51,.01,1.02-.01,1.53-.04,.46-.03,.93-.07,1.43-.1,1-.07,2.13-.12,3.56,0,1.25,.11,2.51,.19,3.77,.28,1.26,.11,2.52,.21,3.79,.32,.95,.09,1.89,.17,2.83,.25,.94,.08,1.87,.17,2.81,.28,2.38,.27,4.76,.54,7.3,.84-1.12,.9-6.25,1.09-1.47,2.61,1.74,.57,1.21,.58-2.4,.39-1.09-.06-2.05-.04-3.82-.06,2.01,.35,3.44,.65,4.96,.87,.81,.12,1.56,.21,2.27,.27,.71,.08,1.38,.13,2.04,.17,1.31,.08,2.56,.09,3.91,.12,.88,.03,1.82,.33,2.98,.7,1.15,.37,2.52,.79,4.25,.98,1.17,.13,3.04,.59,3.62,.59,2.51-.02,5.37,.33,8.3,.87,1.46,.29,2.94,.62,4.41,.97,.73,.17,1.47,.35,2.19,.52,.73,.17,1.44,.35,2.15,.54,3.67,.96,7.08,2.28,10.38,3.58,.56,.22,.57,.61,.19,.7-.34,.1-1.38,.05-2.31-.16-.49-.11-1-.23-1.5-.36-.51-.13-1.02-.26-1.54-.39-1.03-.27-2.08-.55-3.11-.82-1.03-.26-2.05-.51-3.03-.7-.99-.19-1.94-.29-2.84-.32-1.89-.05-4.08-.52-6.2-1-2.12-.45-4.15-.91-5.69-1-2.13-.15-4.3-.33-6.49-.59-1.09-.14-2.2-.27-3.31-.41-1.11-.14-2.23-.25-3.36-.37-1.27,.31-3.26,.1-5.38-.19-2.12-.25-4.36-.57-6.1-.51-.54,.48,2.66,.9,3.47,1.36,.99,.23,2,.39,3.02,.57,1.02,.18,2.06,.33,3.1,.47,2.08,.29,4.2,.5,6.24,.87,1.61,.28,3.39,.44,4.89,.54,.45,.03,.89,.06,1.33,.09,.44,.03,.87,.07,1.31,.1,.87,.06,1.73,.13,2.59,.19,.87,.07,1.74,.14,2.63,.23,.89,.09,1.8,.19,2.73,.35,1.69,.27,3.62,.74,5.5,1.19,.94,.22,1.87,.45,2.75,.66,.88,.21,1.72,.38,2.47,.5,.95,.15,1.9,.3,2.85,.47,.47,.09,.95,.17,1.43,.26,.47,.09,.95,.2,1.42,.3,1.89,.41,3.79,.85,5.69,1.32,.95,.23,1.89,.49,2.84,.76,.94,.27,1.89,.54,2.83,.81,.94,.28,1.89,.56,2.83,.84,.94,.29,1.88,.6,2.82,.91,7.53,2.41,14.95,5.3,22.36,8,1.93,1.25,3.7,2.38,5.6,3.6,1.72,1.13,4.04,2.19,5.72,2.52,.93,.18,1.89,.42,2.88,.71,1,.29,2.03,.62,3.12,1.01,1.09,.4,2.24,.83,3.43,1.37,1.19,.54,2.45,1.15,3.77,1.84,.36,.18,.9,.28,1.27,.37,.65,.16,1.37,.4,1.99,.7,.61,.3,1.12,.65,1.34,1,.27,.44-.82,.27-1.54,.22-.44-.03-1.33-.31-2.04-.47,.41,.31,.84,.6,1.3,.9,.45,.3,.92,.58,1.39,.85,.95,.53,1.93,.96,2.85,1.22,2.82,.75,7.15,3.42,9.78,4.07,.92,.23,4.01,2.48,4.06,3.05,.03,.34,.23,.69,.75,1.15,.26,.23,.6,.48,1.04,.77,.22,.15,.46,.3,.73,.47,.27,.17,.56,.35,.88,.54,1.54,.93,3.68,2.39,4.51,2.7,1.44,.52,2.63,1.09,3.65,1.68,1.03,.58,1.89,1.18,2.64,1.79,.75,.61,1.41,1.22,2.01,1.85,.6,.64,1.16,1.28,1.75,1.92-2.48-1.22-4.26-1.72-7.99-4.08-.45-.29-.92-.54-1.42-.78-.5-.24-1.03-.46-1.58-.71-1.12-.5-2.36-1.09-3.78-2.01-.32-.21-1.19-.49-1.17-.47,.45,.46,.88,.99,1.57,1.44,1.47,1,3.12,1.92,4.62,2.95,.85,.59,2.13,1.6,2.19,1.8,.16,.61-.76,.6,1.92,2.51,1.16,.83,2.06,1.35,2.88,1.76,.83,.42,1.59,.74,2.45,1.2,.44,.24,1.72,1.79,2.79,2.57,2.08,1.54,4.2,3.2,6.28,4.72,2.06,1.54,4.1,2.91,6.09,3.8,.64,.29,2.74,2.2,4.17,3.3,.92,.71,1.58,1.32,1.98,1.77,.39,.46,.52,.76,.37,.87-.11,.09-.58-.04-1.03-.21-.46-.16-.9-.36-.97-.42-1.98-1.82-3.76-3.09-5.49-4.21-1.75-1.1-3.45-2.07-5.26-3.33-1.6-1.12-2.14-1.22-2.92-1.35-1.85-.31-2.81-.92-5.11-3.01-1.35-1.19-1.64-1.93-4.25-3.15-.78-.36-1.58-.79-2.39-1.25-.81-.45-1.62-.95-2.41-1.48-1.57-1.06-3.03-2.25-4.22-3.44-.84-.82-1.25-1.11-2.25-1.38-.72-.19-1.59-.61-2.53-1.13-.47-.26-.97-.55-1.48-.86-.51-.3-1.04-.6-1.58-.91-1.95-1.11-3.85-2.32-5.81-3.42-1.97-1.09-3.99-2.1-6.14-2.9-3.58-1.26-6.22-2.63-6.98-2.75-1.04-.17-1.55-.2-1.45-.04,.05,.08,.25,.22,.62,.42,.36,.21,.88,.49,1.57,.85,2.56,1.36,5.31,2.95,7.27,3.38,.93,.19,1.51,.53,2.27,1.29,.47,.47,1.39,1.28,2.06,1.63,1.5,.81,2.97,1.69,4.44,2.57,.73,.45,1.47,.89,2.21,1.34,.74,.45,1.46,.92,2.19,1.37,1.46,.92,2.93,1.82,4.43,2.67,1.49,.87,2.99,1.72,4.53,2.49,1.01,.51,2.71,1.51,4.75,2.89,1.02,.68,2.14,1.45,3.32,2.27,.29,.21,.59,.41,.89,.62l.9,.66c.6,.45,1.22,.9,1.84,1.36,1.24,.93,2.52,1.87,3.76,2.84,1.24,.98,2.46,1.96,3.64,2.91,.59,.48,1.17,.95,1.73,1.41,.56,.46,1.1,.93,1.62,1.37,1.04,.89,2,1.73,2.86,2.48-1.08-.64-2.15-1.2-3.18-1.78-.51-.29-1.02-.58-1.5-.89-.49-.31-.97-.62-1.42-.97-1.85-1.42-3.42-2.51-4.87-3.42-1.47-.89-2.82-1.58-4.21-2.22-3.58-1.66-4.36-2.26-6.08-4.83-.34-.5-1.03-1.18-1.84-1.83-.81-.65-1.75-1.25-2.57-1.61-1.08-.48-2.11-.93-3.2-1.51-.55-.28-1.1-.61-1.7-.96s-1.22-.75-1.89-1.21c-2.94-2.01-4.43-1.91-6.69-3.33-1.94-1.22-3.59-2.07-5.18-2.79-1.6-.71-3.12-1.33-4.77-2.13-1.58-.77-3.26-1.61-3.64-1.42-.48,.24-1.15,.58-.19,1.38,.37,.31,.73,.62,1.09,.92,.35,.31,.7,.63,1.06,.95,.72,.64,1.46,1.28,2.31,1.95,.85,.67,1.81,1.37,2.94,2.12,1.12,.77,2.42,1.58,3.98,2.47,1.01,.58,2,1.28,2.96,2.06,.97,.77,1.95,1.58,3,2.32,.85,.61,1.84,1.19,2.75,1.8,.91,.62,1.76,1.25,2.37,1.91,.34,.36,1.74,1.41,1.84,1.44,1.48,.44,3.07,1.41,4.7,2.52,1.63,1.11,3.3,2.36,4.84,3.49,1.46,1.04,2.75,1.93,4.02,2.73,1.27,.81,2.5,1.58,3.87,2.35,.51,.29,1.1,.69,1.75,1.17,.65,.47,1.35,1.02,2.06,1.61,1.43,1.18,2.94,2.47,4.31,3.52,.56,.42,1.11,.75,1.67,1.05,.55,.3,1.11,.57,1.67,.9,.69,1.19,1.19,2.21,2.12,3.51,.92,1.3,2.24,2.92,4.59,5.28,.27,.27,.54,.55,.8,.81,.26,.27,.51,.55,.76,.83,.5,.55,.99,1.1,1.47,1.65,.96,1.1,1.91,2.18,2.89,3.3,.96,1.13,1.96,2.26,3.04,3.42,.54,.58,1.11,1.17,1.71,1.76,.59,.6,1.2,1.22,1.85,1.85,.95,1.22,1.95,2.45,2.96,3.7,1,1.26,2,2.54,2.98,3.8,1.99,2.51,3.81,5.08,5.35,7.45,.63,.96,1.15,1.89,1.65,2.78,.49,.9,.97,1.76,1.45,2.63-.74,.62-1.44,1.2-2.13,1.79,.4,.72,.79,1.45,1.19,2.18,.39,.74,.77,1.48,1.17,2.22,.77,1.49,1.56,3.01,2.38,4.59-.72-.55-1.48-1.13-2.26-1.73,.22,.52,.43,1.03,.67,1.55,.24,.53,.51,1.07,.83,1.68,.65,1.21,1.58,2.62,3.11,4.49,.52,.62,1.01,1.27,1.5,1.93,.49,.66,.98,1.33,1.47,2.01,.98,1.36,1.97,2.74,2.94,4.16,.39,1.26,.76,2.47,1.12,3.64,.18,.58,.35,1.16,.52,1.73,.16,.58,.32,1.15,.47,1.71,.18,.67-.57-.18-1.18-.78-.3-.3-.58-.52-.67-.47-.1,.05,0,.39,.37,1.23,1.02,2.27,.09,2.29,1.11,4.74,.53,1.31-.59,.99-.98,1.42,.71,.97,1.32,1.74,1.9,2.39,.58,.65,1.12,1.2,1.65,1.76,.54,.56,1.07,1.14,1.62,1.85,.55,.71,1.11,1.58,1.72,2.69,.83,.67,1.84,2.11,2.84,3.6,.43,.66,.86,1.33,1.28,1.95-.03-.08-.06-.17-.09-.25-.27-.69-.54-1.39-.82-2.11-.33-.81-1.03-2.06-1.56-3.11-.53-1.05-1.06-2.11-1.58-3.14,.47,.5,.89,.77,1.37,1.49,7.52,11.1,13.93,21.02,19.49,28.25-.52-1.47-1.07-2.97-1.66-4.49-.29-.76-.6-1.53-.91-2.31-.31-.78-.64-1.57-1-2.36-.71-1.58-1.48-3.21-2.32-4.88-.42-.83-.86-1.69-1.32-2.54-.47-.85-.97-1.72-1.49-2.6-.55-1.57-1.28-3.21-2.11-4.9-.84-1.68-1.83-3.39-2.84-5.11-2-3.46-4.27-6.88-6.1-10.15-.87-2.35,.44-1.35,.81-1.79,.7,.91,1.46,1.78,2.08,2.75,.93,1.48,1.86,2.96,2.79,4.45,.91,1.5,1.8,3.01,2.69,4.52l1.34,2.27c.44,.76,.89,1.51,1.32,2.28,.86,1.53,1.72,3.06,2.58,4.59,1.32,2.29,2.56,4.85,3.83,7.18,.63,1.17,1.27,2.28,1.91,3.29,.63,1.01,1.26,1.92,1.9,2.66,1.07,2.16,2.13,4.31,3.15,6.3,1.02,1.99,2.05,3.8,3.13,5.23,.29,.39,.72,1.2,1.17,2.12,.45,.93,.92,1.97,1.34,2.81,.02-.17,.02-.36,.03-.54-.67-2.3-1.91-4.8-3.12-7.31-.6-1.25-1.2-2.5-1.74-3.72-.55-1.21-1.03-2.4-1.38-3.53,.82,1.13,1.64,2.26,2.46,3.39,.8,1.15,1.6,2.29,2.4,3.44-.26-.9-.59-1.82-.98-2.74-.19-.46-.4-.93-.61-1.4-.22-.46-.45-.93-.68-1.39-.93-1.86-1.92-3.72-2.73-5.52-.19-.43-.38-.86-.56-1.29-.18-.42-.36-.84-.54-1.25-.34-.82-.66-1.6-.93-2.32-.76-2.04-1.82-4.8-.71-3.7,1.1,1.08,2.8,3.55,4.25,5.53,.23,.29,.62,1.25,.95,1.85,.71,1.31,1.39,2.7,2.07,4.12,.67,1.42,1.36,2.85,2,4.27,1.3,2.83,2.65,5.49,4.12,7.52,1.15,2.57,2.28,5.14,3.41,7.71,1.08,2.59,2.17,5.18,3.24,7.75,.33,.78,.64,1.42,.94,2.02,.31,.59,.61,1.13,.92,1.7,.62,1.14,1.27,2.39,2,4.41,.16,.46,.31,.89,.45,1.29,.13,.4,.25,.78,.36,1.14,.22,.71,.38,1.34,.51,1.92,.24,1.16,.3,2.12,.19,3.2-.03,.22,.17,.97,.28,1.63,.71,1.35,1.37,2.71,2.05,4.06,.67,1.36,1.35,2.72,2.02,4.08,.13,.49,.26,.97,.4,1.43,.13,.47,.26,.93,.39,1.38,.27,.9,.55,1.77,.84,2.61,.58,1.69,1.19,3.28,1.8,4.89,.59,1.61,1.17,3.24,1.73,4.97,.55,1.73,1.09,3.57,1.5,5.62,.47,2.31,1.05,4.74,1.66,7.2,.57,2.47,1.16,4.97,1.68,7.42,.14,.64,.24,1.29,.35,1.95,.07,4.25-1.87-.31-1.92,3.5,.33,1.95,.61,3.92,.96,5.83,.32,1.92,.72,3.77,1.32,5.5,.28,.81,.53,1.7,.76,2.63,.23,.93,.39,1.91,.55,2.9,.3,1.97,.49,3.98,.56,5.75,.11,2.84,.22,5.84,.34,8.82,.07,1.49,.08,2.97,.11,4.43,.02,1.46,.03,2.89,.02,4.27,0,1.62,.02,2.59,.12,3.45,.1,.86,.25,1.63,.46,2.84,.15,.88,.27,1.77,.37,2.69,.1,.92,.18,1.85,.21,2.81,.07,1.91,.06,3.9-.03,5.98-.07,2.14-.18,3.77-.22,5.12-.04,1.35-.03,2.44,.04,3.51,.16,2.14,.53,4.22,1.22,8.31,.15-1.99,.22-4.04,.23-6.11-.01-2.07-.07-4.16-.14-6.26-.04-1.05-.06-2.1-.11-3.15-.05-1.05-.1-2.1-.14-3.14-.09-2.09-.13-4.17-.14-6.22,.26,.61,.57,1.03,.6,1.54,.14,2.48,.24,5.01,.34,7.51,.09,2.5,.14,4.97,.29,7.33,.19,2.56,.36,4.88,.54,7.32,.08,1.22,.15,2.48,.19,3.82,.03,1.34,0,2.76-.08,4.3Z"/></svg>