<?xml version="1.0" encoding="UTF-8"?><svg xmlns="http://www.w3.org/2000/svg" viewBox="0 0 8000 3500"><defs><style>.f{fill:#b4bcde;}.g{fill:#976c2f;opacity:.4;}.g,.h,.i{mix-blend-mode:multiply;}.j,.k{fill:#fff;}.l{fill:#fef0ec;}.m{fill:#e3bc80;}.n{fill:#00adea;}.o{fill:#cc6e81;}.p{fill:#f5e7d3;}.q{fill:#339d74;}.r{fill:#a57645;}.h{fill:#424654;}.h,.k{opacity:.5;}.s{fill:#d6c283;}.t{fill:#62677c;}.u{isolation:isolate;}.v{fill:#c4c9e5;}.w{fill:#404451;opacity:.2;}.x{fill:#683c11;}.y{fill:#a77734;}.a`{fill:#cc9f70;}.aa{fill:#f8beaf;}.ab{fill:#f6f09a;}.i{opacity:.3;}.ac{fill:#bf8850;}.ad{fill:#ead8c6;}.ae{fill:#747b93;}.af{fill:#a45968;}.ag{fill:#93692d;}.ah{fill:#8d96b3;}.ai{fill:#7d5b26;}.aj{fill:#ae7ab4;}.ak{fill:#7fba27;}.al{fill:#bf873c;}.am{fill:#cfd4eb;}</style></defs><g class="u"><g id="a"><rect class="aa" width="8000" height="3500"/></g><g id="b"><g><g><path class="j" d="M2918.76,3383.05c-24.06,0-47.3,1.68-69.26,4.78,12.34-16.3,19.5-35.66,19.5-56.42,0-58.06-55.92-105.12-124.89-105.12-11.03,0-21.72,1.21-31.91,3.47,20.49-39.48,31.91-83.38,31.91-129.63,0-172.43-158.7-312.21-354.46-312.21-171,0-313.72,106.66-347.09,248.58-33.64-38.16-84.82-62.53-142.15-62.53-27.98,0-54.48,5.81-78.21,16.19,.31-4.03,.47-8.09,.47-12.2,0-90.78-76.78-164.38-171.48-164.38-69.38,0-129.13,39.5-156.13,96.31-28.85-36.28-80.08-60.42-138.47-60.42-37.16,0-71.42,9.78-98.86,26.24,2.32-16.36,3.52-33.01,3.52-49.88,0-236.73-234.66-428.65-524.13-428.65-232.45,0-429.55,123.75-498.19,295.09-29.74-7.39-60.67-11.3-92.42-11.3-51.52,0-100.89,10.28-146.52,29.08v789.94H3162.86c0-64.59-109.28-116.95-244.09-116.95Z"/><path class="j" d="M5124.61,3500h2875.39v-935.32c-35.78-9.22-73.12-14.12-111.5-14.12-13.75,0-27.36,.64-40.81,1.86-42.81-311.66-316.16-552.01-646.99-552.01-266.63,0-495.92,156.12-597.29,379.87-51.76-22.9-109.25-35.65-169.8-35.65-226.89,0-410.82,179.03-410.82,399.87,0,32.1,3.89,63.31,11.23,93.21-20.17-4.73-41.28-7.25-63.02-7.25-96.67,0-180.89,49.66-224.97,123.12-55.65-40.14-125.55-64.06-201.47-64.06-179.04,0-324.64,132.93-328.61,298.31-16.36-2.68-33.13-4.08-50.21-4.08-48.67,0-94.8,11.3-136.15,31.5-98.8-90.13-273.19-149.99-471.85-149.99-295.5,0-537.32,132.44-556.5,299.94-33.76-8.22-69.3-12.62-105.99-12.62-133.48,0-251.68,58.11-324.34,147.42h1553.71Z"/></g><g><path class="l" d="M2557.56,1848.38c0-41.23-98.37-74.65-219.71-74.65-44.59,0-86.07,4.52-120.71,12.27-16-39.21-54.29-66.81-98.99-66.81-18.39,0-35.69,4.67-50.81,12.9-20.7-56.7-82.57-97.85-155.68-97.85-78.66,0-144.3,47.64-159.66,111.03-17.64-11.05-38.44-17.44-60.71-17.44-8.81,0-17.38,1-25.62,2.89-5.38-54.81-54.71-97.74-114.77-97.74-8.91,0-17.59,.95-25.92,2.74,5.01-16.4,7.7-33.7,7.7-51.56,0-105.51-93.45-191.04-208.72-191.04-106.42,0-194.23,72.89-207.09,167.1-13.19-4.95-27.37-7.65-42.13-7.65-66.73,0-121.5,54.96-127.22,125.03-.17,0-.34,0-.5,0-40.26,0-76.26,15.51-100.26,39.89-18.91-18.34-46.69-29.92-77.65-29.92-56.99,0-103.2,39.23-103.2,87.63,0,2.45,.12,4.88,.36,7.28-13.71-.98-27.93-1.5-42.52-1.5-111.54,0-201.95,30.18-201.95,67.42H2557.56Z"/><path class="l" d="M209.22,627.83c21.23,0,41.6,1.84,60.5,5.21,1.68-69.74,54.08-125.71,118.48-125.71,13.98,0,27.4,2.65,39.86,7.49,4.52-118.84,102.36-213.81,222.42-213.81s222.6,99.58,222.6,222.41c0,1.22-.03,2.44-.05,3.66,10.12-2.38,20.7-3.66,31.58-3.66,31.66,0,60.72,10.7,83.5,28.54,9.03-58.13,66.68-102.97,136.46-102.97,76.05,0,137.7,53.24,137.7,118.92,0,10.84-1.69,21.33-4.83,31.31,15.29-7.94,33.95-12.61,54.11-12.61,51.8,0,93.79,30.83,93.79,68.85,0,4.26-.53,8.43-1.54,12.47,29.73-7.83,66.82-12.47,107.05-12.47,97.78,0,177.04,27.44,177.04,61.29H30.24c0-49.11,80.13-88.93,178.98-88.93Z"/></g></g></g><g id="c"/><g id="d"/><g id="e"><g><g><g><g><g><path class="ae" d="M5705.38,910.33h-764.27s0,86.71,220.89,152.47l662.67-96.26-119.3-56.21Z"/><path class="t" d="M5014.43,910.33h-73.32s0,86.71,220.89,152.47l19.97-2.9c-111.37-53.46-152.42-112.97-167.54-149.57Z"/></g><path class="t" d="M6155.35,851.97c5.2-39.51-8.88-76.44-34.25-99.1h0l-.03-.02s-.06-.06-.09-.08l-361.51-328.29s-125.42,351.29,47.03,500.4c78.32,67.71,239.22,30.12,269.11,22.36,40.33-9.68,73.41-47.09,79.74-95.26Z"/></g><g><g><g><g><path class="o" d="M6303.18,826.29s313.89-10.98,364.03-57.04h-364.03v57.04Z"/><path class="af" d="M6625.94,788.56c18.83-5.62,33.35-12.03,41.27-19.31h-364.03v19.31h322.75Z"/></g><g><polygon class="ab" points="6451.84 864.3 6741.65 1103.81 6934.21 753.01 6775.39 600.86 6451.84 864.3"/><g><polygon class="s" points="6727.61 1092.21 6741.65 1103.81 6934.21 753.01 6923.84 743.08 6757.41 794.01 6727.61 1092.21"/><polygon class="ab" points="6741.65 1103.81 6934.21 753.01 6759.04 792.98 6741.65 1103.81"/></g><g><polygon class="s" points="6781.01 606.24 6775.39 600.86 6451.84 864.3 6468.28 877.88 6812.99 838.02 6781.01 606.24"/><polygon class="ab" points="6775.39 600.86 6451.84 864.3 6800.11 826.21 6775.39 600.86"/></g></g><path class="o" d="M6346.93,698.76s313.89,15.45,364.03,80.3h-364.03v-80.3Z"/></g><g><path class="m" d="M6585.52,721.76c-2.86,23.73-65.75,37.79-140.47,31.4-74.72-6.39-132.97-30.81-130.11-54.55,2.86-23.73,65.75-37.79,140.47-31.4,74.72,6.39,132.97,30.81,130.11,54.55Z"/><path class="p" d="M6455.42,667.22c-65.84-5.63-122.49,4.62-136.98,23.37,25.54-9.74,68.32-13.96,115.9-9.89,74.72,6.39,132.97,30.81,130.11,54.55-.34,2.82-1.54,5.5-3.49,8.03,14.56-5.55,23.52-12.89,24.56-21.51,2.86-23.73-55.39-48.15-130.11-54.55Z"/></g></g><g><path class="ah" d="M6498.7,713.94c0-93.16-92.66-168.69-206.97-168.69-70.57,0-132.88,28.79-170.24,72.74-.1,.12-.2,.23-.3,.34-58.63,68.28-43.06,96.64-154.6,96.64-.02,0-.05,0-.07,0-57.46-4.48-112.29,5.88-157.81,28.1h-.02l-278.8,115.75c-10.08,3.08-19.66,7.01-28.6,11.71h0l-92.2,39.79s.13,.42,.38,1.2c6.9,21.86,15.77,41.66,26.07,59.57,45.54,86.42,156.36,234.49,381.09,234.49,2.7,0,5.38-.02,8.05-.06h0c187.64,0,422.21-35.49,645.42-406h0c18.17-25.09,28.6-54.35,28.6-85.59Z"/><g><g><path class="aj" d="M6374.04,938.52l-190.95-132.04-109.33-124.89c-16.29,19.86-34.18,30.25-81.61,32.76,24.4,30.42,58.97,83.55,82.86,162.1,27.64,90.87,31.93,210.63,31.85,277.78,87.08-38.1,177.38-103.68,267.19-215.71Z"/><path class="q" d="M6339.83,844.82c-112.89,0-204.41-76.55-204.41-170.97,0-36.2,13.46-69.76,36.4-97.39-19.58,11.37-36.64,25.43-50.34,41.54-.1,.12-.2,.23-.3,.34-25.1,29.23-36.6,51.14-50.3,66.64,22.36,45.47,60.1,116.63,91.4,147.99,59.83,59.94,132.63,103.35,190.11,131.66,37.3-43.45,74.56-94.63,111.53-154.91-34.41,22.02-77.41,35.11-124.08,35.11Z"/></g><g><path class="f" d="M6481.94,715.47c0-49.56-53.16-89.74-118.74-89.74s-118.74,40.18-118.74,89.74,53.16,89.74,118.74,89.74,118.74-40.18,118.74-89.74Z"/><path class="t" d="M6412.67,724.86c-23.47,0-43.11-14.89-48.19-34.86-.83,3.02-1.29,6.16-1.29,9.39,0,22.94,22.15,41.54,49.47,41.54s49.47-18.6,49.47-41.54c0-3.23-.45-6.37-1.28-9.39-5.07,19.97-24.71,34.86-48.19,34.86Z"/></g></g><path class="w" d="M5822.53,1133.39h0c-2.95,.04-5.92,.06-8.91,.06-219.56,0-340.82-121.23-400.85-212.04,6.34,17.99,14.04,34.52,22.77,49.69,45.54,86.42,156.36,234.49,381.09,234.49,2.7,0,5.38-.02,8.05-.06h0c184.56,0,414.5-34.33,634.39-387.97-222.93,285.92-450.57,315.83-636.54,315.83Z"/></g></g><g><path class="w" d="M5917.68,1201.62l35.85-125.06-.16-.05c114.94-98.03,110.27-234.81,110.27-234.81l-27.96-20.47s4.97,145.31-121.18,243.73l-270.04-80.27c86.97-79.87,99.57-181.57,101.3-215.49l-31.75,13.18c-8.26,48.84-33.17,128.08-107.84,190.93l-15.76-4.69-57.42,130.22c63.13,57.93,154.61,106.75,283.65,106.75,2.7,0,5.38-.02,8.05-.06h0c29.89,0,60.97-.9,93-3.91Z"/><g><path class="ac" d="M6016.42,825.5s5.37,157.01-136.74,255.15l27.96,20.47c142.11-98.14,136.74-255.15,136.74-255.15l-27.96-20.47Z"/><path class="ac" d="M5698.77,741.39s5.37,157.01-136.74,255.15l27.96,20.47c142.11-98.14,136.74-255.15,136.74-255.15l-27.96-20.47Z"/><g><polygon class="r" points="5808.56 1384.21 5852.36 1366.56 5934.27 1080.83 5571.14 972.88 5808.56 1384.21"/><polygon class="ac" points="5571.14 972.88 5924.24 1092.67 5808.56 1384.21 5462.71 1218.77 5571.14 972.88"/><polygon class="a`" points="5934.27 1080.83 5836.97 1195.67 5554.32 1075.26 5571.14 972.88 5934.27 1080.83"/><path class="ad" d="M5584.26,1111.09c-2.31,5.78-8.99,8.63-14.91,6.37h0c-5.92-2.26-8.84-8.77-6.53-14.54l18.22-45.46c2.31-5.77,8.99-8.63,14.91-6.37h0c5.92,2.26,8.85,8.77,6.53,14.54l-18.22,45.46Z"/><path class="ad" d="M5818.69,1205.36c-2.31,5.78-8.99,8.63-14.91,6.37h0c-5.92-2.26-8.85-8.77-6.53-14.54l18.22-45.46c2.31-5.78,8.99-8.63,14.91-6.37h0c5.92,2.25,8.84,8.77,6.53,14.54l-18.22,45.47Z"/></g></g></g><g><path class="f" d="M6090.07,836.07c5.2-39.51-20.21-77.86-62.57-102.64h0l-.05-.02c-.05-.03-.1-.06-.15-.09l-603.83-358.62s-172.85,345.36,114.61,508.86c130.54,74.25,384.84,48.35,432,42.75,63.72-6.75,113.65-42.06,119.99-90.23Z"/><g><path class="v" d="M6070.83,770.86c-10.79-14.25-25.56-27.04-43.33-37.43l-.05-.02c-.05-.03-.1-.06-.15-.09l-120.49-71.56,164.02,109.11Z"/><path class="am" d="M5489.23,413.75l-65.76-39.06s-152.76,305.24,67.81,477.64c-92.89-161.02-28.11-369.41-2.05-438.59Z"/></g><path class="ae" d="M6027.5,733.43l-.05-.02c-.05-.03-.1-.06-.15-.09l-603.83-358.62s-2.8,5.6-7.09,15.69l510.72,380.44s.09,.07,.15,.11l.04,.03c39.75,29.19,61.23,71.12,52.07,111.76-3.93,17.44-13.09,32.78-26.09,45.42,7.03-.72,12.71-1.36,16.82-1.85,63.72-6.75,113.65-42.06,119.99-90.23,5.2-39.51-20.21-77.86-62.57-102.64Z"/></g><g><g class="i"><g><path class="h" d="M6110.74,701.76c-10.02,70.58,8.18,127.25,37.99,182.25,4.37,8.05,18.64,9.93,34.23,7.58-15.92-15.76-48.66-65.32-50.72-207.33l-40.38-27.61c-4.65,6.66-8.78,12.7-12.83,18.15,.1,.07,.19,.15,.29,.22,.01,0,.02,.02,.03,.03,1.42,1.05,2.85,2.09,4.27,3.11,.33,.24,.67,.48,1,.71,1.42,1,2.84,2,4.27,2.97h.01c7.48,5.1,15.08,9.75,22.71,14.01h0c-.32,1.99-.62,3.96-.89,5.92Z"/><path class="h" d="M6476.9,638.54c-3.37-5.49-7.1-10.82-11.16-15.95-34.73,15.34-100.18,37.47-200.6,45.29,0,0-12.38,30.7,13.2,48.22,2.61-6.34,4.9-11.59,6.23-13.99,8.32-15,14.5-18.67,30.23-21.18,90.99-14.49,143.15-34.2,162.11-42.38Z"/></g></g><g><g><path class="ag" d="M6277.51,723.99s-28.48,30.72-40.72,137.1c-2.99,26.02-70.53,42.29-80.37,22.27-28.07-57.08-44.47-115.7-31.79-188.81,1.83-10.53,14.8-70.14,72.75-68.83,57.95,1.31,80.13,98.27,80.13,98.27Z"/><path class="ai" d="M6197.38,625.72c-57.95-1.31-70.92,58.29-72.75,68.83-.68,3.89-1.25,7.74-1.76,11.55,53.17,33.07,108.99,43.87,134.85,46.56,1.25,.13,2.57,.22,3.91,.25,8.7-21.17,15.88-28.92,15.88-28.92,0,0-22.17-96.95-80.13-98.27Z"/></g><g><path class="y" d="M6085.57,665.68s49.79-158.71,207.66-158.71c125.76,0,178.71,123.97,178.71,123.97,0,0-33.09,22.82-145.26,38.64-15,2.12-20.97,5.63-29.24,20.42-3.07,5.49-11.39,26.17-16.98,40.25-3.9,9.83-14.69,10.61-22.75,9.77-32.05-3.34-110.14-19.12-172.15-74.34Z"/><path class="al" d="M6310.36,523.26c50.93,0,89.91,20.33,118.28,44.53-28.99-30.6-73.32-60.82-135.41-60.82-157.87,0-207.66,158.71-207.66,158.71,5.79,5.16,11.72,9.97,17.74,14.46,6.12-17.63,59.17-156.88,207.04-156.88Z"/></g><g><path class="x" d="M6334.8,581.56c-124.59,33-221.25,27.71-221.25,27.71,0,0-26.6,3.92-19.84,36.1,0,0,130.56,27.81,275.2-20.92,0,0,11.84-17.19,4.42-29.44-7.42-12.24-18.12-18.86-38.54-13.45Z"/><path class="g" d="M6367.87,523.26c-38.25,6.07-66.86,30.45-66.86,59.61,0,33.72,38.27,61.06,85.47,61.06,32.59,0,60.91-13.03,75.33-32.19-14.45-24.28-44.82-65.66-93.93-88.48Z"/><g><path class="x" d="M6471.94,576.45c0-31.4-36.65-56.85-81.85-56.85s-81.85,25.45-81.85,56.85,36.65,56.85,81.85,56.85,81.85-25.45,81.85-56.85Z"/><g><path class="n" d="M6451.84,576.45c0-23.69-27.65-42.89-61.75-42.89s-61.75,19.2-61.75,42.89,27.65,42.89,61.75,42.89,61.75-19.2,61.75-42.89Z"/><path class="k" d="M6412.36,536.45l-75.24,62.06c1.74,2.01,3.72,3.92,5.9,5.7l77.3-65.14c-2.55-1-5.21-1.87-7.97-2.61Z"/><path class="k" d="M6370.97,617.23l72.5-62.33c-4.2-5-9.79-9.36-16.43-12.81l-77.72,66.56c6.23,3.81,13.57,6.76,21.65,8.58Z"/></g></g></g></g></g></g><g><g><path class="t" d="M4980.64,924.82c0,8-6.65,14.49-14.85,14.49h-123.92c-8.2,0-14.85-6.49-14.85-14.49h0c0-8,6.65-14.49,14.85-14.49h123.92c8.2,0,14.85,6.49,14.85,14.49h0Z"/><path class="t" d="M4697.3,924.82c0,8,6.65,14.49,14.85,14.49h63.57c8.2,0,14.85-6.49,14.85-14.49h0c0-8-6.65-14.49-14.85-14.49h-63.57c-8.2,0-14.85,6.49-14.85,14.49h0Z"/></g><g><path class="ae" d="M4932.49,1019.98c0,8,6.65,14.49,14.85,14.49h199.11c8.2,0,14.85-6.49,14.85-14.49h0c0-8-6.65-14.49-14.85-14.49h-199.11c-8.2,0-14.85,6.49-14.85,14.49h0Z"/><path class="ae" d="M4492.69,1019.98c0,8,6.65,14.49,14.85,14.49h220.27c8.2,0,14.85-6.49,14.85-14.49h0c0-8-6.65-14.49-14.85-14.49h-220.27c-8.2,0-14.85,6.49-14.85,14.49h0Z"/><path class="ae" d="M4893.1,1019.98c0,8-6.65,14.49-14.85,14.49h-83.39c-8.2,0-14.85-6.49-14.85-14.49h0c0-8,6.65-14.49,14.85-14.49h83.39c8.2,0,14.85,6.49,14.85,14.49h0Z"/></g><g><path class="ac" d="M5228.22,1212.21c0,8,6.65,14.49,14.85,14.49h277.56c8.2,0,14.85-6.49,14.85-14.49h0c0-8-6.65-14.49-14.85-14.49h-277.56c-8.2,0-14.85,6.49-14.85,14.49h0Z"/><path class="ac" d="M5057.84,1212.21c0,8,6.65,14.49,14.85,14.49h80.83c8.2,0,14.85-6.49,14.85-14.49h0c0-8-6.65-14.49-14.85-14.49h-80.83c-8.2,0-14.85,6.49-14.85,14.49h0Z"/></g><g><path class="r" d="M5854.3,1327.75c0,8-6.65,14.49-14.85,14.49h-216.25c-8.2,0-14.86-6.49-14.86-14.49h0c0-8,6.65-14.49,14.86-14.49h216.25c8.2,0,14.85,6.49,14.85,14.49h0Z"/><path class="r" d="M5243.6,1327.75c0,8,6.65,14.49,14.85,14.49h134.9c8.2,0,14.85-6.49,14.85-14.49h0c0-8-6.65-14.49-14.85-14.49h-134.9c-8.2,0-14.85,6.49-14.85,14.49h0Z"/><path class="r" d="M5566.34,1327.75c0,8-6.65,14.49-14.85,14.49h-83.77c-8.2,0-14.86-6.49-14.86-14.49h0c0-8,6.65-14.49,14.86-14.49h83.77c8.2,0,14.85,6.49,14.85,14.49h0Z"/></g><g><path class="am" d="M5435.84,438.96c0,8-6.65,14.49-14.85,14.49h-84.97c-8.2,0-14.86-6.49-14.86-14.49h0c0-8,6.65-14.49,14.86-14.49h84.97c8.2,0,14.85,6.49,14.85,14.49h0Z"/><path class="am" d="M5129.09,438.96c0,8,6.65,14.49,14.85,14.49h113.55c8.2,0,14.85-6.49,14.85-14.49h0c0-8-6.65-14.49-14.85-14.49h-113.55c-8.2,0-14.85,6.49-14.85,14.49h0Z"/><path class="am" d="M4878.5,438.96c0,8,6.65,14.49,14.85,14.49h183.87c8.2,0,14.85-6.49,14.85-14.49h0c0-8-6.65-14.49-14.85-14.49h-183.87c-8.2,0-14.85,6.49-14.85,14.49h0Z"/></g><g><path class="f" d="M5465.2,608.04c0,8-6.65,14.49-14.85,14.49h-117.98c-8.2,0-14.85-6.49-14.85-14.49h0c0-8,6.65-14.49,14.85-14.49h117.98c8.2,0,14.85,6.49,14.85,14.49h0Z"/><path class="f" d="M5085.03,608.04c0,8,6.65,14.49,14.85,14.49h163.86c8.2,0,14.85-6.49,14.85-14.49h0c0-8-6.65-14.49-14.85-14.49h-163.86c-8.2,0-14.85,6.49-14.85,14.49h0Z"/><path class="f" d="M4931.77,608.04c0,8,6.65,14.49,14.86,14.49h77.33c8.2,0,14.85-6.49,14.85-14.49h0c0-8-6.65-14.49-14.85-14.49h-77.33c-8.2,0-14.86,6.49-14.86,14.49h0Z"/></g><g><path class="ae" d="M5951.81,759c0,8-6.65,14.49-14.85,14.49h-216.25c-8.2,0-14.85-6.49-14.85-14.49h0c0-8,6.65-14.49,14.85-14.49h216.25c8.2,0,14.85,6.49,14.85,14.49h0Z"/><path class="ae" d="M5668.88,759c0,8-6.65,14.49-14.85,14.49h-216.25c-8.2,0-14.85-6.49-14.85-14.49h0c0-8,6.65-14.49,14.85-14.49h216.25c8.2,0,14.85,6.49,14.85,14.49h0Z"/><path class="ae" d="M5254.74,759c0,8,6.65,14.49,14.85,14.49h98.54c8.2,0,14.85-6.49,14.85-14.49h0c0-8-6.65-14.49-14.85-14.49h-98.54c-8.2,0-14.85,6.49-14.85,14.49h0Z"/></g></g></g><g><g><path class="j" d="M6865.73,608.16c0-54.79-45.54-99.21-101.72-99.21s-101.71,44.42-101.71,99.21,45.54,99.21,101.71,99.21,101.72-44.42,101.72-99.21Z"/><path class="ak" d="M6849.58,608.16c0-46.09-38.31-83.46-85.57-83.46s-85.57,37.37-85.57,83.46,38.31,83.46,85.57,83.46,85.57-37.37,85.57-83.46Z"/></g><path class="j" d="M6720.61,636.79l24.65-2.49c.7,5.44,2.79,9.75,6.25,12.92,3.46,3.18,7.45,4.77,11.97,4.77,5.16,0,9.54-2.05,13.12-6.14,3.58-4.09,5.37-10.26,5.37-18.5,0-7.73-1.77-13.52-5.33-17.39-3.55-3.86-8.17-5.8-13.87-5.8-7.1,0-13.47,3.06-19.1,9.19l-20.07-2.83,12.68-65.52h65.41v22.58h-46.66l-3.87,21.38c5.52-2.69,11.15-4.04,16.9-4.04,10.97,0,20.28,3.89,27.91,11.68,7.63,7.79,11.44,17.89,11.44,30.31,0,10.36-3.08,19.61-9.24,27.73-8.39,11.11-20.04,16.66-34.95,16.66-11.92,0-21.63-3.12-29.14-9.36-7.51-6.24-12.01-14.62-13.47-25.16Z"/></g></g></g></g></svg>