<?xml version="1.0" encoding="UTF-8"?><svg xmlns="http://www.w3.org/2000/svg" viewBox="0 0 301.63 150.32"><defs><style>.b{fill:#b4bcde;}.c{fill:#976c2f;opacity:.4;}.c,.d,.e{mix-blend-mode:multiply;}.f{fill:#e3bc80;}.g{fill:#00adea;}.h{fill:#cc6e81;}.i{fill:#f5e7d3;}.j{fill:#339d74;}.k{fill:#a57645;}.d{fill:#424654;}.d,.l{opacity:.5;}.m{fill:#d6c283;}.n{fill:#62677c;}.o{isolation:isolate;}.l{fill:#fff;}.p{fill:#c4c9e5;}.q{fill:#404451;opacity:.2;}.r{fill:#a77734;}.s{fill:#cc9f70;}.t{fill:#683b11;}.u{fill:#f6f09a;}.e{opacity:.3;}.v{fill:#bf8850;}.w{fill:#ead8c6;}.x{fill:#747b93;}.y{fill:#a45968;}.a`{fill:#93692d;}.aa{fill:#8d96b3;}.ab{fill:#7d5b26;}.ac{fill:#ae7ab4;}.ad{fill:#bf873c;}.ae{fill:#cfd4eb;}</style></defs><g class="o"><g id="a"><g><g><g><g><path class="x" d="M149.82,79.76H55.4s0,12.91,27.29,22.7l81.87-14.33-14.74-8.37Z"/><path class="n" d="M64.46,79.76h-9.06s0,12.91,27.29,22.7l2.47-.43c-13.76-7.96-18.83-16.82-20.7-22.27Z"/></g><path class="n" d="M205.41,71.07c.64-5.88-1.1-11.38-4.23-14.76h0v-.02L156.5,7.41s-15.5,52.31,5.81,74.51c9.68,10.08,29.55,4.49,33.25,3.33,4.98-1.44,9.07-7.01,9.85-14.19Z"/></g><g><g><g><g><path class="h" d="M223.67,67.24s38.78-1.63,44.97-8.49h-44.97v8.49Z"/><path class="y" d="M263.55,61.63c2.33-.84,4.12-1.79,5.1-2.88h-44.97v2.88h39.87Z"/></g><g><polygon class="u" points="242.04 72.91 277.84 108.57 301.63 56.33 282.01 33.68 242.04 72.91"/><g><polygon class="m" points="276.11 106.84 277.84 108.57 301.63 56.33 300.35 54.86 279.79 62.44 276.11 106.84"/><polygon class="u" points="277.84 108.57 301.63 56.33 279.99 62.29 277.84 108.57"/></g><g><polygon class="m" points="282.7 34.48 282.01 33.68 242.04 72.91 244.07 74.93 286.65 68.99 282.7 34.48"/><polygon class="u" points="282.01 33.68 242.04 72.91 285.06 67.23 282.01 33.68"/></g></g><path class="h" d="M229.08,48.26s38.78,2.3,44.97,11.96h-44.97v-11.96Z"/></g><g><path class="f" d="M258.55,51.68c-.35,3.53-8.12,5.63-17.35,4.68-9.23-.95-16.43-4.59-16.07-8.12,.35-3.53,8.12-5.63,17.35-4.68,9.23,.95,16.43,4.59,16.07,8.12Z"/><path class="i" d="M242.48,43.56c-8.13-.84-15.13,.69-16.92,3.48,3.16-1.45,8.44-2.08,14.32-1.47,9.23,.95,16.43,4.59,16.07,8.12-.04,.42-.19,.82-.43,1.2,1.8-.83,2.91-1.92,3.03-3.2,.35-3.53-6.84-7.17-16.07-8.12Z"/></g></g><g><path class="aa" d="M247.83,50.52c0-13.87-11.45-25.12-25.57-25.12-8.72,0-16.42,4.29-21.03,10.83-.01,.02-.03,.03-.04,.05-7.24,10.17-5.32,14.39-19.1,14.39h0c-7.1-.67-13.87,.88-19.5,4.18h0l-34.44,17.24c-1.24,.46-2.43,1.04-3.53,1.74h0l-11.39,5.93s.02,.06,.05,.18c.85,3.25,1.95,6.2,3.22,8.87,5.63,12.87,19.32,34.92,47.08,34.92,.33,0,.66,0,.99,0h0c23.18,0,52.16-5.28,79.74-60.45h0c2.24-3.74,3.53-8.09,3.53-12.75Z"/><g><g><path class="ac" d="M232.43,83.96l-23.59-19.66-13.51-18.6c-2.01,2.96-4.22,4.5-10.08,4.88,3.01,4.53,7.29,12.44,10.24,24.14,3.42,13.53,3.94,31.36,3.93,41.36,10.76-5.67,21.91-15.44,33.01-32.12Z"/><path class="j" d="M228.2,70c-13.95,0-25.25-11.4-25.25-25.46,0-5.39,1.66-10.39,4.5-14.5-2.42,1.69-4.53,3.79-6.22,6.19-.01,.02-.03,.03-.04,.05-3.1,4.35-4.52,7.61-6.21,9.92,2.76,6.77,7.42,17.37,11.29,22.04,7.39,8.92,16.39,15.39,23.49,19.6,4.61-6.47,9.21-14.09,13.78-23.07-4.25,3.28-9.56,5.23-15.33,5.23Z"/></g><g><path class="b" d="M245.76,50.74c0-7.38-6.57-13.36-14.67-13.36s-14.67,5.98-14.67,13.36,6.57,13.36,14.67,13.36,14.67-5.98,14.67-13.36Z"/><path class="n" d="M237.2,52.14c-2.9,0-5.33-2.22-5.95-5.19-.1,.45-.16,.92-.16,1.4,0,3.42,2.74,6.19,6.11,6.19s6.11-2.77,6.11-6.19c0-.48-.06-.95-.16-1.4-.63,2.97-3.05,5.19-5.95,5.19Z"/></g></g><path class="q" d="M164.29,112.97h0c-.36,0-.73,0-1.1,0-27.12,0-42.11-18.05-49.52-31.57,.78,2.68,1.73,5.14,2.81,7.4,5.63,12.87,19.32,34.92,47.08,34.92,.33,0,.66,0,.99,0h0c22.8,0,51.21-5.11,78.37-57.77-27.54,42.57-55.66,47.03-78.64,47.03Z"/></g></g><g><path class="q" d="M176.05,123.13l4.43-18.62h-.02c14.2-14.6,13.62-34.97,13.62-34.97l-3.45-3.05s.61,21.64-14.97,36.29l-33.36-11.95c10.74-11.89,12.3-27.04,12.51-32.09l-3.92,1.96c-1.02,7.27-4.1,19.07-13.32,28.43l-1.95-.7-7.09,19.39c7.8,8.63,19.1,15.9,35.04,15.9,.33,0,.66,0,.99,0h0c3.69,0,7.53-.13,11.49-.58Z"/><g><path class="v" d="M188.24,67.13s.66,23.38-16.89,37.99l3.45,3.05c17.56-14.61,16.89-37.99,16.89-37.99l-3.45-3.05Z"/><path class="v" d="M149,54.6s.66,23.38-16.89,37.99l3.45,3.05c17.56-14.61,16.89-37.99,16.89-37.99l-3.45-3.05Z"/><g><polygon class="k" points="162.56 150.32 167.98 147.69 178.1 105.15 133.23 89.07 162.56 150.32"/><polygon class="v" points="133.23 89.07 176.86 106.91 162.56 150.32 119.84 125.69 133.23 89.07"/><polygon class="s" points="178.1 105.15 166.08 122.25 131.16 104.32 133.23 89.07 178.1 105.15"/><path class="w" d="M134.86,109.65c-.29,.86-1.11,1.28-1.84,.95h0c-.73-.34-1.09-1.31-.81-2.17l2.25-6.77c.29-.86,1.11-1.28,1.84-.95h0c.73,.34,1.09,1.31,.81,2.17l-2.25,6.77Z"/><path class="w" d="M163.82,123.69c-.29,.86-1.11,1.28-1.84,.95h0c-.73-.34-1.09-1.31-.81-2.17l2.25-6.77c.29-.86,1.11-1.28,1.84-.95h0c.73,.34,1.09,1.31,.81,2.17l-2.25,6.77Z"/></g></g></g><g><path class="b" d="M197.34,68.7c.64-5.88-2.5-11.59-7.73-15.28h0l-.02-.02L114.99,0s-21.35,51.43,14.16,75.77c16.13,11.06,47.54,7.2,53.37,6.37,7.87-1.01,14.04-6.26,14.82-13.44Z"/><g><path class="p" d="M194.97,58.99c-1.33-2.12-3.16-4.03-5.35-5.57h0l-.02-.02-14.89-10.66,20.26,16.25Z"/><path class="ae" d="M123.11,5.82L114.99,0s-18.87,45.45,8.38,71.12c-11.48-23.98-3.47-55.01-.25-65.31Z"/></g><path class="x" d="M189.61,53.42h0l-.02-.02L114.99,0s-.35,.83-.88,2.34l63.1,56.65,.02,.02h0c4.91,4.35,7.56,10.59,6.43,16.65-.49,2.6-1.62,4.88-3.22,6.76,.87-.11,1.57-.2,2.08-.27,7.87-1.01,14.04-6.26,14.82-13.44,.64-5.88-2.5-11.59-7.73-15.28Z"/></g><g><g class="e"><g><path class="d" d="M199.9,48.7c-1.24,10.51,1.01,18.95,4.69,27.14,.54,1.2,2.3,1.48,4.23,1.13-1.97-2.35-6.01-9.73-6.27-30.87l-4.99-4.11c-.57,.99-1.09,1.89-1.58,2.7l.04,.03h0c.18,.16,.35,.31,.53,.47l.12,.11c.18,.15,.35,.3,.53,.44h0c.92,.76,1.86,1.45,2.81,2.09h0c-.04,.3-.08,.59-.11,.88Z"/><path class="d" d="M245.13,39.29c-.42-.82-.88-1.61-1.38-2.37-4.29,2.28-12.38,5.58-24.78,6.74,0,0-1.53,4.57,1.63,7.18,.32-.94,.6-1.73,.77-2.08,1.03-2.23,1.79-2.78,3.73-3.15,11.24-2.16,17.69-5.09,20.03-6.31Z"/></g></g><g><g><path class="a`" d="M220.5,52.01s-3.52,4.57-5.03,20.41c-.37,3.88-8.71,6.3-9.93,3.32-3.47-8.5-5.49-17.23-3.93-28.12,.23-1.57,1.83-10.44,8.99-10.25,7.16,.2,9.9,14.63,9.9,14.63Z"/><path class="ab" d="M210.6,37.38c-7.16-.2-8.76,8.68-8.99,10.25-.08,.58-.15,1.15-.22,1.72,6.57,4.92,13.47,6.53,16.66,6.93,.15,.02,.32,.03,.48,.04,1.07-3.15,1.96-4.31,1.96-4.31,0,0-2.74-14.44-9.9-14.63Z"/></g><g><path class="r" d="M196.79,43.33s6.15-23.63,25.65-23.63c15.54,0,22.08,18.46,22.08,18.46,0,0-4.09,3.4-17.95,5.75-1.85,.32-2.59,.84-3.61,3.04-.38,.82-1.41,3.9-2.1,5.99-.48,1.46-1.81,1.58-2.81,1.45-3.96-.5-13.61-2.85-21.27-11.07Z"/><path class="ad" d="M224.56,22.12c6.29,0,11.11,3.03,14.61,6.63-3.58-4.56-9.06-9.06-16.73-9.06-19.5,0-25.65,23.63-25.65,23.63,.72,.77,1.45,1.48,2.19,2.15,.76-2.63,7.31-23.36,25.58-23.36Z"/></g><g><path class="t" d="M227.58,30.8c-15.39,4.91-27.33,4.13-27.33,4.13,0,0-3.29,.58-2.45,5.38,0,0,16.13,4.14,34-3.11,0,0,1.46-2.56,.55-4.38-.92-1.82-2.24-2.81-4.76-2Z"/><path class="c" d="M231.66,22.12c-4.73,.9-8.26,4.53-8.26,8.88,0,5.02,4.73,9.09,10.56,9.09,4.03,0,7.52-1.94,9.31-4.79-1.79-3.62-5.54-9.78-11.6-13.17Z"/><g><ellipse class="t" cx="234.41" cy="30.04" rx="10.11" ry="8.46"/><g><path class="g" d="M242.04,30.04c0-3.53-3.42-6.39-7.63-6.39s-7.63,2.86-7.63,6.39,3.42,6.39,7.63,6.39,7.63-2.86,7.63-6.39Z"/><path class="l" d="M237.16,24.09l-9.29,9.24c.22,.3,.46,.58,.73,.85l9.55-9.7c-.31-.15-.64-.28-.98-.39Z"/><path class="l" d="M232.05,36.12l8.96-9.28c-.52-.74-1.21-1.39-2.03-1.91l-9.6,9.91c.77,.57,1.68,1.01,2.67,1.28Z"/></g></g></g></g></g></g><g><g><path class="n" d="M60.28,81.92c0,1.19-.82,2.16-1.84,2.16h-15.31c-1.01,0-1.84-.97-1.84-2.16h0c0-1.19,.82-2.16,1.84-2.16h15.31c1.01,0,1.84,.97,1.84,2.16h0Z"/><path class="n" d="M25.28,81.92c0,1.19,.82,2.16,1.84,2.16h7.85c1.01,0,1.84-.97,1.84-2.16h0c0-1.19-.82-2.16-1.84-2.16h-7.85c-1.01,0-1.84,.97-1.84,2.16h0Z"/></g><g><path class="x" d="M54.33,96.09c0,1.19,.82,2.16,1.84,2.16h24.6c1.01,0,1.84-.97,1.84-2.16h0c0-1.19-.82-2.16-1.84-2.16h-24.6c-1.01,0-1.84,.97-1.84,2.16h0Z"/><path class="x" d="M0,96.09c0,1.19,.82,2.16,1.84,2.16H29.05c1.01,0,1.84-.97,1.84-2.16h0c0-1.19-.82-2.16-1.84-2.16H1.84c-1.01,0-1.84,.97-1.84,2.16H0Z"/><path class="x" d="M49.47,96.09c0,1.19-.82,2.16-1.84,2.16h-10.3c-1.01,0-1.84-.97-1.84-2.16h0c0-1.19,.82-2.16,1.84-2.16h10.3c1.01,0,1.84,.97,1.84,2.16h0Z"/></g><g><path class="v" d="M90.87,124.71c0,1.19,.82,2.16,1.84,2.16h34.29c1.01,0,1.84-.97,1.84-2.16h0c0-1.19-.82-2.16-1.84-2.16h-34.29c-1.01,0-1.84,.97-1.84,2.16h0Z"/><path class="v" d="M69.82,124.71c0,1.19,.82,2.16,1.84,2.16h9.99c1.01,0,1.84-.97,1.84-2.16h0c0-1.19-.82-2.16-1.84-2.16h-9.99c-1.01,0-1.84,.97-1.84,2.16h0Z"/></g><g><path class="k" d="M168.22,141.91c0,1.19-.82,2.16-1.84,2.16h-26.72c-1.01,0-1.84-.97-1.84-2.16h0c0-1.19,.82-2.16,1.84-2.16h26.72c1.01,0,1.84,.97,1.84,2.16h0Z"/><path class="k" d="M92.77,141.91c0,1.19,.82,2.16,1.84,2.16h16.67c1.01,0,1.84-.97,1.84-2.16h0c0-1.19-.82-2.16-1.84-2.16h-16.67c-1.01,0-1.84,.97-1.84,2.16h0Z"/><path class="k" d="M132.64,141.91c0,1.19-.82,2.16-1.84,2.16h-10.35c-1.01,0-1.84-.97-1.84-2.16h0c0-1.19,.82-2.16,1.84-2.16h10.35c1.01,0,1.84,.97,1.84,2.16h0Z"/></g><g><path class="ae" d="M116.52,9.57c0,1.19-.82,2.16-1.84,2.16h-10.5c-1.01,0-1.84-.97-1.84-2.16h0c0-1.19,.82-2.16,1.84-2.16h10.5c1.01,0,1.84,.97,1.84,2.16h0Z"/><path class="ae" d="M78.62,9.57c0,1.19,.82,2.16,1.84,2.16h14.03c1.01,0,1.84-.97,1.84-2.16h0c0-1.19-.82-2.16-1.84-2.16h-14.03c-1.01,0-1.84,.97-1.84,2.16h0Z"/><path class="ae" d="M47.66,9.57c0,1.19,.82,2.16,1.84,2.16h22.72c1.01,0,1.84-.97,1.84-2.16h0c0-1.19-.82-2.16-1.84-2.16h-22.72c-1.01,0-1.84,.97-1.84,2.16h0Z"/></g><g><path class="b" d="M120.15,34.75c0,1.19-.82,2.16-1.84,2.16h-14.58c-1.01,0-1.84-.97-1.84-2.16h0c0-1.19,.82-2.16,1.84-2.16h14.58c1.01,0,1.84,.97,1.84,2.16h0Z"/><path class="b" d="M73.18,34.75c0,1.19,.82,2.16,1.84,2.16h20.24c1.01,0,1.84-.97,1.84-2.16h0c0-1.19-.82-2.16-1.84-2.16h-20.24c-1.01,0-1.84,.97-1.84,2.16h0Z"/><path class="b" d="M54.24,34.75c0,1.19,.82,2.16,1.84,2.16h9.55c1.01,0,1.84-.97,1.84-2.16h0c0-1.19-.82-2.16-1.84-2.16h-9.55c-1.01,0-1.84,.97-1.84,2.16h0Z"/></g><g><path class="x" d="M180.26,57.23c0,1.19-.82,2.16-1.84,2.16h-26.72c-1.01,0-1.84-.97-1.84-2.16h0c0-1.19,.82-2.16,1.84-2.16h26.72c1.01,0,1.84,.97,1.84,2.16h0Z"/><path class="x" d="M145.31,57.23c0,1.19-.82,2.16-1.84,2.16h-26.72c-1.01,0-1.84-.97-1.84-2.16h0c0-1.19,.82-2.16,1.84-2.16h26.72c1.01,0,1.84,.97,1.84,2.16h0Z"/><path class="x" d="M94.14,57.23c0,1.19,.82,2.16,1.84,2.16h12.17c1.01,0,1.84-.97,1.84-2.16h0c0-1.19-.82-2.16-1.84-2.16h-12.17c-1.01,0-1.84,.97-1.84,2.16h0Z"/></g></g></g></g></g></svg>