<?xml version="1.0" encoding="UTF-8"?><svg id="a" xmlns="http://www.w3.org/2000/svg" viewBox="0 0 1015.46 1015.46"><path d="M952.23,10.84c14.49-14.46,37.93-14.46,52.38,0,14.46,14.46,14.46,37.9,0,52.36l-444.5,444.53,444.5,444.5c14.46,14.49,14.46,37.93,0,52.38-14.46,14.46-37.9,14.46-52.38,0l-444.5-444.5L63.2,1004.61c-14.46,14.46-37.9,14.46-52.36,0-14.46-14.46-14.46-37.9,0-52.38L455.34,507.73,10.84,63.2C-3.61,48.74-3.61,25.3,10.84,10.84c14.46-14.46,37.9-14.46,52.36,0L507.73,455.34,952.23,10.84Z"/></svg>